G04 #@! TF.GenerationSoftware,KiCad,Pcbnew,5.1.6-c6e7f7d~86~ubuntu18.04.1*
G04 #@! TF.CreationDate,2020-07-16T01:51:11+09:00*
G04 #@! TF.ProjectId,WioTerminal_BatteryChassisAAA,57696f54-6572-46d6-996e-616c5f426174,rev?*
G04 #@! TF.SameCoordinates,PX206cc80PYfe6f74f0*
G04 #@! TF.FileFunction,Paste,Bot*
G04 #@! TF.FilePolarity,Positive*
%FSLAX46Y46*%
G04 Gerber Fmt 4.6, Leading zero omitted, Abs format (unit mm)*
G04 Created by KiCad (PCBNEW 5.1.6-c6e7f7d~86~ubuntu18.04.1) date 2020-07-16 01:51:11*
%MOMM*%
%LPD*%
G01*
G04 APERTURE LIST*
%ADD10C,2.050000*%
%ADD11R,1.600000X1.000000*%
%ADD12R,1.000000X3.400000*%
%ADD13R,1.500000X3.600000*%
G04 APERTURE END LIST*
D10*
X-30500000Y22750000D03*
X-30500000Y-22750000D03*
X30500000Y-22750000D03*
X30500000Y22750000D03*
D11*
X-28800000Y9500000D03*
X-28800000Y12000000D03*
X-28800000Y14500000D03*
X-31200000Y14500000D03*
X-31200000Y9500000D03*
X-31200000Y12000000D03*
G36*
G01*
X-5350000Y13256250D02*
X-5350000Y12743750D01*
G75*
G02*
X-5568750Y12525000I-218750J0D01*
G01*
X-6006250Y12525000D01*
G75*
G02*
X-6225000Y12743750I0J218750D01*
G01*
X-6225000Y13256250D01*
G75*
G02*
X-6006250Y13475000I218750J0D01*
G01*
X-5568750Y13475000D01*
G75*
G02*
X-5350000Y13256250I0J-218750D01*
G01*
G37*
G36*
G01*
X-3775000Y13256250D02*
X-3775000Y12743750D01*
G75*
G02*
X-3993750Y12525000I-218750J0D01*
G01*
X-4431250Y12525000D01*
G75*
G02*
X-4650000Y12743750I0J218750D01*
G01*
X-4650000Y13256250D01*
G75*
G02*
X-4431250Y13475000I218750J0D01*
G01*
X-3993750Y13475000D01*
G75*
G02*
X-3775000Y13256250I0J-218750D01*
G01*
G37*
G36*
G01*
X-17862500Y13256250D02*
X-17862500Y12743750D01*
G75*
G02*
X-18081250Y12525000I-218750J0D01*
G01*
X-18518750Y12525000D01*
G75*
G02*
X-18737500Y12743750I0J218750D01*
G01*
X-18737500Y13256250D01*
G75*
G02*
X-18518750Y13475000I218750J0D01*
G01*
X-18081250Y13475000D01*
G75*
G02*
X-17862500Y13256250I0J-218750D01*
G01*
G37*
G36*
G01*
X-19437500Y13256250D02*
X-19437500Y12743750D01*
G75*
G02*
X-19656250Y12525000I-218750J0D01*
G01*
X-20093750Y12525000D01*
G75*
G02*
X-20312500Y12743750I0J218750D01*
G01*
X-20312500Y13256250D01*
G75*
G02*
X-20093750Y13475000I218750J0D01*
G01*
X-19656250Y13475000D01*
G75*
G02*
X-19437500Y13256250I0J-218750D01*
G01*
G37*
D12*
X0Y16300000D03*
X-2000000Y16300000D03*
X-4000000Y16300000D03*
X-6000000Y16300000D03*
D13*
X-8300000Y23800000D03*
X2300000Y23800000D03*
X-11700000Y23800000D03*
X-22300000Y23800000D03*
D12*
X-20000000Y16300000D03*
X-18000000Y16300000D03*
X-16000000Y16300000D03*
X-14000000Y16300000D03*
M02*
