G04 #@! TF.GenerationSoftware,KiCad,Pcbnew,5.1.6-c6e7f7d~86~ubuntu18.04.1*
G04 #@! TF.CreationDate,2020-07-16T01:51:11+09:00*
G04 #@! TF.ProjectId,WioTerminal_BatteryChassisAAA,57696f54-6572-46d6-996e-616c5f426174,rev?*
G04 #@! TF.SameCoordinates,PX206cc80PYfe6f74f0*
G04 #@! TF.FileFunction,Copper,L2,Bot*
G04 #@! TF.FilePolarity,Positive*
%FSLAX46Y46*%
G04 Gerber Fmt 4.6, Leading zero omitted, Abs format (unit mm)*
G04 Created by KiCad (PCBNEW 5.1.6-c6e7f7d~86~ubuntu18.04.1) date 2020-07-16 01:51:11*
%MOMM*%
%LPD*%
G01*
G04 APERTURE LIST*
G04 #@! TA.AperFunction,ComponentPad*
%ADD10C,1.700000*%
G04 #@! TD*
G04 #@! TA.AperFunction,ComponentPad*
%ADD11O,1.700000X1.700000*%
G04 #@! TD*
G04 #@! TA.AperFunction,ComponentPad*
%ADD12C,0.600000*%
G04 #@! TD*
G04 #@! TA.AperFunction,Conductor*
%ADD13R,2.300000X2.300000*%
G04 #@! TD*
G04 #@! TA.AperFunction,SMDPad,CuDef*
%ADD14R,1.600000X1.000000*%
G04 #@! TD*
G04 #@! TA.AperFunction,SMDPad,CuDef*
%ADD15R,1.000000X3.400000*%
G04 #@! TD*
G04 #@! TA.AperFunction,SMDPad,CuDef*
%ADD16R,1.500000X3.600000*%
G04 #@! TD*
G04 #@! TA.AperFunction,ComponentPad*
%ADD17C,1.000000*%
G04 #@! TD*
G04 #@! TA.AperFunction,ViaPad*
%ADD18C,0.800000*%
G04 #@! TD*
G04 #@! TA.AperFunction,Conductor*
%ADD19C,0.300000*%
G04 #@! TD*
G04 #@! TA.AperFunction,Conductor*
%ADD20C,0.250000*%
G04 #@! TD*
G04 #@! TA.AperFunction,Conductor*
%ADD21C,0.400000*%
G04 #@! TD*
G04 #@! TA.AperFunction,Conductor*
%ADD22C,0.200000*%
G04 #@! TD*
G04 APERTURE END LIST*
D10*
X-30400000Y-17900000D03*
D11*
X-27860000Y-17900000D03*
D12*
X-21600000Y-6300000D03*
X-22100000Y-6800000D03*
X-22100000Y-5800000D03*
X-21100000Y-6800000D03*
X-21100000Y-5800000D03*
D13*
X-21600000Y-6301000D03*
D14*
X-28800000Y9500000D03*
X-28800000Y12000000D03*
X-28800000Y14500000D03*
X-31200000Y14500000D03*
X-31200000Y9500000D03*
X-31200000Y12000000D03*
G04 #@! TA.AperFunction,SMDPad,CuDef*
G36*
G01*
X-5350000Y13256250D02*
X-5350000Y12743750D01*
G75*
G02*
X-5568750Y12525000I-218750J0D01*
G01*
X-6006250Y12525000D01*
G75*
G02*
X-6225000Y12743750I0J218750D01*
G01*
X-6225000Y13256250D01*
G75*
G02*
X-6006250Y13475000I218750J0D01*
G01*
X-5568750Y13475000D01*
G75*
G02*
X-5350000Y13256250I0J-218750D01*
G01*
G37*
G04 #@! TD.AperFunction*
G04 #@! TA.AperFunction,SMDPad,CuDef*
G36*
G01*
X-3775000Y13256250D02*
X-3775000Y12743750D01*
G75*
G02*
X-3993750Y12525000I-218750J0D01*
G01*
X-4431250Y12525000D01*
G75*
G02*
X-4650000Y12743750I0J218750D01*
G01*
X-4650000Y13256250D01*
G75*
G02*
X-4431250Y13475000I218750J0D01*
G01*
X-3993750Y13475000D01*
G75*
G02*
X-3775000Y13256250I0J-218750D01*
G01*
G37*
G04 #@! TD.AperFunction*
G04 #@! TA.AperFunction,SMDPad,CuDef*
G36*
G01*
X-17862500Y13256250D02*
X-17862500Y12743750D01*
G75*
G02*
X-18081250Y12525000I-218750J0D01*
G01*
X-18518750Y12525000D01*
G75*
G02*
X-18737500Y12743750I0J218750D01*
G01*
X-18737500Y13256250D01*
G75*
G02*
X-18518750Y13475000I218750J0D01*
G01*
X-18081250Y13475000D01*
G75*
G02*
X-17862500Y13256250I0J-218750D01*
G01*
G37*
G04 #@! TD.AperFunction*
G04 #@! TA.AperFunction,SMDPad,CuDef*
G36*
G01*
X-19437500Y13256250D02*
X-19437500Y12743750D01*
G75*
G02*
X-19656250Y12525000I-218750J0D01*
G01*
X-20093750Y12525000D01*
G75*
G02*
X-20312500Y12743750I0J218750D01*
G01*
X-20312500Y13256250D01*
G75*
G02*
X-20093750Y13475000I218750J0D01*
G01*
X-19656250Y13475000D01*
G75*
G02*
X-19437500Y13256250I0J-218750D01*
G01*
G37*
G04 #@! TD.AperFunction*
D15*
X0Y16300000D03*
X-2000000Y16300000D03*
X-4000000Y16300000D03*
X-6000000Y16300000D03*
D16*
X-8300000Y23800000D03*
X2300000Y23800000D03*
X-11700000Y23800000D03*
X-22300000Y23800000D03*
D15*
X-20000000Y16300000D03*
X-18000000Y16300000D03*
X-16000000Y16300000D03*
X-14000000Y16300000D03*
D17*
X-21900000Y-14800000D03*
X-24400000Y-14800000D03*
X-19700000Y3700000D03*
X-27500000Y2900000D03*
D18*
X-32700000Y12000000D03*
X-25900000Y-1400000D03*
X-17200000Y-1500000D03*
X-19500000Y-7900000D03*
X-23900000Y-6900000D03*
X-23900000Y-5700000D03*
X-24700000Y-6300000D03*
X-24700000Y-7300000D03*
X-24700000Y-5300000D03*
X-19500000Y-5900000D03*
X-19500000Y-6900000D03*
X-18600000Y-6400000D03*
X-18600000Y-7400000D03*
X-19500000Y-4900000D03*
X-25900000Y-2400000D03*
X-25900000Y0D03*
X-25900000Y1000000D03*
X-25900000Y2400000D03*
X-25900000Y3400000D03*
X-25400000Y-9800000D03*
X-25400000Y-10800000D03*
X-25400000Y-11800000D03*
X-25400000Y-12800000D03*
X-17800000Y-13500000D03*
X-17800000Y-14500000D03*
X-12300000Y-5300000D03*
X-11300000Y-6400000D03*
X-11100000Y-4000000D03*
X-12400000Y-12500000D03*
X-11500000Y-11200000D03*
X-12200000Y-2100000D03*
X27500000Y-25000000D03*
X22500000Y-25000000D03*
X17500000Y-25000000D03*
X12500000Y-25000000D03*
X7500000Y-25000000D03*
X2500000Y-25000000D03*
X-2500000Y-25000000D03*
X27500000Y-20000000D03*
X32500000Y-20000000D03*
X32500000Y-15000000D03*
X32500000Y-10000000D03*
X32500000Y-5000000D03*
X32500000Y0D03*
X32500000Y10000000D03*
X32500000Y15000000D03*
X32500000Y20000000D03*
X27500000Y20000000D03*
X27500000Y25000000D03*
X22500000Y25000000D03*
X17500000Y25000000D03*
X12500000Y25000000D03*
X7500000Y25000000D03*
X-2500000Y25000000D03*
X-17500000Y25000000D03*
X-27500000Y25000000D03*
X-27500000Y20000000D03*
X-32500000Y20000000D03*
X32500000Y5000000D03*
X-7500000Y-25000000D03*
X-12500000Y-25000000D03*
X-17500000Y-25000000D03*
X-22500000Y-25000000D03*
X-27500000Y-25000000D03*
X-32500000Y-15000000D03*
X-32500000Y-10000000D03*
X-32500000Y-5000000D03*
X-32500000Y0D03*
X-8500000Y5500000D03*
X-6500000Y5500000D03*
X-8500000Y500000D03*
X-8500000Y3000000D03*
X-8500000Y-2500000D03*
X-8500000Y-5500000D03*
X-9500000Y-11500000D03*
X-17500000Y-17300000D03*
X-32500000Y-12500000D03*
X-30500000Y-12500000D03*
X-28500000Y-12500000D03*
X-28500000Y-10000000D03*
X-30500000Y-10000000D03*
X-30500000Y-5000000D03*
X-28500000Y-3000000D03*
X-30500000Y-3000000D03*
X-30500000Y0D03*
X-28500000Y0D03*
X-30500000Y1500000D03*
X-32500000Y3500000D03*
X-31500000Y6000000D03*
X-29000000Y3500000D03*
X-13000000Y-500000D03*
X-13000000Y2500000D03*
X-15000000Y4500000D03*
X-4500000Y4000000D03*
X-2500000Y4000000D03*
X-500000Y6000000D03*
X1000000Y7500000D03*
X4000000Y7500000D03*
X6500000Y7500000D03*
X10000000Y7500000D03*
X10000000Y10000000D03*
X6400000Y10000000D03*
X4000000Y10000000D03*
X1000000Y10000000D03*
X-1500000Y10000000D03*
X-7500000Y10000000D03*
X-13900000Y10000000D03*
X-11000000Y10000000D03*
X-17500000Y10000000D03*
X-11500000Y5500000D03*
X-13500000Y5500000D03*
X-23500000Y4500000D03*
X-15800000Y5400000D03*
X-26500000Y5800000D03*
X-27800000Y7400000D03*
X-17800000Y20100000D03*
X-9900000Y21400000D03*
X-6100000Y21400000D03*
X-1300000Y21200000D03*
X2200000Y20700000D03*
X5200000Y20700000D03*
X7800000Y20700000D03*
X9900000Y20700000D03*
X5200000Y23200000D03*
X-11500000Y2500000D03*
X-11500000Y-500000D03*
X-19100000Y20500000D03*
X-22800000Y15300000D03*
X-8900000Y15200000D03*
X6400000Y15200000D03*
X11400000Y20700000D03*
X16500000Y20700000D03*
X24200000Y10100000D03*
X24100000Y15400000D03*
X-32600010Y-17500000D03*
X-32526108Y-20013054D03*
X-9600000Y-20300000D03*
X-7300000Y-20300000D03*
X-4900000Y-20300000D03*
X-17800000Y-18900000D03*
X-17800000Y-22400000D03*
X-20400000Y-22600000D03*
X-16200000Y-20700000D03*
X-12400000Y-19600000D03*
X-9900000Y-19000000D03*
X-4800000Y-18800000D03*
X-7300000Y-13900000D03*
X-4900000Y-13900000D03*
X-9000000Y6800000D03*
X-11500000Y6800000D03*
X-11400000Y-8800000D03*
X-9500000Y-8800000D03*
X-11300000Y-16400000D03*
X-4900000Y-16900000D03*
X-11500000Y-15400000D03*
X-9500000Y-14100000D03*
X-23600000Y9820000D03*
X-3800000Y10100000D03*
X-15300000Y-13900000D03*
X-13600000Y-19500000D03*
X-8400000Y-13800000D03*
X-22700000Y7500000D03*
X-25000000Y5900000D03*
X-27300000Y9500000D03*
X-12700000Y15300000D03*
X-15300000Y13400000D03*
X-6300000Y20100000D03*
X-7600000Y19700000D03*
D19*
X-32700000Y12000000D02*
X-31200000Y12000000D01*
X-31200000Y12000000D02*
X-28800000Y12000000D01*
D20*
X-9000000Y6800000D02*
X-11500000Y6800000D01*
X-11400000Y-8800000D02*
X-9500000Y-8800000D01*
X-5400000Y-16400000D02*
X-4900000Y-16900000D01*
X-11300000Y-16400000D02*
X-5400000Y-16400000D01*
X-11500000Y-15400000D02*
X-9800000Y-15400000D01*
X-9500000Y-15100000D02*
X-9500000Y-14100000D01*
X-9800000Y-15400000D02*
X-9500000Y-15100000D01*
D21*
X-18300000Y11600000D02*
X-18300000Y13000000D01*
X-23600000Y9820000D02*
X-20080000Y9820000D01*
X-20080000Y9820000D02*
X-18300000Y11600000D01*
X-18300000Y13800000D02*
X-18300000Y13000000D01*
X-18000000Y16300000D02*
X-18000000Y14100000D01*
X-18000000Y14100000D02*
X-18300000Y13800000D01*
X-4212500Y10512500D02*
X-4212500Y13000000D01*
X-3800000Y10100000D02*
X-4212500Y10512500D01*
X-4212500Y13575000D02*
X-4200000Y13587500D01*
X-4212500Y13000000D02*
X-4212500Y13575000D01*
X-4200000Y13587500D02*
X-4200000Y13900000D01*
X-4000000Y14100000D02*
X-4000000Y16300000D01*
X-4200000Y13900000D02*
X-4000000Y14100000D01*
X-15300000Y-13900000D02*
X-13600000Y-15600000D01*
X-13600000Y-15600000D02*
X-13600000Y-19500000D01*
X-13600000Y-15600000D02*
X-11100000Y-13100000D01*
X-9100000Y-13100000D02*
X-8400000Y-13800000D01*
X-11100000Y-13100000D02*
X-9100000Y-13100000D01*
D19*
X-22700000Y7500000D02*
X-23400000Y7500000D01*
X-23400000Y7500000D02*
X-25000000Y5900000D01*
X-27300000Y9500000D02*
X-28800000Y9500000D01*
X-31200000Y9500000D02*
X-28800000Y9500000D01*
D22*
X-12700000Y14734315D02*
X-13034315Y14400000D01*
X-12700000Y15300000D02*
X-12700000Y14734315D01*
X-14000000Y15100000D02*
X-14000000Y16300000D01*
X-13300000Y14400000D02*
X-14000000Y15100000D01*
X-13034315Y14400000D02*
X-13300000Y14400000D01*
X-16000000Y16300000D02*
X-16000000Y15000000D01*
X-16000000Y15000000D02*
X-15300000Y14300000D01*
X-15300000Y14300000D02*
X-15300000Y13400000D01*
D20*
X0Y16300000D02*
X0Y18600000D01*
X-1500000Y20100000D02*
X-6300000Y20100000D01*
X0Y18600000D02*
X-1500000Y20100000D01*
X-2000000Y18700000D02*
X-2000000Y18250000D01*
X-2000000Y18250000D02*
X-2000000Y16300000D01*
X-2600001Y19300001D02*
X-2000000Y18700000D01*
X-7200001Y19300001D02*
X-2600001Y19300001D01*
X-7600000Y19700000D02*
X-7200001Y19300001D01*
D22*
G36*
X-23217477Y25850647D02*
G01*
X-23263158Y25813158D01*
X-23300647Y25767477D01*
X-23328504Y25715360D01*
X-23345659Y25658810D01*
X-23351451Y25600000D01*
X-23351451Y22000000D01*
X-23345659Y21941190D01*
X-23328504Y21884640D01*
X-23300647Y21832523D01*
X-23263158Y21786842D01*
X-23217477Y21749353D01*
X-23165360Y21721496D01*
X-23108810Y21704341D01*
X-23050000Y21698549D01*
X-21550000Y21698549D01*
X-21491190Y21704341D01*
X-21434640Y21721496D01*
X-21382523Y21749353D01*
X-21336842Y21786842D01*
X-21299353Y21832523D01*
X-21271496Y21884640D01*
X-21254341Y21941190D01*
X-21248549Y22000000D01*
X-21248549Y25600000D01*
X-21254341Y25658810D01*
X-21271496Y25715360D01*
X-21299353Y25767477D01*
X-21336842Y25813158D01*
X-21382523Y25850647D01*
X-21428084Y25875000D01*
X-12571916Y25875000D01*
X-12617477Y25850647D01*
X-12663158Y25813158D01*
X-12700647Y25767477D01*
X-12728504Y25715360D01*
X-12745659Y25658810D01*
X-12751451Y25600000D01*
X-12751451Y22000000D01*
X-12745659Y21941190D01*
X-12728504Y21884640D01*
X-12700647Y21832523D01*
X-12663158Y21786842D01*
X-12617477Y21749353D01*
X-12565360Y21721496D01*
X-12508810Y21704341D01*
X-12450000Y21698549D01*
X-10950000Y21698549D01*
X-10891190Y21704341D01*
X-10834640Y21721496D01*
X-10782523Y21749353D01*
X-10736842Y21786842D01*
X-10699353Y21832523D01*
X-10671496Y21884640D01*
X-10654341Y21941190D01*
X-10648549Y22000000D01*
X-10648549Y25600000D01*
X-10654341Y25658810D01*
X-10671496Y25715360D01*
X-10699353Y25767477D01*
X-10736842Y25813158D01*
X-10782523Y25850647D01*
X-10828084Y25875000D01*
X-9171916Y25875000D01*
X-9217477Y25850647D01*
X-9263158Y25813158D01*
X-9300647Y25767477D01*
X-9328504Y25715360D01*
X-9345659Y25658810D01*
X-9351451Y25600000D01*
X-9351451Y22000000D01*
X-9345659Y21941190D01*
X-9328504Y21884640D01*
X-9300647Y21832523D01*
X-9263158Y21786842D01*
X-9217477Y21749353D01*
X-9165360Y21721496D01*
X-9108810Y21704341D01*
X-9050000Y21698549D01*
X-7550000Y21698549D01*
X-7491190Y21704341D01*
X-7434640Y21721496D01*
X-7382523Y21749353D01*
X-7336842Y21786842D01*
X-7299353Y21832523D01*
X-7271496Y21884640D01*
X-7254341Y21941190D01*
X-7248549Y22000000D01*
X-7248549Y25600000D01*
X-7254341Y25658810D01*
X-7271496Y25715360D01*
X-7299353Y25767477D01*
X-7336842Y25813158D01*
X-7382523Y25850647D01*
X-7428084Y25875000D01*
X1428084Y25875000D01*
X1382523Y25850647D01*
X1336842Y25813158D01*
X1299353Y25767477D01*
X1271496Y25715360D01*
X1254341Y25658810D01*
X1248549Y25600000D01*
X1248549Y22000000D01*
X1254341Y21941190D01*
X1271496Y21884640D01*
X1299353Y21832523D01*
X1336842Y21786842D01*
X1382523Y21749353D01*
X1434640Y21721496D01*
X1491190Y21704341D01*
X1550000Y21698549D01*
X3050000Y21698549D01*
X3108810Y21704341D01*
X3165360Y21721496D01*
X3217477Y21749353D01*
X3263158Y21786842D01*
X3300647Y21832523D01*
X3328504Y21884640D01*
X3345659Y21941190D01*
X3351451Y22000000D01*
X3351451Y22887888D01*
X29100000Y22887888D01*
X29100000Y22612112D01*
X29153801Y22341635D01*
X29259336Y22086851D01*
X29412549Y21857552D01*
X29607552Y21662549D01*
X29836851Y21509336D01*
X30091635Y21403801D01*
X30362112Y21350000D01*
X30637888Y21350000D01*
X30908365Y21403801D01*
X31163149Y21509336D01*
X31392448Y21662549D01*
X31587451Y21857552D01*
X31740664Y22086851D01*
X31846199Y22341635D01*
X31900000Y22612112D01*
X31900000Y22887888D01*
X31846199Y23158365D01*
X31740664Y23413149D01*
X31587451Y23642448D01*
X31392448Y23837451D01*
X31163149Y23990664D01*
X30908365Y24096199D01*
X30637888Y24150000D01*
X30362112Y24150000D01*
X30091635Y24096199D01*
X29836851Y23990664D01*
X29607552Y23837451D01*
X29412549Y23642448D01*
X29259336Y23413149D01*
X29153801Y23158365D01*
X29100000Y22887888D01*
X3351451Y22887888D01*
X3351451Y25600000D01*
X3345659Y25658810D01*
X3328504Y25715360D01*
X3300647Y25767477D01*
X3263158Y25813158D01*
X3217477Y25850647D01*
X3171916Y25875000D01*
X30481662Y25875000D01*
X31106631Y25813721D01*
X31690161Y25637543D01*
X32228350Y25351383D01*
X32700713Y24966134D01*
X33089252Y24496473D01*
X33379165Y23960289D01*
X33559411Y23378006D01*
X33624983Y22754130D01*
X33625001Y22748984D01*
X33625000Y-22731662D01*
X33563721Y-23356631D01*
X33387543Y-23940161D01*
X33101381Y-24478352D01*
X32716132Y-24950715D01*
X32246469Y-25339254D01*
X31710290Y-25629165D01*
X31128012Y-25809410D01*
X30504130Y-25874983D01*
X30499270Y-25875000D01*
X-30481662Y-25875000D01*
X-31106631Y-25813721D01*
X-31690161Y-25637543D01*
X-32228352Y-25351381D01*
X-32700715Y-24966132D01*
X-33089254Y-24496469D01*
X-33379165Y-23960290D01*
X-33559410Y-23378012D01*
X-33624983Y-22754130D01*
X-33625000Y-22749270D01*
X-33625000Y-22612112D01*
X-31900000Y-22612112D01*
X-31900000Y-22887888D01*
X-31846199Y-23158365D01*
X-31740664Y-23413149D01*
X-31587451Y-23642448D01*
X-31392448Y-23837451D01*
X-31163149Y-23990664D01*
X-30908365Y-24096199D01*
X-30637888Y-24150000D01*
X-30362112Y-24150000D01*
X-30091635Y-24096199D01*
X-29836851Y-23990664D01*
X-29607552Y-23837451D01*
X-29412549Y-23642448D01*
X-29259336Y-23413149D01*
X-29153801Y-23158365D01*
X-29100000Y-22887888D01*
X-29100000Y-22612112D01*
X29100000Y-22612112D01*
X29100000Y-22887888D01*
X29153801Y-23158365D01*
X29259336Y-23413149D01*
X29412549Y-23642448D01*
X29607552Y-23837451D01*
X29836851Y-23990664D01*
X30091635Y-24096199D01*
X30362112Y-24150000D01*
X30637888Y-24150000D01*
X30908365Y-24096199D01*
X31163149Y-23990664D01*
X31392448Y-23837451D01*
X31587451Y-23642448D01*
X31740664Y-23413149D01*
X31846199Y-23158365D01*
X31900000Y-22887888D01*
X31900000Y-22612112D01*
X31846199Y-22341635D01*
X31740664Y-22086851D01*
X31587451Y-21857552D01*
X31392448Y-21662549D01*
X31163149Y-21509336D01*
X30908365Y-21403801D01*
X30637888Y-21350000D01*
X30362112Y-21350000D01*
X30091635Y-21403801D01*
X29836851Y-21509336D01*
X29607552Y-21662549D01*
X29412549Y-21857552D01*
X29259336Y-22086851D01*
X29153801Y-22341635D01*
X29100000Y-22612112D01*
X-29100000Y-22612112D01*
X-29153801Y-22341635D01*
X-29259336Y-22086851D01*
X-29412549Y-21857552D01*
X-29607552Y-21662549D01*
X-29836851Y-21509336D01*
X-30091635Y-21403801D01*
X-30362112Y-21350000D01*
X-30637888Y-21350000D01*
X-30908365Y-21403801D01*
X-31163149Y-21509336D01*
X-31392448Y-21662549D01*
X-31587451Y-21857552D01*
X-31740664Y-22086851D01*
X-31846199Y-22341635D01*
X-31900000Y-22612112D01*
X-33625000Y-22612112D01*
X-33625000Y-17786735D01*
X-31550000Y-17786735D01*
X-31550000Y-18013265D01*
X-31505806Y-18235443D01*
X-31419116Y-18444729D01*
X-31293263Y-18633082D01*
X-31133082Y-18793263D01*
X-30944729Y-18919116D01*
X-30735443Y-19005806D01*
X-30513265Y-19050000D01*
X-30286735Y-19050000D01*
X-30064557Y-19005806D01*
X-29855271Y-18919116D01*
X-29666918Y-18793263D01*
X-29506737Y-18633082D01*
X-29380884Y-18444729D01*
X-29294194Y-18235443D01*
X-29250000Y-18013265D01*
X-29250000Y-17786735D01*
X-29294194Y-17564557D01*
X-29380884Y-17355271D01*
X-29506737Y-17166918D01*
X-29666918Y-17006737D01*
X-29855271Y-16880884D01*
X-30064557Y-16794194D01*
X-30286735Y-16750000D01*
X-30513265Y-16750000D01*
X-30735443Y-16794194D01*
X-30944729Y-16880884D01*
X-31133082Y-17006737D01*
X-31293263Y-17166918D01*
X-31419116Y-17355271D01*
X-31505806Y-17564557D01*
X-31550000Y-17786735D01*
X-33625000Y-17786735D01*
X-33625000Y-14721207D01*
X-22700000Y-14721207D01*
X-22700000Y-14878793D01*
X-22669257Y-15033351D01*
X-22608951Y-15178942D01*
X-22521401Y-15309970D01*
X-22409970Y-15421401D01*
X-22278942Y-15508951D01*
X-22133351Y-15569257D01*
X-21978793Y-15600000D01*
X-21821207Y-15600000D01*
X-21666649Y-15569257D01*
X-21521058Y-15508951D01*
X-21390030Y-15421401D01*
X-21278599Y-15309970D01*
X-21191049Y-15178942D01*
X-21130743Y-15033351D01*
X-21100000Y-14878793D01*
X-21100000Y-14721207D01*
X-21130743Y-14566649D01*
X-21191049Y-14421058D01*
X-21278599Y-14290030D01*
X-21390030Y-14178599D01*
X-21521058Y-14091049D01*
X-21666649Y-14030743D01*
X-21821207Y-14000000D01*
X-21978793Y-14000000D01*
X-22133351Y-14030743D01*
X-22278942Y-14091049D01*
X-22409970Y-14178599D01*
X-22521401Y-14290030D01*
X-22608951Y-14421058D01*
X-22669257Y-14566649D01*
X-22700000Y-14721207D01*
X-33625000Y-14721207D01*
X-33625000Y-13831056D01*
X-16000000Y-13831056D01*
X-16000000Y-13968944D01*
X-15973099Y-14104182D01*
X-15920332Y-14231574D01*
X-15843726Y-14346224D01*
X-15746224Y-14443726D01*
X-15631574Y-14520332D01*
X-15504182Y-14573099D01*
X-15368944Y-14600000D01*
X-15307105Y-14600000D01*
X-14100000Y-15807106D01*
X-14099999Y-19010049D01*
X-14143726Y-19053776D01*
X-14220332Y-19168426D01*
X-14273099Y-19295818D01*
X-14300000Y-19431056D01*
X-14300000Y-19568944D01*
X-14273099Y-19704182D01*
X-14220332Y-19831574D01*
X-14143726Y-19946224D01*
X-14046224Y-20043726D01*
X-13931574Y-20120332D01*
X-13804182Y-20173099D01*
X-13668944Y-20200000D01*
X-13531056Y-20200000D01*
X-13395818Y-20173099D01*
X-13268426Y-20120332D01*
X-13153776Y-20043726D01*
X-13056274Y-19946224D01*
X-12979668Y-19831574D01*
X-12926901Y-19704182D01*
X-12900000Y-19568944D01*
X-12900000Y-19431056D01*
X-12926901Y-19295818D01*
X-12979668Y-19168426D01*
X-13056274Y-19053776D01*
X-13100000Y-19010050D01*
X-13100000Y-15807105D01*
X-10892894Y-13600000D01*
X-9989950Y-13600000D01*
X-10043726Y-13653776D01*
X-10120332Y-13768426D01*
X-10173099Y-13895818D01*
X-10200000Y-14031056D01*
X-10200000Y-14168944D01*
X-10173099Y-14304182D01*
X-10120332Y-14431574D01*
X-10043726Y-14546224D01*
X-9946224Y-14643726D01*
X-9925000Y-14657908D01*
X-9925000Y-14923959D01*
X-9976040Y-14975000D01*
X-10942093Y-14975000D01*
X-10956274Y-14953776D01*
X-11053776Y-14856274D01*
X-11168426Y-14779668D01*
X-11295818Y-14726901D01*
X-11431056Y-14700000D01*
X-11568944Y-14700000D01*
X-11704182Y-14726901D01*
X-11831574Y-14779668D01*
X-11946224Y-14856274D01*
X-12043726Y-14953776D01*
X-12120332Y-15068426D01*
X-12173099Y-15195818D01*
X-12200000Y-15331056D01*
X-12200000Y-15468944D01*
X-12173099Y-15604182D01*
X-12120332Y-15731574D01*
X-12043726Y-15846224D01*
X-11946224Y-15943726D01*
X-11870720Y-15994176D01*
X-11920332Y-16068426D01*
X-11973099Y-16195818D01*
X-12000000Y-16331056D01*
X-12000000Y-16468944D01*
X-11973099Y-16604182D01*
X-11920332Y-16731574D01*
X-11843726Y-16846224D01*
X-11746224Y-16943726D01*
X-11631574Y-17020332D01*
X-11504182Y-17073099D01*
X-11368944Y-17100000D01*
X-11231056Y-17100000D01*
X-11095818Y-17073099D01*
X-10968426Y-17020332D01*
X-10853776Y-16943726D01*
X-10756274Y-16846224D01*
X-10742093Y-16825000D01*
X-5598795Y-16825000D01*
X-5600000Y-16831056D01*
X-5600000Y-16968944D01*
X-5573099Y-17104182D01*
X-5520332Y-17231574D01*
X-5443726Y-17346224D01*
X-5346224Y-17443726D01*
X-5231574Y-17520332D01*
X-5104182Y-17573099D01*
X-4968944Y-17600000D01*
X-4831056Y-17600000D01*
X-4695818Y-17573099D01*
X-4568426Y-17520332D01*
X-4453776Y-17443726D01*
X-4356274Y-17346224D01*
X-4279668Y-17231574D01*
X-4226901Y-17104182D01*
X-4200000Y-16968944D01*
X-4200000Y-16831056D01*
X-4226901Y-16695818D01*
X-4279668Y-16568426D01*
X-4356274Y-16453776D01*
X-4453776Y-16356274D01*
X-4568426Y-16279668D01*
X-4695818Y-16226901D01*
X-4831056Y-16200000D01*
X-4968944Y-16200000D01*
X-4993980Y-16204980D01*
X-5084717Y-16114243D01*
X-5098026Y-16098026D01*
X-5162740Y-16044916D01*
X-5236573Y-16005452D01*
X-5316686Y-15981150D01*
X-5379126Y-15975000D01*
X-5379133Y-15975000D01*
X-5400000Y-15972945D01*
X-5420867Y-15975000D01*
X-10742093Y-15975000D01*
X-10756274Y-15953776D01*
X-10853776Y-15856274D01*
X-10900581Y-15825000D01*
X-9820867Y-15825000D01*
X-9800000Y-15827055D01*
X-9779133Y-15825000D01*
X-9779126Y-15825000D01*
X-9716686Y-15818850D01*
X-9636573Y-15794548D01*
X-9562740Y-15755084D01*
X-9498026Y-15701974D01*
X-9484717Y-15685757D01*
X-9214237Y-15415278D01*
X-9198026Y-15401974D01*
X-9144916Y-15337260D01*
X-9105452Y-15263427D01*
X-9081150Y-15183314D01*
X-9075000Y-15120874D01*
X-9075000Y-15120868D01*
X-9072945Y-15100001D01*
X-9075000Y-15079134D01*
X-9075000Y-14657907D01*
X-9053776Y-14643726D01*
X-8956274Y-14546224D01*
X-8879668Y-14431574D01*
X-8843919Y-14345266D01*
X-8731574Y-14420332D01*
X-8604182Y-14473099D01*
X-8468944Y-14500000D01*
X-8331056Y-14500000D01*
X-8195818Y-14473099D01*
X-8068426Y-14420332D01*
X-7953776Y-14343726D01*
X-7856274Y-14246224D01*
X-7779668Y-14131574D01*
X-7726901Y-14004182D01*
X-7700000Y-13868944D01*
X-7700000Y-13731056D01*
X-7726901Y-13595818D01*
X-7779668Y-13468426D01*
X-7856274Y-13353776D01*
X-7953776Y-13256274D01*
X-8068426Y-13179668D01*
X-8195818Y-13126901D01*
X-8331056Y-13100000D01*
X-8392894Y-13100000D01*
X-8729071Y-12763824D01*
X-8744736Y-12744736D01*
X-8820871Y-12682254D01*
X-8907733Y-12635825D01*
X-9001983Y-12607235D01*
X-9075440Y-12600000D01*
X-9100000Y-12597581D01*
X-9124560Y-12600000D01*
X-11075440Y-12600000D01*
X-11100000Y-12597581D01*
X-11124560Y-12600000D01*
X-11198017Y-12607235D01*
X-11292267Y-12635825D01*
X-11379129Y-12682254D01*
X-11455264Y-12744736D01*
X-11470925Y-12763819D01*
X-13600000Y-14892895D01*
X-14600000Y-13892895D01*
X-14600000Y-13831056D01*
X-14626901Y-13695818D01*
X-14679668Y-13568426D01*
X-14756274Y-13453776D01*
X-14853776Y-13356274D01*
X-14968426Y-13279668D01*
X-15095818Y-13226901D01*
X-15231056Y-13200000D01*
X-15368944Y-13200000D01*
X-15504182Y-13226901D01*
X-15631574Y-13279668D01*
X-15746224Y-13356274D01*
X-15843726Y-13453776D01*
X-15920332Y-13568426D01*
X-15973099Y-13695818D01*
X-16000000Y-13831056D01*
X-33625000Y-13831056D01*
X-33625000Y-8731056D01*
X-12100000Y-8731056D01*
X-12100000Y-8868944D01*
X-12073099Y-9004182D01*
X-12020332Y-9131574D01*
X-11943726Y-9246224D01*
X-11846224Y-9343726D01*
X-11731574Y-9420332D01*
X-11604182Y-9473099D01*
X-11468944Y-9500000D01*
X-11331056Y-9500000D01*
X-11195818Y-9473099D01*
X-11068426Y-9420332D01*
X-10953776Y-9343726D01*
X-10856274Y-9246224D01*
X-10842093Y-9225000D01*
X-10057907Y-9225000D01*
X-10043726Y-9246224D01*
X-9946224Y-9343726D01*
X-9831574Y-9420332D01*
X-9704182Y-9473099D01*
X-9568944Y-9500000D01*
X-9431056Y-9500000D01*
X-9295818Y-9473099D01*
X-9168426Y-9420332D01*
X-9053776Y-9343726D01*
X-8956274Y-9246224D01*
X-8879668Y-9131574D01*
X-8826901Y-9004182D01*
X-8800000Y-8868944D01*
X-8800000Y-8731056D01*
X-8826901Y-8595818D01*
X-8879668Y-8468426D01*
X-8956274Y-8353776D01*
X-9053776Y-8256274D01*
X-9168426Y-8179668D01*
X-9295818Y-8126901D01*
X-9431056Y-8100000D01*
X-9568944Y-8100000D01*
X-9704182Y-8126901D01*
X-9831574Y-8179668D01*
X-9946224Y-8256274D01*
X-10043726Y-8353776D01*
X-10057907Y-8375000D01*
X-10842093Y-8375000D01*
X-10856274Y-8353776D01*
X-10953776Y-8256274D01*
X-11068426Y-8179668D01*
X-11195818Y-8126901D01*
X-11331056Y-8100000D01*
X-11468944Y-8100000D01*
X-11604182Y-8126901D01*
X-11731574Y-8179668D01*
X-11846224Y-8256274D01*
X-11943726Y-8353776D01*
X-12020332Y-8468426D01*
X-12073099Y-8595818D01*
X-12100000Y-8731056D01*
X-33625000Y-8731056D01*
X-33625000Y3778793D01*
X-20500000Y3778793D01*
X-20500000Y3621207D01*
X-20469257Y3466649D01*
X-20408951Y3321058D01*
X-20321401Y3190030D01*
X-20209970Y3078599D01*
X-20078942Y2991049D01*
X-19933351Y2930743D01*
X-19778793Y2900000D01*
X-19621207Y2900000D01*
X-19466649Y2930743D01*
X-19321058Y2991049D01*
X-19190030Y3078599D01*
X-19078599Y3190030D01*
X-18991049Y3321058D01*
X-18930743Y3466649D01*
X-18900000Y3621207D01*
X-18900000Y3778793D01*
X-18930743Y3933351D01*
X-18991049Y4078942D01*
X-19078599Y4209970D01*
X-19190030Y4321401D01*
X-19321058Y4408951D01*
X-19466649Y4469257D01*
X-19621207Y4500000D01*
X-19778793Y4500000D01*
X-19933351Y4469257D01*
X-20078942Y4408951D01*
X-20209970Y4321401D01*
X-20321401Y4209970D01*
X-20408951Y4078942D01*
X-20469257Y3933351D01*
X-20500000Y3778793D01*
X-33625000Y3778793D01*
X-33625000Y5968944D01*
X-25700000Y5968944D01*
X-25700000Y5831056D01*
X-25673099Y5695818D01*
X-25620332Y5568426D01*
X-25543726Y5453776D01*
X-25446224Y5356274D01*
X-25331574Y5279668D01*
X-25204182Y5226901D01*
X-25068944Y5200000D01*
X-24931056Y5200000D01*
X-24795818Y5226901D01*
X-24668426Y5279668D01*
X-24553776Y5356274D01*
X-24456274Y5453776D01*
X-24379668Y5568426D01*
X-24326901Y5695818D01*
X-24300000Y5831056D01*
X-24300000Y5963605D01*
X-23226777Y7036827D01*
X-23146224Y6956274D01*
X-23031574Y6879668D01*
X-22904182Y6826901D01*
X-22768944Y6800000D01*
X-22631056Y6800000D01*
X-22495818Y6826901D01*
X-22394317Y6868944D01*
X-12200000Y6868944D01*
X-12200000Y6731056D01*
X-12173099Y6595818D01*
X-12120332Y6468426D01*
X-12043726Y6353776D01*
X-11946224Y6256274D01*
X-11831574Y6179668D01*
X-11704182Y6126901D01*
X-11568944Y6100000D01*
X-11431056Y6100000D01*
X-11295818Y6126901D01*
X-11168426Y6179668D01*
X-11053776Y6256274D01*
X-10956274Y6353776D01*
X-10942093Y6375000D01*
X-9557907Y6375000D01*
X-9543726Y6353776D01*
X-9446224Y6256274D01*
X-9331574Y6179668D01*
X-9204182Y6126901D01*
X-9068944Y6100000D01*
X-8931056Y6100000D01*
X-8795818Y6126901D01*
X-8668426Y6179668D01*
X-8553776Y6256274D01*
X-8456274Y6353776D01*
X-8379668Y6468426D01*
X-8326901Y6595818D01*
X-8300000Y6731056D01*
X-8300000Y6868944D01*
X-8326901Y7004182D01*
X-8379668Y7131574D01*
X-8456274Y7246224D01*
X-8553776Y7343726D01*
X-8668426Y7420332D01*
X-8795818Y7473099D01*
X-8931056Y7500000D01*
X-9068944Y7500000D01*
X-9204182Y7473099D01*
X-9331574Y7420332D01*
X-9446224Y7343726D01*
X-9543726Y7246224D01*
X-9557907Y7225000D01*
X-10942093Y7225000D01*
X-10956274Y7246224D01*
X-11053776Y7343726D01*
X-11168426Y7420332D01*
X-11295818Y7473099D01*
X-11431056Y7500000D01*
X-11568944Y7500000D01*
X-11704182Y7473099D01*
X-11831574Y7420332D01*
X-11946224Y7343726D01*
X-12043726Y7246224D01*
X-12120332Y7131574D01*
X-12173099Y7004182D01*
X-12200000Y6868944D01*
X-22394317Y6868944D01*
X-22368426Y6879668D01*
X-22253776Y6956274D01*
X-22156274Y7053776D01*
X-22079668Y7168426D01*
X-22026901Y7295818D01*
X-22000000Y7431056D01*
X-22000000Y7568944D01*
X-22026901Y7704182D01*
X-22079668Y7831574D01*
X-22156274Y7946224D01*
X-22253776Y8043726D01*
X-22368426Y8120332D01*
X-22495818Y8173099D01*
X-22631056Y8200000D01*
X-22768944Y8200000D01*
X-22904182Y8173099D01*
X-23031574Y8120332D01*
X-23146224Y8043726D01*
X-23239950Y7950000D01*
X-23377906Y7950000D01*
X-23400000Y7952176D01*
X-23422094Y7950000D01*
X-23422105Y7950000D01*
X-23488215Y7943489D01*
X-23573041Y7917757D01*
X-23651217Y7875971D01*
X-23702568Y7833828D01*
X-23702572Y7833824D01*
X-23719737Y7819737D01*
X-23733824Y7802572D01*
X-24936395Y6600000D01*
X-25068944Y6600000D01*
X-25204182Y6573099D01*
X-25331574Y6520332D01*
X-25446224Y6443726D01*
X-25543726Y6346224D01*
X-25620332Y6231574D01*
X-25673099Y6104182D01*
X-25700000Y5968944D01*
X-33625000Y5968944D01*
X-33625000Y10000000D01*
X-32301451Y10000000D01*
X-32301451Y9000000D01*
X-32295659Y8941190D01*
X-32278504Y8884640D01*
X-32250647Y8832523D01*
X-32213158Y8786842D01*
X-32167477Y8749353D01*
X-32115360Y8721496D01*
X-32058810Y8704341D01*
X-32000000Y8698549D01*
X-30745091Y8698549D01*
X-30750000Y8673869D01*
X-30750000Y8526131D01*
X-30721178Y8381233D01*
X-30664641Y8244742D01*
X-30582563Y8121903D01*
X-30478097Y8017437D01*
X-30355258Y7935359D01*
X-30218767Y7878822D01*
X-30073869Y7850000D01*
X-29926131Y7850000D01*
X-29781233Y7878822D01*
X-29644742Y7935359D01*
X-29521903Y8017437D01*
X-29417437Y8121903D01*
X-29335359Y8244742D01*
X-29278822Y8381233D01*
X-29250000Y8526131D01*
X-29250000Y8673869D01*
X-29254909Y8698549D01*
X-28000000Y8698549D01*
X-27941190Y8704341D01*
X-27884640Y8721496D01*
X-27832523Y8749353D01*
X-27786842Y8786842D01*
X-27749353Y8832523D01*
X-27721496Y8884640D01*
X-27707595Y8930463D01*
X-27631574Y8879668D01*
X-27504182Y8826901D01*
X-27368944Y8800000D01*
X-27231056Y8800000D01*
X-27095818Y8826901D01*
X-26968426Y8879668D01*
X-26853776Y8956274D01*
X-26756274Y9053776D01*
X-26679668Y9168426D01*
X-26626901Y9295818D01*
X-26600000Y9431056D01*
X-26600000Y9568944D01*
X-26626901Y9704182D01*
X-26679668Y9831574D01*
X-26718001Y9888944D01*
X-24300000Y9888944D01*
X-24300000Y9751056D01*
X-24273099Y9615818D01*
X-24220332Y9488426D01*
X-24143726Y9373776D01*
X-24046224Y9276274D01*
X-23931574Y9199668D01*
X-23804182Y9146901D01*
X-23668944Y9120000D01*
X-23531056Y9120000D01*
X-23395818Y9146901D01*
X-23268426Y9199668D01*
X-23153776Y9276274D01*
X-23110050Y9320000D01*
X-20104560Y9320000D01*
X-20080000Y9317581D01*
X-20055440Y9320000D01*
X-19981983Y9327235D01*
X-19887733Y9355825D01*
X-19800871Y9402254D01*
X-19724736Y9464736D01*
X-19709071Y9483824D01*
X-17963819Y11229075D01*
X-17944736Y11244736D01*
X-17882254Y11320871D01*
X-17835825Y11407733D01*
X-17807235Y11501983D01*
X-17800000Y11575440D01*
X-17800000Y11575441D01*
X-17797581Y11599999D01*
X-17800000Y11624557D01*
X-17800000Y12307072D01*
X-17792242Y12311219D01*
X-17713412Y12375912D01*
X-17648719Y12454742D01*
X-17600647Y12544678D01*
X-17571045Y12642264D01*
X-17561049Y12743750D01*
X-17561049Y13256250D01*
X-17571045Y13357736D01*
X-17600647Y13455322D01*
X-17648719Y13545258D01*
X-17713412Y13624088D01*
X-17743838Y13649057D01*
X-17663824Y13729071D01*
X-17644736Y13744736D01*
X-17582254Y13820871D01*
X-17535825Y13907733D01*
X-17507235Y14001983D01*
X-17500000Y14075440D01*
X-17500000Y14075441D01*
X-17497581Y14099999D01*
X-17500000Y14124557D01*
X-17500000Y14298549D01*
X-17441190Y14304341D01*
X-17384640Y14321496D01*
X-17332523Y14349353D01*
X-17286842Y14386842D01*
X-17249353Y14432523D01*
X-17221496Y14484640D01*
X-17204341Y14541190D01*
X-17198549Y14600000D01*
X-17198549Y18000000D01*
X-16801451Y18000000D01*
X-16801451Y14600000D01*
X-16795659Y14541190D01*
X-16778504Y14484640D01*
X-16750647Y14432523D01*
X-16713158Y14386842D01*
X-16667477Y14349353D01*
X-16615360Y14321496D01*
X-16558810Y14304341D01*
X-16500000Y14298549D01*
X-15864234Y14298549D01*
X-15700000Y14134315D01*
X-15700000Y13974612D01*
X-15746224Y13943726D01*
X-15843726Y13846224D01*
X-15920332Y13731574D01*
X-15973099Y13604182D01*
X-16000000Y13468944D01*
X-16000000Y13331056D01*
X-15973099Y13195818D01*
X-15920332Y13068426D01*
X-15843726Y12953776D01*
X-15746224Y12856274D01*
X-15631574Y12779668D01*
X-15504182Y12726901D01*
X-15368944Y12700000D01*
X-15231056Y12700000D01*
X-15095818Y12726901D01*
X-14968426Y12779668D01*
X-14853776Y12856274D01*
X-14756274Y12953776D01*
X-14679668Y13068426D01*
X-14626901Y13195818D01*
X-14614881Y13256250D01*
X-4951451Y13256250D01*
X-4951451Y12743750D01*
X-4941455Y12642264D01*
X-4911853Y12544678D01*
X-4863781Y12454742D01*
X-4799088Y12375912D01*
X-4720258Y12311219D01*
X-4712499Y12307072D01*
X-4712500Y10537060D01*
X-4714919Y10512500D01*
X-4712500Y10487941D01*
X-4705265Y10414484D01*
X-4676675Y10320234D01*
X-4630246Y10233371D01*
X-4567764Y10157236D01*
X-4548676Y10141571D01*
X-4500000Y10092895D01*
X-4500000Y10031056D01*
X-4473099Y9895818D01*
X-4420332Y9768426D01*
X-4343726Y9653776D01*
X-4246224Y9556274D01*
X-4131574Y9479668D01*
X-4004182Y9426901D01*
X-3868944Y9400000D01*
X-3731056Y9400000D01*
X-3595818Y9426901D01*
X-3468426Y9479668D01*
X-3353776Y9556274D01*
X-3256274Y9653776D01*
X-3179668Y9768426D01*
X-3126901Y9895818D01*
X-3100000Y10031056D01*
X-3100000Y10168944D01*
X-3126901Y10304182D01*
X-3179668Y10431574D01*
X-3256274Y10546224D01*
X-3353776Y10643726D01*
X-3468426Y10720332D01*
X-3595818Y10773099D01*
X-3712500Y10796309D01*
X-3712500Y12307072D01*
X-3704742Y12311219D01*
X-3625912Y12375912D01*
X-3561219Y12454742D01*
X-3513147Y12544678D01*
X-3483545Y12642264D01*
X-3473549Y12743750D01*
X-3473549Y13256250D01*
X-3483545Y13357736D01*
X-3513147Y13455322D01*
X-3561219Y13545258D01*
X-3625912Y13624088D01*
X-3700000Y13684889D01*
X-3700000Y13692894D01*
X-3663819Y13729075D01*
X-3644736Y13744736D01*
X-3582254Y13820871D01*
X-3535825Y13907733D01*
X-3507235Y14001983D01*
X-3505428Y14020332D01*
X-3497581Y14100000D01*
X-3500000Y14124560D01*
X-3500000Y14298549D01*
X-3441190Y14304341D01*
X-3384640Y14321496D01*
X-3332523Y14349353D01*
X-3286842Y14386842D01*
X-3249353Y14432523D01*
X-3221496Y14484640D01*
X-3204341Y14541190D01*
X-3198549Y14600000D01*
X-3198549Y18000000D01*
X-3204341Y18058810D01*
X-3221496Y18115360D01*
X-3249353Y18167477D01*
X-3286842Y18213158D01*
X-3332523Y18250647D01*
X-3384640Y18278504D01*
X-3441190Y18295659D01*
X-3500000Y18301451D01*
X-4500000Y18301451D01*
X-4558810Y18295659D01*
X-4615360Y18278504D01*
X-4667477Y18250647D01*
X-4713158Y18213158D01*
X-4750647Y18167477D01*
X-4778504Y18115360D01*
X-4795659Y18058810D01*
X-4801451Y18000000D01*
X-4801451Y14600000D01*
X-4795659Y14541190D01*
X-4778504Y14484640D01*
X-4750647Y14432523D01*
X-4713158Y14386842D01*
X-4667477Y14349353D01*
X-4615360Y14321496D01*
X-4558810Y14304341D01*
X-4507789Y14299316D01*
X-4536181Y14270924D01*
X-4555263Y14255264D01*
X-4617745Y14179129D01*
X-4651601Y14115789D01*
X-4664174Y14092267D01*
X-4692765Y13998017D01*
X-4702419Y13900000D01*
X-4700000Y13875440D01*
X-4700000Y13699609D01*
X-4720258Y13688781D01*
X-4799088Y13624088D01*
X-4863781Y13545258D01*
X-4911853Y13455322D01*
X-4941455Y13357736D01*
X-4951451Y13256250D01*
X-14614881Y13256250D01*
X-14600000Y13331056D01*
X-14600000Y13468944D01*
X-14626901Y13604182D01*
X-14679668Y13731574D01*
X-14756274Y13846224D01*
X-14853776Y13943726D01*
X-14900000Y13974612D01*
X-14900000Y14280365D01*
X-14898066Y14300001D01*
X-14900000Y14319637D01*
X-14900000Y14319647D01*
X-14905788Y14378414D01*
X-14928660Y14453814D01*
X-14965803Y14523303D01*
X-15015789Y14584211D01*
X-15031051Y14596736D01*
X-15198549Y14764234D01*
X-15198549Y18000000D01*
X-14801451Y18000000D01*
X-14801451Y14600000D01*
X-14795659Y14541190D01*
X-14778504Y14484640D01*
X-14750647Y14432523D01*
X-14713158Y14386842D01*
X-14667477Y14349353D01*
X-14615360Y14321496D01*
X-14558810Y14304341D01*
X-14500000Y14298549D01*
X-13764234Y14298549D01*
X-13596737Y14131052D01*
X-13584211Y14115789D01*
X-13523303Y14065803D01*
X-13453814Y14028660D01*
X-13378414Y14005788D01*
X-13319647Y14000000D01*
X-13319637Y14000000D01*
X-13300001Y13998066D01*
X-13280365Y14000000D01*
X-13053961Y14000000D01*
X-13034315Y13998065D01*
X-13014669Y14000000D01*
X-13014668Y14000000D01*
X-12955901Y14005788D01*
X-12880501Y14028660D01*
X-12811012Y14065803D01*
X-12750104Y14115789D01*
X-12737578Y14131052D01*
X-12431047Y14437582D01*
X-12415789Y14450104D01*
X-12398706Y14470919D01*
X-12365803Y14511012D01*
X-12328660Y14580501D01*
X-12305788Y14655901D01*
X-12304267Y14671340D01*
X-12300000Y14714668D01*
X-12298870Y14726144D01*
X-12253776Y14756274D01*
X-12156274Y14853776D01*
X-12079668Y14968426D01*
X-12026901Y15095818D01*
X-12000000Y15231056D01*
X-12000000Y15368944D01*
X-12026901Y15504182D01*
X-12079668Y15631574D01*
X-12156274Y15746224D01*
X-12253776Y15843726D01*
X-12368426Y15920332D01*
X-12495818Y15973099D01*
X-12631056Y16000000D01*
X-12768944Y16000000D01*
X-12904182Y15973099D01*
X-13031574Y15920332D01*
X-13146224Y15843726D01*
X-13198549Y15791401D01*
X-13198549Y18000000D01*
X-13204341Y18058810D01*
X-13221496Y18115360D01*
X-13249353Y18167477D01*
X-13286842Y18213158D01*
X-13332523Y18250647D01*
X-13384640Y18278504D01*
X-13441190Y18295659D01*
X-13500000Y18301451D01*
X-14500000Y18301451D01*
X-14558810Y18295659D01*
X-14615360Y18278504D01*
X-14667477Y18250647D01*
X-14713158Y18213158D01*
X-14750647Y18167477D01*
X-14778504Y18115360D01*
X-14795659Y18058810D01*
X-14801451Y18000000D01*
X-15198549Y18000000D01*
X-15204341Y18058810D01*
X-15221496Y18115360D01*
X-15249353Y18167477D01*
X-15286842Y18213158D01*
X-15332523Y18250647D01*
X-15384640Y18278504D01*
X-15441190Y18295659D01*
X-15500000Y18301451D01*
X-16500000Y18301451D01*
X-16558810Y18295659D01*
X-16615360Y18278504D01*
X-16667477Y18250647D01*
X-16713158Y18213158D01*
X-16750647Y18167477D01*
X-16778504Y18115360D01*
X-16795659Y18058810D01*
X-16801451Y18000000D01*
X-17198549Y18000000D01*
X-17204341Y18058810D01*
X-17221496Y18115360D01*
X-17249353Y18167477D01*
X-17286842Y18213158D01*
X-17332523Y18250647D01*
X-17384640Y18278504D01*
X-17441190Y18295659D01*
X-17500000Y18301451D01*
X-18500000Y18301451D01*
X-18558810Y18295659D01*
X-18615360Y18278504D01*
X-18667477Y18250647D01*
X-18713158Y18213158D01*
X-18750647Y18167477D01*
X-18778504Y18115360D01*
X-18795659Y18058810D01*
X-18801451Y18000000D01*
X-18801451Y14600000D01*
X-18795659Y14541190D01*
X-18778504Y14484640D01*
X-18750647Y14432523D01*
X-18713158Y14386842D01*
X-18667477Y14349353D01*
X-18615360Y14321496D01*
X-18558810Y14304341D01*
X-18507789Y14299316D01*
X-18636176Y14170929D01*
X-18655264Y14155264D01*
X-18717746Y14079129D01*
X-18764175Y13992266D01*
X-18782983Y13930264D01*
X-18792765Y13898017D01*
X-18802419Y13800000D01*
X-18800000Y13775439D01*
X-18800000Y13692928D01*
X-18807758Y13688781D01*
X-18886588Y13624088D01*
X-18951281Y13545258D01*
X-18999353Y13455322D01*
X-19028955Y13357736D01*
X-19038951Y13256250D01*
X-19038951Y12743750D01*
X-19028955Y12642264D01*
X-18999353Y12544678D01*
X-18951281Y12454742D01*
X-18886588Y12375912D01*
X-18807758Y12311219D01*
X-18799999Y12307072D01*
X-18800000Y11807106D01*
X-20287105Y10320000D01*
X-23110050Y10320000D01*
X-23153776Y10363726D01*
X-23268426Y10440332D01*
X-23395818Y10493099D01*
X-23531056Y10520000D01*
X-23668944Y10520000D01*
X-23804182Y10493099D01*
X-23931574Y10440332D01*
X-24046224Y10363726D01*
X-24143726Y10266224D01*
X-24220332Y10151574D01*
X-24273099Y10024182D01*
X-24300000Y9888944D01*
X-26718001Y9888944D01*
X-26756274Y9946224D01*
X-26853776Y10043726D01*
X-26968426Y10120332D01*
X-27095818Y10173099D01*
X-27231056Y10200000D01*
X-27368944Y10200000D01*
X-27504182Y10173099D01*
X-27631574Y10120332D01*
X-27707595Y10069537D01*
X-27721496Y10115360D01*
X-27749353Y10167477D01*
X-27786842Y10213158D01*
X-27832523Y10250647D01*
X-27884640Y10278504D01*
X-27941190Y10295659D01*
X-28000000Y10301451D01*
X-29600000Y10301451D01*
X-29658810Y10295659D01*
X-29715360Y10278504D01*
X-29767477Y10250647D01*
X-29813158Y10213158D01*
X-29850647Y10167477D01*
X-29878504Y10115360D01*
X-29895659Y10058810D01*
X-29901451Y10000000D01*
X-29901451Y9950000D01*
X-30098549Y9950000D01*
X-30098549Y10000000D01*
X-30104341Y10058810D01*
X-30121496Y10115360D01*
X-30149353Y10167477D01*
X-30186842Y10213158D01*
X-30232523Y10250647D01*
X-30284640Y10278504D01*
X-30341190Y10295659D01*
X-30400000Y10301451D01*
X-32000000Y10301451D01*
X-32058810Y10295659D01*
X-32115360Y10278504D01*
X-32167477Y10250647D01*
X-32213158Y10213158D01*
X-32250647Y10167477D01*
X-32278504Y10115360D01*
X-32295659Y10058810D01*
X-32301451Y10000000D01*
X-33625000Y10000000D01*
X-33625000Y12068944D01*
X-33400000Y12068944D01*
X-33400000Y11931056D01*
X-33373099Y11795818D01*
X-33320332Y11668426D01*
X-33243726Y11553776D01*
X-33146224Y11456274D01*
X-33031574Y11379668D01*
X-32904182Y11326901D01*
X-32768944Y11300000D01*
X-32631056Y11300000D01*
X-32495818Y11326901D01*
X-32368426Y11379668D01*
X-32292405Y11430463D01*
X-32278504Y11384640D01*
X-32250647Y11332523D01*
X-32213158Y11286842D01*
X-32167477Y11249353D01*
X-32115360Y11221496D01*
X-32058810Y11204341D01*
X-32000000Y11198549D01*
X-30400000Y11198549D01*
X-30341190Y11204341D01*
X-30284640Y11221496D01*
X-30232523Y11249353D01*
X-30186842Y11286842D01*
X-30149353Y11332523D01*
X-30121496Y11384640D01*
X-30104341Y11441190D01*
X-30098549Y11500000D01*
X-30098549Y11550000D01*
X-29901451Y11550000D01*
X-29901451Y11500000D01*
X-29895659Y11441190D01*
X-29878504Y11384640D01*
X-29850647Y11332523D01*
X-29813158Y11286842D01*
X-29767477Y11249353D01*
X-29715360Y11221496D01*
X-29658810Y11204341D01*
X-29600000Y11198549D01*
X-28000000Y11198549D01*
X-27941190Y11204341D01*
X-27884640Y11221496D01*
X-27832523Y11249353D01*
X-27786842Y11286842D01*
X-27749353Y11332523D01*
X-27721496Y11384640D01*
X-27704341Y11441190D01*
X-27698549Y11500000D01*
X-27698549Y12500000D01*
X-27704341Y12558810D01*
X-27721496Y12615360D01*
X-27749353Y12667477D01*
X-27786842Y12713158D01*
X-27832523Y12750647D01*
X-27884640Y12778504D01*
X-27941190Y12795659D01*
X-28000000Y12801451D01*
X-29600000Y12801451D01*
X-29658810Y12795659D01*
X-29715360Y12778504D01*
X-29767477Y12750647D01*
X-29813158Y12713158D01*
X-29850647Y12667477D01*
X-29878504Y12615360D01*
X-29895659Y12558810D01*
X-29901451Y12500000D01*
X-29901451Y12450000D01*
X-30098549Y12450000D01*
X-30098549Y12500000D01*
X-30104341Y12558810D01*
X-30121496Y12615360D01*
X-30149353Y12667477D01*
X-30186842Y12713158D01*
X-30232523Y12750647D01*
X-30284640Y12778504D01*
X-30341190Y12795659D01*
X-30400000Y12801451D01*
X-32000000Y12801451D01*
X-32058810Y12795659D01*
X-32115360Y12778504D01*
X-32167477Y12750647D01*
X-32213158Y12713158D01*
X-32250647Y12667477D01*
X-32278504Y12615360D01*
X-32292405Y12569537D01*
X-32368426Y12620332D01*
X-32495818Y12673099D01*
X-32631056Y12700000D01*
X-32768944Y12700000D01*
X-32904182Y12673099D01*
X-33031574Y12620332D01*
X-33146224Y12543726D01*
X-33243726Y12446224D01*
X-33320332Y12331574D01*
X-33373099Y12204182D01*
X-33400000Y12068944D01*
X-33625000Y12068944D01*
X-33625000Y15000000D01*
X-32301451Y15000000D01*
X-32301451Y14000000D01*
X-32295659Y13941190D01*
X-32278504Y13884640D01*
X-32250647Y13832523D01*
X-32213158Y13786842D01*
X-32167477Y13749353D01*
X-32115360Y13721496D01*
X-32058810Y13704341D01*
X-32000000Y13698549D01*
X-30400000Y13698549D01*
X-30341190Y13704341D01*
X-30284640Y13721496D01*
X-30232523Y13749353D01*
X-30186842Y13786842D01*
X-30149353Y13832523D01*
X-30121496Y13884640D01*
X-30104341Y13941190D01*
X-30098549Y14000000D01*
X-30098549Y14654909D01*
X-30073869Y14650000D01*
X-29926131Y14650000D01*
X-29901451Y14654909D01*
X-29901451Y14000000D01*
X-29895659Y13941190D01*
X-29878504Y13884640D01*
X-29850647Y13832523D01*
X-29813158Y13786842D01*
X-29767477Y13749353D01*
X-29715360Y13721496D01*
X-29658810Y13704341D01*
X-29600000Y13698549D01*
X-28000000Y13698549D01*
X-27941190Y13704341D01*
X-27884640Y13721496D01*
X-27832523Y13749353D01*
X-27786842Y13786842D01*
X-27749353Y13832523D01*
X-27721496Y13884640D01*
X-27704341Y13941190D01*
X-27698549Y14000000D01*
X-27698549Y15000000D01*
X-27704341Y15058810D01*
X-27721496Y15115360D01*
X-27749353Y15167477D01*
X-27786842Y15213158D01*
X-27832523Y15250647D01*
X-27884640Y15278504D01*
X-27941190Y15295659D01*
X-28000000Y15301451D01*
X-29254909Y15301451D01*
X-29250000Y15326131D01*
X-29250000Y15473869D01*
X-29278822Y15618767D01*
X-29335359Y15755258D01*
X-29417437Y15878097D01*
X-29521903Y15982563D01*
X-29644742Y16064641D01*
X-29781233Y16121178D01*
X-29926131Y16150000D01*
X-30073869Y16150000D01*
X-30218767Y16121178D01*
X-30355258Y16064641D01*
X-30478097Y15982563D01*
X-30582563Y15878097D01*
X-30664641Y15755258D01*
X-30721178Y15618767D01*
X-30750000Y15473869D01*
X-30750000Y15326131D01*
X-30745091Y15301451D01*
X-32000000Y15301451D01*
X-32058810Y15295659D01*
X-32115360Y15278504D01*
X-32167477Y15250647D01*
X-32213158Y15213158D01*
X-32250647Y15167477D01*
X-32278504Y15115360D01*
X-32295659Y15058810D01*
X-32301451Y15000000D01*
X-33625000Y15000000D01*
X-33625000Y19768944D01*
X-8300000Y19768944D01*
X-8300000Y19631056D01*
X-8273099Y19495818D01*
X-8220332Y19368426D01*
X-8143726Y19253776D01*
X-8046224Y19156274D01*
X-7931574Y19079668D01*
X-7804182Y19026901D01*
X-7668944Y19000000D01*
X-7531056Y19000000D01*
X-7507448Y19004696D01*
X-7501975Y18998027D01*
X-7437261Y18944917D01*
X-7363428Y18905453D01*
X-7307618Y18888523D01*
X-7283316Y18881151D01*
X-7274903Y18880322D01*
X-7220875Y18875001D01*
X-7220869Y18875001D01*
X-7200002Y18872946D01*
X-7179135Y18875001D01*
X-2776041Y18875001D01*
X-2425000Y18523960D01*
X-2425000Y18301451D01*
X-2500000Y18301451D01*
X-2558810Y18295659D01*
X-2615360Y18278504D01*
X-2667477Y18250647D01*
X-2713158Y18213158D01*
X-2750647Y18167477D01*
X-2778504Y18115360D01*
X-2795659Y18058810D01*
X-2801451Y18000000D01*
X-2801451Y14600000D01*
X-2795659Y14541190D01*
X-2778504Y14484640D01*
X-2750647Y14432523D01*
X-2713158Y14386842D01*
X-2667477Y14349353D01*
X-2615360Y14321496D01*
X-2558810Y14304341D01*
X-2500000Y14298549D01*
X-1500000Y14298549D01*
X-1441190Y14304341D01*
X-1384640Y14321496D01*
X-1332523Y14349353D01*
X-1286842Y14386842D01*
X-1249353Y14432523D01*
X-1221496Y14484640D01*
X-1204341Y14541190D01*
X-1198549Y14600000D01*
X-1198549Y18000000D01*
X-1204341Y18058810D01*
X-1221496Y18115360D01*
X-1249353Y18167477D01*
X-1286842Y18213158D01*
X-1332523Y18250647D01*
X-1384640Y18278504D01*
X-1441190Y18295659D01*
X-1500000Y18301451D01*
X-1575000Y18301451D01*
X-1575000Y18679126D01*
X-1572944Y18700000D01*
X-1581150Y18783314D01*
X-1605452Y18863427D01*
X-1610540Y18872946D01*
X-1644916Y18937260D01*
X-1698026Y19001974D01*
X-1714242Y19015282D01*
X-2284717Y19585757D01*
X-2298027Y19601975D01*
X-2362741Y19655085D01*
X-2400000Y19675000D01*
X-1676040Y19675000D01*
X-424999Y18423958D01*
X-424999Y18301451D01*
X-500000Y18301451D01*
X-558810Y18295659D01*
X-615360Y18278504D01*
X-667477Y18250647D01*
X-713158Y18213158D01*
X-750647Y18167477D01*
X-778504Y18115360D01*
X-795659Y18058810D01*
X-801451Y18000000D01*
X-801451Y14600000D01*
X-795659Y14541190D01*
X-778504Y14484640D01*
X-750647Y14432523D01*
X-713158Y14386842D01*
X-667477Y14349353D01*
X-615360Y14321496D01*
X-558810Y14304341D01*
X-500000Y14298549D01*
X500000Y14298549D01*
X558810Y14304341D01*
X615360Y14321496D01*
X667477Y14349353D01*
X713158Y14386842D01*
X750647Y14432523D01*
X778504Y14484640D01*
X795659Y14541190D01*
X801451Y14600000D01*
X801451Y18000000D01*
X795659Y18058810D01*
X778504Y18115360D01*
X750647Y18167477D01*
X713158Y18213158D01*
X667477Y18250647D01*
X615360Y18278504D01*
X558810Y18295659D01*
X500000Y18301451D01*
X425000Y18301451D01*
X425000Y18579134D01*
X427055Y18600001D01*
X425000Y18620868D01*
X425000Y18620874D01*
X418850Y18683314D01*
X394548Y18763427D01*
X355084Y18837260D01*
X325797Y18872946D01*
X315280Y18885761D01*
X315279Y18885762D01*
X301974Y18901974D01*
X285762Y18915279D01*
X-1184717Y20385757D01*
X-1198026Y20401974D01*
X-1262740Y20455084D01*
X-1336573Y20494548D01*
X-1416686Y20518850D01*
X-1479126Y20525000D01*
X-1479133Y20525000D01*
X-1500000Y20527055D01*
X-1520867Y20525000D01*
X-5742093Y20525000D01*
X-5756274Y20546224D01*
X-5853776Y20643726D01*
X-5968426Y20720332D01*
X-6095818Y20773099D01*
X-6231056Y20800000D01*
X-6368944Y20800000D01*
X-6504182Y20773099D01*
X-6631574Y20720332D01*
X-6746224Y20643726D01*
X-6843726Y20546224D01*
X-6920332Y20431574D01*
X-6973099Y20304182D01*
X-7000000Y20168944D01*
X-7000000Y20062003D01*
X-7056274Y20146224D01*
X-7153776Y20243726D01*
X-7268426Y20320332D01*
X-7395818Y20373099D01*
X-7531056Y20400000D01*
X-7668944Y20400000D01*
X-7804182Y20373099D01*
X-7931574Y20320332D01*
X-8046224Y20243726D01*
X-8143726Y20146224D01*
X-8220332Y20031574D01*
X-8273099Y19904182D01*
X-8300000Y19768944D01*
X-33625000Y19768944D01*
X-33625000Y22731662D01*
X-33609682Y22887888D01*
X-31900000Y22887888D01*
X-31900000Y22612112D01*
X-31846199Y22341635D01*
X-31740664Y22086851D01*
X-31587451Y21857552D01*
X-31392448Y21662549D01*
X-31163149Y21509336D01*
X-30908365Y21403801D01*
X-30637888Y21350000D01*
X-30362112Y21350000D01*
X-30091635Y21403801D01*
X-29836851Y21509336D01*
X-29607552Y21662549D01*
X-29412549Y21857552D01*
X-29259336Y22086851D01*
X-29153801Y22341635D01*
X-29100000Y22612112D01*
X-29100000Y22887888D01*
X-29153801Y23158365D01*
X-29259336Y23413149D01*
X-29412549Y23642448D01*
X-29607552Y23837451D01*
X-29836851Y23990664D01*
X-30091635Y24096199D01*
X-30362112Y24150000D01*
X-30637888Y24150000D01*
X-30908365Y24096199D01*
X-31163149Y23990664D01*
X-31392448Y23837451D01*
X-31587451Y23642448D01*
X-31740664Y23413149D01*
X-31846199Y23158365D01*
X-31900000Y22887888D01*
X-33609682Y22887888D01*
X-33563721Y23356631D01*
X-33387543Y23940161D01*
X-33101383Y24478350D01*
X-32716134Y24950713D01*
X-32246473Y25339252D01*
X-31710289Y25629165D01*
X-31128006Y25809411D01*
X-30504130Y25874983D01*
X-30499271Y25875000D01*
X-23171916Y25875000D01*
X-23217477Y25850647D01*
G37*
X-23217477Y25850647D02*
X-23263158Y25813158D01*
X-23300647Y25767477D01*
X-23328504Y25715360D01*
X-23345659Y25658810D01*
X-23351451Y25600000D01*
X-23351451Y22000000D01*
X-23345659Y21941190D01*
X-23328504Y21884640D01*
X-23300647Y21832523D01*
X-23263158Y21786842D01*
X-23217477Y21749353D01*
X-23165360Y21721496D01*
X-23108810Y21704341D01*
X-23050000Y21698549D01*
X-21550000Y21698549D01*
X-21491190Y21704341D01*
X-21434640Y21721496D01*
X-21382523Y21749353D01*
X-21336842Y21786842D01*
X-21299353Y21832523D01*
X-21271496Y21884640D01*
X-21254341Y21941190D01*
X-21248549Y22000000D01*
X-21248549Y25600000D01*
X-21254341Y25658810D01*
X-21271496Y25715360D01*
X-21299353Y25767477D01*
X-21336842Y25813158D01*
X-21382523Y25850647D01*
X-21428084Y25875000D01*
X-12571916Y25875000D01*
X-12617477Y25850647D01*
X-12663158Y25813158D01*
X-12700647Y25767477D01*
X-12728504Y25715360D01*
X-12745659Y25658810D01*
X-12751451Y25600000D01*
X-12751451Y22000000D01*
X-12745659Y21941190D01*
X-12728504Y21884640D01*
X-12700647Y21832523D01*
X-12663158Y21786842D01*
X-12617477Y21749353D01*
X-12565360Y21721496D01*
X-12508810Y21704341D01*
X-12450000Y21698549D01*
X-10950000Y21698549D01*
X-10891190Y21704341D01*
X-10834640Y21721496D01*
X-10782523Y21749353D01*
X-10736842Y21786842D01*
X-10699353Y21832523D01*
X-10671496Y21884640D01*
X-10654341Y21941190D01*
X-10648549Y22000000D01*
X-10648549Y25600000D01*
X-10654341Y25658810D01*
X-10671496Y25715360D01*
X-10699353Y25767477D01*
X-10736842Y25813158D01*
X-10782523Y25850647D01*
X-10828084Y25875000D01*
X-9171916Y25875000D01*
X-9217477Y25850647D01*
X-9263158Y25813158D01*
X-9300647Y25767477D01*
X-9328504Y25715360D01*
X-9345659Y25658810D01*
X-9351451Y25600000D01*
X-9351451Y22000000D01*
X-9345659Y21941190D01*
X-9328504Y21884640D01*
X-9300647Y21832523D01*
X-9263158Y21786842D01*
X-9217477Y21749353D01*
X-9165360Y21721496D01*
X-9108810Y21704341D01*
X-9050000Y21698549D01*
X-7550000Y21698549D01*
X-7491190Y21704341D01*
X-7434640Y21721496D01*
X-7382523Y21749353D01*
X-7336842Y21786842D01*
X-7299353Y21832523D01*
X-7271496Y21884640D01*
X-7254341Y21941190D01*
X-7248549Y22000000D01*
X-7248549Y25600000D01*
X-7254341Y25658810D01*
X-7271496Y25715360D01*
X-7299353Y25767477D01*
X-7336842Y25813158D01*
X-7382523Y25850647D01*
X-7428084Y25875000D01*
X1428084Y25875000D01*
X1382523Y25850647D01*
X1336842Y25813158D01*
X1299353Y25767477D01*
X1271496Y25715360D01*
X1254341Y25658810D01*
X1248549Y25600000D01*
X1248549Y22000000D01*
X1254341Y21941190D01*
X1271496Y21884640D01*
X1299353Y21832523D01*
X1336842Y21786842D01*
X1382523Y21749353D01*
X1434640Y21721496D01*
X1491190Y21704341D01*
X1550000Y21698549D01*
X3050000Y21698549D01*
X3108810Y21704341D01*
X3165360Y21721496D01*
X3217477Y21749353D01*
X3263158Y21786842D01*
X3300647Y21832523D01*
X3328504Y21884640D01*
X3345659Y21941190D01*
X3351451Y22000000D01*
X3351451Y22887888D01*
X29100000Y22887888D01*
X29100000Y22612112D01*
X29153801Y22341635D01*
X29259336Y22086851D01*
X29412549Y21857552D01*
X29607552Y21662549D01*
X29836851Y21509336D01*
X30091635Y21403801D01*
X30362112Y21350000D01*
X30637888Y21350000D01*
X30908365Y21403801D01*
X31163149Y21509336D01*
X31392448Y21662549D01*
X31587451Y21857552D01*
X31740664Y22086851D01*
X31846199Y22341635D01*
X31900000Y22612112D01*
X31900000Y22887888D01*
X31846199Y23158365D01*
X31740664Y23413149D01*
X31587451Y23642448D01*
X31392448Y23837451D01*
X31163149Y23990664D01*
X30908365Y24096199D01*
X30637888Y24150000D01*
X30362112Y24150000D01*
X30091635Y24096199D01*
X29836851Y23990664D01*
X29607552Y23837451D01*
X29412549Y23642448D01*
X29259336Y23413149D01*
X29153801Y23158365D01*
X29100000Y22887888D01*
X3351451Y22887888D01*
X3351451Y25600000D01*
X3345659Y25658810D01*
X3328504Y25715360D01*
X3300647Y25767477D01*
X3263158Y25813158D01*
X3217477Y25850647D01*
X3171916Y25875000D01*
X30481662Y25875000D01*
X31106631Y25813721D01*
X31690161Y25637543D01*
X32228350Y25351383D01*
X32700713Y24966134D01*
X33089252Y24496473D01*
X33379165Y23960289D01*
X33559411Y23378006D01*
X33624983Y22754130D01*
X33625001Y22748984D01*
X33625000Y-22731662D01*
X33563721Y-23356631D01*
X33387543Y-23940161D01*
X33101381Y-24478352D01*
X32716132Y-24950715D01*
X32246469Y-25339254D01*
X31710290Y-25629165D01*
X31128012Y-25809410D01*
X30504130Y-25874983D01*
X30499270Y-25875000D01*
X-30481662Y-25875000D01*
X-31106631Y-25813721D01*
X-31690161Y-25637543D01*
X-32228352Y-25351381D01*
X-32700715Y-24966132D01*
X-33089254Y-24496469D01*
X-33379165Y-23960290D01*
X-33559410Y-23378012D01*
X-33624983Y-22754130D01*
X-33625000Y-22749270D01*
X-33625000Y-22612112D01*
X-31900000Y-22612112D01*
X-31900000Y-22887888D01*
X-31846199Y-23158365D01*
X-31740664Y-23413149D01*
X-31587451Y-23642448D01*
X-31392448Y-23837451D01*
X-31163149Y-23990664D01*
X-30908365Y-24096199D01*
X-30637888Y-24150000D01*
X-30362112Y-24150000D01*
X-30091635Y-24096199D01*
X-29836851Y-23990664D01*
X-29607552Y-23837451D01*
X-29412549Y-23642448D01*
X-29259336Y-23413149D01*
X-29153801Y-23158365D01*
X-29100000Y-22887888D01*
X-29100000Y-22612112D01*
X29100000Y-22612112D01*
X29100000Y-22887888D01*
X29153801Y-23158365D01*
X29259336Y-23413149D01*
X29412549Y-23642448D01*
X29607552Y-23837451D01*
X29836851Y-23990664D01*
X30091635Y-24096199D01*
X30362112Y-24150000D01*
X30637888Y-24150000D01*
X30908365Y-24096199D01*
X31163149Y-23990664D01*
X31392448Y-23837451D01*
X31587451Y-23642448D01*
X31740664Y-23413149D01*
X31846199Y-23158365D01*
X31900000Y-22887888D01*
X31900000Y-22612112D01*
X31846199Y-22341635D01*
X31740664Y-22086851D01*
X31587451Y-21857552D01*
X31392448Y-21662549D01*
X31163149Y-21509336D01*
X30908365Y-21403801D01*
X30637888Y-21350000D01*
X30362112Y-21350000D01*
X30091635Y-21403801D01*
X29836851Y-21509336D01*
X29607552Y-21662549D01*
X29412549Y-21857552D01*
X29259336Y-22086851D01*
X29153801Y-22341635D01*
X29100000Y-22612112D01*
X-29100000Y-22612112D01*
X-29153801Y-22341635D01*
X-29259336Y-22086851D01*
X-29412549Y-21857552D01*
X-29607552Y-21662549D01*
X-29836851Y-21509336D01*
X-30091635Y-21403801D01*
X-30362112Y-21350000D01*
X-30637888Y-21350000D01*
X-30908365Y-21403801D01*
X-31163149Y-21509336D01*
X-31392448Y-21662549D01*
X-31587451Y-21857552D01*
X-31740664Y-22086851D01*
X-31846199Y-22341635D01*
X-31900000Y-22612112D01*
X-33625000Y-22612112D01*
X-33625000Y-17786735D01*
X-31550000Y-17786735D01*
X-31550000Y-18013265D01*
X-31505806Y-18235443D01*
X-31419116Y-18444729D01*
X-31293263Y-18633082D01*
X-31133082Y-18793263D01*
X-30944729Y-18919116D01*
X-30735443Y-19005806D01*
X-30513265Y-19050000D01*
X-30286735Y-19050000D01*
X-30064557Y-19005806D01*
X-29855271Y-18919116D01*
X-29666918Y-18793263D01*
X-29506737Y-18633082D01*
X-29380884Y-18444729D01*
X-29294194Y-18235443D01*
X-29250000Y-18013265D01*
X-29250000Y-17786735D01*
X-29294194Y-17564557D01*
X-29380884Y-17355271D01*
X-29506737Y-17166918D01*
X-29666918Y-17006737D01*
X-29855271Y-16880884D01*
X-30064557Y-16794194D01*
X-30286735Y-16750000D01*
X-30513265Y-16750000D01*
X-30735443Y-16794194D01*
X-30944729Y-16880884D01*
X-31133082Y-17006737D01*
X-31293263Y-17166918D01*
X-31419116Y-17355271D01*
X-31505806Y-17564557D01*
X-31550000Y-17786735D01*
X-33625000Y-17786735D01*
X-33625000Y-14721207D01*
X-22700000Y-14721207D01*
X-22700000Y-14878793D01*
X-22669257Y-15033351D01*
X-22608951Y-15178942D01*
X-22521401Y-15309970D01*
X-22409970Y-15421401D01*
X-22278942Y-15508951D01*
X-22133351Y-15569257D01*
X-21978793Y-15600000D01*
X-21821207Y-15600000D01*
X-21666649Y-15569257D01*
X-21521058Y-15508951D01*
X-21390030Y-15421401D01*
X-21278599Y-15309970D01*
X-21191049Y-15178942D01*
X-21130743Y-15033351D01*
X-21100000Y-14878793D01*
X-21100000Y-14721207D01*
X-21130743Y-14566649D01*
X-21191049Y-14421058D01*
X-21278599Y-14290030D01*
X-21390030Y-14178599D01*
X-21521058Y-14091049D01*
X-21666649Y-14030743D01*
X-21821207Y-14000000D01*
X-21978793Y-14000000D01*
X-22133351Y-14030743D01*
X-22278942Y-14091049D01*
X-22409970Y-14178599D01*
X-22521401Y-14290030D01*
X-22608951Y-14421058D01*
X-22669257Y-14566649D01*
X-22700000Y-14721207D01*
X-33625000Y-14721207D01*
X-33625000Y-13831056D01*
X-16000000Y-13831056D01*
X-16000000Y-13968944D01*
X-15973099Y-14104182D01*
X-15920332Y-14231574D01*
X-15843726Y-14346224D01*
X-15746224Y-14443726D01*
X-15631574Y-14520332D01*
X-15504182Y-14573099D01*
X-15368944Y-14600000D01*
X-15307105Y-14600000D01*
X-14100000Y-15807106D01*
X-14099999Y-19010049D01*
X-14143726Y-19053776D01*
X-14220332Y-19168426D01*
X-14273099Y-19295818D01*
X-14300000Y-19431056D01*
X-14300000Y-19568944D01*
X-14273099Y-19704182D01*
X-14220332Y-19831574D01*
X-14143726Y-19946224D01*
X-14046224Y-20043726D01*
X-13931574Y-20120332D01*
X-13804182Y-20173099D01*
X-13668944Y-20200000D01*
X-13531056Y-20200000D01*
X-13395818Y-20173099D01*
X-13268426Y-20120332D01*
X-13153776Y-20043726D01*
X-13056274Y-19946224D01*
X-12979668Y-19831574D01*
X-12926901Y-19704182D01*
X-12900000Y-19568944D01*
X-12900000Y-19431056D01*
X-12926901Y-19295818D01*
X-12979668Y-19168426D01*
X-13056274Y-19053776D01*
X-13100000Y-19010050D01*
X-13100000Y-15807105D01*
X-10892894Y-13600000D01*
X-9989950Y-13600000D01*
X-10043726Y-13653776D01*
X-10120332Y-13768426D01*
X-10173099Y-13895818D01*
X-10200000Y-14031056D01*
X-10200000Y-14168944D01*
X-10173099Y-14304182D01*
X-10120332Y-14431574D01*
X-10043726Y-14546224D01*
X-9946224Y-14643726D01*
X-9925000Y-14657908D01*
X-9925000Y-14923959D01*
X-9976040Y-14975000D01*
X-10942093Y-14975000D01*
X-10956274Y-14953776D01*
X-11053776Y-14856274D01*
X-11168426Y-14779668D01*
X-11295818Y-14726901D01*
X-11431056Y-14700000D01*
X-11568944Y-14700000D01*
X-11704182Y-14726901D01*
X-11831574Y-14779668D01*
X-11946224Y-14856274D01*
X-12043726Y-14953776D01*
X-12120332Y-15068426D01*
X-12173099Y-15195818D01*
X-12200000Y-15331056D01*
X-12200000Y-15468944D01*
X-12173099Y-15604182D01*
X-12120332Y-15731574D01*
X-12043726Y-15846224D01*
X-11946224Y-15943726D01*
X-11870720Y-15994176D01*
X-11920332Y-16068426D01*
X-11973099Y-16195818D01*
X-12000000Y-16331056D01*
X-12000000Y-16468944D01*
X-11973099Y-16604182D01*
X-11920332Y-16731574D01*
X-11843726Y-16846224D01*
X-11746224Y-16943726D01*
X-11631574Y-17020332D01*
X-11504182Y-17073099D01*
X-11368944Y-17100000D01*
X-11231056Y-17100000D01*
X-11095818Y-17073099D01*
X-10968426Y-17020332D01*
X-10853776Y-16943726D01*
X-10756274Y-16846224D01*
X-10742093Y-16825000D01*
X-5598795Y-16825000D01*
X-5600000Y-16831056D01*
X-5600000Y-16968944D01*
X-5573099Y-17104182D01*
X-5520332Y-17231574D01*
X-5443726Y-17346224D01*
X-5346224Y-17443726D01*
X-5231574Y-17520332D01*
X-5104182Y-17573099D01*
X-4968944Y-17600000D01*
X-4831056Y-17600000D01*
X-4695818Y-17573099D01*
X-4568426Y-17520332D01*
X-4453776Y-17443726D01*
X-4356274Y-17346224D01*
X-4279668Y-17231574D01*
X-4226901Y-17104182D01*
X-4200000Y-16968944D01*
X-4200000Y-16831056D01*
X-4226901Y-16695818D01*
X-4279668Y-16568426D01*
X-4356274Y-16453776D01*
X-4453776Y-16356274D01*
X-4568426Y-16279668D01*
X-4695818Y-16226901D01*
X-4831056Y-16200000D01*
X-4968944Y-16200000D01*
X-4993980Y-16204980D01*
X-5084717Y-16114243D01*
X-5098026Y-16098026D01*
X-5162740Y-16044916D01*
X-5236573Y-16005452D01*
X-5316686Y-15981150D01*
X-5379126Y-15975000D01*
X-5379133Y-15975000D01*
X-5400000Y-15972945D01*
X-5420867Y-15975000D01*
X-10742093Y-15975000D01*
X-10756274Y-15953776D01*
X-10853776Y-15856274D01*
X-10900581Y-15825000D01*
X-9820867Y-15825000D01*
X-9800000Y-15827055D01*
X-9779133Y-15825000D01*
X-9779126Y-15825000D01*
X-9716686Y-15818850D01*
X-9636573Y-15794548D01*
X-9562740Y-15755084D01*
X-9498026Y-15701974D01*
X-9484717Y-15685757D01*
X-9214237Y-15415278D01*
X-9198026Y-15401974D01*
X-9144916Y-15337260D01*
X-9105452Y-15263427D01*
X-9081150Y-15183314D01*
X-9075000Y-15120874D01*
X-9075000Y-15120868D01*
X-9072945Y-15100001D01*
X-9075000Y-15079134D01*
X-9075000Y-14657907D01*
X-9053776Y-14643726D01*
X-8956274Y-14546224D01*
X-8879668Y-14431574D01*
X-8843919Y-14345266D01*
X-8731574Y-14420332D01*
X-8604182Y-14473099D01*
X-8468944Y-14500000D01*
X-8331056Y-14500000D01*
X-8195818Y-14473099D01*
X-8068426Y-14420332D01*
X-7953776Y-14343726D01*
X-7856274Y-14246224D01*
X-7779668Y-14131574D01*
X-7726901Y-14004182D01*
X-7700000Y-13868944D01*
X-7700000Y-13731056D01*
X-7726901Y-13595818D01*
X-7779668Y-13468426D01*
X-7856274Y-13353776D01*
X-7953776Y-13256274D01*
X-8068426Y-13179668D01*
X-8195818Y-13126901D01*
X-8331056Y-13100000D01*
X-8392894Y-13100000D01*
X-8729071Y-12763824D01*
X-8744736Y-12744736D01*
X-8820871Y-12682254D01*
X-8907733Y-12635825D01*
X-9001983Y-12607235D01*
X-9075440Y-12600000D01*
X-9100000Y-12597581D01*
X-9124560Y-12600000D01*
X-11075440Y-12600000D01*
X-11100000Y-12597581D01*
X-11124560Y-12600000D01*
X-11198017Y-12607235D01*
X-11292267Y-12635825D01*
X-11379129Y-12682254D01*
X-11455264Y-12744736D01*
X-11470925Y-12763819D01*
X-13600000Y-14892895D01*
X-14600000Y-13892895D01*
X-14600000Y-13831056D01*
X-14626901Y-13695818D01*
X-14679668Y-13568426D01*
X-14756274Y-13453776D01*
X-14853776Y-13356274D01*
X-14968426Y-13279668D01*
X-15095818Y-13226901D01*
X-15231056Y-13200000D01*
X-15368944Y-13200000D01*
X-15504182Y-13226901D01*
X-15631574Y-13279668D01*
X-15746224Y-13356274D01*
X-15843726Y-13453776D01*
X-15920332Y-13568426D01*
X-15973099Y-13695818D01*
X-16000000Y-13831056D01*
X-33625000Y-13831056D01*
X-33625000Y-8731056D01*
X-12100000Y-8731056D01*
X-12100000Y-8868944D01*
X-12073099Y-9004182D01*
X-12020332Y-9131574D01*
X-11943726Y-9246224D01*
X-11846224Y-9343726D01*
X-11731574Y-9420332D01*
X-11604182Y-9473099D01*
X-11468944Y-9500000D01*
X-11331056Y-9500000D01*
X-11195818Y-9473099D01*
X-11068426Y-9420332D01*
X-10953776Y-9343726D01*
X-10856274Y-9246224D01*
X-10842093Y-9225000D01*
X-10057907Y-9225000D01*
X-10043726Y-9246224D01*
X-9946224Y-9343726D01*
X-9831574Y-9420332D01*
X-9704182Y-9473099D01*
X-9568944Y-9500000D01*
X-9431056Y-9500000D01*
X-9295818Y-9473099D01*
X-9168426Y-9420332D01*
X-9053776Y-9343726D01*
X-8956274Y-9246224D01*
X-8879668Y-9131574D01*
X-8826901Y-9004182D01*
X-8800000Y-8868944D01*
X-8800000Y-8731056D01*
X-8826901Y-8595818D01*
X-8879668Y-8468426D01*
X-8956274Y-8353776D01*
X-9053776Y-8256274D01*
X-9168426Y-8179668D01*
X-9295818Y-8126901D01*
X-9431056Y-8100000D01*
X-9568944Y-8100000D01*
X-9704182Y-8126901D01*
X-9831574Y-8179668D01*
X-9946224Y-8256274D01*
X-10043726Y-8353776D01*
X-10057907Y-8375000D01*
X-10842093Y-8375000D01*
X-10856274Y-8353776D01*
X-10953776Y-8256274D01*
X-11068426Y-8179668D01*
X-11195818Y-8126901D01*
X-11331056Y-8100000D01*
X-11468944Y-8100000D01*
X-11604182Y-8126901D01*
X-11731574Y-8179668D01*
X-11846224Y-8256274D01*
X-11943726Y-8353776D01*
X-12020332Y-8468426D01*
X-12073099Y-8595818D01*
X-12100000Y-8731056D01*
X-33625000Y-8731056D01*
X-33625000Y3778793D01*
X-20500000Y3778793D01*
X-20500000Y3621207D01*
X-20469257Y3466649D01*
X-20408951Y3321058D01*
X-20321401Y3190030D01*
X-20209970Y3078599D01*
X-20078942Y2991049D01*
X-19933351Y2930743D01*
X-19778793Y2900000D01*
X-19621207Y2900000D01*
X-19466649Y2930743D01*
X-19321058Y2991049D01*
X-19190030Y3078599D01*
X-19078599Y3190030D01*
X-18991049Y3321058D01*
X-18930743Y3466649D01*
X-18900000Y3621207D01*
X-18900000Y3778793D01*
X-18930743Y3933351D01*
X-18991049Y4078942D01*
X-19078599Y4209970D01*
X-19190030Y4321401D01*
X-19321058Y4408951D01*
X-19466649Y4469257D01*
X-19621207Y4500000D01*
X-19778793Y4500000D01*
X-19933351Y4469257D01*
X-20078942Y4408951D01*
X-20209970Y4321401D01*
X-20321401Y4209970D01*
X-20408951Y4078942D01*
X-20469257Y3933351D01*
X-20500000Y3778793D01*
X-33625000Y3778793D01*
X-33625000Y5968944D01*
X-25700000Y5968944D01*
X-25700000Y5831056D01*
X-25673099Y5695818D01*
X-25620332Y5568426D01*
X-25543726Y5453776D01*
X-25446224Y5356274D01*
X-25331574Y5279668D01*
X-25204182Y5226901D01*
X-25068944Y5200000D01*
X-24931056Y5200000D01*
X-24795818Y5226901D01*
X-24668426Y5279668D01*
X-24553776Y5356274D01*
X-24456274Y5453776D01*
X-24379668Y5568426D01*
X-24326901Y5695818D01*
X-24300000Y5831056D01*
X-24300000Y5963605D01*
X-23226777Y7036827D01*
X-23146224Y6956274D01*
X-23031574Y6879668D01*
X-22904182Y6826901D01*
X-22768944Y6800000D01*
X-22631056Y6800000D01*
X-22495818Y6826901D01*
X-22394317Y6868944D01*
X-12200000Y6868944D01*
X-12200000Y6731056D01*
X-12173099Y6595818D01*
X-12120332Y6468426D01*
X-12043726Y6353776D01*
X-11946224Y6256274D01*
X-11831574Y6179668D01*
X-11704182Y6126901D01*
X-11568944Y6100000D01*
X-11431056Y6100000D01*
X-11295818Y6126901D01*
X-11168426Y6179668D01*
X-11053776Y6256274D01*
X-10956274Y6353776D01*
X-10942093Y6375000D01*
X-9557907Y6375000D01*
X-9543726Y6353776D01*
X-9446224Y6256274D01*
X-9331574Y6179668D01*
X-9204182Y6126901D01*
X-9068944Y6100000D01*
X-8931056Y6100000D01*
X-8795818Y6126901D01*
X-8668426Y6179668D01*
X-8553776Y6256274D01*
X-8456274Y6353776D01*
X-8379668Y6468426D01*
X-8326901Y6595818D01*
X-8300000Y6731056D01*
X-8300000Y6868944D01*
X-8326901Y7004182D01*
X-8379668Y7131574D01*
X-8456274Y7246224D01*
X-8553776Y7343726D01*
X-8668426Y7420332D01*
X-8795818Y7473099D01*
X-8931056Y7500000D01*
X-9068944Y7500000D01*
X-9204182Y7473099D01*
X-9331574Y7420332D01*
X-9446224Y7343726D01*
X-9543726Y7246224D01*
X-9557907Y7225000D01*
X-10942093Y7225000D01*
X-10956274Y7246224D01*
X-11053776Y7343726D01*
X-11168426Y7420332D01*
X-11295818Y7473099D01*
X-11431056Y7500000D01*
X-11568944Y7500000D01*
X-11704182Y7473099D01*
X-11831574Y7420332D01*
X-11946224Y7343726D01*
X-12043726Y7246224D01*
X-12120332Y7131574D01*
X-12173099Y7004182D01*
X-12200000Y6868944D01*
X-22394317Y6868944D01*
X-22368426Y6879668D01*
X-22253776Y6956274D01*
X-22156274Y7053776D01*
X-22079668Y7168426D01*
X-22026901Y7295818D01*
X-22000000Y7431056D01*
X-22000000Y7568944D01*
X-22026901Y7704182D01*
X-22079668Y7831574D01*
X-22156274Y7946224D01*
X-22253776Y8043726D01*
X-22368426Y8120332D01*
X-22495818Y8173099D01*
X-22631056Y8200000D01*
X-22768944Y8200000D01*
X-22904182Y8173099D01*
X-23031574Y8120332D01*
X-23146224Y8043726D01*
X-23239950Y7950000D01*
X-23377906Y7950000D01*
X-23400000Y7952176D01*
X-23422094Y7950000D01*
X-23422105Y7950000D01*
X-23488215Y7943489D01*
X-23573041Y7917757D01*
X-23651217Y7875971D01*
X-23702568Y7833828D01*
X-23702572Y7833824D01*
X-23719737Y7819737D01*
X-23733824Y7802572D01*
X-24936395Y6600000D01*
X-25068944Y6600000D01*
X-25204182Y6573099D01*
X-25331574Y6520332D01*
X-25446224Y6443726D01*
X-25543726Y6346224D01*
X-25620332Y6231574D01*
X-25673099Y6104182D01*
X-25700000Y5968944D01*
X-33625000Y5968944D01*
X-33625000Y10000000D01*
X-32301451Y10000000D01*
X-32301451Y9000000D01*
X-32295659Y8941190D01*
X-32278504Y8884640D01*
X-32250647Y8832523D01*
X-32213158Y8786842D01*
X-32167477Y8749353D01*
X-32115360Y8721496D01*
X-32058810Y8704341D01*
X-32000000Y8698549D01*
X-30745091Y8698549D01*
X-30750000Y8673869D01*
X-30750000Y8526131D01*
X-30721178Y8381233D01*
X-30664641Y8244742D01*
X-30582563Y8121903D01*
X-30478097Y8017437D01*
X-30355258Y7935359D01*
X-30218767Y7878822D01*
X-30073869Y7850000D01*
X-29926131Y7850000D01*
X-29781233Y7878822D01*
X-29644742Y7935359D01*
X-29521903Y8017437D01*
X-29417437Y8121903D01*
X-29335359Y8244742D01*
X-29278822Y8381233D01*
X-29250000Y8526131D01*
X-29250000Y8673869D01*
X-29254909Y8698549D01*
X-28000000Y8698549D01*
X-27941190Y8704341D01*
X-27884640Y8721496D01*
X-27832523Y8749353D01*
X-27786842Y8786842D01*
X-27749353Y8832523D01*
X-27721496Y8884640D01*
X-27707595Y8930463D01*
X-27631574Y8879668D01*
X-27504182Y8826901D01*
X-27368944Y8800000D01*
X-27231056Y8800000D01*
X-27095818Y8826901D01*
X-26968426Y8879668D01*
X-26853776Y8956274D01*
X-26756274Y9053776D01*
X-26679668Y9168426D01*
X-26626901Y9295818D01*
X-26600000Y9431056D01*
X-26600000Y9568944D01*
X-26626901Y9704182D01*
X-26679668Y9831574D01*
X-26718001Y9888944D01*
X-24300000Y9888944D01*
X-24300000Y9751056D01*
X-24273099Y9615818D01*
X-24220332Y9488426D01*
X-24143726Y9373776D01*
X-24046224Y9276274D01*
X-23931574Y9199668D01*
X-23804182Y9146901D01*
X-23668944Y9120000D01*
X-23531056Y9120000D01*
X-23395818Y9146901D01*
X-23268426Y9199668D01*
X-23153776Y9276274D01*
X-23110050Y9320000D01*
X-20104560Y9320000D01*
X-20080000Y9317581D01*
X-20055440Y9320000D01*
X-19981983Y9327235D01*
X-19887733Y9355825D01*
X-19800871Y9402254D01*
X-19724736Y9464736D01*
X-19709071Y9483824D01*
X-17963819Y11229075D01*
X-17944736Y11244736D01*
X-17882254Y11320871D01*
X-17835825Y11407733D01*
X-17807235Y11501983D01*
X-17800000Y11575440D01*
X-17800000Y11575441D01*
X-17797581Y11599999D01*
X-17800000Y11624557D01*
X-17800000Y12307072D01*
X-17792242Y12311219D01*
X-17713412Y12375912D01*
X-17648719Y12454742D01*
X-17600647Y12544678D01*
X-17571045Y12642264D01*
X-17561049Y12743750D01*
X-17561049Y13256250D01*
X-17571045Y13357736D01*
X-17600647Y13455322D01*
X-17648719Y13545258D01*
X-17713412Y13624088D01*
X-17743838Y13649057D01*
X-17663824Y13729071D01*
X-17644736Y13744736D01*
X-17582254Y13820871D01*
X-17535825Y13907733D01*
X-17507235Y14001983D01*
X-17500000Y14075440D01*
X-17500000Y14075441D01*
X-17497581Y14099999D01*
X-17500000Y14124557D01*
X-17500000Y14298549D01*
X-17441190Y14304341D01*
X-17384640Y14321496D01*
X-17332523Y14349353D01*
X-17286842Y14386842D01*
X-17249353Y14432523D01*
X-17221496Y14484640D01*
X-17204341Y14541190D01*
X-17198549Y14600000D01*
X-17198549Y18000000D01*
X-16801451Y18000000D01*
X-16801451Y14600000D01*
X-16795659Y14541190D01*
X-16778504Y14484640D01*
X-16750647Y14432523D01*
X-16713158Y14386842D01*
X-16667477Y14349353D01*
X-16615360Y14321496D01*
X-16558810Y14304341D01*
X-16500000Y14298549D01*
X-15864234Y14298549D01*
X-15700000Y14134315D01*
X-15700000Y13974612D01*
X-15746224Y13943726D01*
X-15843726Y13846224D01*
X-15920332Y13731574D01*
X-15973099Y13604182D01*
X-16000000Y13468944D01*
X-16000000Y13331056D01*
X-15973099Y13195818D01*
X-15920332Y13068426D01*
X-15843726Y12953776D01*
X-15746224Y12856274D01*
X-15631574Y12779668D01*
X-15504182Y12726901D01*
X-15368944Y12700000D01*
X-15231056Y12700000D01*
X-15095818Y12726901D01*
X-14968426Y12779668D01*
X-14853776Y12856274D01*
X-14756274Y12953776D01*
X-14679668Y13068426D01*
X-14626901Y13195818D01*
X-14614881Y13256250D01*
X-4951451Y13256250D01*
X-4951451Y12743750D01*
X-4941455Y12642264D01*
X-4911853Y12544678D01*
X-4863781Y12454742D01*
X-4799088Y12375912D01*
X-4720258Y12311219D01*
X-4712499Y12307072D01*
X-4712500Y10537060D01*
X-4714919Y10512500D01*
X-4712500Y10487941D01*
X-4705265Y10414484D01*
X-4676675Y10320234D01*
X-4630246Y10233371D01*
X-4567764Y10157236D01*
X-4548676Y10141571D01*
X-4500000Y10092895D01*
X-4500000Y10031056D01*
X-4473099Y9895818D01*
X-4420332Y9768426D01*
X-4343726Y9653776D01*
X-4246224Y9556274D01*
X-4131574Y9479668D01*
X-4004182Y9426901D01*
X-3868944Y9400000D01*
X-3731056Y9400000D01*
X-3595818Y9426901D01*
X-3468426Y9479668D01*
X-3353776Y9556274D01*
X-3256274Y9653776D01*
X-3179668Y9768426D01*
X-3126901Y9895818D01*
X-3100000Y10031056D01*
X-3100000Y10168944D01*
X-3126901Y10304182D01*
X-3179668Y10431574D01*
X-3256274Y10546224D01*
X-3353776Y10643726D01*
X-3468426Y10720332D01*
X-3595818Y10773099D01*
X-3712500Y10796309D01*
X-3712500Y12307072D01*
X-3704742Y12311219D01*
X-3625912Y12375912D01*
X-3561219Y12454742D01*
X-3513147Y12544678D01*
X-3483545Y12642264D01*
X-3473549Y12743750D01*
X-3473549Y13256250D01*
X-3483545Y13357736D01*
X-3513147Y13455322D01*
X-3561219Y13545258D01*
X-3625912Y13624088D01*
X-3700000Y13684889D01*
X-3700000Y13692894D01*
X-3663819Y13729075D01*
X-3644736Y13744736D01*
X-3582254Y13820871D01*
X-3535825Y13907733D01*
X-3507235Y14001983D01*
X-3505428Y14020332D01*
X-3497581Y14100000D01*
X-3500000Y14124560D01*
X-3500000Y14298549D01*
X-3441190Y14304341D01*
X-3384640Y14321496D01*
X-3332523Y14349353D01*
X-3286842Y14386842D01*
X-3249353Y14432523D01*
X-3221496Y14484640D01*
X-3204341Y14541190D01*
X-3198549Y14600000D01*
X-3198549Y18000000D01*
X-3204341Y18058810D01*
X-3221496Y18115360D01*
X-3249353Y18167477D01*
X-3286842Y18213158D01*
X-3332523Y18250647D01*
X-3384640Y18278504D01*
X-3441190Y18295659D01*
X-3500000Y18301451D01*
X-4500000Y18301451D01*
X-4558810Y18295659D01*
X-4615360Y18278504D01*
X-4667477Y18250647D01*
X-4713158Y18213158D01*
X-4750647Y18167477D01*
X-4778504Y18115360D01*
X-4795659Y18058810D01*
X-4801451Y18000000D01*
X-4801451Y14600000D01*
X-4795659Y14541190D01*
X-4778504Y14484640D01*
X-4750647Y14432523D01*
X-4713158Y14386842D01*
X-4667477Y14349353D01*
X-4615360Y14321496D01*
X-4558810Y14304341D01*
X-4507789Y14299316D01*
X-4536181Y14270924D01*
X-4555263Y14255264D01*
X-4617745Y14179129D01*
X-4651601Y14115789D01*
X-4664174Y14092267D01*
X-4692765Y13998017D01*
X-4702419Y13900000D01*
X-4700000Y13875440D01*
X-4700000Y13699609D01*
X-4720258Y13688781D01*
X-4799088Y13624088D01*
X-4863781Y13545258D01*
X-4911853Y13455322D01*
X-4941455Y13357736D01*
X-4951451Y13256250D01*
X-14614881Y13256250D01*
X-14600000Y13331056D01*
X-14600000Y13468944D01*
X-14626901Y13604182D01*
X-14679668Y13731574D01*
X-14756274Y13846224D01*
X-14853776Y13943726D01*
X-14900000Y13974612D01*
X-14900000Y14280365D01*
X-14898066Y14300001D01*
X-14900000Y14319637D01*
X-14900000Y14319647D01*
X-14905788Y14378414D01*
X-14928660Y14453814D01*
X-14965803Y14523303D01*
X-15015789Y14584211D01*
X-15031051Y14596736D01*
X-15198549Y14764234D01*
X-15198549Y18000000D01*
X-14801451Y18000000D01*
X-14801451Y14600000D01*
X-14795659Y14541190D01*
X-14778504Y14484640D01*
X-14750647Y14432523D01*
X-14713158Y14386842D01*
X-14667477Y14349353D01*
X-14615360Y14321496D01*
X-14558810Y14304341D01*
X-14500000Y14298549D01*
X-13764234Y14298549D01*
X-13596737Y14131052D01*
X-13584211Y14115789D01*
X-13523303Y14065803D01*
X-13453814Y14028660D01*
X-13378414Y14005788D01*
X-13319647Y14000000D01*
X-13319637Y14000000D01*
X-13300001Y13998066D01*
X-13280365Y14000000D01*
X-13053961Y14000000D01*
X-13034315Y13998065D01*
X-13014669Y14000000D01*
X-13014668Y14000000D01*
X-12955901Y14005788D01*
X-12880501Y14028660D01*
X-12811012Y14065803D01*
X-12750104Y14115789D01*
X-12737578Y14131052D01*
X-12431047Y14437582D01*
X-12415789Y14450104D01*
X-12398706Y14470919D01*
X-12365803Y14511012D01*
X-12328660Y14580501D01*
X-12305788Y14655901D01*
X-12304267Y14671340D01*
X-12300000Y14714668D01*
X-12298870Y14726144D01*
X-12253776Y14756274D01*
X-12156274Y14853776D01*
X-12079668Y14968426D01*
X-12026901Y15095818D01*
X-12000000Y15231056D01*
X-12000000Y15368944D01*
X-12026901Y15504182D01*
X-12079668Y15631574D01*
X-12156274Y15746224D01*
X-12253776Y15843726D01*
X-12368426Y15920332D01*
X-12495818Y15973099D01*
X-12631056Y16000000D01*
X-12768944Y16000000D01*
X-12904182Y15973099D01*
X-13031574Y15920332D01*
X-13146224Y15843726D01*
X-13198549Y15791401D01*
X-13198549Y18000000D01*
X-13204341Y18058810D01*
X-13221496Y18115360D01*
X-13249353Y18167477D01*
X-13286842Y18213158D01*
X-13332523Y18250647D01*
X-13384640Y18278504D01*
X-13441190Y18295659D01*
X-13500000Y18301451D01*
X-14500000Y18301451D01*
X-14558810Y18295659D01*
X-14615360Y18278504D01*
X-14667477Y18250647D01*
X-14713158Y18213158D01*
X-14750647Y18167477D01*
X-14778504Y18115360D01*
X-14795659Y18058810D01*
X-14801451Y18000000D01*
X-15198549Y18000000D01*
X-15204341Y18058810D01*
X-15221496Y18115360D01*
X-15249353Y18167477D01*
X-15286842Y18213158D01*
X-15332523Y18250647D01*
X-15384640Y18278504D01*
X-15441190Y18295659D01*
X-15500000Y18301451D01*
X-16500000Y18301451D01*
X-16558810Y18295659D01*
X-16615360Y18278504D01*
X-16667477Y18250647D01*
X-16713158Y18213158D01*
X-16750647Y18167477D01*
X-16778504Y18115360D01*
X-16795659Y18058810D01*
X-16801451Y18000000D01*
X-17198549Y18000000D01*
X-17204341Y18058810D01*
X-17221496Y18115360D01*
X-17249353Y18167477D01*
X-17286842Y18213158D01*
X-17332523Y18250647D01*
X-17384640Y18278504D01*
X-17441190Y18295659D01*
X-17500000Y18301451D01*
X-18500000Y18301451D01*
X-18558810Y18295659D01*
X-18615360Y18278504D01*
X-18667477Y18250647D01*
X-18713158Y18213158D01*
X-18750647Y18167477D01*
X-18778504Y18115360D01*
X-18795659Y18058810D01*
X-18801451Y18000000D01*
X-18801451Y14600000D01*
X-18795659Y14541190D01*
X-18778504Y14484640D01*
X-18750647Y14432523D01*
X-18713158Y14386842D01*
X-18667477Y14349353D01*
X-18615360Y14321496D01*
X-18558810Y14304341D01*
X-18507789Y14299316D01*
X-18636176Y14170929D01*
X-18655264Y14155264D01*
X-18717746Y14079129D01*
X-18764175Y13992266D01*
X-18782983Y13930264D01*
X-18792765Y13898017D01*
X-18802419Y13800000D01*
X-18800000Y13775439D01*
X-18800000Y13692928D01*
X-18807758Y13688781D01*
X-18886588Y13624088D01*
X-18951281Y13545258D01*
X-18999353Y13455322D01*
X-19028955Y13357736D01*
X-19038951Y13256250D01*
X-19038951Y12743750D01*
X-19028955Y12642264D01*
X-18999353Y12544678D01*
X-18951281Y12454742D01*
X-18886588Y12375912D01*
X-18807758Y12311219D01*
X-18799999Y12307072D01*
X-18800000Y11807106D01*
X-20287105Y10320000D01*
X-23110050Y10320000D01*
X-23153776Y10363726D01*
X-23268426Y10440332D01*
X-23395818Y10493099D01*
X-23531056Y10520000D01*
X-23668944Y10520000D01*
X-23804182Y10493099D01*
X-23931574Y10440332D01*
X-24046224Y10363726D01*
X-24143726Y10266224D01*
X-24220332Y10151574D01*
X-24273099Y10024182D01*
X-24300000Y9888944D01*
X-26718001Y9888944D01*
X-26756274Y9946224D01*
X-26853776Y10043726D01*
X-26968426Y10120332D01*
X-27095818Y10173099D01*
X-27231056Y10200000D01*
X-27368944Y10200000D01*
X-27504182Y10173099D01*
X-27631574Y10120332D01*
X-27707595Y10069537D01*
X-27721496Y10115360D01*
X-27749353Y10167477D01*
X-27786842Y10213158D01*
X-27832523Y10250647D01*
X-27884640Y10278504D01*
X-27941190Y10295659D01*
X-28000000Y10301451D01*
X-29600000Y10301451D01*
X-29658810Y10295659D01*
X-29715360Y10278504D01*
X-29767477Y10250647D01*
X-29813158Y10213158D01*
X-29850647Y10167477D01*
X-29878504Y10115360D01*
X-29895659Y10058810D01*
X-29901451Y10000000D01*
X-29901451Y9950000D01*
X-30098549Y9950000D01*
X-30098549Y10000000D01*
X-30104341Y10058810D01*
X-30121496Y10115360D01*
X-30149353Y10167477D01*
X-30186842Y10213158D01*
X-30232523Y10250647D01*
X-30284640Y10278504D01*
X-30341190Y10295659D01*
X-30400000Y10301451D01*
X-32000000Y10301451D01*
X-32058810Y10295659D01*
X-32115360Y10278504D01*
X-32167477Y10250647D01*
X-32213158Y10213158D01*
X-32250647Y10167477D01*
X-32278504Y10115360D01*
X-32295659Y10058810D01*
X-32301451Y10000000D01*
X-33625000Y10000000D01*
X-33625000Y12068944D01*
X-33400000Y12068944D01*
X-33400000Y11931056D01*
X-33373099Y11795818D01*
X-33320332Y11668426D01*
X-33243726Y11553776D01*
X-33146224Y11456274D01*
X-33031574Y11379668D01*
X-32904182Y11326901D01*
X-32768944Y11300000D01*
X-32631056Y11300000D01*
X-32495818Y11326901D01*
X-32368426Y11379668D01*
X-32292405Y11430463D01*
X-32278504Y11384640D01*
X-32250647Y11332523D01*
X-32213158Y11286842D01*
X-32167477Y11249353D01*
X-32115360Y11221496D01*
X-32058810Y11204341D01*
X-32000000Y11198549D01*
X-30400000Y11198549D01*
X-30341190Y11204341D01*
X-30284640Y11221496D01*
X-30232523Y11249353D01*
X-30186842Y11286842D01*
X-30149353Y11332523D01*
X-30121496Y11384640D01*
X-30104341Y11441190D01*
X-30098549Y11500000D01*
X-30098549Y11550000D01*
X-29901451Y11550000D01*
X-29901451Y11500000D01*
X-29895659Y11441190D01*
X-29878504Y11384640D01*
X-29850647Y11332523D01*
X-29813158Y11286842D01*
X-29767477Y11249353D01*
X-29715360Y11221496D01*
X-29658810Y11204341D01*
X-29600000Y11198549D01*
X-28000000Y11198549D01*
X-27941190Y11204341D01*
X-27884640Y11221496D01*
X-27832523Y11249353D01*
X-27786842Y11286842D01*
X-27749353Y11332523D01*
X-27721496Y11384640D01*
X-27704341Y11441190D01*
X-27698549Y11500000D01*
X-27698549Y12500000D01*
X-27704341Y12558810D01*
X-27721496Y12615360D01*
X-27749353Y12667477D01*
X-27786842Y12713158D01*
X-27832523Y12750647D01*
X-27884640Y12778504D01*
X-27941190Y12795659D01*
X-28000000Y12801451D01*
X-29600000Y12801451D01*
X-29658810Y12795659D01*
X-29715360Y12778504D01*
X-29767477Y12750647D01*
X-29813158Y12713158D01*
X-29850647Y12667477D01*
X-29878504Y12615360D01*
X-29895659Y12558810D01*
X-29901451Y12500000D01*
X-29901451Y12450000D01*
X-30098549Y12450000D01*
X-30098549Y12500000D01*
X-30104341Y12558810D01*
X-30121496Y12615360D01*
X-30149353Y12667477D01*
X-30186842Y12713158D01*
X-30232523Y12750647D01*
X-30284640Y12778504D01*
X-30341190Y12795659D01*
X-30400000Y12801451D01*
X-32000000Y12801451D01*
X-32058810Y12795659D01*
X-32115360Y12778504D01*
X-32167477Y12750647D01*
X-32213158Y12713158D01*
X-32250647Y12667477D01*
X-32278504Y12615360D01*
X-32292405Y12569537D01*
X-32368426Y12620332D01*
X-32495818Y12673099D01*
X-32631056Y12700000D01*
X-32768944Y12700000D01*
X-32904182Y12673099D01*
X-33031574Y12620332D01*
X-33146224Y12543726D01*
X-33243726Y12446224D01*
X-33320332Y12331574D01*
X-33373099Y12204182D01*
X-33400000Y12068944D01*
X-33625000Y12068944D01*
X-33625000Y15000000D01*
X-32301451Y15000000D01*
X-32301451Y14000000D01*
X-32295659Y13941190D01*
X-32278504Y13884640D01*
X-32250647Y13832523D01*
X-32213158Y13786842D01*
X-32167477Y13749353D01*
X-32115360Y13721496D01*
X-32058810Y13704341D01*
X-32000000Y13698549D01*
X-30400000Y13698549D01*
X-30341190Y13704341D01*
X-30284640Y13721496D01*
X-30232523Y13749353D01*
X-30186842Y13786842D01*
X-30149353Y13832523D01*
X-30121496Y13884640D01*
X-30104341Y13941190D01*
X-30098549Y14000000D01*
X-30098549Y14654909D01*
X-30073869Y14650000D01*
X-29926131Y14650000D01*
X-29901451Y14654909D01*
X-29901451Y14000000D01*
X-29895659Y13941190D01*
X-29878504Y13884640D01*
X-29850647Y13832523D01*
X-29813158Y13786842D01*
X-29767477Y13749353D01*
X-29715360Y13721496D01*
X-29658810Y13704341D01*
X-29600000Y13698549D01*
X-28000000Y13698549D01*
X-27941190Y13704341D01*
X-27884640Y13721496D01*
X-27832523Y13749353D01*
X-27786842Y13786842D01*
X-27749353Y13832523D01*
X-27721496Y13884640D01*
X-27704341Y13941190D01*
X-27698549Y14000000D01*
X-27698549Y15000000D01*
X-27704341Y15058810D01*
X-27721496Y15115360D01*
X-27749353Y15167477D01*
X-27786842Y15213158D01*
X-27832523Y15250647D01*
X-27884640Y15278504D01*
X-27941190Y15295659D01*
X-28000000Y15301451D01*
X-29254909Y15301451D01*
X-29250000Y15326131D01*
X-29250000Y15473869D01*
X-29278822Y15618767D01*
X-29335359Y15755258D01*
X-29417437Y15878097D01*
X-29521903Y15982563D01*
X-29644742Y16064641D01*
X-29781233Y16121178D01*
X-29926131Y16150000D01*
X-30073869Y16150000D01*
X-30218767Y16121178D01*
X-30355258Y16064641D01*
X-30478097Y15982563D01*
X-30582563Y15878097D01*
X-30664641Y15755258D01*
X-30721178Y15618767D01*
X-30750000Y15473869D01*
X-30750000Y15326131D01*
X-30745091Y15301451D01*
X-32000000Y15301451D01*
X-32058810Y15295659D01*
X-32115360Y15278504D01*
X-32167477Y15250647D01*
X-32213158Y15213158D01*
X-32250647Y15167477D01*
X-32278504Y15115360D01*
X-32295659Y15058810D01*
X-32301451Y15000000D01*
X-33625000Y15000000D01*
X-33625000Y19768944D01*
X-8300000Y19768944D01*
X-8300000Y19631056D01*
X-8273099Y19495818D01*
X-8220332Y19368426D01*
X-8143726Y19253776D01*
X-8046224Y19156274D01*
X-7931574Y19079668D01*
X-7804182Y19026901D01*
X-7668944Y19000000D01*
X-7531056Y19000000D01*
X-7507448Y19004696D01*
X-7501975Y18998027D01*
X-7437261Y18944917D01*
X-7363428Y18905453D01*
X-7307618Y18888523D01*
X-7283316Y18881151D01*
X-7274903Y18880322D01*
X-7220875Y18875001D01*
X-7220869Y18875001D01*
X-7200002Y18872946D01*
X-7179135Y18875001D01*
X-2776041Y18875001D01*
X-2425000Y18523960D01*
X-2425000Y18301451D01*
X-2500000Y18301451D01*
X-2558810Y18295659D01*
X-2615360Y18278504D01*
X-2667477Y18250647D01*
X-2713158Y18213158D01*
X-2750647Y18167477D01*
X-2778504Y18115360D01*
X-2795659Y18058810D01*
X-2801451Y18000000D01*
X-2801451Y14600000D01*
X-2795659Y14541190D01*
X-2778504Y14484640D01*
X-2750647Y14432523D01*
X-2713158Y14386842D01*
X-2667477Y14349353D01*
X-2615360Y14321496D01*
X-2558810Y14304341D01*
X-2500000Y14298549D01*
X-1500000Y14298549D01*
X-1441190Y14304341D01*
X-1384640Y14321496D01*
X-1332523Y14349353D01*
X-1286842Y14386842D01*
X-1249353Y14432523D01*
X-1221496Y14484640D01*
X-1204341Y14541190D01*
X-1198549Y14600000D01*
X-1198549Y18000000D01*
X-1204341Y18058810D01*
X-1221496Y18115360D01*
X-1249353Y18167477D01*
X-1286842Y18213158D01*
X-1332523Y18250647D01*
X-1384640Y18278504D01*
X-1441190Y18295659D01*
X-1500000Y18301451D01*
X-1575000Y18301451D01*
X-1575000Y18679126D01*
X-1572944Y18700000D01*
X-1581150Y18783314D01*
X-1605452Y18863427D01*
X-1610540Y18872946D01*
X-1644916Y18937260D01*
X-1698026Y19001974D01*
X-1714242Y19015282D01*
X-2284717Y19585757D01*
X-2298027Y19601975D01*
X-2362741Y19655085D01*
X-2400000Y19675000D01*
X-1676040Y19675000D01*
X-424999Y18423958D01*
X-424999Y18301451D01*
X-500000Y18301451D01*
X-558810Y18295659D01*
X-615360Y18278504D01*
X-667477Y18250647D01*
X-713158Y18213158D01*
X-750647Y18167477D01*
X-778504Y18115360D01*
X-795659Y18058810D01*
X-801451Y18000000D01*
X-801451Y14600000D01*
X-795659Y14541190D01*
X-778504Y14484640D01*
X-750647Y14432523D01*
X-713158Y14386842D01*
X-667477Y14349353D01*
X-615360Y14321496D01*
X-558810Y14304341D01*
X-500000Y14298549D01*
X500000Y14298549D01*
X558810Y14304341D01*
X615360Y14321496D01*
X667477Y14349353D01*
X713158Y14386842D01*
X750647Y14432523D01*
X778504Y14484640D01*
X795659Y14541190D01*
X801451Y14600000D01*
X801451Y18000000D01*
X795659Y18058810D01*
X778504Y18115360D01*
X750647Y18167477D01*
X713158Y18213158D01*
X667477Y18250647D01*
X615360Y18278504D01*
X558810Y18295659D01*
X500000Y18301451D01*
X425000Y18301451D01*
X425000Y18579134D01*
X427055Y18600001D01*
X425000Y18620868D01*
X425000Y18620874D01*
X418850Y18683314D01*
X394548Y18763427D01*
X355084Y18837260D01*
X325797Y18872946D01*
X315280Y18885761D01*
X315279Y18885762D01*
X301974Y18901974D01*
X285762Y18915279D01*
X-1184717Y20385757D01*
X-1198026Y20401974D01*
X-1262740Y20455084D01*
X-1336573Y20494548D01*
X-1416686Y20518850D01*
X-1479126Y20525000D01*
X-1479133Y20525000D01*
X-1500000Y20527055D01*
X-1520867Y20525000D01*
X-5742093Y20525000D01*
X-5756274Y20546224D01*
X-5853776Y20643726D01*
X-5968426Y20720332D01*
X-6095818Y20773099D01*
X-6231056Y20800000D01*
X-6368944Y20800000D01*
X-6504182Y20773099D01*
X-6631574Y20720332D01*
X-6746224Y20643726D01*
X-6843726Y20546224D01*
X-6920332Y20431574D01*
X-6973099Y20304182D01*
X-7000000Y20168944D01*
X-7000000Y20062003D01*
X-7056274Y20146224D01*
X-7153776Y20243726D01*
X-7268426Y20320332D01*
X-7395818Y20373099D01*
X-7531056Y20400000D01*
X-7668944Y20400000D01*
X-7804182Y20373099D01*
X-7931574Y20320332D01*
X-8046224Y20243726D01*
X-8143726Y20146224D01*
X-8220332Y20031574D01*
X-8273099Y19904182D01*
X-8300000Y19768944D01*
X-33625000Y19768944D01*
X-33625000Y22731662D01*
X-33609682Y22887888D01*
X-31900000Y22887888D01*
X-31900000Y22612112D01*
X-31846199Y22341635D01*
X-31740664Y22086851D01*
X-31587451Y21857552D01*
X-31392448Y21662549D01*
X-31163149Y21509336D01*
X-30908365Y21403801D01*
X-30637888Y21350000D01*
X-30362112Y21350000D01*
X-30091635Y21403801D01*
X-29836851Y21509336D01*
X-29607552Y21662549D01*
X-29412549Y21857552D01*
X-29259336Y22086851D01*
X-29153801Y22341635D01*
X-29100000Y22612112D01*
X-29100000Y22887888D01*
X-29153801Y23158365D01*
X-29259336Y23413149D01*
X-29412549Y23642448D01*
X-29607552Y23837451D01*
X-29836851Y23990664D01*
X-30091635Y24096199D01*
X-30362112Y24150000D01*
X-30637888Y24150000D01*
X-30908365Y24096199D01*
X-31163149Y23990664D01*
X-31392448Y23837451D01*
X-31587451Y23642448D01*
X-31740664Y23413149D01*
X-31846199Y23158365D01*
X-31900000Y22887888D01*
X-33609682Y22887888D01*
X-33563721Y23356631D01*
X-33387543Y23940161D01*
X-33101383Y24478350D01*
X-32716134Y24950713D01*
X-32246473Y25339252D01*
X-31710289Y25629165D01*
X-31128006Y25809411D01*
X-30504130Y25874983D01*
X-30499271Y25875000D01*
X-23171916Y25875000D01*
X-23217477Y25850647D01*
M02*
