M48
;DRILL file {KiCad (5.0.0)} date 06/08/20 02:17:14
;FORMAT={-:-/ absolute / metric / decimal}
FMAT,2
METRIC,TZ
T1C0.300
T2C0.400
T3C1.000
%
G90
G05
M71
T1
X-22.1Y-5.8
X-22.1Y-6.8
X-21.6Y-6.3
X-21.1Y-5.8
X-21.1Y-6.8
T2
X-32.7Y12.
X-32.5Y20.
X-32.5Y3.5
X-32.5Y0.
X-32.5Y-5.
X-32.5Y-10.
X-32.5Y-12.5
X-32.5Y-15.
X-32.5Y-17.5
X-32.5Y-20.
X-31.5Y6.
X-30.5Y1.5
X-30.5Y0.
X-30.5Y-3.
X-30.5Y-5.
X-30.5Y-10.
X-30.5Y-12.5
X-29.Y3.5
X-28.5Y0.
X-28.5Y-3.
X-28.5Y-10.
X-28.5Y-12.5
X-28.Y-22.
X-27.8Y7.4
X-27.5Y25.
X-27.5Y20.
X-27.5Y-25.
X-27.3Y14.5
X-26.5Y5.8
X-25.9Y3.4
X-25.9Y2.4
X-25.9Y1.
X-25.9Y0.
X-25.9Y-1.4
X-25.9Y-2.4
X-25.4Y-9.8
X-25.4Y-10.8
X-25.4Y-11.8
X-25.4Y-12.8
X-25.Y5.9
X-25.Y-22.
X-24.7Y-5.3
X-24.7Y-6.3
X-24.7Y-7.3
X-23.9Y-5.7
X-23.9Y-6.9
X-23.6Y9.82
X-23.5Y4.5
X-22.8Y15.3
X-22.7Y7.5
X-22.5Y-25.
X-20.5Y-22.
X-19.5Y-4.9
X-19.5Y-5.9
X-19.5Y-6.9
X-19.5Y-7.9
X-19.1Y20.5
X-19.Y-20.5
X-18.6Y-6.4
X-18.6Y-7.4
X-18.Y-17.5
X-17.8Y20.1
X-17.8Y-13.5
X-17.8Y-14.5
X-17.5Y25.
X-17.5Y10.
X-17.5Y-25.
X-17.2Y-1.5
X-15.8Y5.4
X-15.3Y13.4
X-15.Y4.5
X-15.Y-17.5
X-13.9Y10.
X-13.5Y5.5
X-13.Y2.5
X-13.Y-0.5
X-12.7Y15.3
X-12.5Y-25.
X-12.4Y-12.5
X-12.3Y-5.3
X-12.2Y-2.1
X-12.Y-17.
X-11.5Y6.8
X-11.5Y5.5
X-11.5Y2.5
X-11.5Y-0.5
X-11.5Y-7.6
X-11.5Y-11.2
X-11.3Y-6.4
X-11.1Y-4.
X-11.Y10.
X-11.Y-18.
X-9.9Y21.4
X-9.6Y-7.8
X-9.5Y-9.
X-9.5Y-11.5
X-9.4Y-14.3
X-9.Y6.8
X-8.9Y15.2
X-8.5Y5.5
X-8.5Y3.
X-8.5Y0.5
X-8.5Y-2.5
X-8.5Y-5.5
X-7.6Y19.7
X-7.5Y10.
X-7.5Y-25.
X-6.5Y5.5
X-6.3Y20.1
X-6.1Y21.4
X-4.5Y4.
X-3.8Y10.1
X-2.5Y25.
X-2.5Y4.
X-2.5Y-25.
X-1.5Y10.
X-1.3Y21.2
X-0.5Y6.
X1.Y10.
X1.Y7.5
X2.2Y20.7
X2.5Y-25.
X4.Y10.
X4.Y7.5
X5.2Y23.2
X5.2Y20.7
X6.4Y15.2
X6.4Y10.
X6.5Y7.5
X7.5Y25.
X7.5Y-25.
X7.8Y20.7
X9.9Y20.7
X10.Y10.
X10.Y7.5
X11.4Y20.7
X12.5Y25.
X12.5Y-25.
X16.5Y20.7
X17.5Y25.
X17.5Y-25.
X22.5Y25.
X22.5Y-25.
X24.1Y15.4
X24.2Y10.1
X27.5Y25.
X27.5Y20.
X27.5Y-20.
X27.5Y-25.
X32.5Y20.
X32.5Y15.
X32.5Y10.
X32.5Y5.
X32.5Y0.
X32.5Y-5.
X32.5Y-10.
X32.5Y-15.
X32.5Y-20.
T3
X-30.54Y-14.8
X-28.Y-14.8
T0
M30
