G04 #@! TF.GenerationSoftware,KiCad,Pcbnew,(5.0.0)*
G04 #@! TF.CreationDate,2020-06-08T02:19:36+09:00*
G04 #@! TF.ProjectId,WioTerminal_BatteryChassisAAA,57696F5465726D696E616C5F42617474,rev?*
G04 #@! TF.SameCoordinates,PX206cc80PYfe6f74f0*
G04 #@! TF.FileFunction,Soldermask,Top*
G04 #@! TF.FilePolarity,Negative*
%FSLAX46Y46*%
G04 Gerber Fmt 4.6, Leading zero omitted, Abs format (unit mm)*
G04 Created by KiCad (PCBNEW (5.0.0)) date 06/08/20 02:19:36*
%MOMM*%
%LPD*%
G01*
G04 APERTURE LIST*
%ADD10C,2.600000*%
%ADD11C,2.100000*%
%ADD12O,2.100000X2.100000*%
%ADD13R,1.100000X0.650000*%
%ADD14O,0.420000X0.990000*%
%ADD15R,0.420000X0.420000*%
%ADD16C,1.000000*%
%ADD17R,2.550000X2.100000*%
%ADD18R,1.300000X1.050000*%
%ADD19R,1.000000X0.630000*%
%ADD20C,0.100000*%
%ADD21C,1.375000*%
%ADD22C,1.275000*%
%ADD23C,1.650000*%
%ADD24C,1.400000*%
%ADD25R,1.460000X0.800000*%
%ADD26C,1.525000*%
%ADD27R,0.700000X1.150000*%
%ADD28R,1.900000X1.700000*%
%ADD29R,1.400000X3.550000*%
%ADD30C,1.300000*%
%ADD31R,2.700000X1.250000*%
G04 APERTURE END LIST*
D10*
G04 #@! TO.C,MH4*
X-30500000Y22750000D03*
G04 #@! TD*
G04 #@! TO.C,MH1*
X-30500000Y-22750000D03*
G04 #@! TD*
G04 #@! TO.C,MH2*
X30500000Y-22750000D03*
G04 #@! TD*
G04 #@! TO.C,MH3*
X30500000Y22750000D03*
G04 #@! TD*
D11*
G04 #@! TO.C,J2*
X-30540000Y-14800000D03*
D12*
X-28000000Y-14800000D03*
G04 #@! TD*
D13*
G04 #@! TO.C,U2*
X-20175000Y-6900000D03*
X-20175000Y-5700000D03*
X-23025000Y-6900000D03*
X-23025000Y-5700000D03*
D14*
X-22600000Y-7775000D03*
X-22100000Y-7775000D03*
D15*
X-21600000Y-8060000D03*
D14*
X-21100000Y-7775000D03*
D15*
X-20600000Y-8060000D03*
D14*
X-20600000Y-4825000D03*
X-21100000Y-4825000D03*
D15*
X-21600000Y-4540000D03*
X-22100000Y-4540000D03*
X-22600000Y-4540000D03*
D16*
X-21600000Y-6300000D03*
X-22100000Y-6800000D03*
X-22100000Y-5800000D03*
X-21100000Y-6800000D03*
X-21100000Y-5800000D03*
D13*
X-23025000Y-6500000D03*
X-23025000Y-6100000D03*
X-20175000Y-6500000D03*
X-20175000Y-6100000D03*
D17*
X-21600000Y-6300000D03*
D15*
X-22600000Y-8060000D03*
X-22100000Y-8060000D03*
D14*
X-21600000Y-7775000D03*
D15*
X-21100000Y-8060000D03*
D14*
X-20600000Y-7775000D03*
D15*
X-20600000Y-4540000D03*
X-21100000Y-4540000D03*
D14*
X-21600000Y-4825000D03*
X-22100000Y-4825000D03*
X-22600000Y-4825000D03*
D18*
X-22160000Y-6735000D03*
X-21040000Y-5865000D03*
X-21040000Y-6735000D03*
X-22160000Y-5865000D03*
D19*
X-23025000Y-6900000D03*
X-23025000Y-6500000D03*
X-23025000Y-6100000D03*
X-23025000Y-5700000D03*
X-20175000Y-6900000D03*
X-20175000Y-6500000D03*
X-20175000Y-6100000D03*
X-20175000Y-5700000D03*
G04 #@! TD*
D20*
G04 #@! TO.C,C1*
G36*
X-22085057Y-11401655D02*
X-22051688Y-11406605D01*
X-22018965Y-11414802D01*
X-21987203Y-11426166D01*
X-21956707Y-11440590D01*
X-21927773Y-11457932D01*
X-21900677Y-11478028D01*
X-21875682Y-11500682D01*
X-21853028Y-11525677D01*
X-21832932Y-11552773D01*
X-21815590Y-11581707D01*
X-21801166Y-11612203D01*
X-21789802Y-11643965D01*
X-21781605Y-11676688D01*
X-21776655Y-11710057D01*
X-21775000Y-11743750D01*
X-21775000Y-12856250D01*
X-21776655Y-12889943D01*
X-21781605Y-12923312D01*
X-21789802Y-12956035D01*
X-21801166Y-12987797D01*
X-21815590Y-13018293D01*
X-21832932Y-13047227D01*
X-21853028Y-13074323D01*
X-21875682Y-13099318D01*
X-21900677Y-13121972D01*
X-21927773Y-13142068D01*
X-21956707Y-13159410D01*
X-21987203Y-13173834D01*
X-22018965Y-13185198D01*
X-22051688Y-13193395D01*
X-22085057Y-13198345D01*
X-22118750Y-13200000D01*
X-22806250Y-13200000D01*
X-22839943Y-13198345D01*
X-22873312Y-13193395D01*
X-22906035Y-13185198D01*
X-22937797Y-13173834D01*
X-22968293Y-13159410D01*
X-22997227Y-13142068D01*
X-23024323Y-13121972D01*
X-23049318Y-13099318D01*
X-23071972Y-13074323D01*
X-23092068Y-13047227D01*
X-23109410Y-13018293D01*
X-23123834Y-12987797D01*
X-23135198Y-12956035D01*
X-23143395Y-12923312D01*
X-23148345Y-12889943D01*
X-23150000Y-12856250D01*
X-23150000Y-11743750D01*
X-23148345Y-11710057D01*
X-23143395Y-11676688D01*
X-23135198Y-11643965D01*
X-23123834Y-11612203D01*
X-23109410Y-11581707D01*
X-23092068Y-11552773D01*
X-23071972Y-11525677D01*
X-23049318Y-11500682D01*
X-23024323Y-11478028D01*
X-22997227Y-11457932D01*
X-22968293Y-11440590D01*
X-22937797Y-11426166D01*
X-22906035Y-11414802D01*
X-22873312Y-11406605D01*
X-22839943Y-11401655D01*
X-22806250Y-11400000D01*
X-22118750Y-11400000D01*
X-22085057Y-11401655D01*
X-22085057Y-11401655D01*
G37*
D21*
X-22462500Y-12300000D03*
D20*
G36*
X-23960057Y-11401655D02*
X-23926688Y-11406605D01*
X-23893965Y-11414802D01*
X-23862203Y-11426166D01*
X-23831707Y-11440590D01*
X-23802773Y-11457932D01*
X-23775677Y-11478028D01*
X-23750682Y-11500682D01*
X-23728028Y-11525677D01*
X-23707932Y-11552773D01*
X-23690590Y-11581707D01*
X-23676166Y-11612203D01*
X-23664802Y-11643965D01*
X-23656605Y-11676688D01*
X-23651655Y-11710057D01*
X-23650000Y-11743750D01*
X-23650000Y-12856250D01*
X-23651655Y-12889943D01*
X-23656605Y-12923312D01*
X-23664802Y-12956035D01*
X-23676166Y-12987797D01*
X-23690590Y-13018293D01*
X-23707932Y-13047227D01*
X-23728028Y-13074323D01*
X-23750682Y-13099318D01*
X-23775677Y-13121972D01*
X-23802773Y-13142068D01*
X-23831707Y-13159410D01*
X-23862203Y-13173834D01*
X-23893965Y-13185198D01*
X-23926688Y-13193395D01*
X-23960057Y-13198345D01*
X-23993750Y-13200000D01*
X-24681250Y-13200000D01*
X-24714943Y-13198345D01*
X-24748312Y-13193395D01*
X-24781035Y-13185198D01*
X-24812797Y-13173834D01*
X-24843293Y-13159410D01*
X-24872227Y-13142068D01*
X-24899323Y-13121972D01*
X-24924318Y-13099318D01*
X-24946972Y-13074323D01*
X-24967068Y-13047227D01*
X-24984410Y-13018293D01*
X-24998834Y-12987797D01*
X-25010198Y-12956035D01*
X-25018395Y-12923312D01*
X-25023345Y-12889943D01*
X-25025000Y-12856250D01*
X-25025000Y-11743750D01*
X-25023345Y-11710057D01*
X-25018395Y-11676688D01*
X-25010198Y-11643965D01*
X-24998834Y-11612203D01*
X-24984410Y-11581707D01*
X-24967068Y-11552773D01*
X-24946972Y-11525677D01*
X-24924318Y-11500682D01*
X-24899323Y-11478028D01*
X-24872227Y-11457932D01*
X-24843293Y-11440590D01*
X-24812797Y-11426166D01*
X-24781035Y-11414802D01*
X-24748312Y-11406605D01*
X-24714943Y-11401655D01*
X-24681250Y-11400000D01*
X-23993750Y-11400000D01*
X-23960057Y-11401655D01*
X-23960057Y-11401655D01*
G37*
D21*
X-24337500Y-12300000D03*
G04 #@! TD*
D20*
G04 #@! TO.C,C2*
G36*
X-16012507Y-11976535D02*
X-15981565Y-11981125D01*
X-15951222Y-11988725D01*
X-15921770Y-11999263D01*
X-15893492Y-12012638D01*
X-15866662Y-12028719D01*
X-15841537Y-12047353D01*
X-15818360Y-12068360D01*
X-15797353Y-12091537D01*
X-15778719Y-12116662D01*
X-15762638Y-12143492D01*
X-15749263Y-12171770D01*
X-15738725Y-12201222D01*
X-15731125Y-12231565D01*
X-15726535Y-12262507D01*
X-15725000Y-12293750D01*
X-15725000Y-12931250D01*
X-15726535Y-12962493D01*
X-15731125Y-12993435D01*
X-15738725Y-13023778D01*
X-15749263Y-13053230D01*
X-15762638Y-13081508D01*
X-15778719Y-13108338D01*
X-15797353Y-13133463D01*
X-15818360Y-13156640D01*
X-15841537Y-13177647D01*
X-15866662Y-13196281D01*
X-15893492Y-13212362D01*
X-15921770Y-13225737D01*
X-15951222Y-13236275D01*
X-15981565Y-13243875D01*
X-16012507Y-13248465D01*
X-16043750Y-13250000D01*
X-16756250Y-13250000D01*
X-16787493Y-13248465D01*
X-16818435Y-13243875D01*
X-16848778Y-13236275D01*
X-16878230Y-13225737D01*
X-16906508Y-13212362D01*
X-16933338Y-13196281D01*
X-16958463Y-13177647D01*
X-16981640Y-13156640D01*
X-17002647Y-13133463D01*
X-17021281Y-13108338D01*
X-17037362Y-13081508D01*
X-17050737Y-13053230D01*
X-17061275Y-13023778D01*
X-17068875Y-12993435D01*
X-17073465Y-12962493D01*
X-17075000Y-12931250D01*
X-17075000Y-12293750D01*
X-17073465Y-12262507D01*
X-17068875Y-12231565D01*
X-17061275Y-12201222D01*
X-17050737Y-12171770D01*
X-17037362Y-12143492D01*
X-17021281Y-12116662D01*
X-17002647Y-12091537D01*
X-16981640Y-12068360D01*
X-16958463Y-12047353D01*
X-16933338Y-12028719D01*
X-16906508Y-12012638D01*
X-16878230Y-11999263D01*
X-16848778Y-11988725D01*
X-16818435Y-11981125D01*
X-16787493Y-11976535D01*
X-16756250Y-11975000D01*
X-16043750Y-11975000D01*
X-16012507Y-11976535D01*
X-16012507Y-11976535D01*
G37*
D22*
X-16400000Y-12612500D03*
D20*
G36*
X-16012507Y-13551535D02*
X-15981565Y-13556125D01*
X-15951222Y-13563725D01*
X-15921770Y-13574263D01*
X-15893492Y-13587638D01*
X-15866662Y-13603719D01*
X-15841537Y-13622353D01*
X-15818360Y-13643360D01*
X-15797353Y-13666537D01*
X-15778719Y-13691662D01*
X-15762638Y-13718492D01*
X-15749263Y-13746770D01*
X-15738725Y-13776222D01*
X-15731125Y-13806565D01*
X-15726535Y-13837507D01*
X-15725000Y-13868750D01*
X-15725000Y-14506250D01*
X-15726535Y-14537493D01*
X-15731125Y-14568435D01*
X-15738725Y-14598778D01*
X-15749263Y-14628230D01*
X-15762638Y-14656508D01*
X-15778719Y-14683338D01*
X-15797353Y-14708463D01*
X-15818360Y-14731640D01*
X-15841537Y-14752647D01*
X-15866662Y-14771281D01*
X-15893492Y-14787362D01*
X-15921770Y-14800737D01*
X-15951222Y-14811275D01*
X-15981565Y-14818875D01*
X-16012507Y-14823465D01*
X-16043750Y-14825000D01*
X-16756250Y-14825000D01*
X-16787493Y-14823465D01*
X-16818435Y-14818875D01*
X-16848778Y-14811275D01*
X-16878230Y-14800737D01*
X-16906508Y-14787362D01*
X-16933338Y-14771281D01*
X-16958463Y-14752647D01*
X-16981640Y-14731640D01*
X-17002647Y-14708463D01*
X-17021281Y-14683338D01*
X-17037362Y-14656508D01*
X-17050737Y-14628230D01*
X-17061275Y-14598778D01*
X-17068875Y-14568435D01*
X-17073465Y-14537493D01*
X-17075000Y-14506250D01*
X-17075000Y-13868750D01*
X-17073465Y-13837507D01*
X-17068875Y-13806565D01*
X-17061275Y-13776222D01*
X-17050737Y-13746770D01*
X-17037362Y-13718492D01*
X-17021281Y-13691662D01*
X-17002647Y-13666537D01*
X-16981640Y-13643360D01*
X-16958463Y-13622353D01*
X-16933338Y-13603719D01*
X-16906508Y-13587638D01*
X-16878230Y-13574263D01*
X-16848778Y-13563725D01*
X-16818435Y-13556125D01*
X-16787493Y-13551535D01*
X-16756250Y-13550000D01*
X-16043750Y-13550000D01*
X-16012507Y-13551535D01*
X-16012507Y-13551535D01*
G37*
D22*
X-16400000Y-14187500D03*
G04 #@! TD*
D20*
G04 #@! TO.C,C3*
G36*
X-23960057Y-9401655D02*
X-23926688Y-9406605D01*
X-23893965Y-9414802D01*
X-23862203Y-9426166D01*
X-23831707Y-9440590D01*
X-23802773Y-9457932D01*
X-23775677Y-9478028D01*
X-23750682Y-9500682D01*
X-23728028Y-9525677D01*
X-23707932Y-9552773D01*
X-23690590Y-9581707D01*
X-23676166Y-9612203D01*
X-23664802Y-9643965D01*
X-23656605Y-9676688D01*
X-23651655Y-9710057D01*
X-23650000Y-9743750D01*
X-23650000Y-10856250D01*
X-23651655Y-10889943D01*
X-23656605Y-10923312D01*
X-23664802Y-10956035D01*
X-23676166Y-10987797D01*
X-23690590Y-11018293D01*
X-23707932Y-11047227D01*
X-23728028Y-11074323D01*
X-23750682Y-11099318D01*
X-23775677Y-11121972D01*
X-23802773Y-11142068D01*
X-23831707Y-11159410D01*
X-23862203Y-11173834D01*
X-23893965Y-11185198D01*
X-23926688Y-11193395D01*
X-23960057Y-11198345D01*
X-23993750Y-11200000D01*
X-24681250Y-11200000D01*
X-24714943Y-11198345D01*
X-24748312Y-11193395D01*
X-24781035Y-11185198D01*
X-24812797Y-11173834D01*
X-24843293Y-11159410D01*
X-24872227Y-11142068D01*
X-24899323Y-11121972D01*
X-24924318Y-11099318D01*
X-24946972Y-11074323D01*
X-24967068Y-11047227D01*
X-24984410Y-11018293D01*
X-24998834Y-10987797D01*
X-25010198Y-10956035D01*
X-25018395Y-10923312D01*
X-25023345Y-10889943D01*
X-25025000Y-10856250D01*
X-25025000Y-9743750D01*
X-25023345Y-9710057D01*
X-25018395Y-9676688D01*
X-25010198Y-9643965D01*
X-24998834Y-9612203D01*
X-24984410Y-9581707D01*
X-24967068Y-9552773D01*
X-24946972Y-9525677D01*
X-24924318Y-9500682D01*
X-24899323Y-9478028D01*
X-24872227Y-9457932D01*
X-24843293Y-9440590D01*
X-24812797Y-9426166D01*
X-24781035Y-9414802D01*
X-24748312Y-9406605D01*
X-24714943Y-9401655D01*
X-24681250Y-9400000D01*
X-23993750Y-9400000D01*
X-23960057Y-9401655D01*
X-23960057Y-9401655D01*
G37*
D21*
X-24337500Y-10300000D03*
D20*
G36*
X-22085057Y-9401655D02*
X-22051688Y-9406605D01*
X-22018965Y-9414802D01*
X-21987203Y-9426166D01*
X-21956707Y-9440590D01*
X-21927773Y-9457932D01*
X-21900677Y-9478028D01*
X-21875682Y-9500682D01*
X-21853028Y-9525677D01*
X-21832932Y-9552773D01*
X-21815590Y-9581707D01*
X-21801166Y-9612203D01*
X-21789802Y-9643965D01*
X-21781605Y-9676688D01*
X-21776655Y-9710057D01*
X-21775000Y-9743750D01*
X-21775000Y-10856250D01*
X-21776655Y-10889943D01*
X-21781605Y-10923312D01*
X-21789802Y-10956035D01*
X-21801166Y-10987797D01*
X-21815590Y-11018293D01*
X-21832932Y-11047227D01*
X-21853028Y-11074323D01*
X-21875682Y-11099318D01*
X-21900677Y-11121972D01*
X-21927773Y-11142068D01*
X-21956707Y-11159410D01*
X-21987203Y-11173834D01*
X-22018965Y-11185198D01*
X-22051688Y-11193395D01*
X-22085057Y-11198345D01*
X-22118750Y-11200000D01*
X-22806250Y-11200000D01*
X-22839943Y-11198345D01*
X-22873312Y-11193395D01*
X-22906035Y-11185198D01*
X-22937797Y-11173834D01*
X-22968293Y-11159410D01*
X-22997227Y-11142068D01*
X-23024323Y-11121972D01*
X-23049318Y-11099318D01*
X-23071972Y-11074323D01*
X-23092068Y-11047227D01*
X-23109410Y-11018293D01*
X-23123834Y-10987797D01*
X-23135198Y-10956035D01*
X-23143395Y-10923312D01*
X-23148345Y-10889943D01*
X-23150000Y-10856250D01*
X-23150000Y-9743750D01*
X-23148345Y-9710057D01*
X-23143395Y-9676688D01*
X-23135198Y-9643965D01*
X-23123834Y-9612203D01*
X-23109410Y-9581707D01*
X-23092068Y-9552773D01*
X-23071972Y-9525677D01*
X-23049318Y-9500682D01*
X-23024323Y-9478028D01*
X-22997227Y-9457932D01*
X-22968293Y-9440590D01*
X-22937797Y-9426166D01*
X-22906035Y-9414802D01*
X-22873312Y-9406605D01*
X-22839943Y-9401655D01*
X-22806250Y-9400000D01*
X-22118750Y-9400000D01*
X-22085057Y-9401655D01*
X-22085057Y-9401655D01*
G37*
D21*
X-22462500Y-10300000D03*
G04 #@! TD*
D20*
G04 #@! TO.C,C4*
G36*
X-13760057Y-3101655D02*
X-13726688Y-3106605D01*
X-13693965Y-3114802D01*
X-13662203Y-3126166D01*
X-13631707Y-3140590D01*
X-13602773Y-3157932D01*
X-13575677Y-3178028D01*
X-13550682Y-3200682D01*
X-13528028Y-3225677D01*
X-13507932Y-3252773D01*
X-13490590Y-3281707D01*
X-13476166Y-3312203D01*
X-13464802Y-3343965D01*
X-13456605Y-3376688D01*
X-13451655Y-3410057D01*
X-13450000Y-3443750D01*
X-13450000Y-4556250D01*
X-13451655Y-4589943D01*
X-13456605Y-4623312D01*
X-13464802Y-4656035D01*
X-13476166Y-4687797D01*
X-13490590Y-4718293D01*
X-13507932Y-4747227D01*
X-13528028Y-4774323D01*
X-13550682Y-4799318D01*
X-13575677Y-4821972D01*
X-13602773Y-4842068D01*
X-13631707Y-4859410D01*
X-13662203Y-4873834D01*
X-13693965Y-4885198D01*
X-13726688Y-4893395D01*
X-13760057Y-4898345D01*
X-13793750Y-4900000D01*
X-14481250Y-4900000D01*
X-14514943Y-4898345D01*
X-14548312Y-4893395D01*
X-14581035Y-4885198D01*
X-14612797Y-4873834D01*
X-14643293Y-4859410D01*
X-14672227Y-4842068D01*
X-14699323Y-4821972D01*
X-14724318Y-4799318D01*
X-14746972Y-4774323D01*
X-14767068Y-4747227D01*
X-14784410Y-4718293D01*
X-14798834Y-4687797D01*
X-14810198Y-4656035D01*
X-14818395Y-4623312D01*
X-14823345Y-4589943D01*
X-14825000Y-4556250D01*
X-14825000Y-3443750D01*
X-14823345Y-3410057D01*
X-14818395Y-3376688D01*
X-14810198Y-3343965D01*
X-14798834Y-3312203D01*
X-14784410Y-3281707D01*
X-14767068Y-3252773D01*
X-14746972Y-3225677D01*
X-14724318Y-3200682D01*
X-14699323Y-3178028D01*
X-14672227Y-3157932D01*
X-14643293Y-3140590D01*
X-14612797Y-3126166D01*
X-14581035Y-3114802D01*
X-14548312Y-3106605D01*
X-14514943Y-3101655D01*
X-14481250Y-3100000D01*
X-13793750Y-3100000D01*
X-13760057Y-3101655D01*
X-13760057Y-3101655D01*
G37*
D21*
X-14137500Y-4000000D03*
D20*
G36*
X-11885057Y-3101655D02*
X-11851688Y-3106605D01*
X-11818965Y-3114802D01*
X-11787203Y-3126166D01*
X-11756707Y-3140590D01*
X-11727773Y-3157932D01*
X-11700677Y-3178028D01*
X-11675682Y-3200682D01*
X-11653028Y-3225677D01*
X-11632932Y-3252773D01*
X-11615590Y-3281707D01*
X-11601166Y-3312203D01*
X-11589802Y-3343965D01*
X-11581605Y-3376688D01*
X-11576655Y-3410057D01*
X-11575000Y-3443750D01*
X-11575000Y-4556250D01*
X-11576655Y-4589943D01*
X-11581605Y-4623312D01*
X-11589802Y-4656035D01*
X-11601166Y-4687797D01*
X-11615590Y-4718293D01*
X-11632932Y-4747227D01*
X-11653028Y-4774323D01*
X-11675682Y-4799318D01*
X-11700677Y-4821972D01*
X-11727773Y-4842068D01*
X-11756707Y-4859410D01*
X-11787203Y-4873834D01*
X-11818965Y-4885198D01*
X-11851688Y-4893395D01*
X-11885057Y-4898345D01*
X-11918750Y-4900000D01*
X-12606250Y-4900000D01*
X-12639943Y-4898345D01*
X-12673312Y-4893395D01*
X-12706035Y-4885198D01*
X-12737797Y-4873834D01*
X-12768293Y-4859410D01*
X-12797227Y-4842068D01*
X-12824323Y-4821972D01*
X-12849318Y-4799318D01*
X-12871972Y-4774323D01*
X-12892068Y-4747227D01*
X-12909410Y-4718293D01*
X-12923834Y-4687797D01*
X-12935198Y-4656035D01*
X-12943395Y-4623312D01*
X-12948345Y-4589943D01*
X-12950000Y-4556250D01*
X-12950000Y-3443750D01*
X-12948345Y-3410057D01*
X-12943395Y-3376688D01*
X-12935198Y-3343965D01*
X-12923834Y-3312203D01*
X-12909410Y-3281707D01*
X-12892068Y-3252773D01*
X-12871972Y-3225677D01*
X-12849318Y-3200682D01*
X-12824323Y-3178028D01*
X-12797227Y-3157932D01*
X-12768293Y-3140590D01*
X-12737797Y-3126166D01*
X-12706035Y-3114802D01*
X-12673312Y-3106605D01*
X-12639943Y-3101655D01*
X-12606250Y-3100000D01*
X-11918750Y-3100000D01*
X-11885057Y-3101655D01*
X-11885057Y-3101655D01*
G37*
D21*
X-12262500Y-4000000D03*
G04 #@! TD*
D20*
G04 #@! TO.C,C5*
G36*
X-17812507Y-2476535D02*
X-17781565Y-2481125D01*
X-17751222Y-2488725D01*
X-17721770Y-2499263D01*
X-17693492Y-2512638D01*
X-17666662Y-2528719D01*
X-17641537Y-2547353D01*
X-17618360Y-2568360D01*
X-17597353Y-2591537D01*
X-17578719Y-2616662D01*
X-17562638Y-2643492D01*
X-17549263Y-2671770D01*
X-17538725Y-2701222D01*
X-17531125Y-2731565D01*
X-17526535Y-2762507D01*
X-17525000Y-2793750D01*
X-17525000Y-3431250D01*
X-17526535Y-3462493D01*
X-17531125Y-3493435D01*
X-17538725Y-3523778D01*
X-17549263Y-3553230D01*
X-17562638Y-3581508D01*
X-17578719Y-3608338D01*
X-17597353Y-3633463D01*
X-17618360Y-3656640D01*
X-17641537Y-3677647D01*
X-17666662Y-3696281D01*
X-17693492Y-3712362D01*
X-17721770Y-3725737D01*
X-17751222Y-3736275D01*
X-17781565Y-3743875D01*
X-17812507Y-3748465D01*
X-17843750Y-3750000D01*
X-18556250Y-3750000D01*
X-18587493Y-3748465D01*
X-18618435Y-3743875D01*
X-18648778Y-3736275D01*
X-18678230Y-3725737D01*
X-18706508Y-3712362D01*
X-18733338Y-3696281D01*
X-18758463Y-3677647D01*
X-18781640Y-3656640D01*
X-18802647Y-3633463D01*
X-18821281Y-3608338D01*
X-18837362Y-3581508D01*
X-18850737Y-3553230D01*
X-18861275Y-3523778D01*
X-18868875Y-3493435D01*
X-18873465Y-3462493D01*
X-18875000Y-3431250D01*
X-18875000Y-2793750D01*
X-18873465Y-2762507D01*
X-18868875Y-2731565D01*
X-18861275Y-2701222D01*
X-18850737Y-2671770D01*
X-18837362Y-2643492D01*
X-18821281Y-2616662D01*
X-18802647Y-2591537D01*
X-18781640Y-2568360D01*
X-18758463Y-2547353D01*
X-18733338Y-2528719D01*
X-18706508Y-2512638D01*
X-18678230Y-2499263D01*
X-18648778Y-2488725D01*
X-18618435Y-2481125D01*
X-18587493Y-2476535D01*
X-18556250Y-2475000D01*
X-17843750Y-2475000D01*
X-17812507Y-2476535D01*
X-17812507Y-2476535D01*
G37*
D22*
X-18200000Y-3112500D03*
D20*
G36*
X-17812507Y-4051535D02*
X-17781565Y-4056125D01*
X-17751222Y-4063725D01*
X-17721770Y-4074263D01*
X-17693492Y-4087638D01*
X-17666662Y-4103719D01*
X-17641537Y-4122353D01*
X-17618360Y-4143360D01*
X-17597353Y-4166537D01*
X-17578719Y-4191662D01*
X-17562638Y-4218492D01*
X-17549263Y-4246770D01*
X-17538725Y-4276222D01*
X-17531125Y-4306565D01*
X-17526535Y-4337507D01*
X-17525000Y-4368750D01*
X-17525000Y-5006250D01*
X-17526535Y-5037493D01*
X-17531125Y-5068435D01*
X-17538725Y-5098778D01*
X-17549263Y-5128230D01*
X-17562638Y-5156508D01*
X-17578719Y-5183338D01*
X-17597353Y-5208463D01*
X-17618360Y-5231640D01*
X-17641537Y-5252647D01*
X-17666662Y-5271281D01*
X-17693492Y-5287362D01*
X-17721770Y-5300737D01*
X-17751222Y-5311275D01*
X-17781565Y-5318875D01*
X-17812507Y-5323465D01*
X-17843750Y-5325000D01*
X-18556250Y-5325000D01*
X-18587493Y-5323465D01*
X-18618435Y-5318875D01*
X-18648778Y-5311275D01*
X-18678230Y-5300737D01*
X-18706508Y-5287362D01*
X-18733338Y-5271281D01*
X-18758463Y-5252647D01*
X-18781640Y-5231640D01*
X-18802647Y-5208463D01*
X-18821281Y-5183338D01*
X-18837362Y-5156508D01*
X-18850737Y-5128230D01*
X-18861275Y-5098778D01*
X-18868875Y-5068435D01*
X-18873465Y-5037493D01*
X-18875000Y-5006250D01*
X-18875000Y-4368750D01*
X-18873465Y-4337507D01*
X-18868875Y-4306565D01*
X-18861275Y-4276222D01*
X-18850737Y-4246770D01*
X-18837362Y-4218492D01*
X-18821281Y-4191662D01*
X-18802647Y-4166537D01*
X-18781640Y-4143360D01*
X-18758463Y-4122353D01*
X-18733338Y-4103719D01*
X-18706508Y-4087638D01*
X-18678230Y-4074263D01*
X-18648778Y-4063725D01*
X-18618435Y-4056125D01*
X-18587493Y-4051535D01*
X-18556250Y-4050000D01*
X-17843750Y-4050000D01*
X-17812507Y-4051535D01*
X-17812507Y-4051535D01*
G37*
D22*
X-18200000Y-4687500D03*
G04 #@! TD*
D20*
G04 #@! TO.C,C6*
G36*
X-16162507Y973465D02*
X-16131565Y968875D01*
X-16101222Y961275D01*
X-16071770Y950737D01*
X-16043492Y937362D01*
X-16016662Y921281D01*
X-15991537Y902647D01*
X-15968360Y881640D01*
X-15947353Y858463D01*
X-15928719Y833338D01*
X-15912638Y806508D01*
X-15899263Y778230D01*
X-15888725Y748778D01*
X-15881125Y718435D01*
X-15876535Y687493D01*
X-15875000Y656250D01*
X-15875000Y-56250D01*
X-15876535Y-87493D01*
X-15881125Y-118435D01*
X-15888725Y-148778D01*
X-15899263Y-178230D01*
X-15912638Y-206508D01*
X-15928719Y-233338D01*
X-15947353Y-258463D01*
X-15968360Y-281640D01*
X-15991537Y-302647D01*
X-16016662Y-321281D01*
X-16043492Y-337362D01*
X-16071770Y-350737D01*
X-16101222Y-361275D01*
X-16131565Y-368875D01*
X-16162507Y-373465D01*
X-16193750Y-375000D01*
X-16831250Y-375000D01*
X-16862493Y-373465D01*
X-16893435Y-368875D01*
X-16923778Y-361275D01*
X-16953230Y-350737D01*
X-16981508Y-337362D01*
X-17008338Y-321281D01*
X-17033463Y-302647D01*
X-17056640Y-281640D01*
X-17077647Y-258463D01*
X-17096281Y-233338D01*
X-17112362Y-206508D01*
X-17125737Y-178230D01*
X-17136275Y-148778D01*
X-17143875Y-118435D01*
X-17148465Y-87493D01*
X-17150000Y-56250D01*
X-17150000Y656250D01*
X-17148465Y687493D01*
X-17143875Y718435D01*
X-17136275Y748778D01*
X-17125737Y778230D01*
X-17112362Y806508D01*
X-17096281Y833338D01*
X-17077647Y858463D01*
X-17056640Y881640D01*
X-17033463Y902647D01*
X-17008338Y921281D01*
X-16981508Y937362D01*
X-16953230Y950737D01*
X-16923778Y961275D01*
X-16893435Y968875D01*
X-16862493Y973465D01*
X-16831250Y975000D01*
X-16193750Y975000D01*
X-16162507Y973465D01*
X-16162507Y973465D01*
G37*
D22*
X-16512500Y300000D03*
D20*
G36*
X-17737507Y973465D02*
X-17706565Y968875D01*
X-17676222Y961275D01*
X-17646770Y950737D01*
X-17618492Y937362D01*
X-17591662Y921281D01*
X-17566537Y902647D01*
X-17543360Y881640D01*
X-17522353Y858463D01*
X-17503719Y833338D01*
X-17487638Y806508D01*
X-17474263Y778230D01*
X-17463725Y748778D01*
X-17456125Y718435D01*
X-17451535Y687493D01*
X-17450000Y656250D01*
X-17450000Y-56250D01*
X-17451535Y-87493D01*
X-17456125Y-118435D01*
X-17463725Y-148778D01*
X-17474263Y-178230D01*
X-17487638Y-206508D01*
X-17503719Y-233338D01*
X-17522353Y-258463D01*
X-17543360Y-281640D01*
X-17566537Y-302647D01*
X-17591662Y-321281D01*
X-17618492Y-337362D01*
X-17646770Y-350737D01*
X-17676222Y-361275D01*
X-17706565Y-368875D01*
X-17737507Y-373465D01*
X-17768750Y-375000D01*
X-18406250Y-375000D01*
X-18437493Y-373465D01*
X-18468435Y-368875D01*
X-18498778Y-361275D01*
X-18528230Y-350737D01*
X-18556508Y-337362D01*
X-18583338Y-321281D01*
X-18608463Y-302647D01*
X-18631640Y-281640D01*
X-18652647Y-258463D01*
X-18671281Y-233338D01*
X-18687362Y-206508D01*
X-18700737Y-178230D01*
X-18711275Y-148778D01*
X-18718875Y-118435D01*
X-18723465Y-87493D01*
X-18725000Y-56250D01*
X-18725000Y656250D01*
X-18723465Y687493D01*
X-18718875Y718435D01*
X-18711275Y748778D01*
X-18700737Y778230D01*
X-18687362Y806508D01*
X-18671281Y833338D01*
X-18652647Y858463D01*
X-18631640Y881640D01*
X-18608463Y902647D01*
X-18583338Y921281D01*
X-18556508Y937362D01*
X-18528230Y950737D01*
X-18498778Y961275D01*
X-18468435Y968875D01*
X-18437493Y973465D01*
X-18406250Y975000D01*
X-17768750Y975000D01*
X-17737507Y973465D01*
X-17737507Y973465D01*
G37*
D22*
X-18087500Y300000D03*
G04 #@! TD*
D20*
G04 #@! TO.C,C7*
G36*
X-21472654Y-826589D02*
X-21440620Y-831341D01*
X-21409206Y-839210D01*
X-21378714Y-850120D01*
X-21349439Y-863966D01*
X-21321662Y-880615D01*
X-21295650Y-899907D01*
X-21271655Y-921655D01*
X-21249907Y-945650D01*
X-21230615Y-971662D01*
X-21213966Y-999439D01*
X-21200120Y-1028714D01*
X-21189210Y-1059206D01*
X-21181341Y-1090620D01*
X-21176589Y-1122654D01*
X-21175000Y-1155000D01*
X-21175000Y-2645000D01*
X-21176589Y-2677346D01*
X-21181341Y-2709380D01*
X-21189210Y-2740794D01*
X-21200120Y-2771286D01*
X-21213966Y-2800561D01*
X-21230615Y-2828338D01*
X-21249907Y-2854350D01*
X-21271655Y-2878345D01*
X-21295650Y-2900093D01*
X-21321662Y-2919385D01*
X-21349439Y-2936034D01*
X-21378714Y-2949880D01*
X-21409206Y-2960790D01*
X-21440620Y-2968659D01*
X-21472654Y-2973411D01*
X-21505000Y-2975000D01*
X-22495000Y-2975000D01*
X-22527346Y-2973411D01*
X-22559380Y-2968659D01*
X-22590794Y-2960790D01*
X-22621286Y-2949880D01*
X-22650561Y-2936034D01*
X-22678338Y-2919385D01*
X-22704350Y-2900093D01*
X-22728345Y-2878345D01*
X-22750093Y-2854350D01*
X-22769385Y-2828338D01*
X-22786034Y-2800561D01*
X-22799880Y-2771286D01*
X-22810790Y-2740794D01*
X-22818659Y-2709380D01*
X-22823411Y-2677346D01*
X-22825000Y-2645000D01*
X-22825000Y-1155000D01*
X-22823411Y-1122654D01*
X-22818659Y-1090620D01*
X-22810790Y-1059206D01*
X-22799880Y-1028714D01*
X-22786034Y-999439D01*
X-22769385Y-971662D01*
X-22750093Y-945650D01*
X-22728345Y-921655D01*
X-22704350Y-899907D01*
X-22678338Y-880615D01*
X-22650561Y-863966D01*
X-22621286Y-850120D01*
X-22590794Y-839210D01*
X-22559380Y-831341D01*
X-22527346Y-826589D01*
X-22495000Y-825000D01*
X-21505000Y-825000D01*
X-21472654Y-826589D01*
X-21472654Y-826589D01*
G37*
D23*
X-22000000Y-1900000D03*
D20*
G36*
X-24272654Y-826589D02*
X-24240620Y-831341D01*
X-24209206Y-839210D01*
X-24178714Y-850120D01*
X-24149439Y-863966D01*
X-24121662Y-880615D01*
X-24095650Y-899907D01*
X-24071655Y-921655D01*
X-24049907Y-945650D01*
X-24030615Y-971662D01*
X-24013966Y-999439D01*
X-24000120Y-1028714D01*
X-23989210Y-1059206D01*
X-23981341Y-1090620D01*
X-23976589Y-1122654D01*
X-23975000Y-1155000D01*
X-23975000Y-2645000D01*
X-23976589Y-2677346D01*
X-23981341Y-2709380D01*
X-23989210Y-2740794D01*
X-24000120Y-2771286D01*
X-24013966Y-2800561D01*
X-24030615Y-2828338D01*
X-24049907Y-2854350D01*
X-24071655Y-2878345D01*
X-24095650Y-2900093D01*
X-24121662Y-2919385D01*
X-24149439Y-2936034D01*
X-24178714Y-2949880D01*
X-24209206Y-2960790D01*
X-24240620Y-2968659D01*
X-24272654Y-2973411D01*
X-24305000Y-2975000D01*
X-25295000Y-2975000D01*
X-25327346Y-2973411D01*
X-25359380Y-2968659D01*
X-25390794Y-2960790D01*
X-25421286Y-2949880D01*
X-25450561Y-2936034D01*
X-25478338Y-2919385D01*
X-25504350Y-2900093D01*
X-25528345Y-2878345D01*
X-25550093Y-2854350D01*
X-25569385Y-2828338D01*
X-25586034Y-2800561D01*
X-25599880Y-2771286D01*
X-25610790Y-2740794D01*
X-25618659Y-2709380D01*
X-25623411Y-2677346D01*
X-25625000Y-2645000D01*
X-25625000Y-1155000D01*
X-25623411Y-1122654D01*
X-25618659Y-1090620D01*
X-25610790Y-1059206D01*
X-25599880Y-1028714D01*
X-25586034Y-999439D01*
X-25569385Y-971662D01*
X-25550093Y-945650D01*
X-25528345Y-921655D01*
X-25504350Y-899907D01*
X-25478338Y-880615D01*
X-25450561Y-863966D01*
X-25421286Y-850120D01*
X-25390794Y-839210D01*
X-25359380Y-831341D01*
X-25327346Y-826589D01*
X-25295000Y-825000D01*
X-24305000Y-825000D01*
X-24272654Y-826589D01*
X-24272654Y-826589D01*
G37*
D23*
X-24800000Y-1900000D03*
G04 #@! TD*
D20*
G04 #@! TO.C,C8*
G36*
X-24272654Y1573411D02*
X-24240620Y1568659D01*
X-24209206Y1560790D01*
X-24178714Y1549880D01*
X-24149439Y1536034D01*
X-24121662Y1519385D01*
X-24095650Y1500093D01*
X-24071655Y1478345D01*
X-24049907Y1454350D01*
X-24030615Y1428338D01*
X-24013966Y1400561D01*
X-24000120Y1371286D01*
X-23989210Y1340794D01*
X-23981341Y1309380D01*
X-23976589Y1277346D01*
X-23975000Y1245000D01*
X-23975000Y-245000D01*
X-23976589Y-277346D01*
X-23981341Y-309380D01*
X-23989210Y-340794D01*
X-24000120Y-371286D01*
X-24013966Y-400561D01*
X-24030615Y-428338D01*
X-24049907Y-454350D01*
X-24071655Y-478345D01*
X-24095650Y-500093D01*
X-24121662Y-519385D01*
X-24149439Y-536034D01*
X-24178714Y-549880D01*
X-24209206Y-560790D01*
X-24240620Y-568659D01*
X-24272654Y-573411D01*
X-24305000Y-575000D01*
X-25295000Y-575000D01*
X-25327346Y-573411D01*
X-25359380Y-568659D01*
X-25390794Y-560790D01*
X-25421286Y-549880D01*
X-25450561Y-536034D01*
X-25478338Y-519385D01*
X-25504350Y-500093D01*
X-25528345Y-478345D01*
X-25550093Y-454350D01*
X-25569385Y-428338D01*
X-25586034Y-400561D01*
X-25599880Y-371286D01*
X-25610790Y-340794D01*
X-25618659Y-309380D01*
X-25623411Y-277346D01*
X-25625000Y-245000D01*
X-25625000Y1245000D01*
X-25623411Y1277346D01*
X-25618659Y1309380D01*
X-25610790Y1340794D01*
X-25599880Y1371286D01*
X-25586034Y1400561D01*
X-25569385Y1428338D01*
X-25550093Y1454350D01*
X-25528345Y1478345D01*
X-25504350Y1500093D01*
X-25478338Y1519385D01*
X-25450561Y1536034D01*
X-25421286Y1549880D01*
X-25390794Y1560790D01*
X-25359380Y1568659D01*
X-25327346Y1573411D01*
X-25295000Y1575000D01*
X-24305000Y1575000D01*
X-24272654Y1573411D01*
X-24272654Y1573411D01*
G37*
D23*
X-24800000Y500000D03*
D20*
G36*
X-21472654Y1573411D02*
X-21440620Y1568659D01*
X-21409206Y1560790D01*
X-21378714Y1549880D01*
X-21349439Y1536034D01*
X-21321662Y1519385D01*
X-21295650Y1500093D01*
X-21271655Y1478345D01*
X-21249907Y1454350D01*
X-21230615Y1428338D01*
X-21213966Y1400561D01*
X-21200120Y1371286D01*
X-21189210Y1340794D01*
X-21181341Y1309380D01*
X-21176589Y1277346D01*
X-21175000Y1245000D01*
X-21175000Y-245000D01*
X-21176589Y-277346D01*
X-21181341Y-309380D01*
X-21189210Y-340794D01*
X-21200120Y-371286D01*
X-21213966Y-400561D01*
X-21230615Y-428338D01*
X-21249907Y-454350D01*
X-21271655Y-478345D01*
X-21295650Y-500093D01*
X-21321662Y-519385D01*
X-21349439Y-536034D01*
X-21378714Y-549880D01*
X-21409206Y-560790D01*
X-21440620Y-568659D01*
X-21472654Y-573411D01*
X-21505000Y-575000D01*
X-22495000Y-575000D01*
X-22527346Y-573411D01*
X-22559380Y-568659D01*
X-22590794Y-560790D01*
X-22621286Y-549880D01*
X-22650561Y-536034D01*
X-22678338Y-519385D01*
X-22704350Y-500093D01*
X-22728345Y-478345D01*
X-22750093Y-454350D01*
X-22769385Y-428338D01*
X-22786034Y-400561D01*
X-22799880Y-371286D01*
X-22810790Y-340794D01*
X-22818659Y-309380D01*
X-22823411Y-277346D01*
X-22825000Y-245000D01*
X-22825000Y1245000D01*
X-22823411Y1277346D01*
X-22818659Y1309380D01*
X-22810790Y1340794D01*
X-22799880Y1371286D01*
X-22786034Y1400561D01*
X-22769385Y1428338D01*
X-22750093Y1454350D01*
X-22728345Y1478345D01*
X-22704350Y1500093D01*
X-22678338Y1519385D01*
X-22650561Y1536034D01*
X-22621286Y1549880D01*
X-22590794Y1560790D01*
X-22559380Y1568659D01*
X-22527346Y1573411D01*
X-22495000Y1575000D01*
X-21505000Y1575000D01*
X-21472654Y1573411D01*
X-21472654Y1573411D01*
G37*
D23*
X-22000000Y500000D03*
G04 #@! TD*
D20*
G04 #@! TO.C,C9*
G36*
X-21472654Y3973411D02*
X-21440620Y3968659D01*
X-21409206Y3960790D01*
X-21378714Y3949880D01*
X-21349439Y3936034D01*
X-21321662Y3919385D01*
X-21295650Y3900093D01*
X-21271655Y3878345D01*
X-21249907Y3854350D01*
X-21230615Y3828338D01*
X-21213966Y3800561D01*
X-21200120Y3771286D01*
X-21189210Y3740794D01*
X-21181341Y3709380D01*
X-21176589Y3677346D01*
X-21175000Y3645000D01*
X-21175000Y2155000D01*
X-21176589Y2122654D01*
X-21181341Y2090620D01*
X-21189210Y2059206D01*
X-21200120Y2028714D01*
X-21213966Y1999439D01*
X-21230615Y1971662D01*
X-21249907Y1945650D01*
X-21271655Y1921655D01*
X-21295650Y1899907D01*
X-21321662Y1880615D01*
X-21349439Y1863966D01*
X-21378714Y1850120D01*
X-21409206Y1839210D01*
X-21440620Y1831341D01*
X-21472654Y1826589D01*
X-21505000Y1825000D01*
X-22495000Y1825000D01*
X-22527346Y1826589D01*
X-22559380Y1831341D01*
X-22590794Y1839210D01*
X-22621286Y1850120D01*
X-22650561Y1863966D01*
X-22678338Y1880615D01*
X-22704350Y1899907D01*
X-22728345Y1921655D01*
X-22750093Y1945650D01*
X-22769385Y1971662D01*
X-22786034Y1999439D01*
X-22799880Y2028714D01*
X-22810790Y2059206D01*
X-22818659Y2090620D01*
X-22823411Y2122654D01*
X-22825000Y2155000D01*
X-22825000Y3645000D01*
X-22823411Y3677346D01*
X-22818659Y3709380D01*
X-22810790Y3740794D01*
X-22799880Y3771286D01*
X-22786034Y3800561D01*
X-22769385Y3828338D01*
X-22750093Y3854350D01*
X-22728345Y3878345D01*
X-22704350Y3900093D01*
X-22678338Y3919385D01*
X-22650561Y3936034D01*
X-22621286Y3949880D01*
X-22590794Y3960790D01*
X-22559380Y3968659D01*
X-22527346Y3973411D01*
X-22495000Y3975000D01*
X-21505000Y3975000D01*
X-21472654Y3973411D01*
X-21472654Y3973411D01*
G37*
D23*
X-22000000Y2900000D03*
D20*
G36*
X-24272654Y3973411D02*
X-24240620Y3968659D01*
X-24209206Y3960790D01*
X-24178714Y3949880D01*
X-24149439Y3936034D01*
X-24121662Y3919385D01*
X-24095650Y3900093D01*
X-24071655Y3878345D01*
X-24049907Y3854350D01*
X-24030615Y3828338D01*
X-24013966Y3800561D01*
X-24000120Y3771286D01*
X-23989210Y3740794D01*
X-23981341Y3709380D01*
X-23976589Y3677346D01*
X-23975000Y3645000D01*
X-23975000Y2155000D01*
X-23976589Y2122654D01*
X-23981341Y2090620D01*
X-23989210Y2059206D01*
X-24000120Y2028714D01*
X-24013966Y1999439D01*
X-24030615Y1971662D01*
X-24049907Y1945650D01*
X-24071655Y1921655D01*
X-24095650Y1899907D01*
X-24121662Y1880615D01*
X-24149439Y1863966D01*
X-24178714Y1850120D01*
X-24209206Y1839210D01*
X-24240620Y1831341D01*
X-24272654Y1826589D01*
X-24305000Y1825000D01*
X-25295000Y1825000D01*
X-25327346Y1826589D01*
X-25359380Y1831341D01*
X-25390794Y1839210D01*
X-25421286Y1850120D01*
X-25450561Y1863966D01*
X-25478338Y1880615D01*
X-25504350Y1899907D01*
X-25528345Y1921655D01*
X-25550093Y1945650D01*
X-25569385Y1971662D01*
X-25586034Y1999439D01*
X-25599880Y2028714D01*
X-25610790Y2059206D01*
X-25618659Y2090620D01*
X-25623411Y2122654D01*
X-25625000Y2155000D01*
X-25625000Y3645000D01*
X-25623411Y3677346D01*
X-25618659Y3709380D01*
X-25610790Y3740794D01*
X-25599880Y3771286D01*
X-25586034Y3800561D01*
X-25569385Y3828338D01*
X-25550093Y3854350D01*
X-25528345Y3878345D01*
X-25504350Y3900093D01*
X-25478338Y3919385D01*
X-25450561Y3936034D01*
X-25421286Y3949880D01*
X-25390794Y3960790D01*
X-25359380Y3968659D01*
X-25327346Y3973411D01*
X-25295000Y3975000D01*
X-24305000Y3975000D01*
X-24272654Y3973411D01*
X-24272654Y3973411D01*
G37*
D23*
X-24800000Y2900000D03*
G04 #@! TD*
D20*
G04 #@! TO.C,R1*
G36*
X-18810057Y-14114155D02*
X-18776688Y-14119105D01*
X-18743965Y-14127302D01*
X-18712203Y-14138666D01*
X-18681707Y-14153090D01*
X-18652773Y-14170432D01*
X-18625677Y-14190528D01*
X-18600682Y-14213182D01*
X-18578028Y-14238177D01*
X-18557932Y-14265273D01*
X-18540590Y-14294207D01*
X-18526166Y-14324703D01*
X-18514802Y-14356465D01*
X-18506605Y-14389188D01*
X-18501655Y-14422557D01*
X-18500000Y-14456250D01*
X-18500000Y-15143750D01*
X-18501655Y-15177443D01*
X-18506605Y-15210812D01*
X-18514802Y-15243535D01*
X-18526166Y-15275297D01*
X-18540590Y-15305793D01*
X-18557932Y-15334727D01*
X-18578028Y-15361823D01*
X-18600682Y-15386818D01*
X-18625677Y-15409472D01*
X-18652773Y-15429568D01*
X-18681707Y-15446910D01*
X-18712203Y-15461334D01*
X-18743965Y-15472698D01*
X-18776688Y-15480895D01*
X-18810057Y-15485845D01*
X-18843750Y-15487500D01*
X-19956250Y-15487500D01*
X-19989943Y-15485845D01*
X-20023312Y-15480895D01*
X-20056035Y-15472698D01*
X-20087797Y-15461334D01*
X-20118293Y-15446910D01*
X-20147227Y-15429568D01*
X-20174323Y-15409472D01*
X-20199318Y-15386818D01*
X-20221972Y-15361823D01*
X-20242068Y-15334727D01*
X-20259410Y-15305793D01*
X-20273834Y-15275297D01*
X-20285198Y-15243535D01*
X-20293395Y-15210812D01*
X-20298345Y-15177443D01*
X-20300000Y-15143750D01*
X-20300000Y-14456250D01*
X-20298345Y-14422557D01*
X-20293395Y-14389188D01*
X-20285198Y-14356465D01*
X-20273834Y-14324703D01*
X-20259410Y-14294207D01*
X-20242068Y-14265273D01*
X-20221972Y-14238177D01*
X-20199318Y-14213182D01*
X-20174323Y-14190528D01*
X-20147227Y-14170432D01*
X-20118293Y-14153090D01*
X-20087797Y-14138666D01*
X-20056035Y-14127302D01*
X-20023312Y-14119105D01*
X-19989943Y-14114155D01*
X-19956250Y-14112500D01*
X-18843750Y-14112500D01*
X-18810057Y-14114155D01*
X-18810057Y-14114155D01*
G37*
D21*
X-19400000Y-14800000D03*
D20*
G36*
X-18810057Y-15989155D02*
X-18776688Y-15994105D01*
X-18743965Y-16002302D01*
X-18712203Y-16013666D01*
X-18681707Y-16028090D01*
X-18652773Y-16045432D01*
X-18625677Y-16065528D01*
X-18600682Y-16088182D01*
X-18578028Y-16113177D01*
X-18557932Y-16140273D01*
X-18540590Y-16169207D01*
X-18526166Y-16199703D01*
X-18514802Y-16231465D01*
X-18506605Y-16264188D01*
X-18501655Y-16297557D01*
X-18500000Y-16331250D01*
X-18500000Y-17018750D01*
X-18501655Y-17052443D01*
X-18506605Y-17085812D01*
X-18514802Y-17118535D01*
X-18526166Y-17150297D01*
X-18540590Y-17180793D01*
X-18557932Y-17209727D01*
X-18578028Y-17236823D01*
X-18600682Y-17261818D01*
X-18625677Y-17284472D01*
X-18652773Y-17304568D01*
X-18681707Y-17321910D01*
X-18712203Y-17336334D01*
X-18743965Y-17347698D01*
X-18776688Y-17355895D01*
X-18810057Y-17360845D01*
X-18843750Y-17362500D01*
X-19956250Y-17362500D01*
X-19989943Y-17360845D01*
X-20023312Y-17355895D01*
X-20056035Y-17347698D01*
X-20087797Y-17336334D01*
X-20118293Y-17321910D01*
X-20147227Y-17304568D01*
X-20174323Y-17284472D01*
X-20199318Y-17261818D01*
X-20221972Y-17236823D01*
X-20242068Y-17209727D01*
X-20259410Y-17180793D01*
X-20273834Y-17150297D01*
X-20285198Y-17118535D01*
X-20293395Y-17085812D01*
X-20298345Y-17052443D01*
X-20300000Y-17018750D01*
X-20300000Y-16331250D01*
X-20298345Y-16297557D01*
X-20293395Y-16264188D01*
X-20285198Y-16231465D01*
X-20273834Y-16199703D01*
X-20259410Y-16169207D01*
X-20242068Y-16140273D01*
X-20221972Y-16113177D01*
X-20199318Y-16088182D01*
X-20174323Y-16065528D01*
X-20147227Y-16045432D01*
X-20118293Y-16028090D01*
X-20087797Y-16013666D01*
X-20056035Y-16002302D01*
X-20023312Y-15994105D01*
X-19989943Y-15989155D01*
X-19956250Y-15987500D01*
X-18843750Y-15987500D01*
X-18810057Y-15989155D01*
X-18810057Y-15989155D01*
G37*
D21*
X-19400000Y-16675000D03*
G04 #@! TD*
D20*
G04 #@! TO.C,R2*
G36*
X-3650007Y7473465D02*
X-3619065Y7468875D01*
X-3588722Y7461275D01*
X-3559270Y7450737D01*
X-3530992Y7437362D01*
X-3504162Y7421281D01*
X-3479037Y7402647D01*
X-3455860Y7381640D01*
X-3434853Y7358463D01*
X-3416219Y7333338D01*
X-3400138Y7306508D01*
X-3386763Y7278230D01*
X-3376225Y7248778D01*
X-3368625Y7218435D01*
X-3364035Y7187493D01*
X-3362500Y7156250D01*
X-3362500Y6443750D01*
X-3364035Y6412507D01*
X-3368625Y6381565D01*
X-3376225Y6351222D01*
X-3386763Y6321770D01*
X-3400138Y6293492D01*
X-3416219Y6266662D01*
X-3434853Y6241537D01*
X-3455860Y6218360D01*
X-3479037Y6197353D01*
X-3504162Y6178719D01*
X-3530992Y6162638D01*
X-3559270Y6149263D01*
X-3588722Y6138725D01*
X-3619065Y6131125D01*
X-3650007Y6126535D01*
X-3681250Y6125000D01*
X-4318750Y6125000D01*
X-4349993Y6126535D01*
X-4380935Y6131125D01*
X-4411278Y6138725D01*
X-4440730Y6149263D01*
X-4469008Y6162638D01*
X-4495838Y6178719D01*
X-4520963Y6197353D01*
X-4544140Y6218360D01*
X-4565147Y6241537D01*
X-4583781Y6266662D01*
X-4599862Y6293492D01*
X-4613237Y6321770D01*
X-4623775Y6351222D01*
X-4631375Y6381565D01*
X-4635965Y6412507D01*
X-4637500Y6443750D01*
X-4637500Y7156250D01*
X-4635965Y7187493D01*
X-4631375Y7218435D01*
X-4623775Y7248778D01*
X-4613237Y7278230D01*
X-4599862Y7306508D01*
X-4583781Y7333338D01*
X-4565147Y7358463D01*
X-4544140Y7381640D01*
X-4520963Y7402647D01*
X-4495838Y7421281D01*
X-4469008Y7437362D01*
X-4440730Y7450737D01*
X-4411278Y7461275D01*
X-4380935Y7468875D01*
X-4349993Y7473465D01*
X-4318750Y7475000D01*
X-3681250Y7475000D01*
X-3650007Y7473465D01*
X-3650007Y7473465D01*
G37*
D22*
X-4000000Y6800000D03*
D20*
G36*
X-5225007Y7473465D02*
X-5194065Y7468875D01*
X-5163722Y7461275D01*
X-5134270Y7450737D01*
X-5105992Y7437362D01*
X-5079162Y7421281D01*
X-5054037Y7402647D01*
X-5030860Y7381640D01*
X-5009853Y7358463D01*
X-4991219Y7333338D01*
X-4975138Y7306508D01*
X-4961763Y7278230D01*
X-4951225Y7248778D01*
X-4943625Y7218435D01*
X-4939035Y7187493D01*
X-4937500Y7156250D01*
X-4937500Y6443750D01*
X-4939035Y6412507D01*
X-4943625Y6381565D01*
X-4951225Y6351222D01*
X-4961763Y6321770D01*
X-4975138Y6293492D01*
X-4991219Y6266662D01*
X-5009853Y6241537D01*
X-5030860Y6218360D01*
X-5054037Y6197353D01*
X-5079162Y6178719D01*
X-5105992Y6162638D01*
X-5134270Y6149263D01*
X-5163722Y6138725D01*
X-5194065Y6131125D01*
X-5225007Y6126535D01*
X-5256250Y6125000D01*
X-5893750Y6125000D01*
X-5924993Y6126535D01*
X-5955935Y6131125D01*
X-5986278Y6138725D01*
X-6015730Y6149263D01*
X-6044008Y6162638D01*
X-6070838Y6178719D01*
X-6095963Y6197353D01*
X-6119140Y6218360D01*
X-6140147Y6241537D01*
X-6158781Y6266662D01*
X-6174862Y6293492D01*
X-6188237Y6321770D01*
X-6198775Y6351222D01*
X-6206375Y6381565D01*
X-6210965Y6412507D01*
X-6212500Y6443750D01*
X-6212500Y7156250D01*
X-6210965Y7187493D01*
X-6206375Y7218435D01*
X-6198775Y7248778D01*
X-6188237Y7278230D01*
X-6174862Y7306508D01*
X-6158781Y7333338D01*
X-6140147Y7358463D01*
X-6119140Y7381640D01*
X-6095963Y7402647D01*
X-6070838Y7421281D01*
X-6044008Y7437362D01*
X-6015730Y7450737D01*
X-5986278Y7461275D01*
X-5955935Y7468875D01*
X-5924993Y7473465D01*
X-5893750Y7475000D01*
X-5256250Y7475000D01*
X-5225007Y7473465D01*
X-5225007Y7473465D01*
G37*
D22*
X-5575000Y6800000D03*
G04 #@! TD*
D20*
G04 #@! TO.C,R3*
G36*
X-6812507Y-16364035D02*
X-6781565Y-16368625D01*
X-6751222Y-16376225D01*
X-6721770Y-16386763D01*
X-6693492Y-16400138D01*
X-6666662Y-16416219D01*
X-6641537Y-16434853D01*
X-6618360Y-16455860D01*
X-6597353Y-16479037D01*
X-6578719Y-16504162D01*
X-6562638Y-16530992D01*
X-6549263Y-16559270D01*
X-6538725Y-16588722D01*
X-6531125Y-16619065D01*
X-6526535Y-16650007D01*
X-6525000Y-16681250D01*
X-6525000Y-17318750D01*
X-6526535Y-17349993D01*
X-6531125Y-17380935D01*
X-6538725Y-17411278D01*
X-6549263Y-17440730D01*
X-6562638Y-17469008D01*
X-6578719Y-17495838D01*
X-6597353Y-17520963D01*
X-6618360Y-17544140D01*
X-6641537Y-17565147D01*
X-6666662Y-17583781D01*
X-6693492Y-17599862D01*
X-6721770Y-17613237D01*
X-6751222Y-17623775D01*
X-6781565Y-17631375D01*
X-6812507Y-17635965D01*
X-6843750Y-17637500D01*
X-7556250Y-17637500D01*
X-7587493Y-17635965D01*
X-7618435Y-17631375D01*
X-7648778Y-17623775D01*
X-7678230Y-17613237D01*
X-7706508Y-17599862D01*
X-7733338Y-17583781D01*
X-7758463Y-17565147D01*
X-7781640Y-17544140D01*
X-7802647Y-17520963D01*
X-7821281Y-17495838D01*
X-7837362Y-17469008D01*
X-7850737Y-17440730D01*
X-7861275Y-17411278D01*
X-7868875Y-17380935D01*
X-7873465Y-17349993D01*
X-7875000Y-17318750D01*
X-7875000Y-16681250D01*
X-7873465Y-16650007D01*
X-7868875Y-16619065D01*
X-7861275Y-16588722D01*
X-7850737Y-16559270D01*
X-7837362Y-16530992D01*
X-7821281Y-16504162D01*
X-7802647Y-16479037D01*
X-7781640Y-16455860D01*
X-7758463Y-16434853D01*
X-7733338Y-16416219D01*
X-7706508Y-16400138D01*
X-7678230Y-16386763D01*
X-7648778Y-16376225D01*
X-7618435Y-16368625D01*
X-7587493Y-16364035D01*
X-7556250Y-16362500D01*
X-6843750Y-16362500D01*
X-6812507Y-16364035D01*
X-6812507Y-16364035D01*
G37*
D22*
X-7200000Y-17000000D03*
D20*
G36*
X-6812507Y-14789035D02*
X-6781565Y-14793625D01*
X-6751222Y-14801225D01*
X-6721770Y-14811763D01*
X-6693492Y-14825138D01*
X-6666662Y-14841219D01*
X-6641537Y-14859853D01*
X-6618360Y-14880860D01*
X-6597353Y-14904037D01*
X-6578719Y-14929162D01*
X-6562638Y-14955992D01*
X-6549263Y-14984270D01*
X-6538725Y-15013722D01*
X-6531125Y-15044065D01*
X-6526535Y-15075007D01*
X-6525000Y-15106250D01*
X-6525000Y-15743750D01*
X-6526535Y-15774993D01*
X-6531125Y-15805935D01*
X-6538725Y-15836278D01*
X-6549263Y-15865730D01*
X-6562638Y-15894008D01*
X-6578719Y-15920838D01*
X-6597353Y-15945963D01*
X-6618360Y-15969140D01*
X-6641537Y-15990147D01*
X-6666662Y-16008781D01*
X-6693492Y-16024862D01*
X-6721770Y-16038237D01*
X-6751222Y-16048775D01*
X-6781565Y-16056375D01*
X-6812507Y-16060965D01*
X-6843750Y-16062500D01*
X-7556250Y-16062500D01*
X-7587493Y-16060965D01*
X-7618435Y-16056375D01*
X-7648778Y-16048775D01*
X-7678230Y-16038237D01*
X-7706508Y-16024862D01*
X-7733338Y-16008781D01*
X-7758463Y-15990147D01*
X-7781640Y-15969140D01*
X-7802647Y-15945963D01*
X-7821281Y-15920838D01*
X-7837362Y-15894008D01*
X-7850737Y-15865730D01*
X-7861275Y-15836278D01*
X-7868875Y-15805935D01*
X-7873465Y-15774993D01*
X-7875000Y-15743750D01*
X-7875000Y-15106250D01*
X-7873465Y-15075007D01*
X-7868875Y-15044065D01*
X-7861275Y-15013722D01*
X-7850737Y-14984270D01*
X-7837362Y-14955992D01*
X-7821281Y-14929162D01*
X-7802647Y-14904037D01*
X-7781640Y-14880860D01*
X-7758463Y-14859853D01*
X-7733338Y-14841219D01*
X-7706508Y-14825138D01*
X-7678230Y-14811763D01*
X-7648778Y-14801225D01*
X-7618435Y-14793625D01*
X-7587493Y-14789035D01*
X-7556250Y-14787500D01*
X-6843750Y-14787500D01*
X-6812507Y-14789035D01*
X-6812507Y-14789035D01*
G37*
D22*
X-7200000Y-15425000D03*
G04 #@! TD*
D20*
G04 #@! TO.C,R4*
G36*
X-6812507Y-18189035D02*
X-6781565Y-18193625D01*
X-6751222Y-18201225D01*
X-6721770Y-18211763D01*
X-6693492Y-18225138D01*
X-6666662Y-18241219D01*
X-6641537Y-18259853D01*
X-6618360Y-18280860D01*
X-6597353Y-18304037D01*
X-6578719Y-18329162D01*
X-6562638Y-18355992D01*
X-6549263Y-18384270D01*
X-6538725Y-18413722D01*
X-6531125Y-18444065D01*
X-6526535Y-18475007D01*
X-6525000Y-18506250D01*
X-6525000Y-19143750D01*
X-6526535Y-19174993D01*
X-6531125Y-19205935D01*
X-6538725Y-19236278D01*
X-6549263Y-19265730D01*
X-6562638Y-19294008D01*
X-6578719Y-19320838D01*
X-6597353Y-19345963D01*
X-6618360Y-19369140D01*
X-6641537Y-19390147D01*
X-6666662Y-19408781D01*
X-6693492Y-19424862D01*
X-6721770Y-19438237D01*
X-6751222Y-19448775D01*
X-6781565Y-19456375D01*
X-6812507Y-19460965D01*
X-6843750Y-19462500D01*
X-7556250Y-19462500D01*
X-7587493Y-19460965D01*
X-7618435Y-19456375D01*
X-7648778Y-19448775D01*
X-7678230Y-19438237D01*
X-7706508Y-19424862D01*
X-7733338Y-19408781D01*
X-7758463Y-19390147D01*
X-7781640Y-19369140D01*
X-7802647Y-19345963D01*
X-7821281Y-19320838D01*
X-7837362Y-19294008D01*
X-7850737Y-19265730D01*
X-7861275Y-19236278D01*
X-7868875Y-19205935D01*
X-7873465Y-19174993D01*
X-7875000Y-19143750D01*
X-7875000Y-18506250D01*
X-7873465Y-18475007D01*
X-7868875Y-18444065D01*
X-7861275Y-18413722D01*
X-7850737Y-18384270D01*
X-7837362Y-18355992D01*
X-7821281Y-18329162D01*
X-7802647Y-18304037D01*
X-7781640Y-18280860D01*
X-7758463Y-18259853D01*
X-7733338Y-18241219D01*
X-7706508Y-18225138D01*
X-7678230Y-18211763D01*
X-7648778Y-18201225D01*
X-7618435Y-18193625D01*
X-7587493Y-18189035D01*
X-7556250Y-18187500D01*
X-6843750Y-18187500D01*
X-6812507Y-18189035D01*
X-6812507Y-18189035D01*
G37*
D22*
X-7200000Y-18825000D03*
D20*
G36*
X-6812507Y-19764035D02*
X-6781565Y-19768625D01*
X-6751222Y-19776225D01*
X-6721770Y-19786763D01*
X-6693492Y-19800138D01*
X-6666662Y-19816219D01*
X-6641537Y-19834853D01*
X-6618360Y-19855860D01*
X-6597353Y-19879037D01*
X-6578719Y-19904162D01*
X-6562638Y-19930992D01*
X-6549263Y-19959270D01*
X-6538725Y-19988722D01*
X-6531125Y-20019065D01*
X-6526535Y-20050007D01*
X-6525000Y-20081250D01*
X-6525000Y-20718750D01*
X-6526535Y-20749993D01*
X-6531125Y-20780935D01*
X-6538725Y-20811278D01*
X-6549263Y-20840730D01*
X-6562638Y-20869008D01*
X-6578719Y-20895838D01*
X-6597353Y-20920963D01*
X-6618360Y-20944140D01*
X-6641537Y-20965147D01*
X-6666662Y-20983781D01*
X-6693492Y-20999862D01*
X-6721770Y-21013237D01*
X-6751222Y-21023775D01*
X-6781565Y-21031375D01*
X-6812507Y-21035965D01*
X-6843750Y-21037500D01*
X-7556250Y-21037500D01*
X-7587493Y-21035965D01*
X-7618435Y-21031375D01*
X-7648778Y-21023775D01*
X-7678230Y-21013237D01*
X-7706508Y-20999862D01*
X-7733338Y-20983781D01*
X-7758463Y-20965147D01*
X-7781640Y-20944140D01*
X-7802647Y-20920963D01*
X-7821281Y-20895838D01*
X-7837362Y-20869008D01*
X-7850737Y-20840730D01*
X-7861275Y-20811278D01*
X-7868875Y-20780935D01*
X-7873465Y-20749993D01*
X-7875000Y-20718750D01*
X-7875000Y-20081250D01*
X-7873465Y-20050007D01*
X-7868875Y-20019065D01*
X-7861275Y-19988722D01*
X-7850737Y-19959270D01*
X-7837362Y-19930992D01*
X-7821281Y-19904162D01*
X-7802647Y-19879037D01*
X-7781640Y-19855860D01*
X-7758463Y-19834853D01*
X-7733338Y-19816219D01*
X-7706508Y-19800138D01*
X-7678230Y-19786763D01*
X-7648778Y-19776225D01*
X-7618435Y-19768625D01*
X-7587493Y-19764035D01*
X-7556250Y-19762500D01*
X-6843750Y-19762500D01*
X-6812507Y-19764035D01*
X-6812507Y-19764035D01*
G37*
D22*
X-7200000Y-20400000D03*
G04 #@! TD*
D20*
G04 #@! TO.C,R5*
G36*
X-3650007Y9273465D02*
X-3619065Y9268875D01*
X-3588722Y9261275D01*
X-3559270Y9250737D01*
X-3530992Y9237362D01*
X-3504162Y9221281D01*
X-3479037Y9202647D01*
X-3455860Y9181640D01*
X-3434853Y9158463D01*
X-3416219Y9133338D01*
X-3400138Y9106508D01*
X-3386763Y9078230D01*
X-3376225Y9048778D01*
X-3368625Y9018435D01*
X-3364035Y8987493D01*
X-3362500Y8956250D01*
X-3362500Y8243750D01*
X-3364035Y8212507D01*
X-3368625Y8181565D01*
X-3376225Y8151222D01*
X-3386763Y8121770D01*
X-3400138Y8093492D01*
X-3416219Y8066662D01*
X-3434853Y8041537D01*
X-3455860Y8018360D01*
X-3479037Y7997353D01*
X-3504162Y7978719D01*
X-3530992Y7962638D01*
X-3559270Y7949263D01*
X-3588722Y7938725D01*
X-3619065Y7931125D01*
X-3650007Y7926535D01*
X-3681250Y7925000D01*
X-4318750Y7925000D01*
X-4349993Y7926535D01*
X-4380935Y7931125D01*
X-4411278Y7938725D01*
X-4440730Y7949263D01*
X-4469008Y7962638D01*
X-4495838Y7978719D01*
X-4520963Y7997353D01*
X-4544140Y8018360D01*
X-4565147Y8041537D01*
X-4583781Y8066662D01*
X-4599862Y8093492D01*
X-4613237Y8121770D01*
X-4623775Y8151222D01*
X-4631375Y8181565D01*
X-4635965Y8212507D01*
X-4637500Y8243750D01*
X-4637500Y8956250D01*
X-4635965Y8987493D01*
X-4631375Y9018435D01*
X-4623775Y9048778D01*
X-4613237Y9078230D01*
X-4599862Y9106508D01*
X-4583781Y9133338D01*
X-4565147Y9158463D01*
X-4544140Y9181640D01*
X-4520963Y9202647D01*
X-4495838Y9221281D01*
X-4469008Y9237362D01*
X-4440730Y9250737D01*
X-4411278Y9261275D01*
X-4380935Y9268875D01*
X-4349993Y9273465D01*
X-4318750Y9275000D01*
X-3681250Y9275000D01*
X-3650007Y9273465D01*
X-3650007Y9273465D01*
G37*
D22*
X-4000000Y8600000D03*
D20*
G36*
X-5225007Y9273465D02*
X-5194065Y9268875D01*
X-5163722Y9261275D01*
X-5134270Y9250737D01*
X-5105992Y9237362D01*
X-5079162Y9221281D01*
X-5054037Y9202647D01*
X-5030860Y9181640D01*
X-5009853Y9158463D01*
X-4991219Y9133338D01*
X-4975138Y9106508D01*
X-4961763Y9078230D01*
X-4951225Y9048778D01*
X-4943625Y9018435D01*
X-4939035Y8987493D01*
X-4937500Y8956250D01*
X-4937500Y8243750D01*
X-4939035Y8212507D01*
X-4943625Y8181565D01*
X-4951225Y8151222D01*
X-4961763Y8121770D01*
X-4975138Y8093492D01*
X-4991219Y8066662D01*
X-5009853Y8041537D01*
X-5030860Y8018360D01*
X-5054037Y7997353D01*
X-5079162Y7978719D01*
X-5105992Y7962638D01*
X-5134270Y7949263D01*
X-5163722Y7938725D01*
X-5194065Y7931125D01*
X-5225007Y7926535D01*
X-5256250Y7925000D01*
X-5893750Y7925000D01*
X-5924993Y7926535D01*
X-5955935Y7931125D01*
X-5986278Y7938725D01*
X-6015730Y7949263D01*
X-6044008Y7962638D01*
X-6070838Y7978719D01*
X-6095963Y7997353D01*
X-6119140Y8018360D01*
X-6140147Y8041537D01*
X-6158781Y8066662D01*
X-6174862Y8093492D01*
X-6188237Y8121770D01*
X-6198775Y8151222D01*
X-6206375Y8181565D01*
X-6210965Y8212507D01*
X-6212500Y8243750D01*
X-6212500Y8956250D01*
X-6210965Y8987493D01*
X-6206375Y9018435D01*
X-6198775Y9048778D01*
X-6188237Y9078230D01*
X-6174862Y9106508D01*
X-6158781Y9133338D01*
X-6140147Y9158463D01*
X-6119140Y9181640D01*
X-6095963Y9202647D01*
X-6070838Y9221281D01*
X-6044008Y9237362D01*
X-6015730Y9250737D01*
X-5986278Y9261275D01*
X-5955935Y9268875D01*
X-5924993Y9273465D01*
X-5893750Y9275000D01*
X-5256250Y9275000D01*
X-5225007Y9273465D01*
X-5225007Y9273465D01*
G37*
D22*
X-5575000Y8600000D03*
G04 #@! TD*
D20*
G04 #@! TO.C,R6*
G36*
X-9012507Y-16364035D02*
X-8981565Y-16368625D01*
X-8951222Y-16376225D01*
X-8921770Y-16386763D01*
X-8893492Y-16400138D01*
X-8866662Y-16416219D01*
X-8841537Y-16434853D01*
X-8818360Y-16455860D01*
X-8797353Y-16479037D01*
X-8778719Y-16504162D01*
X-8762638Y-16530992D01*
X-8749263Y-16559270D01*
X-8738725Y-16588722D01*
X-8731125Y-16619065D01*
X-8726535Y-16650007D01*
X-8725000Y-16681250D01*
X-8725000Y-17318750D01*
X-8726535Y-17349993D01*
X-8731125Y-17380935D01*
X-8738725Y-17411278D01*
X-8749263Y-17440730D01*
X-8762638Y-17469008D01*
X-8778719Y-17495838D01*
X-8797353Y-17520963D01*
X-8818360Y-17544140D01*
X-8841537Y-17565147D01*
X-8866662Y-17583781D01*
X-8893492Y-17599862D01*
X-8921770Y-17613237D01*
X-8951222Y-17623775D01*
X-8981565Y-17631375D01*
X-9012507Y-17635965D01*
X-9043750Y-17637500D01*
X-9756250Y-17637500D01*
X-9787493Y-17635965D01*
X-9818435Y-17631375D01*
X-9848778Y-17623775D01*
X-9878230Y-17613237D01*
X-9906508Y-17599862D01*
X-9933338Y-17583781D01*
X-9958463Y-17565147D01*
X-9981640Y-17544140D01*
X-10002647Y-17520963D01*
X-10021281Y-17495838D01*
X-10037362Y-17469008D01*
X-10050737Y-17440730D01*
X-10061275Y-17411278D01*
X-10068875Y-17380935D01*
X-10073465Y-17349993D01*
X-10075000Y-17318750D01*
X-10075000Y-16681250D01*
X-10073465Y-16650007D01*
X-10068875Y-16619065D01*
X-10061275Y-16588722D01*
X-10050737Y-16559270D01*
X-10037362Y-16530992D01*
X-10021281Y-16504162D01*
X-10002647Y-16479037D01*
X-9981640Y-16455860D01*
X-9958463Y-16434853D01*
X-9933338Y-16416219D01*
X-9906508Y-16400138D01*
X-9878230Y-16386763D01*
X-9848778Y-16376225D01*
X-9818435Y-16368625D01*
X-9787493Y-16364035D01*
X-9756250Y-16362500D01*
X-9043750Y-16362500D01*
X-9012507Y-16364035D01*
X-9012507Y-16364035D01*
G37*
D22*
X-9400000Y-17000000D03*
D20*
G36*
X-9012507Y-14789035D02*
X-8981565Y-14793625D01*
X-8951222Y-14801225D01*
X-8921770Y-14811763D01*
X-8893492Y-14825138D01*
X-8866662Y-14841219D01*
X-8841537Y-14859853D01*
X-8818360Y-14880860D01*
X-8797353Y-14904037D01*
X-8778719Y-14929162D01*
X-8762638Y-14955992D01*
X-8749263Y-14984270D01*
X-8738725Y-15013722D01*
X-8731125Y-15044065D01*
X-8726535Y-15075007D01*
X-8725000Y-15106250D01*
X-8725000Y-15743750D01*
X-8726535Y-15774993D01*
X-8731125Y-15805935D01*
X-8738725Y-15836278D01*
X-8749263Y-15865730D01*
X-8762638Y-15894008D01*
X-8778719Y-15920838D01*
X-8797353Y-15945963D01*
X-8818360Y-15969140D01*
X-8841537Y-15990147D01*
X-8866662Y-16008781D01*
X-8893492Y-16024862D01*
X-8921770Y-16038237D01*
X-8951222Y-16048775D01*
X-8981565Y-16056375D01*
X-9012507Y-16060965D01*
X-9043750Y-16062500D01*
X-9756250Y-16062500D01*
X-9787493Y-16060965D01*
X-9818435Y-16056375D01*
X-9848778Y-16048775D01*
X-9878230Y-16038237D01*
X-9906508Y-16024862D01*
X-9933338Y-16008781D01*
X-9958463Y-15990147D01*
X-9981640Y-15969140D01*
X-10002647Y-15945963D01*
X-10021281Y-15920838D01*
X-10037362Y-15894008D01*
X-10050737Y-15865730D01*
X-10061275Y-15836278D01*
X-10068875Y-15805935D01*
X-10073465Y-15774993D01*
X-10075000Y-15743750D01*
X-10075000Y-15106250D01*
X-10073465Y-15075007D01*
X-10068875Y-15044065D01*
X-10061275Y-15013722D01*
X-10050737Y-14984270D01*
X-10037362Y-14955992D01*
X-10021281Y-14929162D01*
X-10002647Y-14904037D01*
X-9981640Y-14880860D01*
X-9958463Y-14859853D01*
X-9933338Y-14841219D01*
X-9906508Y-14825138D01*
X-9878230Y-14811763D01*
X-9848778Y-14801225D01*
X-9818435Y-14793625D01*
X-9787493Y-14789035D01*
X-9756250Y-14787500D01*
X-9043750Y-14787500D01*
X-9012507Y-14789035D01*
X-9012507Y-14789035D01*
G37*
D22*
X-9400000Y-15425000D03*
G04 #@! TD*
D20*
G04 #@! TO.C,R7*
G36*
X-9012507Y-18189035D02*
X-8981565Y-18193625D01*
X-8951222Y-18201225D01*
X-8921770Y-18211763D01*
X-8893492Y-18225138D01*
X-8866662Y-18241219D01*
X-8841537Y-18259853D01*
X-8818360Y-18280860D01*
X-8797353Y-18304037D01*
X-8778719Y-18329162D01*
X-8762638Y-18355992D01*
X-8749263Y-18384270D01*
X-8738725Y-18413722D01*
X-8731125Y-18444065D01*
X-8726535Y-18475007D01*
X-8725000Y-18506250D01*
X-8725000Y-19143750D01*
X-8726535Y-19174993D01*
X-8731125Y-19205935D01*
X-8738725Y-19236278D01*
X-8749263Y-19265730D01*
X-8762638Y-19294008D01*
X-8778719Y-19320838D01*
X-8797353Y-19345963D01*
X-8818360Y-19369140D01*
X-8841537Y-19390147D01*
X-8866662Y-19408781D01*
X-8893492Y-19424862D01*
X-8921770Y-19438237D01*
X-8951222Y-19448775D01*
X-8981565Y-19456375D01*
X-9012507Y-19460965D01*
X-9043750Y-19462500D01*
X-9756250Y-19462500D01*
X-9787493Y-19460965D01*
X-9818435Y-19456375D01*
X-9848778Y-19448775D01*
X-9878230Y-19438237D01*
X-9906508Y-19424862D01*
X-9933338Y-19408781D01*
X-9958463Y-19390147D01*
X-9981640Y-19369140D01*
X-10002647Y-19345963D01*
X-10021281Y-19320838D01*
X-10037362Y-19294008D01*
X-10050737Y-19265730D01*
X-10061275Y-19236278D01*
X-10068875Y-19205935D01*
X-10073465Y-19174993D01*
X-10075000Y-19143750D01*
X-10075000Y-18506250D01*
X-10073465Y-18475007D01*
X-10068875Y-18444065D01*
X-10061275Y-18413722D01*
X-10050737Y-18384270D01*
X-10037362Y-18355992D01*
X-10021281Y-18329162D01*
X-10002647Y-18304037D01*
X-9981640Y-18280860D01*
X-9958463Y-18259853D01*
X-9933338Y-18241219D01*
X-9906508Y-18225138D01*
X-9878230Y-18211763D01*
X-9848778Y-18201225D01*
X-9818435Y-18193625D01*
X-9787493Y-18189035D01*
X-9756250Y-18187500D01*
X-9043750Y-18187500D01*
X-9012507Y-18189035D01*
X-9012507Y-18189035D01*
G37*
D22*
X-9400000Y-18825000D03*
D20*
G36*
X-9012507Y-19764035D02*
X-8981565Y-19768625D01*
X-8951222Y-19776225D01*
X-8921770Y-19786763D01*
X-8893492Y-19800138D01*
X-8866662Y-19816219D01*
X-8841537Y-19834853D01*
X-8818360Y-19855860D01*
X-8797353Y-19879037D01*
X-8778719Y-19904162D01*
X-8762638Y-19930992D01*
X-8749263Y-19959270D01*
X-8738725Y-19988722D01*
X-8731125Y-20019065D01*
X-8726535Y-20050007D01*
X-8725000Y-20081250D01*
X-8725000Y-20718750D01*
X-8726535Y-20749993D01*
X-8731125Y-20780935D01*
X-8738725Y-20811278D01*
X-8749263Y-20840730D01*
X-8762638Y-20869008D01*
X-8778719Y-20895838D01*
X-8797353Y-20920963D01*
X-8818360Y-20944140D01*
X-8841537Y-20965147D01*
X-8866662Y-20983781D01*
X-8893492Y-20999862D01*
X-8921770Y-21013237D01*
X-8951222Y-21023775D01*
X-8981565Y-21031375D01*
X-9012507Y-21035965D01*
X-9043750Y-21037500D01*
X-9756250Y-21037500D01*
X-9787493Y-21035965D01*
X-9818435Y-21031375D01*
X-9848778Y-21023775D01*
X-9878230Y-21013237D01*
X-9906508Y-20999862D01*
X-9933338Y-20983781D01*
X-9958463Y-20965147D01*
X-9981640Y-20944140D01*
X-10002647Y-20920963D01*
X-10021281Y-20895838D01*
X-10037362Y-20869008D01*
X-10050737Y-20840730D01*
X-10061275Y-20811278D01*
X-10068875Y-20780935D01*
X-10073465Y-20749993D01*
X-10075000Y-20718750D01*
X-10075000Y-20081250D01*
X-10073465Y-20050007D01*
X-10068875Y-20019065D01*
X-10061275Y-19988722D01*
X-10050737Y-19959270D01*
X-10037362Y-19930992D01*
X-10021281Y-19904162D01*
X-10002647Y-19879037D01*
X-9981640Y-19855860D01*
X-9958463Y-19834853D01*
X-9933338Y-19816219D01*
X-9906508Y-19800138D01*
X-9878230Y-19786763D01*
X-9848778Y-19776225D01*
X-9818435Y-19768625D01*
X-9787493Y-19764035D01*
X-9756250Y-19762500D01*
X-9043750Y-19762500D01*
X-9012507Y-19764035D01*
X-9012507Y-19764035D01*
G37*
D22*
X-9400000Y-20400000D03*
G04 #@! TD*
D20*
G04 #@! TO.C,R8*
G36*
X-19412507Y948465D02*
X-19381565Y943875D01*
X-19351222Y936275D01*
X-19321770Y925737D01*
X-19293492Y912362D01*
X-19266662Y896281D01*
X-19241537Y877647D01*
X-19218360Y856640D01*
X-19197353Y833463D01*
X-19178719Y808338D01*
X-19162638Y781508D01*
X-19149263Y753230D01*
X-19138725Y723778D01*
X-19131125Y693435D01*
X-19126535Y662493D01*
X-19125000Y631250D01*
X-19125000Y-6250D01*
X-19126535Y-37493D01*
X-19131125Y-68435D01*
X-19138725Y-98778D01*
X-19149263Y-128230D01*
X-19162638Y-156508D01*
X-19178719Y-183338D01*
X-19197353Y-208463D01*
X-19218360Y-231640D01*
X-19241537Y-252647D01*
X-19266662Y-271281D01*
X-19293492Y-287362D01*
X-19321770Y-300737D01*
X-19351222Y-311275D01*
X-19381565Y-318875D01*
X-19412507Y-323465D01*
X-19443750Y-325000D01*
X-20156250Y-325000D01*
X-20187493Y-323465D01*
X-20218435Y-318875D01*
X-20248778Y-311275D01*
X-20278230Y-300737D01*
X-20306508Y-287362D01*
X-20333338Y-271281D01*
X-20358463Y-252647D01*
X-20381640Y-231640D01*
X-20402647Y-208463D01*
X-20421281Y-183338D01*
X-20437362Y-156508D01*
X-20450737Y-128230D01*
X-20461275Y-98778D01*
X-20468875Y-68435D01*
X-20473465Y-37493D01*
X-20475000Y-6250D01*
X-20475000Y631250D01*
X-20473465Y662493D01*
X-20468875Y693435D01*
X-20461275Y723778D01*
X-20450737Y753230D01*
X-20437362Y781508D01*
X-20421281Y808338D01*
X-20402647Y833463D01*
X-20381640Y856640D01*
X-20358463Y877647D01*
X-20333338Y896281D01*
X-20306508Y912362D01*
X-20278230Y925737D01*
X-20248778Y936275D01*
X-20218435Y943875D01*
X-20187493Y948465D01*
X-20156250Y950000D01*
X-19443750Y950000D01*
X-19412507Y948465D01*
X-19412507Y948465D01*
G37*
D22*
X-19800000Y312500D03*
D20*
G36*
X-19412507Y2523465D02*
X-19381565Y2518875D01*
X-19351222Y2511275D01*
X-19321770Y2500737D01*
X-19293492Y2487362D01*
X-19266662Y2471281D01*
X-19241537Y2452647D01*
X-19218360Y2431640D01*
X-19197353Y2408463D01*
X-19178719Y2383338D01*
X-19162638Y2356508D01*
X-19149263Y2328230D01*
X-19138725Y2298778D01*
X-19131125Y2268435D01*
X-19126535Y2237493D01*
X-19125000Y2206250D01*
X-19125000Y1568750D01*
X-19126535Y1537507D01*
X-19131125Y1506565D01*
X-19138725Y1476222D01*
X-19149263Y1446770D01*
X-19162638Y1418492D01*
X-19178719Y1391662D01*
X-19197353Y1366537D01*
X-19218360Y1343360D01*
X-19241537Y1322353D01*
X-19266662Y1303719D01*
X-19293492Y1287638D01*
X-19321770Y1274263D01*
X-19351222Y1263725D01*
X-19381565Y1256125D01*
X-19412507Y1251535D01*
X-19443750Y1250000D01*
X-20156250Y1250000D01*
X-20187493Y1251535D01*
X-20218435Y1256125D01*
X-20248778Y1263725D01*
X-20278230Y1274263D01*
X-20306508Y1287638D01*
X-20333338Y1303719D01*
X-20358463Y1322353D01*
X-20381640Y1343360D01*
X-20402647Y1366537D01*
X-20421281Y1391662D01*
X-20437362Y1418492D01*
X-20450737Y1446770D01*
X-20461275Y1476222D01*
X-20468875Y1506565D01*
X-20473465Y1537507D01*
X-20475000Y1568750D01*
X-20475000Y2206250D01*
X-20473465Y2237493D01*
X-20468875Y2268435D01*
X-20461275Y2298778D01*
X-20450737Y2328230D01*
X-20437362Y2356508D01*
X-20421281Y2383338D01*
X-20402647Y2408463D01*
X-20381640Y2431640D01*
X-20358463Y2452647D01*
X-20333338Y2471281D01*
X-20306508Y2487362D01*
X-20278230Y2500737D01*
X-20248778Y2511275D01*
X-20218435Y2518875D01*
X-20187493Y2523465D01*
X-20156250Y2525000D01*
X-19443750Y2525000D01*
X-19412507Y2523465D01*
X-19412507Y2523465D01*
G37*
D22*
X-19800000Y1887500D03*
G04 #@! TD*
D20*
G04 #@! TO.C,R9*
G36*
X-19425007Y-826535D02*
X-19394065Y-831125D01*
X-19363722Y-838725D01*
X-19334270Y-849263D01*
X-19305992Y-862638D01*
X-19279162Y-878719D01*
X-19254037Y-897353D01*
X-19230860Y-918360D01*
X-19209853Y-941537D01*
X-19191219Y-966662D01*
X-19175138Y-993492D01*
X-19161763Y-1021770D01*
X-19151225Y-1051222D01*
X-19143625Y-1081565D01*
X-19139035Y-1112507D01*
X-19137500Y-1143750D01*
X-19137500Y-1856250D01*
X-19139035Y-1887493D01*
X-19143625Y-1918435D01*
X-19151225Y-1948778D01*
X-19161763Y-1978230D01*
X-19175138Y-2006508D01*
X-19191219Y-2033338D01*
X-19209853Y-2058463D01*
X-19230860Y-2081640D01*
X-19254037Y-2102647D01*
X-19279162Y-2121281D01*
X-19305992Y-2137362D01*
X-19334270Y-2150737D01*
X-19363722Y-2161275D01*
X-19394065Y-2168875D01*
X-19425007Y-2173465D01*
X-19456250Y-2175000D01*
X-20093750Y-2175000D01*
X-20124993Y-2173465D01*
X-20155935Y-2168875D01*
X-20186278Y-2161275D01*
X-20215730Y-2150737D01*
X-20244008Y-2137362D01*
X-20270838Y-2121281D01*
X-20295963Y-2102647D01*
X-20319140Y-2081640D01*
X-20340147Y-2058463D01*
X-20358781Y-2033338D01*
X-20374862Y-2006508D01*
X-20388237Y-1978230D01*
X-20398775Y-1948778D01*
X-20406375Y-1918435D01*
X-20410965Y-1887493D01*
X-20412500Y-1856250D01*
X-20412500Y-1143750D01*
X-20410965Y-1112507D01*
X-20406375Y-1081565D01*
X-20398775Y-1051222D01*
X-20388237Y-1021770D01*
X-20374862Y-993492D01*
X-20358781Y-966662D01*
X-20340147Y-941537D01*
X-20319140Y-918360D01*
X-20295963Y-897353D01*
X-20270838Y-878719D01*
X-20244008Y-862638D01*
X-20215730Y-849263D01*
X-20186278Y-838725D01*
X-20155935Y-831125D01*
X-20124993Y-826535D01*
X-20093750Y-825000D01*
X-19456250Y-825000D01*
X-19425007Y-826535D01*
X-19425007Y-826535D01*
G37*
D22*
X-19775000Y-1500000D03*
D20*
G36*
X-17850007Y-826535D02*
X-17819065Y-831125D01*
X-17788722Y-838725D01*
X-17759270Y-849263D01*
X-17730992Y-862638D01*
X-17704162Y-878719D01*
X-17679037Y-897353D01*
X-17655860Y-918360D01*
X-17634853Y-941537D01*
X-17616219Y-966662D01*
X-17600138Y-993492D01*
X-17586763Y-1021770D01*
X-17576225Y-1051222D01*
X-17568625Y-1081565D01*
X-17564035Y-1112507D01*
X-17562500Y-1143750D01*
X-17562500Y-1856250D01*
X-17564035Y-1887493D01*
X-17568625Y-1918435D01*
X-17576225Y-1948778D01*
X-17586763Y-1978230D01*
X-17600138Y-2006508D01*
X-17616219Y-2033338D01*
X-17634853Y-2058463D01*
X-17655860Y-2081640D01*
X-17679037Y-2102647D01*
X-17704162Y-2121281D01*
X-17730992Y-2137362D01*
X-17759270Y-2150737D01*
X-17788722Y-2161275D01*
X-17819065Y-2168875D01*
X-17850007Y-2173465D01*
X-17881250Y-2175000D01*
X-18518750Y-2175000D01*
X-18549993Y-2173465D01*
X-18580935Y-2168875D01*
X-18611278Y-2161275D01*
X-18640730Y-2150737D01*
X-18669008Y-2137362D01*
X-18695838Y-2121281D01*
X-18720963Y-2102647D01*
X-18744140Y-2081640D01*
X-18765147Y-2058463D01*
X-18783781Y-2033338D01*
X-18799862Y-2006508D01*
X-18813237Y-1978230D01*
X-18823775Y-1948778D01*
X-18831375Y-1918435D01*
X-18835965Y-1887493D01*
X-18837500Y-1856250D01*
X-18837500Y-1143750D01*
X-18835965Y-1112507D01*
X-18831375Y-1081565D01*
X-18823775Y-1051222D01*
X-18813237Y-1021770D01*
X-18799862Y-993492D01*
X-18783781Y-966662D01*
X-18765147Y-941537D01*
X-18744140Y-918360D01*
X-18720963Y-897353D01*
X-18695838Y-878719D01*
X-18669008Y-862638D01*
X-18640730Y-849263D01*
X-18611278Y-838725D01*
X-18580935Y-831125D01*
X-18549993Y-826535D01*
X-18518750Y-825000D01*
X-17881250Y-825000D01*
X-17850007Y-826535D01*
X-17850007Y-826535D01*
G37*
D22*
X-18200000Y-1500000D03*
G04 #@! TD*
D20*
G04 #@! TO.C,R10*
G36*
X-16675007Y-8726535D02*
X-16644065Y-8731125D01*
X-16613722Y-8738725D01*
X-16584270Y-8749263D01*
X-16555992Y-8762638D01*
X-16529162Y-8778719D01*
X-16504037Y-8797353D01*
X-16480860Y-8818360D01*
X-16459853Y-8841537D01*
X-16441219Y-8866662D01*
X-16425138Y-8893492D01*
X-16411763Y-8921770D01*
X-16401225Y-8951222D01*
X-16393625Y-8981565D01*
X-16389035Y-9012507D01*
X-16387500Y-9043750D01*
X-16387500Y-9756250D01*
X-16389035Y-9787493D01*
X-16393625Y-9818435D01*
X-16401225Y-9848778D01*
X-16411763Y-9878230D01*
X-16425138Y-9906508D01*
X-16441219Y-9933338D01*
X-16459853Y-9958463D01*
X-16480860Y-9981640D01*
X-16504037Y-10002647D01*
X-16529162Y-10021281D01*
X-16555992Y-10037362D01*
X-16584270Y-10050737D01*
X-16613722Y-10061275D01*
X-16644065Y-10068875D01*
X-16675007Y-10073465D01*
X-16706250Y-10075000D01*
X-17343750Y-10075000D01*
X-17374993Y-10073465D01*
X-17405935Y-10068875D01*
X-17436278Y-10061275D01*
X-17465730Y-10050737D01*
X-17494008Y-10037362D01*
X-17520838Y-10021281D01*
X-17545963Y-10002647D01*
X-17569140Y-9981640D01*
X-17590147Y-9958463D01*
X-17608781Y-9933338D01*
X-17624862Y-9906508D01*
X-17638237Y-9878230D01*
X-17648775Y-9848778D01*
X-17656375Y-9818435D01*
X-17660965Y-9787493D01*
X-17662500Y-9756250D01*
X-17662500Y-9043750D01*
X-17660965Y-9012507D01*
X-17656375Y-8981565D01*
X-17648775Y-8951222D01*
X-17638237Y-8921770D01*
X-17624862Y-8893492D01*
X-17608781Y-8866662D01*
X-17590147Y-8841537D01*
X-17569140Y-8818360D01*
X-17545963Y-8797353D01*
X-17520838Y-8778719D01*
X-17494008Y-8762638D01*
X-17465730Y-8749263D01*
X-17436278Y-8738725D01*
X-17405935Y-8731125D01*
X-17374993Y-8726535D01*
X-17343750Y-8725000D01*
X-16706250Y-8725000D01*
X-16675007Y-8726535D01*
X-16675007Y-8726535D01*
G37*
D22*
X-17025000Y-9400000D03*
D20*
G36*
X-18250007Y-8726535D02*
X-18219065Y-8731125D01*
X-18188722Y-8738725D01*
X-18159270Y-8749263D01*
X-18130992Y-8762638D01*
X-18104162Y-8778719D01*
X-18079037Y-8797353D01*
X-18055860Y-8818360D01*
X-18034853Y-8841537D01*
X-18016219Y-8866662D01*
X-18000138Y-8893492D01*
X-17986763Y-8921770D01*
X-17976225Y-8951222D01*
X-17968625Y-8981565D01*
X-17964035Y-9012507D01*
X-17962500Y-9043750D01*
X-17962500Y-9756250D01*
X-17964035Y-9787493D01*
X-17968625Y-9818435D01*
X-17976225Y-9848778D01*
X-17986763Y-9878230D01*
X-18000138Y-9906508D01*
X-18016219Y-9933338D01*
X-18034853Y-9958463D01*
X-18055860Y-9981640D01*
X-18079037Y-10002647D01*
X-18104162Y-10021281D01*
X-18130992Y-10037362D01*
X-18159270Y-10050737D01*
X-18188722Y-10061275D01*
X-18219065Y-10068875D01*
X-18250007Y-10073465D01*
X-18281250Y-10075000D01*
X-18918750Y-10075000D01*
X-18949993Y-10073465D01*
X-18980935Y-10068875D01*
X-19011278Y-10061275D01*
X-19040730Y-10050737D01*
X-19069008Y-10037362D01*
X-19095838Y-10021281D01*
X-19120963Y-10002647D01*
X-19144140Y-9981640D01*
X-19165147Y-9958463D01*
X-19183781Y-9933338D01*
X-19199862Y-9906508D01*
X-19213237Y-9878230D01*
X-19223775Y-9848778D01*
X-19231375Y-9818435D01*
X-19235965Y-9787493D01*
X-19237500Y-9756250D01*
X-19237500Y-9043750D01*
X-19235965Y-9012507D01*
X-19231375Y-8981565D01*
X-19223775Y-8951222D01*
X-19213237Y-8921770D01*
X-19199862Y-8893492D01*
X-19183781Y-8866662D01*
X-19165147Y-8841537D01*
X-19144140Y-8818360D01*
X-19120963Y-8797353D01*
X-19095838Y-8778719D01*
X-19069008Y-8762638D01*
X-19040730Y-8749263D01*
X-19011278Y-8738725D01*
X-18980935Y-8731125D01*
X-18949993Y-8726535D01*
X-18918750Y-8725000D01*
X-18281250Y-8725000D01*
X-18250007Y-8726535D01*
X-18250007Y-8726535D01*
G37*
D22*
X-18600000Y-9400000D03*
G04 #@! TD*
D20*
G04 #@! TO.C,R11*
G36*
X9149993Y9273465D02*
X9180935Y9268875D01*
X9211278Y9261275D01*
X9240730Y9250737D01*
X9269008Y9237362D01*
X9295838Y9221281D01*
X9320963Y9202647D01*
X9344140Y9181640D01*
X9365147Y9158463D01*
X9383781Y9133338D01*
X9399862Y9106508D01*
X9413237Y9078230D01*
X9423775Y9048778D01*
X9431375Y9018435D01*
X9435965Y8987493D01*
X9437500Y8956250D01*
X9437500Y8243750D01*
X9435965Y8212507D01*
X9431375Y8181565D01*
X9423775Y8151222D01*
X9413237Y8121770D01*
X9399862Y8093492D01*
X9383781Y8066662D01*
X9365147Y8041537D01*
X9344140Y8018360D01*
X9320963Y7997353D01*
X9295838Y7978719D01*
X9269008Y7962638D01*
X9240730Y7949263D01*
X9211278Y7938725D01*
X9180935Y7931125D01*
X9149993Y7926535D01*
X9118750Y7925000D01*
X8481250Y7925000D01*
X8450007Y7926535D01*
X8419065Y7931125D01*
X8388722Y7938725D01*
X8359270Y7949263D01*
X8330992Y7962638D01*
X8304162Y7978719D01*
X8279037Y7997353D01*
X8255860Y8018360D01*
X8234853Y8041537D01*
X8216219Y8066662D01*
X8200138Y8093492D01*
X8186763Y8121770D01*
X8176225Y8151222D01*
X8168625Y8181565D01*
X8164035Y8212507D01*
X8162500Y8243750D01*
X8162500Y8956250D01*
X8164035Y8987493D01*
X8168625Y9018435D01*
X8176225Y9048778D01*
X8186763Y9078230D01*
X8200138Y9106508D01*
X8216219Y9133338D01*
X8234853Y9158463D01*
X8255860Y9181640D01*
X8279037Y9202647D01*
X8304162Y9221281D01*
X8330992Y9237362D01*
X8359270Y9250737D01*
X8388722Y9261275D01*
X8419065Y9268875D01*
X8450007Y9273465D01*
X8481250Y9275000D01*
X9118750Y9275000D01*
X9149993Y9273465D01*
X9149993Y9273465D01*
G37*
D22*
X8800000Y8600000D03*
D20*
G36*
X7574993Y9273465D02*
X7605935Y9268875D01*
X7636278Y9261275D01*
X7665730Y9250737D01*
X7694008Y9237362D01*
X7720838Y9221281D01*
X7745963Y9202647D01*
X7769140Y9181640D01*
X7790147Y9158463D01*
X7808781Y9133338D01*
X7824862Y9106508D01*
X7838237Y9078230D01*
X7848775Y9048778D01*
X7856375Y9018435D01*
X7860965Y8987493D01*
X7862500Y8956250D01*
X7862500Y8243750D01*
X7860965Y8212507D01*
X7856375Y8181565D01*
X7848775Y8151222D01*
X7838237Y8121770D01*
X7824862Y8093492D01*
X7808781Y8066662D01*
X7790147Y8041537D01*
X7769140Y8018360D01*
X7745963Y7997353D01*
X7720838Y7978719D01*
X7694008Y7962638D01*
X7665730Y7949263D01*
X7636278Y7938725D01*
X7605935Y7931125D01*
X7574993Y7926535D01*
X7543750Y7925000D01*
X6906250Y7925000D01*
X6875007Y7926535D01*
X6844065Y7931125D01*
X6813722Y7938725D01*
X6784270Y7949263D01*
X6755992Y7962638D01*
X6729162Y7978719D01*
X6704037Y7997353D01*
X6680860Y8018360D01*
X6659853Y8041537D01*
X6641219Y8066662D01*
X6625138Y8093492D01*
X6611763Y8121770D01*
X6601225Y8151222D01*
X6593625Y8181565D01*
X6589035Y8212507D01*
X6587500Y8243750D01*
X6587500Y8956250D01*
X6589035Y8987493D01*
X6593625Y9018435D01*
X6601225Y9048778D01*
X6611763Y9078230D01*
X6625138Y9106508D01*
X6641219Y9133338D01*
X6659853Y9158463D01*
X6680860Y9181640D01*
X6704037Y9202647D01*
X6729162Y9221281D01*
X6755992Y9237362D01*
X6784270Y9250737D01*
X6813722Y9261275D01*
X6844065Y9268875D01*
X6875007Y9273465D01*
X6906250Y9275000D01*
X7543750Y9275000D01*
X7574993Y9273465D01*
X7574993Y9273465D01*
G37*
D22*
X7225000Y8600000D03*
G04 #@! TD*
D20*
G04 #@! TO.C,R12*
G36*
X9149993Y22673465D02*
X9180935Y22668875D01*
X9211278Y22661275D01*
X9240730Y22650737D01*
X9269008Y22637362D01*
X9295838Y22621281D01*
X9320963Y22602647D01*
X9344140Y22581640D01*
X9365147Y22558463D01*
X9383781Y22533338D01*
X9399862Y22506508D01*
X9413237Y22478230D01*
X9423775Y22448778D01*
X9431375Y22418435D01*
X9435965Y22387493D01*
X9437500Y22356250D01*
X9437500Y21643750D01*
X9435965Y21612507D01*
X9431375Y21581565D01*
X9423775Y21551222D01*
X9413237Y21521770D01*
X9399862Y21493492D01*
X9383781Y21466662D01*
X9365147Y21441537D01*
X9344140Y21418360D01*
X9320963Y21397353D01*
X9295838Y21378719D01*
X9269008Y21362638D01*
X9240730Y21349263D01*
X9211278Y21338725D01*
X9180935Y21331125D01*
X9149993Y21326535D01*
X9118750Y21325000D01*
X8481250Y21325000D01*
X8450007Y21326535D01*
X8419065Y21331125D01*
X8388722Y21338725D01*
X8359270Y21349263D01*
X8330992Y21362638D01*
X8304162Y21378719D01*
X8279037Y21397353D01*
X8255860Y21418360D01*
X8234853Y21441537D01*
X8216219Y21466662D01*
X8200138Y21493492D01*
X8186763Y21521770D01*
X8176225Y21551222D01*
X8168625Y21581565D01*
X8164035Y21612507D01*
X8162500Y21643750D01*
X8162500Y22356250D01*
X8164035Y22387493D01*
X8168625Y22418435D01*
X8176225Y22448778D01*
X8186763Y22478230D01*
X8200138Y22506508D01*
X8216219Y22533338D01*
X8234853Y22558463D01*
X8255860Y22581640D01*
X8279037Y22602647D01*
X8304162Y22621281D01*
X8330992Y22637362D01*
X8359270Y22650737D01*
X8388722Y22661275D01*
X8419065Y22668875D01*
X8450007Y22673465D01*
X8481250Y22675000D01*
X9118750Y22675000D01*
X9149993Y22673465D01*
X9149993Y22673465D01*
G37*
D22*
X8800000Y22000000D03*
D20*
G36*
X7574993Y22673465D02*
X7605935Y22668875D01*
X7636278Y22661275D01*
X7665730Y22650737D01*
X7694008Y22637362D01*
X7720838Y22621281D01*
X7745963Y22602647D01*
X7769140Y22581640D01*
X7790147Y22558463D01*
X7808781Y22533338D01*
X7824862Y22506508D01*
X7838237Y22478230D01*
X7848775Y22448778D01*
X7856375Y22418435D01*
X7860965Y22387493D01*
X7862500Y22356250D01*
X7862500Y21643750D01*
X7860965Y21612507D01*
X7856375Y21581565D01*
X7848775Y21551222D01*
X7838237Y21521770D01*
X7824862Y21493492D01*
X7808781Y21466662D01*
X7790147Y21441537D01*
X7769140Y21418360D01*
X7745963Y21397353D01*
X7720838Y21378719D01*
X7694008Y21362638D01*
X7665730Y21349263D01*
X7636278Y21338725D01*
X7605935Y21331125D01*
X7574993Y21326535D01*
X7543750Y21325000D01*
X6906250Y21325000D01*
X6875007Y21326535D01*
X6844065Y21331125D01*
X6813722Y21338725D01*
X6784270Y21349263D01*
X6755992Y21362638D01*
X6729162Y21378719D01*
X6704037Y21397353D01*
X6680860Y21418360D01*
X6659853Y21441537D01*
X6641219Y21466662D01*
X6625138Y21493492D01*
X6611763Y21521770D01*
X6601225Y21551222D01*
X6593625Y21581565D01*
X6589035Y21612507D01*
X6587500Y21643750D01*
X6587500Y22356250D01*
X6589035Y22387493D01*
X6593625Y22418435D01*
X6601225Y22448778D01*
X6611763Y22478230D01*
X6625138Y22506508D01*
X6641219Y22533338D01*
X6659853Y22558463D01*
X6680860Y22581640D01*
X6704037Y22602647D01*
X6729162Y22621281D01*
X6755992Y22637362D01*
X6784270Y22650737D01*
X6813722Y22661275D01*
X6844065Y22668875D01*
X6875007Y22673465D01*
X6906250Y22675000D01*
X7543750Y22675000D01*
X7574993Y22673465D01*
X7574993Y22673465D01*
G37*
D22*
X7225000Y22000000D03*
G04 #@! TD*
D20*
G04 #@! TO.C,R13*
G36*
X-16050007Y7473465D02*
X-16019065Y7468875D01*
X-15988722Y7461275D01*
X-15959270Y7450737D01*
X-15930992Y7437362D01*
X-15904162Y7421281D01*
X-15879037Y7402647D01*
X-15855860Y7381640D01*
X-15834853Y7358463D01*
X-15816219Y7333338D01*
X-15800138Y7306508D01*
X-15786763Y7278230D01*
X-15776225Y7248778D01*
X-15768625Y7218435D01*
X-15764035Y7187493D01*
X-15762500Y7156250D01*
X-15762500Y6443750D01*
X-15764035Y6412507D01*
X-15768625Y6381565D01*
X-15776225Y6351222D01*
X-15786763Y6321770D01*
X-15800138Y6293492D01*
X-15816219Y6266662D01*
X-15834853Y6241537D01*
X-15855860Y6218360D01*
X-15879037Y6197353D01*
X-15904162Y6178719D01*
X-15930992Y6162638D01*
X-15959270Y6149263D01*
X-15988722Y6138725D01*
X-16019065Y6131125D01*
X-16050007Y6126535D01*
X-16081250Y6125000D01*
X-16718750Y6125000D01*
X-16749993Y6126535D01*
X-16780935Y6131125D01*
X-16811278Y6138725D01*
X-16840730Y6149263D01*
X-16869008Y6162638D01*
X-16895838Y6178719D01*
X-16920963Y6197353D01*
X-16944140Y6218360D01*
X-16965147Y6241537D01*
X-16983781Y6266662D01*
X-16999862Y6293492D01*
X-17013237Y6321770D01*
X-17023775Y6351222D01*
X-17031375Y6381565D01*
X-17035965Y6412507D01*
X-17037500Y6443750D01*
X-17037500Y7156250D01*
X-17035965Y7187493D01*
X-17031375Y7218435D01*
X-17023775Y7248778D01*
X-17013237Y7278230D01*
X-16999862Y7306508D01*
X-16983781Y7333338D01*
X-16965147Y7358463D01*
X-16944140Y7381640D01*
X-16920963Y7402647D01*
X-16895838Y7421281D01*
X-16869008Y7437362D01*
X-16840730Y7450737D01*
X-16811278Y7461275D01*
X-16780935Y7468875D01*
X-16749993Y7473465D01*
X-16718750Y7475000D01*
X-16081250Y7475000D01*
X-16050007Y7473465D01*
X-16050007Y7473465D01*
G37*
D22*
X-16400000Y6800000D03*
D20*
G36*
X-14475007Y7473465D02*
X-14444065Y7468875D01*
X-14413722Y7461275D01*
X-14384270Y7450737D01*
X-14355992Y7437362D01*
X-14329162Y7421281D01*
X-14304037Y7402647D01*
X-14280860Y7381640D01*
X-14259853Y7358463D01*
X-14241219Y7333338D01*
X-14225138Y7306508D01*
X-14211763Y7278230D01*
X-14201225Y7248778D01*
X-14193625Y7218435D01*
X-14189035Y7187493D01*
X-14187500Y7156250D01*
X-14187500Y6443750D01*
X-14189035Y6412507D01*
X-14193625Y6381565D01*
X-14201225Y6351222D01*
X-14211763Y6321770D01*
X-14225138Y6293492D01*
X-14241219Y6266662D01*
X-14259853Y6241537D01*
X-14280860Y6218360D01*
X-14304037Y6197353D01*
X-14329162Y6178719D01*
X-14355992Y6162638D01*
X-14384270Y6149263D01*
X-14413722Y6138725D01*
X-14444065Y6131125D01*
X-14475007Y6126535D01*
X-14506250Y6125000D01*
X-15143750Y6125000D01*
X-15174993Y6126535D01*
X-15205935Y6131125D01*
X-15236278Y6138725D01*
X-15265730Y6149263D01*
X-15294008Y6162638D01*
X-15320838Y6178719D01*
X-15345963Y6197353D01*
X-15369140Y6218360D01*
X-15390147Y6241537D01*
X-15408781Y6266662D01*
X-15424862Y6293492D01*
X-15438237Y6321770D01*
X-15448775Y6351222D01*
X-15456375Y6381565D01*
X-15460965Y6412507D01*
X-15462500Y6443750D01*
X-15462500Y7156250D01*
X-15460965Y7187493D01*
X-15456375Y7218435D01*
X-15448775Y7248778D01*
X-15438237Y7278230D01*
X-15424862Y7306508D01*
X-15408781Y7333338D01*
X-15390147Y7358463D01*
X-15369140Y7381640D01*
X-15345963Y7402647D01*
X-15320838Y7421281D01*
X-15294008Y7437362D01*
X-15265730Y7450737D01*
X-15236278Y7461275D01*
X-15205935Y7468875D01*
X-15174993Y7473465D01*
X-15143750Y7475000D01*
X-14506250Y7475000D01*
X-14475007Y7473465D01*
X-14475007Y7473465D01*
G37*
D22*
X-14825000Y6800000D03*
G04 #@! TD*
D20*
G04 #@! TO.C,R14*
G36*
X-14475007Y9273465D02*
X-14444065Y9268875D01*
X-14413722Y9261275D01*
X-14384270Y9250737D01*
X-14355992Y9237362D01*
X-14329162Y9221281D01*
X-14304037Y9202647D01*
X-14280860Y9181640D01*
X-14259853Y9158463D01*
X-14241219Y9133338D01*
X-14225138Y9106508D01*
X-14211763Y9078230D01*
X-14201225Y9048778D01*
X-14193625Y9018435D01*
X-14189035Y8987493D01*
X-14187500Y8956250D01*
X-14187500Y8243750D01*
X-14189035Y8212507D01*
X-14193625Y8181565D01*
X-14201225Y8151222D01*
X-14211763Y8121770D01*
X-14225138Y8093492D01*
X-14241219Y8066662D01*
X-14259853Y8041537D01*
X-14280860Y8018360D01*
X-14304037Y7997353D01*
X-14329162Y7978719D01*
X-14355992Y7962638D01*
X-14384270Y7949263D01*
X-14413722Y7938725D01*
X-14444065Y7931125D01*
X-14475007Y7926535D01*
X-14506250Y7925000D01*
X-15143750Y7925000D01*
X-15174993Y7926535D01*
X-15205935Y7931125D01*
X-15236278Y7938725D01*
X-15265730Y7949263D01*
X-15294008Y7962638D01*
X-15320838Y7978719D01*
X-15345963Y7997353D01*
X-15369140Y8018360D01*
X-15390147Y8041537D01*
X-15408781Y8066662D01*
X-15424862Y8093492D01*
X-15438237Y8121770D01*
X-15448775Y8151222D01*
X-15456375Y8181565D01*
X-15460965Y8212507D01*
X-15462500Y8243750D01*
X-15462500Y8956250D01*
X-15460965Y8987493D01*
X-15456375Y9018435D01*
X-15448775Y9048778D01*
X-15438237Y9078230D01*
X-15424862Y9106508D01*
X-15408781Y9133338D01*
X-15390147Y9158463D01*
X-15369140Y9181640D01*
X-15345963Y9202647D01*
X-15320838Y9221281D01*
X-15294008Y9237362D01*
X-15265730Y9250737D01*
X-15236278Y9261275D01*
X-15205935Y9268875D01*
X-15174993Y9273465D01*
X-15143750Y9275000D01*
X-14506250Y9275000D01*
X-14475007Y9273465D01*
X-14475007Y9273465D01*
G37*
D22*
X-14825000Y8600000D03*
D20*
G36*
X-16050007Y9273465D02*
X-16019065Y9268875D01*
X-15988722Y9261275D01*
X-15959270Y9250737D01*
X-15930992Y9237362D01*
X-15904162Y9221281D01*
X-15879037Y9202647D01*
X-15855860Y9181640D01*
X-15834853Y9158463D01*
X-15816219Y9133338D01*
X-15800138Y9106508D01*
X-15786763Y9078230D01*
X-15776225Y9048778D01*
X-15768625Y9018435D01*
X-15764035Y8987493D01*
X-15762500Y8956250D01*
X-15762500Y8243750D01*
X-15764035Y8212507D01*
X-15768625Y8181565D01*
X-15776225Y8151222D01*
X-15786763Y8121770D01*
X-15800138Y8093492D01*
X-15816219Y8066662D01*
X-15834853Y8041537D01*
X-15855860Y8018360D01*
X-15879037Y7997353D01*
X-15904162Y7978719D01*
X-15930992Y7962638D01*
X-15959270Y7949263D01*
X-15988722Y7938725D01*
X-16019065Y7931125D01*
X-16050007Y7926535D01*
X-16081250Y7925000D01*
X-16718750Y7925000D01*
X-16749993Y7926535D01*
X-16780935Y7931125D01*
X-16811278Y7938725D01*
X-16840730Y7949263D01*
X-16869008Y7962638D01*
X-16895838Y7978719D01*
X-16920963Y7997353D01*
X-16944140Y8018360D01*
X-16965147Y8041537D01*
X-16983781Y8066662D01*
X-16999862Y8093492D01*
X-17013237Y8121770D01*
X-17023775Y8151222D01*
X-17031375Y8181565D01*
X-17035965Y8212507D01*
X-17037500Y8243750D01*
X-17037500Y8956250D01*
X-17035965Y8987493D01*
X-17031375Y9018435D01*
X-17023775Y9048778D01*
X-17013237Y9078230D01*
X-16999862Y9106508D01*
X-16983781Y9133338D01*
X-16965147Y9158463D01*
X-16944140Y9181640D01*
X-16920963Y9202647D01*
X-16895838Y9221281D01*
X-16869008Y9237362D01*
X-16840730Y9250737D01*
X-16811278Y9261275D01*
X-16780935Y9268875D01*
X-16749993Y9273465D01*
X-16718750Y9275000D01*
X-16081250Y9275000D01*
X-16050007Y9273465D01*
X-16050007Y9273465D01*
G37*
D22*
X-16400000Y8600000D03*
G04 #@! TD*
D24*
G04 #@! TO.C,TP1*
X-21900000Y-14800000D03*
G04 #@! TD*
G04 #@! TO.C,TP2*
X-24400000Y-14800000D03*
G04 #@! TD*
G04 #@! TO.C,TP3*
X-19700000Y3700000D03*
G04 #@! TD*
G04 #@! TO.C,TP4*
X-27500000Y2900000D03*
G04 #@! TD*
D25*
G04 #@! TO.C,U1*
X-12500000Y-16050000D03*
X-12500000Y-15400000D03*
X-12500000Y-14740000D03*
X-12500000Y-14090000D03*
X-14700000Y-14090000D03*
X-14700000Y-14740000D03*
X-14700000Y-15400000D03*
X-14700000Y-16050000D03*
G04 #@! TD*
D20*
G04 #@! TO.C,F1*
G36*
X-21668171Y-17101632D02*
X-21635274Y-17106512D01*
X-21603014Y-17114592D01*
X-21571701Y-17125796D01*
X-21541637Y-17140015D01*
X-21513112Y-17157113D01*
X-21486400Y-17176924D01*
X-21461758Y-17199258D01*
X-21439424Y-17223900D01*
X-21419613Y-17250612D01*
X-21402515Y-17279137D01*
X-21388296Y-17309201D01*
X-21377092Y-17340514D01*
X-21369012Y-17372774D01*
X-21364132Y-17405671D01*
X-21362500Y-17438888D01*
X-21362500Y-20561112D01*
X-21364132Y-20594329D01*
X-21369012Y-20627226D01*
X-21377092Y-20659486D01*
X-21388296Y-20690799D01*
X-21402515Y-20720863D01*
X-21419613Y-20749388D01*
X-21439424Y-20776100D01*
X-21461758Y-20800742D01*
X-21486400Y-20823076D01*
X-21513112Y-20842887D01*
X-21541637Y-20859985D01*
X-21571701Y-20874204D01*
X-21603014Y-20885408D01*
X-21635274Y-20893488D01*
X-21668171Y-20898368D01*
X-21701388Y-20900000D01*
X-22548612Y-20900000D01*
X-22581829Y-20898368D01*
X-22614726Y-20893488D01*
X-22646986Y-20885408D01*
X-22678299Y-20874204D01*
X-22708363Y-20859985D01*
X-22736888Y-20842887D01*
X-22763600Y-20823076D01*
X-22788242Y-20800742D01*
X-22810576Y-20776100D01*
X-22830387Y-20749388D01*
X-22847485Y-20720863D01*
X-22861704Y-20690799D01*
X-22872908Y-20659486D01*
X-22880988Y-20627226D01*
X-22885868Y-20594329D01*
X-22887500Y-20561112D01*
X-22887500Y-17438888D01*
X-22885868Y-17405671D01*
X-22880988Y-17372774D01*
X-22872908Y-17340514D01*
X-22861704Y-17309201D01*
X-22847485Y-17279137D01*
X-22830387Y-17250612D01*
X-22810576Y-17223900D01*
X-22788242Y-17199258D01*
X-22763600Y-17176924D01*
X-22736888Y-17157113D01*
X-22708363Y-17140015D01*
X-22678299Y-17125796D01*
X-22646986Y-17114592D01*
X-22614726Y-17106512D01*
X-22581829Y-17101632D01*
X-22548612Y-17100000D01*
X-21701388Y-17100000D01*
X-21668171Y-17101632D01*
X-21668171Y-17101632D01*
G37*
D26*
X-22125000Y-19000000D03*
D20*
G36*
X-25943171Y-17101632D02*
X-25910274Y-17106512D01*
X-25878014Y-17114592D01*
X-25846701Y-17125796D01*
X-25816637Y-17140015D01*
X-25788112Y-17157113D01*
X-25761400Y-17176924D01*
X-25736758Y-17199258D01*
X-25714424Y-17223900D01*
X-25694613Y-17250612D01*
X-25677515Y-17279137D01*
X-25663296Y-17309201D01*
X-25652092Y-17340514D01*
X-25644012Y-17372774D01*
X-25639132Y-17405671D01*
X-25637500Y-17438888D01*
X-25637500Y-20561112D01*
X-25639132Y-20594329D01*
X-25644012Y-20627226D01*
X-25652092Y-20659486D01*
X-25663296Y-20690799D01*
X-25677515Y-20720863D01*
X-25694613Y-20749388D01*
X-25714424Y-20776100D01*
X-25736758Y-20800742D01*
X-25761400Y-20823076D01*
X-25788112Y-20842887D01*
X-25816637Y-20859985D01*
X-25846701Y-20874204D01*
X-25878014Y-20885408D01*
X-25910274Y-20893488D01*
X-25943171Y-20898368D01*
X-25976388Y-20900000D01*
X-26823612Y-20900000D01*
X-26856829Y-20898368D01*
X-26889726Y-20893488D01*
X-26921986Y-20885408D01*
X-26953299Y-20874204D01*
X-26983363Y-20859985D01*
X-27011888Y-20842887D01*
X-27038600Y-20823076D01*
X-27063242Y-20800742D01*
X-27085576Y-20776100D01*
X-27105387Y-20749388D01*
X-27122485Y-20720863D01*
X-27136704Y-20690799D01*
X-27147908Y-20659486D01*
X-27155988Y-20627226D01*
X-27160868Y-20594329D01*
X-27162500Y-20561112D01*
X-27162500Y-17438888D01*
X-27160868Y-17405671D01*
X-27155988Y-17372774D01*
X-27147908Y-17340514D01*
X-27136704Y-17309201D01*
X-27122485Y-17279137D01*
X-27105387Y-17250612D01*
X-27085576Y-17223900D01*
X-27063242Y-17199258D01*
X-27038600Y-17176924D01*
X-27011888Y-17157113D01*
X-26983363Y-17140015D01*
X-26953299Y-17125796D01*
X-26921986Y-17114592D01*
X-26889726Y-17106512D01*
X-26856829Y-17101632D01*
X-26823612Y-17100000D01*
X-25976388Y-17100000D01*
X-25943171Y-17101632D01*
X-25943171Y-17101632D01*
G37*
D26*
X-26400000Y-19000000D03*
G04 #@! TD*
D20*
G04 #@! TO.C,R15*
G36*
X-17547557Y-11101655D02*
X-17514188Y-11106605D01*
X-17481465Y-11114802D01*
X-17449703Y-11126166D01*
X-17419207Y-11140590D01*
X-17390273Y-11157932D01*
X-17363177Y-11178028D01*
X-17338182Y-11200682D01*
X-17315528Y-11225677D01*
X-17295432Y-11252773D01*
X-17278090Y-11281707D01*
X-17263666Y-11312203D01*
X-17252302Y-11343965D01*
X-17244105Y-11376688D01*
X-17239155Y-11410057D01*
X-17237500Y-11443750D01*
X-17237500Y-12556250D01*
X-17239155Y-12589943D01*
X-17244105Y-12623312D01*
X-17252302Y-12656035D01*
X-17263666Y-12687797D01*
X-17278090Y-12718293D01*
X-17295432Y-12747227D01*
X-17315528Y-12774323D01*
X-17338182Y-12799318D01*
X-17363177Y-12821972D01*
X-17390273Y-12842068D01*
X-17419207Y-12859410D01*
X-17449703Y-12873834D01*
X-17481465Y-12885198D01*
X-17514188Y-12893395D01*
X-17547557Y-12898345D01*
X-17581250Y-12900000D01*
X-18268750Y-12900000D01*
X-18302443Y-12898345D01*
X-18335812Y-12893395D01*
X-18368535Y-12885198D01*
X-18400297Y-12873834D01*
X-18430793Y-12859410D01*
X-18459727Y-12842068D01*
X-18486823Y-12821972D01*
X-18511818Y-12799318D01*
X-18534472Y-12774323D01*
X-18554568Y-12747227D01*
X-18571910Y-12718293D01*
X-18586334Y-12687797D01*
X-18597698Y-12656035D01*
X-18605895Y-12623312D01*
X-18610845Y-12589943D01*
X-18612500Y-12556250D01*
X-18612500Y-11443750D01*
X-18610845Y-11410057D01*
X-18605895Y-11376688D01*
X-18597698Y-11343965D01*
X-18586334Y-11312203D01*
X-18571910Y-11281707D01*
X-18554568Y-11252773D01*
X-18534472Y-11225677D01*
X-18511818Y-11200682D01*
X-18486823Y-11178028D01*
X-18459727Y-11157932D01*
X-18430793Y-11140590D01*
X-18400297Y-11126166D01*
X-18368535Y-11114802D01*
X-18335812Y-11106605D01*
X-18302443Y-11101655D01*
X-18268750Y-11100000D01*
X-17581250Y-11100000D01*
X-17547557Y-11101655D01*
X-17547557Y-11101655D01*
G37*
D21*
X-17925000Y-12000000D03*
D20*
G36*
X-19422557Y-11101655D02*
X-19389188Y-11106605D01*
X-19356465Y-11114802D01*
X-19324703Y-11126166D01*
X-19294207Y-11140590D01*
X-19265273Y-11157932D01*
X-19238177Y-11178028D01*
X-19213182Y-11200682D01*
X-19190528Y-11225677D01*
X-19170432Y-11252773D01*
X-19153090Y-11281707D01*
X-19138666Y-11312203D01*
X-19127302Y-11343965D01*
X-19119105Y-11376688D01*
X-19114155Y-11410057D01*
X-19112500Y-11443750D01*
X-19112500Y-12556250D01*
X-19114155Y-12589943D01*
X-19119105Y-12623312D01*
X-19127302Y-12656035D01*
X-19138666Y-12687797D01*
X-19153090Y-12718293D01*
X-19170432Y-12747227D01*
X-19190528Y-12774323D01*
X-19213182Y-12799318D01*
X-19238177Y-12821972D01*
X-19265273Y-12842068D01*
X-19294207Y-12859410D01*
X-19324703Y-12873834D01*
X-19356465Y-12885198D01*
X-19389188Y-12893395D01*
X-19422557Y-12898345D01*
X-19456250Y-12900000D01*
X-20143750Y-12900000D01*
X-20177443Y-12898345D01*
X-20210812Y-12893395D01*
X-20243535Y-12885198D01*
X-20275297Y-12873834D01*
X-20305793Y-12859410D01*
X-20334727Y-12842068D01*
X-20361823Y-12821972D01*
X-20386818Y-12799318D01*
X-20409472Y-12774323D01*
X-20429568Y-12747227D01*
X-20446910Y-12718293D01*
X-20461334Y-12687797D01*
X-20472698Y-12656035D01*
X-20480895Y-12623312D01*
X-20485845Y-12589943D01*
X-20487500Y-12556250D01*
X-20487500Y-11443750D01*
X-20485845Y-11410057D01*
X-20480895Y-11376688D01*
X-20472698Y-11343965D01*
X-20461334Y-11312203D01*
X-20446910Y-11281707D01*
X-20429568Y-11252773D01*
X-20409472Y-11225677D01*
X-20386818Y-11200682D01*
X-20361823Y-11178028D01*
X-20334727Y-11157932D01*
X-20305793Y-11140590D01*
X-20275297Y-11126166D01*
X-20243535Y-11114802D01*
X-20210812Y-11106605D01*
X-20177443Y-11101655D01*
X-20143750Y-11100000D01*
X-19456250Y-11100000D01*
X-19422557Y-11101655D01*
X-19422557Y-11101655D01*
G37*
D21*
X-19800000Y-12000000D03*
G04 #@! TD*
D27*
G04 #@! TO.C,U3*
X-13950000Y-11250000D03*
X-13450000Y-11250000D03*
X-12950000Y-11250000D03*
X-12450000Y-11250000D03*
X-12450000Y-8350000D03*
X-12950000Y-8350000D03*
X-13450000Y-8350000D03*
X-13950000Y-8350000D03*
D28*
X-13200000Y-9800000D03*
G04 #@! TD*
D29*
G04 #@! TO.C,J1*
X-24130000Y12725000D03*
X-24130000Y17775000D03*
X-21590000Y12725000D03*
X-21590000Y17775000D03*
X-19050000Y12725000D03*
X-19050000Y17775000D03*
X-16510000Y12725000D03*
X-16510000Y17775000D03*
X-13970000Y12725000D03*
X-13970000Y17775000D03*
X-11430000Y12725000D03*
X-11430000Y17775000D03*
X-8890000Y12725000D03*
X-8890000Y17775000D03*
X-6350000Y12725000D03*
X-6350000Y17775000D03*
X-3810000Y12725000D03*
X-3810000Y17775000D03*
X-1270000Y12725000D03*
X-1270000Y17775000D03*
X1270000Y12725000D03*
X1270000Y17775000D03*
X3810000Y12725000D03*
X3810000Y17775000D03*
X6350000Y12725000D03*
X6350000Y17775000D03*
X8890000Y12725000D03*
X8890000Y17775000D03*
X11430000Y12725000D03*
X11430000Y17775000D03*
X13970000Y12725000D03*
X13970000Y17775000D03*
X16510000Y12725000D03*
X16510000Y17775000D03*
X19050000Y12725000D03*
X19050000Y17775000D03*
X21590000Y12725000D03*
X21590000Y17775000D03*
X24130000Y12725000D03*
X24130000Y17775000D03*
G04 #@! TD*
D30*
G04 #@! TO.C,SW1*
X-30000000Y8600000D03*
X-30000000Y15400000D03*
G04 #@! TD*
D31*
G04 #@! TO.C,L1*
X-26600000Y-7275000D03*
X-26600000Y-5325000D03*
G04 #@! TD*
D20*
G04 #@! TO.C,C10*
G36*
X-13625007Y-5726535D02*
X-13594065Y-5731125D01*
X-13563722Y-5738725D01*
X-13534270Y-5749263D01*
X-13505992Y-5762638D01*
X-13479162Y-5778719D01*
X-13454037Y-5797353D01*
X-13430860Y-5818360D01*
X-13409853Y-5841537D01*
X-13391219Y-5866662D01*
X-13375138Y-5893492D01*
X-13361763Y-5921770D01*
X-13351225Y-5951222D01*
X-13343625Y-5981565D01*
X-13339035Y-6012507D01*
X-13337500Y-6043750D01*
X-13337500Y-6756250D01*
X-13339035Y-6787493D01*
X-13343625Y-6818435D01*
X-13351225Y-6848778D01*
X-13361763Y-6878230D01*
X-13375138Y-6906508D01*
X-13391219Y-6933338D01*
X-13409853Y-6958463D01*
X-13430860Y-6981640D01*
X-13454037Y-7002647D01*
X-13479162Y-7021281D01*
X-13505992Y-7037362D01*
X-13534270Y-7050737D01*
X-13563722Y-7061275D01*
X-13594065Y-7068875D01*
X-13625007Y-7073465D01*
X-13656250Y-7075000D01*
X-14293750Y-7075000D01*
X-14324993Y-7073465D01*
X-14355935Y-7068875D01*
X-14386278Y-7061275D01*
X-14415730Y-7050737D01*
X-14444008Y-7037362D01*
X-14470838Y-7021281D01*
X-14495963Y-7002647D01*
X-14519140Y-6981640D01*
X-14540147Y-6958463D01*
X-14558781Y-6933338D01*
X-14574862Y-6906508D01*
X-14588237Y-6878230D01*
X-14598775Y-6848778D01*
X-14606375Y-6818435D01*
X-14610965Y-6787493D01*
X-14612500Y-6756250D01*
X-14612500Y-6043750D01*
X-14610965Y-6012507D01*
X-14606375Y-5981565D01*
X-14598775Y-5951222D01*
X-14588237Y-5921770D01*
X-14574862Y-5893492D01*
X-14558781Y-5866662D01*
X-14540147Y-5841537D01*
X-14519140Y-5818360D01*
X-14495963Y-5797353D01*
X-14470838Y-5778719D01*
X-14444008Y-5762638D01*
X-14415730Y-5749263D01*
X-14386278Y-5738725D01*
X-14355935Y-5731125D01*
X-14324993Y-5726535D01*
X-14293750Y-5725000D01*
X-13656250Y-5725000D01*
X-13625007Y-5726535D01*
X-13625007Y-5726535D01*
G37*
D22*
X-13975000Y-6400000D03*
D20*
G36*
X-12050007Y-5726535D02*
X-12019065Y-5731125D01*
X-11988722Y-5738725D01*
X-11959270Y-5749263D01*
X-11930992Y-5762638D01*
X-11904162Y-5778719D01*
X-11879037Y-5797353D01*
X-11855860Y-5818360D01*
X-11834853Y-5841537D01*
X-11816219Y-5866662D01*
X-11800138Y-5893492D01*
X-11786763Y-5921770D01*
X-11776225Y-5951222D01*
X-11768625Y-5981565D01*
X-11764035Y-6012507D01*
X-11762500Y-6043750D01*
X-11762500Y-6756250D01*
X-11764035Y-6787493D01*
X-11768625Y-6818435D01*
X-11776225Y-6848778D01*
X-11786763Y-6878230D01*
X-11800138Y-6906508D01*
X-11816219Y-6933338D01*
X-11834853Y-6958463D01*
X-11855860Y-6981640D01*
X-11879037Y-7002647D01*
X-11904162Y-7021281D01*
X-11930992Y-7037362D01*
X-11959270Y-7050737D01*
X-11988722Y-7061275D01*
X-12019065Y-7068875D01*
X-12050007Y-7073465D01*
X-12081250Y-7075000D01*
X-12718750Y-7075000D01*
X-12749993Y-7073465D01*
X-12780935Y-7068875D01*
X-12811278Y-7061275D01*
X-12840730Y-7050737D01*
X-12869008Y-7037362D01*
X-12895838Y-7021281D01*
X-12920963Y-7002647D01*
X-12944140Y-6981640D01*
X-12965147Y-6958463D01*
X-12983781Y-6933338D01*
X-12999862Y-6906508D01*
X-13013237Y-6878230D01*
X-13023775Y-6848778D01*
X-13031375Y-6818435D01*
X-13035965Y-6787493D01*
X-13037500Y-6756250D01*
X-13037500Y-6043750D01*
X-13035965Y-6012507D01*
X-13031375Y-5981565D01*
X-13023775Y-5951222D01*
X-13013237Y-5921770D01*
X-12999862Y-5893492D01*
X-12983781Y-5866662D01*
X-12965147Y-5841537D01*
X-12944140Y-5818360D01*
X-12920963Y-5797353D01*
X-12895838Y-5778719D01*
X-12869008Y-5762638D01*
X-12840730Y-5749263D01*
X-12811278Y-5738725D01*
X-12780935Y-5731125D01*
X-12749993Y-5726535D01*
X-12718750Y-5725000D01*
X-12081250Y-5725000D01*
X-12050007Y-5726535D01*
X-12050007Y-5726535D01*
G37*
D22*
X-12400000Y-6400000D03*
G04 #@! TD*
M02*
