G04 #@! TF.GenerationSoftware,KiCad,Pcbnew,5.1.6-c6e7f7d~86~ubuntu18.04.1*
G04 #@! TF.CreationDate,2020-07-16T01:51:11+09:00*
G04 #@! TF.ProjectId,WioTerminal_BatteryChassisAAA,57696f54-6572-46d6-996e-616c5f426174,rev?*
G04 #@! TF.SameCoordinates,PX206cc80PYfe6f74f0*
G04 #@! TF.FileFunction,Legend,Top*
G04 #@! TF.FilePolarity,Positive*
%FSLAX46Y46*%
G04 Gerber Fmt 4.6, Leading zero omitted, Abs format (unit mm)*
G04 Created by KiCad (PCBNEW 5.1.6-c6e7f7d~86~ubuntu18.04.1) date 2020-07-16 01:51:11*
%MOMM*%
%LPD*%
G01*
G04 APERTURE LIST*
%ADD10C,0.150000*%
%ADD11C,0.200000*%
%ADD12C,0.120000*%
%ADD13C,0.140000*%
G04 APERTURE END LIST*
D10*
X-19000000Y4200000D02*
X-19100000Y4100000D01*
X-18785715Y4228571D02*
X-18023810Y4228571D01*
X-18404762Y3847619D02*
X-18404762Y4609523D01*
X-17071429Y4847619D02*
X-17547620Y4847619D01*
X-17595239Y4371428D01*
X-17547620Y4419047D01*
X-17452381Y4466666D01*
X-17214286Y4466666D01*
X-17119048Y4419047D01*
X-17071429Y4371428D01*
X-17023810Y4276190D01*
X-17023810Y4038095D01*
X-17071429Y3942857D01*
X-17119048Y3895238D01*
X-17214286Y3847619D01*
X-17452381Y3847619D01*
X-17547620Y3895238D01*
X-17595239Y3942857D01*
X-16738096Y4847619D02*
X-16404762Y3847619D01*
X-16071429Y4847619D01*
X-18500000Y24500000D02*
X-18000000Y25500000D01*
X-17500000Y24500000D02*
X-18500000Y24500000D01*
X-18000000Y25500000D02*
X-17500000Y24500000D01*
X-16000000Y25500000D02*
X-15500000Y24500000D01*
X-15500000Y24500000D02*
X-16500000Y24500000D01*
X-16500000Y24500000D02*
X-16000000Y25500000D01*
X-14000000Y25500000D02*
X-13500000Y24500000D01*
X-14500000Y24500000D02*
X-14000000Y25500000D01*
X-13500000Y24500000D02*
X-14500000Y24500000D01*
X-4500000Y24500000D02*
X-4000000Y25500000D01*
X-4000000Y25500000D02*
X-3500000Y24500000D01*
X-3500000Y24500000D02*
X-4500000Y24500000D01*
X-1500000Y24500000D02*
X-2500000Y24500000D01*
X-2000000Y25500000D02*
X-1500000Y24500000D01*
X-2500000Y24500000D02*
X-2000000Y25500000D01*
X-500000Y24500000D02*
X0Y25500000D01*
X500000Y24500000D02*
X-500000Y24500000D01*
X0Y25500000D02*
X500000Y24500000D01*
D11*
X-17452381Y23727142D02*
X-17452381Y23108095D01*
X-17833334Y23441428D01*
X-17833334Y23298571D01*
X-17880953Y23203333D01*
X-17928572Y23155714D01*
X-18023810Y23108095D01*
X-18261905Y23108095D01*
X-18357143Y23155714D01*
X-18404762Y23203333D01*
X-18452381Y23298571D01*
X-18452381Y23584285D01*
X-18404762Y23679523D01*
X-18357143Y23727142D01*
X-18357143Y22679523D02*
X-18404762Y22631904D01*
X-18452381Y22679523D01*
X-18404762Y22727142D01*
X-18357143Y22679523D01*
X-18452381Y22679523D01*
X-17452381Y22298571D02*
X-17452381Y21679523D01*
X-17833334Y22012857D01*
X-17833334Y21870000D01*
X-17880953Y21774761D01*
X-17928572Y21727142D01*
X-18023810Y21679523D01*
X-18261905Y21679523D01*
X-18357143Y21727142D01*
X-18404762Y21774761D01*
X-18452381Y21870000D01*
X-18452381Y22155714D01*
X-18404762Y22250952D01*
X-18357143Y22298571D01*
X-17452381Y21393809D02*
X-18452381Y21060476D01*
X-17452381Y20727142D01*
X-16404762Y23679523D02*
X-16452381Y23536666D01*
X-16452381Y23298571D01*
X-16404762Y23203333D01*
X-16357143Y23155714D01*
X-16261905Y23108095D01*
X-16166667Y23108095D01*
X-16071429Y23155714D01*
X-16023810Y23203333D01*
X-15976191Y23298571D01*
X-15928572Y23489047D01*
X-15880953Y23584285D01*
X-15833334Y23631904D01*
X-15738096Y23679523D01*
X-15642858Y23679523D01*
X-15547620Y23631904D01*
X-15500000Y23584285D01*
X-15452381Y23489047D01*
X-15452381Y23250952D01*
X-15500000Y23108095D01*
X-16357143Y22108095D02*
X-16404762Y22155714D01*
X-16452381Y22298571D01*
X-16452381Y22393809D01*
X-16404762Y22536666D01*
X-16309524Y22631904D01*
X-16214286Y22679523D01*
X-16023810Y22727142D01*
X-15880953Y22727142D01*
X-15690477Y22679523D01*
X-15595239Y22631904D01*
X-15500000Y22536666D01*
X-15452381Y22393809D01*
X-15452381Y22298571D01*
X-15500000Y22155714D01*
X-15547620Y22108095D01*
X-16452381Y21203333D02*
X-16452381Y21679523D01*
X-15452381Y21679523D01*
X-14404762Y23679523D02*
X-14452381Y23536666D01*
X-14452381Y23298571D01*
X-14404762Y23203333D01*
X-14357143Y23155714D01*
X-14261905Y23108095D01*
X-14166667Y23108095D01*
X-14071429Y23155714D01*
X-14023810Y23203333D01*
X-13976191Y23298571D01*
X-13928572Y23489047D01*
X-13880953Y23584285D01*
X-13833334Y23631904D01*
X-13738096Y23679523D01*
X-13642858Y23679523D01*
X-13547620Y23631904D01*
X-13500000Y23584285D01*
X-13452381Y23489047D01*
X-13452381Y23250952D01*
X-13500000Y23108095D01*
X-14452381Y22679523D02*
X-13452381Y22679523D01*
X-13452381Y22441428D01*
X-13500000Y22298571D01*
X-13595239Y22203333D01*
X-13690477Y22155714D01*
X-13880953Y22108095D01*
X-14023810Y22108095D01*
X-14214286Y22155714D01*
X-14309524Y22203333D01*
X-14404762Y22298571D01*
X-14452381Y22441428D01*
X-14452381Y22679523D01*
X-14166667Y21727142D02*
X-14166667Y21250952D01*
X-14452381Y21822380D02*
X-13452381Y21489047D01*
X-14452381Y21155714D01*
X-3452381Y23727142D02*
X-3452381Y23108095D01*
X-3833334Y23441428D01*
X-3833334Y23298571D01*
X-3880953Y23203333D01*
X-3928572Y23155714D01*
X-4023810Y23108095D01*
X-4261905Y23108095D01*
X-4357143Y23155714D01*
X-4404762Y23203333D01*
X-4452381Y23298571D01*
X-4452381Y23584285D01*
X-4404762Y23679523D01*
X-4357143Y23727142D01*
X-4357143Y22679523D02*
X-4404762Y22631904D01*
X-4452381Y22679523D01*
X-4404762Y22727142D01*
X-4357143Y22679523D01*
X-4452381Y22679523D01*
X-3452381Y22298571D02*
X-3452381Y21679523D01*
X-3833334Y22012857D01*
X-3833334Y21870000D01*
X-3880953Y21774761D01*
X-3928572Y21727142D01*
X-4023810Y21679523D01*
X-4261905Y21679523D01*
X-4357143Y21727142D01*
X-4404762Y21774761D01*
X-4452381Y21870000D01*
X-4452381Y22155714D01*
X-4404762Y22250952D01*
X-4357143Y22298571D01*
X-3452381Y21393809D02*
X-4452381Y21060476D01*
X-3452381Y20727142D01*
X-2452381Y23060476D02*
X-1976191Y23393809D01*
X-2452381Y23631904D02*
X-1452381Y23631904D01*
X-1452381Y23250952D01*
X-1500000Y23155714D01*
X-1547620Y23108095D01*
X-1642858Y23060476D01*
X-1785715Y23060476D01*
X-1880953Y23108095D01*
X-1928572Y23155714D01*
X-1976191Y23250952D01*
X-1976191Y23631904D01*
X-2452381Y22727142D02*
X-1785715Y22203333D01*
X-1785715Y22727142D02*
X-2452381Y22203333D01*
X-2452381Y21822380D02*
X-1452381Y21822380D01*
X-1452381Y21584285D01*
X-1500000Y21441428D01*
X-1595239Y21346190D01*
X-1690477Y21298571D01*
X-1880953Y21250952D01*
X-2023810Y21250952D01*
X-2214286Y21298571D01*
X-2309524Y21346190D01*
X-2404762Y21441428D01*
X-2452381Y21584285D01*
X-2452381Y21822380D01*
X547619Y23774761D02*
X547619Y23203333D01*
X-452381Y23489047D02*
X547619Y23489047D01*
X-452381Y22965238D02*
X214285Y22441428D01*
X214285Y22965238D02*
X-452381Y22441428D01*
X-452381Y22060476D02*
X547619Y22060476D01*
X547619Y21822380D01*
X500000Y21679523D01*
X404761Y21584285D01*
X309523Y21536666D01*
X119047Y21489047D01*
X-23810Y21489047D01*
X-214286Y21536666D01*
X-309524Y21584285D01*
X-404762Y21679523D01*
X-452381Y21822380D01*
X-452381Y22060476D01*
D12*
X-19950000Y-7950000D02*
X-20200000Y-7950000D01*
X-20200000Y-4650000D02*
X-19950000Y-4650000D01*
X-23000000Y-4650000D02*
X-23250000Y-4650000D01*
X-19950000Y-7950000D02*
X-19950000Y-7285000D01*
X-23250000Y-5315000D02*
X-23250000Y-4650000D01*
X-23250000Y-7950000D02*
X-23250000Y-7285000D01*
X-19950000Y-5315000D02*
X-19950000Y-4650000D01*
X-23141422Y-11590000D02*
X-23658578Y-11590000D01*
X-23141422Y-13010000D02*
X-23658578Y-13010000D01*
X-15790000Y-18262779D02*
X-15790000Y-17937221D01*
X-16810000Y-18262779D02*
X-16810000Y-17937221D01*
X-23141422Y-11010000D02*
X-23658578Y-11010000D01*
X-23141422Y-9590000D02*
X-23658578Y-9590000D01*
X-13458578Y-4710000D02*
X-12941422Y-4710000D01*
X-13458578Y-3290000D02*
X-12941422Y-3290000D01*
X-18710000Y-4062779D02*
X-18710000Y-3737221D01*
X-17690000Y-4062779D02*
X-17690000Y-3737221D01*
X-17462779Y810000D02*
X-17137221Y810000D01*
X-17462779Y-210000D02*
X-17137221Y-210000D01*
X-22797936Y-990000D02*
X-24002064Y-990000D01*
X-22797936Y-2810000D02*
X-24002064Y-2810000D01*
X-22797936Y-410000D02*
X-24002064Y-410000D01*
X-22797936Y1410000D02*
X-24002064Y1410000D01*
X-22797936Y3810000D02*
X-24002064Y3810000D01*
X-22797936Y1990000D02*
X-24002064Y1990000D01*
X-20110000Y-15478922D02*
X-20110000Y-15996078D01*
X-18690000Y-15478922D02*
X-18690000Y-15996078D01*
X-4624721Y7310000D02*
X-4950279Y7310000D01*
X-4624721Y6290000D02*
X-4950279Y6290000D01*
X-5690000Y-15949721D02*
X-5690000Y-16275279D01*
X-6710000Y-15949721D02*
X-6710000Y-16275279D01*
X-6710000Y-19349721D02*
X-6710000Y-19675279D01*
X-5690000Y-19349721D02*
X-5690000Y-19675279D01*
X-4624721Y9110000D02*
X-4950279Y9110000D01*
X-4624721Y8090000D02*
X-4950279Y8090000D01*
X-7890000Y-15949721D02*
X-7890000Y-16275279D01*
X-8910000Y-15949721D02*
X-8910000Y-16275279D01*
X-8910000Y-19349721D02*
X-8910000Y-19675279D01*
X-7890000Y-19349721D02*
X-7890000Y-19675279D01*
X-19290000Y1262779D02*
X-19290000Y937221D01*
X-20310000Y1262779D02*
X-20310000Y937221D01*
X-19150279Y-2010000D02*
X-18824721Y-2010000D01*
X-19150279Y-990000D02*
X-18824721Y-990000D01*
X-17649721Y-8890000D02*
X-17975279Y-8890000D01*
X-17649721Y-9910000D02*
X-17975279Y-9910000D01*
X7849721Y9110000D02*
X8175279Y9110000D01*
X7849721Y8090000D02*
X8175279Y8090000D01*
X7849721Y22510000D02*
X8175279Y22510000D01*
X7849721Y21490000D02*
X8175279Y21490000D01*
X-15449721Y6290000D02*
X-15775279Y6290000D01*
X-15449721Y7310000D02*
X-15775279Y7310000D01*
X-15449721Y9110000D02*
X-15775279Y9110000D01*
X-15449721Y8090000D02*
X-15775279Y8090000D01*
X-12700000Y-15410000D02*
X-15150000Y-15410000D01*
X-14500000Y-18630000D02*
X-12700000Y-18630000D01*
X-20313748Y-18290000D02*
X-23086252Y-18290000D01*
X-20313748Y-21710000D02*
X-23086252Y-21710000D01*
X-18603922Y-11290000D02*
X-19121078Y-11290000D01*
X-18603922Y-12710000D02*
X-19121078Y-12710000D01*
D10*
X-14325000Y-11700000D02*
X-14325000Y-8725000D01*
X-12075000Y-10875000D02*
X-12075000Y-8725000D01*
D12*
X22350000Y17850000D02*
X23370000Y17850000D01*
X22350000Y12650000D02*
X23370000Y12650000D01*
X19810000Y17850000D02*
X20830000Y17850000D01*
X19810000Y12650000D02*
X20830000Y12650000D01*
X17270000Y17850000D02*
X18290000Y17850000D01*
X17270000Y12650000D02*
X18290000Y12650000D01*
X14730000Y17850000D02*
X15750000Y17850000D01*
X14730000Y12650000D02*
X15750000Y12650000D01*
X12190000Y17850000D02*
X13210000Y17850000D01*
X12190000Y12650000D02*
X13210000Y12650000D01*
X9650000Y17850000D02*
X10670000Y17850000D01*
X9650000Y12650000D02*
X10670000Y12650000D01*
X7110000Y17850000D02*
X8130000Y17850000D01*
X7110000Y12650000D02*
X8130000Y12650000D01*
X4570000Y17850000D02*
X5590000Y17850000D01*
X4570000Y12650000D02*
X5590000Y12650000D01*
X2030000Y17850000D02*
X3050000Y17850000D01*
X2030000Y12650000D02*
X3050000Y12650000D01*
X-510000Y17850000D02*
X510000Y17850000D01*
X-510000Y12650000D02*
X510000Y12650000D01*
X-3050000Y17850000D02*
X-2030000Y17850000D01*
X-3050000Y12650000D02*
X-2030000Y12650000D01*
X-5590000Y17850000D02*
X-4570000Y17850000D01*
X-5590000Y12650000D02*
X-4570000Y12650000D01*
X-8130000Y17850000D02*
X-7110000Y17850000D01*
X-8130000Y12650000D02*
X-7110000Y12650000D01*
X-10670000Y17850000D02*
X-9650000Y17850000D01*
X-10670000Y12650000D02*
X-9650000Y12650000D01*
X-13210000Y17850000D02*
X-12190000Y17850000D01*
X-13210000Y12650000D02*
X-12190000Y12650000D01*
X-15750000Y17850000D02*
X-14730000Y17850000D01*
X-15750000Y12650000D02*
X-14730000Y12650000D01*
X-18290000Y17850000D02*
X-17270000Y17850000D01*
X-18290000Y12650000D02*
X-17270000Y12650000D01*
X-20830000Y17850000D02*
X-19810000Y17850000D01*
X-20830000Y12650000D02*
X-19810000Y12650000D01*
X-23370000Y17850000D02*
X-22350000Y17850000D01*
X-23370000Y12650000D02*
X-22350000Y12650000D01*
X24890000Y17850000D02*
X25460000Y17850000D01*
X24890000Y12650000D02*
X25460000Y12650000D01*
X-25460000Y17850000D02*
X-24890000Y17850000D01*
X-25460000Y12650000D02*
X-24890000Y12650000D01*
X-24890000Y11210000D02*
X-24890000Y12650000D01*
X25460000Y12650000D02*
X25460000Y17850000D01*
X-25460000Y12650000D02*
X-25460000Y17850000D01*
X-13350279Y-6910000D02*
X-13024721Y-6910000D01*
X-13350279Y-5890000D02*
X-13024721Y-5890000D01*
X-21200000Y-14800000D02*
G75*
G03*
X-21200000Y-14800000I-700000J0D01*
G01*
X-23700000Y-14800000D02*
G75*
G03*
X-23700000Y-14800000I-700000J0D01*
G01*
X-19000000Y3700000D02*
G75*
G03*
X-19000000Y3700000I-700000J0D01*
G01*
X-26800000Y2900000D02*
G75*
G03*
X-26800000Y2900000I-700000J0D01*
G01*
D10*
X-24947620Y-7061905D02*
X-24138096Y-7061905D01*
X-24042858Y-7014286D01*
X-23995239Y-6966667D01*
X-23947620Y-6871429D01*
X-23947620Y-6680953D01*
X-23995239Y-6585715D01*
X-24042858Y-6538096D01*
X-24138096Y-6490477D01*
X-24947620Y-6490477D01*
X-24852381Y-6061905D02*
X-24900000Y-6014286D01*
X-24947620Y-5919048D01*
X-24947620Y-5680953D01*
X-24900000Y-5585715D01*
X-24852381Y-5538096D01*
X-24757143Y-5490477D01*
X-24661905Y-5490477D01*
X-24519048Y-5538096D01*
X-23947620Y-6109524D01*
X-23947620Y-5490477D01*
X-27066667Y-12557143D02*
X-27114286Y-12604762D01*
X-27257143Y-12652381D01*
X-27352381Y-12652381D01*
X-27495239Y-12604762D01*
X-27590477Y-12509524D01*
X-27638096Y-12414286D01*
X-27685715Y-12223810D01*
X-27685715Y-12080953D01*
X-27638096Y-11890477D01*
X-27590477Y-11795239D01*
X-27495239Y-11700000D01*
X-27352381Y-11652381D01*
X-27257143Y-11652381D01*
X-27114286Y-11700000D01*
X-27066667Y-11747620D01*
X-26114286Y-12652381D02*
X-26685715Y-12652381D01*
X-26400000Y-12652381D02*
X-26400000Y-11652381D01*
X-26495239Y-11795239D01*
X-26590477Y-11890477D01*
X-26685715Y-11938096D01*
X-15942858Y-15766667D02*
X-15895239Y-15814286D01*
X-15847620Y-15957143D01*
X-15847620Y-16052381D01*
X-15895239Y-16195239D01*
X-15990477Y-16290477D01*
X-16085715Y-16338096D01*
X-16276191Y-16385715D01*
X-16419048Y-16385715D01*
X-16609524Y-16338096D01*
X-16704762Y-16290477D01*
X-16800000Y-16195239D01*
X-16847620Y-16052381D01*
X-16847620Y-15957143D01*
X-16800000Y-15814286D01*
X-16752381Y-15766667D01*
X-16752381Y-15385715D02*
X-16800000Y-15338096D01*
X-16847620Y-15242858D01*
X-16847620Y-15004762D01*
X-16800000Y-14909524D01*
X-16752381Y-14861905D01*
X-16657143Y-14814286D01*
X-16561905Y-14814286D01*
X-16419048Y-14861905D01*
X-15847620Y-15433334D01*
X-15847620Y-14814286D01*
X-27066667Y-10657143D02*
X-27114286Y-10704762D01*
X-27257143Y-10752381D01*
X-27352381Y-10752381D01*
X-27495239Y-10704762D01*
X-27590477Y-10609524D01*
X-27638096Y-10514286D01*
X-27685715Y-10323810D01*
X-27685715Y-10180953D01*
X-27638096Y-9990477D01*
X-27590477Y-9895239D01*
X-27495239Y-9800000D01*
X-27352381Y-9752381D01*
X-27257143Y-9752381D01*
X-27114286Y-9800000D01*
X-27066667Y-9847620D01*
X-26733334Y-9752381D02*
X-26114286Y-9752381D01*
X-26447620Y-10133334D01*
X-26304762Y-10133334D01*
X-26209524Y-10180953D01*
X-26161905Y-10228572D01*
X-26114286Y-10323810D01*
X-26114286Y-10561905D01*
X-26161905Y-10657143D01*
X-26209524Y-10704762D01*
X-26304762Y-10752381D01*
X-26590477Y-10752381D01*
X-26685715Y-10704762D01*
X-26733334Y-10657143D01*
X-10766667Y-3257143D02*
X-10814286Y-3304762D01*
X-10957143Y-3352381D01*
X-11052381Y-3352381D01*
X-11195239Y-3304762D01*
X-11290477Y-3209524D01*
X-11338096Y-3114286D01*
X-11385715Y-2923810D01*
X-11385715Y-2780953D01*
X-11338096Y-2590477D01*
X-11290477Y-2495239D01*
X-11195239Y-2400000D01*
X-11052381Y-2352381D01*
X-10957143Y-2352381D01*
X-10814286Y-2400000D01*
X-10766667Y-2447620D01*
X-9909524Y-2685715D02*
X-9909524Y-3352381D01*
X-10147620Y-2304762D02*
X-10385715Y-3019048D01*
X-9766667Y-3019048D01*
X-17142858Y-6466667D02*
X-17095239Y-6514286D01*
X-17047620Y-6657143D01*
X-17047620Y-6752381D01*
X-17095239Y-6895239D01*
X-17190477Y-6990477D01*
X-17285715Y-7038096D01*
X-17476191Y-7085715D01*
X-17619048Y-7085715D01*
X-17809524Y-7038096D01*
X-17904762Y-6990477D01*
X-18000000Y-6895239D01*
X-18047620Y-6752381D01*
X-18047620Y-6657143D01*
X-18000000Y-6514286D01*
X-17952381Y-6466667D01*
X-18047620Y-5561905D02*
X-18047620Y-6038096D01*
X-17571429Y-6085715D01*
X-17619048Y-6038096D01*
X-17666667Y-5942858D01*
X-17666667Y-5704762D01*
X-17619048Y-5609524D01*
X-17571429Y-5561905D01*
X-17476191Y-5514286D01*
X-17238096Y-5514286D01*
X-17142858Y-5561905D01*
X-17095239Y-5609524D01*
X-17047620Y-5704762D01*
X-17047620Y-5942858D01*
X-17095239Y-6038096D01*
X-17142858Y-6085715D01*
X-14966667Y-57143D02*
X-15014286Y-104762D01*
X-15157143Y-152381D01*
X-15252381Y-152381D01*
X-15395239Y-104762D01*
X-15490477Y-9524D01*
X-15538096Y85714D01*
X-15585715Y276190D01*
X-15585715Y419047D01*
X-15538096Y609523D01*
X-15490477Y704761D01*
X-15395239Y800000D01*
X-15252381Y847619D01*
X-15157143Y847619D01*
X-15014286Y800000D01*
X-14966667Y752380D01*
X-14109524Y847619D02*
X-14300000Y847619D01*
X-14395239Y800000D01*
X-14442858Y752380D01*
X-14538096Y609523D01*
X-14585715Y419047D01*
X-14585715Y38095D01*
X-14538096Y-57143D01*
X-14490477Y-104762D01*
X-14395239Y-152381D01*
X-14204762Y-152381D01*
X-14109524Y-104762D01*
X-14061905Y-57143D01*
X-14014286Y38095D01*
X-14014286Y276190D01*
X-14061905Y371428D01*
X-14109524Y419047D01*
X-14204762Y466666D01*
X-14395239Y466666D01*
X-14490477Y419047D01*
X-14538096Y371428D01*
X-14585715Y276190D01*
X-27566667Y-2257143D02*
X-27614286Y-2304762D01*
X-27757143Y-2352381D01*
X-27852381Y-2352381D01*
X-27995239Y-2304762D01*
X-28090477Y-2209524D01*
X-28138096Y-2114286D01*
X-28185715Y-1923810D01*
X-28185715Y-1780953D01*
X-28138096Y-1590477D01*
X-28090477Y-1495239D01*
X-27995239Y-1400000D01*
X-27852381Y-1352381D01*
X-27757143Y-1352381D01*
X-27614286Y-1400000D01*
X-27566667Y-1447620D01*
X-27233334Y-1352381D02*
X-26566667Y-1352381D01*
X-26995239Y-2352381D01*
X-27566667Y142857D02*
X-27614286Y95238D01*
X-27757143Y47619D01*
X-27852381Y47619D01*
X-27995239Y95238D01*
X-28090477Y190476D01*
X-28138096Y285714D01*
X-28185715Y476190D01*
X-28185715Y619047D01*
X-28138096Y809523D01*
X-28090477Y904761D01*
X-27995239Y1000000D01*
X-27852381Y1047619D01*
X-27757143Y1047619D01*
X-27614286Y1000000D01*
X-27566667Y952380D01*
X-26995239Y619047D02*
X-27090477Y666666D01*
X-27138096Y714285D01*
X-27185715Y809523D01*
X-27185715Y857142D01*
X-27138096Y952380D01*
X-27090477Y1000000D01*
X-26995239Y1047619D01*
X-26804762Y1047619D01*
X-26709524Y1000000D01*
X-26661905Y952380D01*
X-26614286Y857142D01*
X-26614286Y809523D01*
X-26661905Y714285D01*
X-26709524Y666666D01*
X-26804762Y619047D01*
X-26995239Y619047D01*
X-27090477Y571428D01*
X-27138096Y523809D01*
X-27185715Y428571D01*
X-27185715Y238095D01*
X-27138096Y142857D01*
X-27090477Y95238D01*
X-26995239Y47619D01*
X-26804762Y47619D01*
X-26709524Y95238D01*
X-26661905Y142857D01*
X-26614286Y238095D01*
X-26614286Y428571D01*
X-26661905Y523809D01*
X-26709524Y571428D01*
X-26804762Y619047D01*
X-25666667Y4342857D02*
X-25714286Y4295238D01*
X-25857143Y4247619D01*
X-25952381Y4247619D01*
X-26095239Y4295238D01*
X-26190477Y4390476D01*
X-26238096Y4485714D01*
X-26285715Y4676190D01*
X-26285715Y4819047D01*
X-26238096Y5009523D01*
X-26190477Y5104761D01*
X-26095239Y5200000D01*
X-25952381Y5247619D01*
X-25857143Y5247619D01*
X-25714286Y5200000D01*
X-25666667Y5152380D01*
X-25190477Y4247619D02*
X-25000000Y4247619D01*
X-24904762Y4295238D01*
X-24857143Y4342857D01*
X-24761905Y4485714D01*
X-24714286Y4676190D01*
X-24714286Y5057142D01*
X-24761905Y5152380D01*
X-24809524Y5200000D01*
X-24904762Y5247619D01*
X-25095239Y5247619D01*
X-25190477Y5200000D01*
X-25238096Y5152380D01*
X-25285715Y5057142D01*
X-25285715Y4819047D01*
X-25238096Y4723809D01*
X-25190477Y4676190D01*
X-25095239Y4628571D01*
X-24904762Y4628571D01*
X-24809524Y4676190D01*
X-24761905Y4723809D01*
X-24714286Y4819047D01*
X-18947620Y-18466667D02*
X-19423810Y-18800000D01*
X-18947620Y-19038096D02*
X-19947620Y-19038096D01*
X-19947620Y-18657143D01*
X-19900000Y-18561905D01*
X-19852381Y-18514286D01*
X-19757143Y-18466667D01*
X-19614286Y-18466667D01*
X-19519048Y-18514286D01*
X-19471429Y-18561905D01*
X-19423810Y-18657143D01*
X-19423810Y-19038096D01*
X-18947620Y-17514286D02*
X-18947620Y-18085715D01*
X-18947620Y-17800000D02*
X-19947620Y-17800000D01*
X-19804762Y-17895239D01*
X-19709524Y-17990477D01*
X-19661905Y-18085715D01*
X-2466667Y6347619D02*
X-2800000Y6823809D01*
X-3038096Y6347619D02*
X-3038096Y7347619D01*
X-2657143Y7347619D01*
X-2561905Y7300000D01*
X-2514286Y7252380D01*
X-2466667Y7157142D01*
X-2466667Y7014285D01*
X-2514286Y6919047D01*
X-2561905Y6871428D01*
X-2657143Y6823809D01*
X-3038096Y6823809D01*
X-2085715Y7252380D02*
X-2038096Y7300000D01*
X-1942858Y7347619D01*
X-1704762Y7347619D01*
X-1609524Y7300000D01*
X-1561905Y7252380D01*
X-1514286Y7157142D01*
X-1514286Y7061904D01*
X-1561905Y6919047D01*
X-2133334Y6347619D01*
X-1514286Y6347619D01*
X-5747620Y-12866667D02*
X-6223810Y-13200000D01*
X-5747620Y-13438096D02*
X-6747620Y-13438096D01*
X-6747620Y-13057143D01*
X-6700000Y-12961905D01*
X-6652381Y-12914286D01*
X-6557143Y-12866667D01*
X-6414286Y-12866667D01*
X-6319048Y-12914286D01*
X-6271429Y-12961905D01*
X-6223810Y-13057143D01*
X-6223810Y-13438096D01*
X-6747620Y-12533334D02*
X-6747620Y-11914286D01*
X-6366667Y-12247620D01*
X-6366667Y-12104762D01*
X-6319048Y-12009524D01*
X-6271429Y-11961905D01*
X-6176191Y-11914286D01*
X-5938096Y-11914286D01*
X-5842858Y-11961905D01*
X-5795239Y-12009524D01*
X-5747620Y-12104762D01*
X-5747620Y-12390477D01*
X-5795239Y-12485715D01*
X-5842858Y-12533334D01*
X-5747620Y-22166667D02*
X-6223810Y-22500000D01*
X-5747620Y-22738096D02*
X-6747620Y-22738096D01*
X-6747620Y-22357143D01*
X-6700000Y-22261905D01*
X-6652381Y-22214286D01*
X-6557143Y-22166667D01*
X-6414286Y-22166667D01*
X-6319048Y-22214286D01*
X-6271429Y-22261905D01*
X-6223810Y-22357143D01*
X-6223810Y-22738096D01*
X-6414286Y-21309524D02*
X-5747620Y-21309524D01*
X-6795239Y-21547620D02*
X-6080953Y-21785715D01*
X-6080953Y-21166667D01*
X-2466667Y8147619D02*
X-2800000Y8623809D01*
X-3038096Y8147619D02*
X-3038096Y9147619D01*
X-2657143Y9147619D01*
X-2561905Y9100000D01*
X-2514286Y9052380D01*
X-2466667Y8957142D01*
X-2466667Y8814285D01*
X-2514286Y8719047D01*
X-2561905Y8671428D01*
X-2657143Y8623809D01*
X-3038096Y8623809D01*
X-1561905Y9147619D02*
X-2038096Y9147619D01*
X-2085715Y8671428D01*
X-2038096Y8719047D01*
X-1942858Y8766666D01*
X-1704762Y8766666D01*
X-1609524Y8719047D01*
X-1561905Y8671428D01*
X-1514286Y8576190D01*
X-1514286Y8338095D01*
X-1561905Y8242857D01*
X-1609524Y8195238D01*
X-1704762Y8147619D01*
X-1942858Y8147619D01*
X-2038096Y8195238D01*
X-2085715Y8242857D01*
X-7947620Y-12866667D02*
X-8423810Y-13200000D01*
X-7947620Y-13438096D02*
X-8947620Y-13438096D01*
X-8947620Y-13057143D01*
X-8900000Y-12961905D01*
X-8852381Y-12914286D01*
X-8757143Y-12866667D01*
X-8614286Y-12866667D01*
X-8519048Y-12914286D01*
X-8471429Y-12961905D01*
X-8423810Y-13057143D01*
X-8423810Y-13438096D01*
X-8947620Y-12009524D02*
X-8947620Y-12200000D01*
X-8900000Y-12295239D01*
X-8852381Y-12342858D01*
X-8709524Y-12438096D01*
X-8519048Y-12485715D01*
X-8138096Y-12485715D01*
X-8042858Y-12438096D01*
X-7995239Y-12390477D01*
X-7947620Y-12295239D01*
X-7947620Y-12104762D01*
X-7995239Y-12009524D01*
X-8042858Y-11961905D01*
X-8138096Y-11914286D01*
X-8376191Y-11914286D01*
X-8471429Y-11961905D01*
X-8519048Y-12009524D01*
X-8566667Y-12104762D01*
X-8566667Y-12295239D01*
X-8519048Y-12390477D01*
X-8471429Y-12438096D01*
X-8376191Y-12485715D01*
X-7947620Y-22166667D02*
X-8423810Y-22500000D01*
X-7947620Y-22738096D02*
X-8947620Y-22738096D01*
X-8947620Y-22357143D01*
X-8900000Y-22261905D01*
X-8852381Y-22214286D01*
X-8757143Y-22166667D01*
X-8614286Y-22166667D01*
X-8519048Y-22214286D01*
X-8471429Y-22261905D01*
X-8423810Y-22357143D01*
X-8423810Y-22738096D01*
X-8947620Y-21833334D02*
X-8947620Y-21166667D01*
X-7947620Y-21595239D01*
X-17647620Y2333333D02*
X-18123810Y2000000D01*
X-17647620Y1761904D02*
X-18647620Y1761904D01*
X-18647620Y2142857D01*
X-18600000Y2238095D01*
X-18552381Y2285714D01*
X-18457143Y2333333D01*
X-18314286Y2333333D01*
X-18219048Y2285714D01*
X-18171429Y2238095D01*
X-18123810Y2142857D01*
X-18123810Y1761904D01*
X-18219048Y2904761D02*
X-18266667Y2809523D01*
X-18314286Y2761904D01*
X-18409524Y2714285D01*
X-18457143Y2714285D01*
X-18552381Y2761904D01*
X-18600000Y2809523D01*
X-18647620Y2904761D01*
X-18647620Y3095238D01*
X-18600000Y3190476D01*
X-18552381Y3238095D01*
X-18457143Y3285714D01*
X-18409524Y3285714D01*
X-18314286Y3238095D01*
X-18266667Y3190476D01*
X-18219048Y3095238D01*
X-18219048Y2904761D01*
X-18171429Y2809523D01*
X-18123810Y2761904D01*
X-18028572Y2714285D01*
X-17838096Y2714285D01*
X-17742858Y2761904D01*
X-17695239Y2809523D01*
X-17647620Y2904761D01*
X-17647620Y3095238D01*
X-17695239Y3190476D01*
X-17742858Y3238095D01*
X-17838096Y3285714D01*
X-18028572Y3285714D01*
X-18123810Y3238095D01*
X-18171429Y3190476D01*
X-18219048Y3095238D01*
X-15866667Y-1952381D02*
X-16200000Y-1476191D01*
X-16438096Y-1952381D02*
X-16438096Y-952381D01*
X-16057143Y-952381D01*
X-15961905Y-1000000D01*
X-15914286Y-1047620D01*
X-15866667Y-1142858D01*
X-15866667Y-1285715D01*
X-15914286Y-1380953D01*
X-15961905Y-1428572D01*
X-16057143Y-1476191D01*
X-16438096Y-1476191D01*
X-15390477Y-1952381D02*
X-15200000Y-1952381D01*
X-15104762Y-1904762D01*
X-15057143Y-1857143D01*
X-14961905Y-1714286D01*
X-14914286Y-1523810D01*
X-14914286Y-1142858D01*
X-14961905Y-1047620D01*
X-15009524Y-1000000D01*
X-15104762Y-952381D01*
X-15295239Y-952381D01*
X-15390477Y-1000000D01*
X-15438096Y-1047620D01*
X-15485715Y-1142858D01*
X-15485715Y-1380953D01*
X-15438096Y-1476191D01*
X-15390477Y-1523810D01*
X-15295239Y-1571429D01*
X-15104762Y-1571429D01*
X-15009524Y-1523810D01*
X-14961905Y-1476191D01*
X-14914286Y-1380953D01*
D13*
X-21114286Y-9761905D02*
X-21380953Y-9380953D01*
X-21571429Y-9761905D02*
X-21571429Y-8961905D01*
X-21266667Y-8961905D01*
X-21190477Y-9000000D01*
X-21152381Y-9038096D01*
X-21114286Y-9114286D01*
X-21114286Y-9228572D01*
X-21152381Y-9304762D01*
X-21190477Y-9342858D01*
X-21266667Y-9380953D01*
X-21571429Y-9380953D01*
X-20352381Y-9761905D02*
X-20809524Y-9761905D01*
X-20580953Y-9761905D02*
X-20580953Y-8961905D01*
X-20657143Y-9076191D01*
X-20733334Y-9152381D01*
X-20809524Y-9190477D01*
X-19857143Y-8961905D02*
X-19780953Y-8961905D01*
X-19704762Y-9000000D01*
X-19666667Y-9038096D01*
X-19628572Y-9114286D01*
X-19590477Y-9266667D01*
X-19590477Y-9457143D01*
X-19628572Y-9609524D01*
X-19666667Y-9685715D01*
X-19704762Y-9723810D01*
X-19780953Y-9761905D01*
X-19857143Y-9761905D01*
X-19933334Y-9723810D01*
X-19971429Y-9685715D01*
X-20009524Y-9609524D01*
X-20047620Y-9457143D01*
X-20047620Y-9266667D01*
X-20009524Y-9114286D01*
X-19971429Y-9038096D01*
X-19933334Y-9000000D01*
X-19857143Y-8961905D01*
D10*
X10257142Y8147619D02*
X9923809Y8623809D01*
X9685714Y8147619D02*
X9685714Y9147619D01*
X10066666Y9147619D01*
X10161904Y9100000D01*
X10209523Y9052380D01*
X10257142Y8957142D01*
X10257142Y8814285D01*
X10209523Y8719047D01*
X10161904Y8671428D01*
X10066666Y8623809D01*
X9685714Y8623809D01*
X11209523Y8147619D02*
X10638095Y8147619D01*
X10923809Y8147619D02*
X10923809Y9147619D01*
X10828571Y9004761D01*
X10733333Y8909523D01*
X10638095Y8861904D01*
X12161904Y8147619D02*
X11590476Y8147619D01*
X11876190Y8147619D02*
X11876190Y9147619D01*
X11780952Y9004761D01*
X11685714Y8909523D01*
X11590476Y8861904D01*
X10257142Y21547619D02*
X9923809Y22023809D01*
X9685714Y21547619D02*
X9685714Y22547619D01*
X10066666Y22547619D01*
X10161904Y22500000D01*
X10209523Y22452380D01*
X10257142Y22357142D01*
X10257142Y22214285D01*
X10209523Y22119047D01*
X10161904Y22071428D01*
X10066666Y22023809D01*
X9685714Y22023809D01*
X11209523Y21547619D02*
X10638095Y21547619D01*
X10923809Y21547619D02*
X10923809Y22547619D01*
X10828571Y22404761D01*
X10733333Y22309523D01*
X10638095Y22261904D01*
X11590476Y22452380D02*
X11638095Y22500000D01*
X11733333Y22547619D01*
X11971428Y22547619D01*
X12066666Y22500000D01*
X12114285Y22452380D01*
X12161904Y22357142D01*
X12161904Y22261904D01*
X12114285Y22119047D01*
X11542857Y21547619D01*
X12161904Y21547619D01*
X-19342858Y6347619D02*
X-19676191Y6823809D01*
X-19914286Y6347619D02*
X-19914286Y7347619D01*
X-19533334Y7347619D01*
X-19438096Y7300000D01*
X-19390477Y7252380D01*
X-19342858Y7157142D01*
X-19342858Y7014285D01*
X-19390477Y6919047D01*
X-19438096Y6871428D01*
X-19533334Y6823809D01*
X-19914286Y6823809D01*
X-18390477Y6347619D02*
X-18961905Y6347619D01*
X-18676191Y6347619D02*
X-18676191Y7347619D01*
X-18771429Y7204761D01*
X-18866667Y7109523D01*
X-18961905Y7061904D01*
X-18057143Y7347619D02*
X-17438096Y7347619D01*
X-17771429Y6966666D01*
X-17628572Y6966666D01*
X-17533334Y6919047D01*
X-17485715Y6871428D01*
X-17438096Y6776190D01*
X-17438096Y6538095D01*
X-17485715Y6442857D01*
X-17533334Y6395238D01*
X-17628572Y6347619D01*
X-17914286Y6347619D01*
X-18009524Y6395238D01*
X-18057143Y6442857D01*
X-19342858Y8147619D02*
X-19676191Y8623809D01*
X-19914286Y8147619D02*
X-19914286Y9147619D01*
X-19533334Y9147619D01*
X-19438096Y9100000D01*
X-19390477Y9052380D01*
X-19342858Y8957142D01*
X-19342858Y8814285D01*
X-19390477Y8719047D01*
X-19438096Y8671428D01*
X-19533334Y8623809D01*
X-19914286Y8623809D01*
X-18390477Y8147619D02*
X-18961905Y8147619D01*
X-18676191Y8147619D02*
X-18676191Y9147619D01*
X-18771429Y9004761D01*
X-18866667Y8909523D01*
X-18961905Y8861904D01*
X-17533334Y8814285D02*
X-17533334Y8147619D01*
X-17771429Y9195238D02*
X-18009524Y8480952D01*
X-17390477Y8480952D01*
X-14361905Y-13972381D02*
X-14361905Y-14781905D01*
X-14314286Y-14877143D01*
X-14266667Y-14924762D01*
X-14171429Y-14972381D01*
X-13980953Y-14972381D01*
X-13885715Y-14924762D01*
X-13838096Y-14877143D01*
X-13790477Y-14781905D01*
X-13790477Y-13972381D01*
X-12790477Y-14972381D02*
X-13361905Y-14972381D01*
X-13076191Y-14972381D02*
X-13076191Y-13972381D01*
X-13171429Y-14115239D01*
X-13266667Y-14210477D01*
X-13361905Y-14258096D01*
X-22033334Y-22578572D02*
X-22366667Y-22578572D01*
X-22366667Y-23102381D02*
X-22366667Y-22102381D01*
X-21890477Y-22102381D01*
X-20985715Y-23102381D02*
X-21557143Y-23102381D01*
X-21271429Y-23102381D02*
X-21271429Y-22102381D01*
X-21366667Y-22245239D01*
X-21461905Y-22340477D01*
X-21557143Y-22388096D01*
X-16614286Y-11561905D02*
X-16880953Y-11180953D01*
X-17071429Y-11561905D02*
X-17071429Y-10761905D01*
X-16766667Y-10761905D01*
X-16690477Y-10800000D01*
X-16652381Y-10838096D01*
X-16614286Y-10914286D01*
X-16614286Y-11028572D01*
X-16652381Y-11104762D01*
X-16690477Y-11142858D01*
X-16766667Y-11180953D01*
X-17071429Y-11180953D01*
X-15852381Y-11561905D02*
X-16309524Y-11561905D01*
X-16080953Y-11561905D02*
X-16080953Y-10761905D01*
X-16157143Y-10876191D01*
X-16233334Y-10952381D01*
X-16309524Y-10990477D01*
X-15128572Y-10761905D02*
X-15509524Y-10761905D01*
X-15547620Y-11142858D01*
X-15509524Y-11104762D01*
X-15433334Y-11066667D01*
X-15242858Y-11066667D01*
X-15166667Y-11104762D01*
X-15128572Y-11142858D01*
X-15090477Y-11219048D01*
X-15090477Y-11409524D01*
X-15128572Y-11485715D01*
X-15166667Y-11523810D01*
X-15242858Y-11561905D01*
X-15433334Y-11561905D01*
X-15509524Y-11523810D01*
X-15547620Y-11485715D01*
X-11747620Y-10561905D02*
X-10938096Y-10561905D01*
X-10842858Y-10514286D01*
X-10795239Y-10466667D01*
X-10747620Y-10371429D01*
X-10747620Y-10180953D01*
X-10795239Y-10085715D01*
X-10842858Y-10038096D01*
X-10938096Y-9990477D01*
X-11747620Y-9990477D01*
X-11747620Y-9609524D02*
X-11747620Y-8990477D01*
X-11366667Y-9323810D01*
X-11366667Y-9180953D01*
X-11319048Y-9085715D01*
X-11271429Y-9038096D01*
X-11176191Y-8990477D01*
X-10938096Y-8990477D01*
X-10842858Y-9038096D01*
X-10795239Y-9085715D01*
X-10747620Y-9180953D01*
X-10747620Y-9466667D01*
X-10795239Y-9561905D01*
X-10842858Y-9609524D01*
X-27007620Y14916666D02*
X-26293334Y14916666D01*
X-26150477Y14869047D01*
X-26055239Y14773809D01*
X-26007620Y14630952D01*
X-26007620Y14535714D01*
X-26007620Y15916666D02*
X-26007620Y15345238D01*
X-26007620Y15630952D02*
X-27007620Y15630952D01*
X-26864762Y15535714D01*
X-26769524Y15440476D01*
X-26721905Y15345238D01*
X-23607620Y-6466667D02*
X-23607620Y-6942858D01*
X-24607620Y-6942858D01*
X-23607620Y-5609524D02*
X-23607620Y-6180953D01*
X-23607620Y-5895239D02*
X-24607620Y-5895239D01*
X-24464762Y-5990477D01*
X-24369524Y-6085715D01*
X-24321905Y-6180953D01*
X-10942858Y-5657143D02*
X-10990477Y-5704762D01*
X-11133334Y-5752381D01*
X-11228572Y-5752381D01*
X-11371429Y-5704762D01*
X-11466667Y-5609524D01*
X-11514286Y-5514286D01*
X-11561905Y-5323810D01*
X-11561905Y-5180953D01*
X-11514286Y-4990477D01*
X-11466667Y-4895239D01*
X-11371429Y-4800000D01*
X-11228572Y-4752381D01*
X-11133334Y-4752381D01*
X-10990477Y-4800000D01*
X-10942858Y-4847620D01*
X-9990477Y-5752381D02*
X-10561905Y-5752381D01*
X-10276191Y-5752381D02*
X-10276191Y-4752381D01*
X-10371429Y-4895239D01*
X-10466667Y-4990477D01*
X-10561905Y-5038096D01*
X-9371429Y-4752381D02*
X-9276191Y-4752381D01*
X-9180953Y-4800000D01*
X-9133334Y-4847620D01*
X-9085715Y-4942858D01*
X-9038096Y-5133334D01*
X-9038096Y-5371429D01*
X-9085715Y-5561905D01*
X-9133334Y-5657143D01*
X-9180953Y-5704762D01*
X-9276191Y-5752381D01*
X-9371429Y-5752381D01*
X-9466667Y-5704762D01*
X-9514286Y-5657143D01*
X-9561905Y-5561905D01*
X-9609524Y-5371429D01*
X-9609524Y-5133334D01*
X-9561905Y-4942858D01*
X-9514286Y-4847620D01*
X-9466667Y-4800000D01*
X-9371429Y-4752381D01*
X-23895620Y-16061905D02*
X-23895620Y-15490477D01*
X-22895620Y-15776191D02*
X-23895620Y-15776191D01*
X-22895620Y-15157143D02*
X-23895620Y-15157143D01*
X-23895620Y-14776191D01*
X-23848000Y-14680953D01*
X-23800381Y-14633334D01*
X-23705143Y-14585715D01*
X-23562286Y-14585715D01*
X-23467048Y-14633334D01*
X-23419429Y-14680953D01*
X-23371810Y-14776191D01*
X-23371810Y-15157143D01*
X-22895620Y-13633334D02*
X-22895620Y-14204762D01*
X-22895620Y-13919048D02*
X-23895620Y-13919048D01*
X-23752762Y-14014286D01*
X-23657524Y-14109524D01*
X-23609905Y-14204762D01*
X-26395620Y-16061905D02*
X-26395620Y-15490477D01*
X-25395620Y-15776191D02*
X-26395620Y-15776191D01*
X-25395620Y-15157143D02*
X-26395620Y-15157143D01*
X-26395620Y-14776191D01*
X-26348000Y-14680953D01*
X-26300381Y-14633334D01*
X-26205143Y-14585715D01*
X-26062286Y-14585715D01*
X-25967048Y-14633334D01*
X-25919429Y-14680953D01*
X-25871810Y-14776191D01*
X-25871810Y-15157143D01*
X-26300381Y-14204762D02*
X-26348000Y-14157143D01*
X-26395620Y-14061905D01*
X-26395620Y-13823810D01*
X-26348000Y-13728572D01*
X-26300381Y-13680953D01*
X-26205143Y-13633334D01*
X-26109905Y-13633334D01*
X-25967048Y-13680953D01*
X-25395620Y-14252381D01*
X-25395620Y-13633334D01*
X-21695620Y2438095D02*
X-21695620Y3009523D01*
X-20695620Y2723809D02*
X-21695620Y2723809D01*
X-20695620Y3342857D02*
X-21695620Y3342857D01*
X-21695620Y3723809D01*
X-21648000Y3819047D01*
X-21600381Y3866666D01*
X-21505143Y3914285D01*
X-21362286Y3914285D01*
X-21267048Y3866666D01*
X-21219429Y3819047D01*
X-21171810Y3723809D01*
X-21171810Y3342857D01*
X-21695620Y4247619D02*
X-21695620Y4866666D01*
X-21314667Y4533333D01*
X-21314667Y4676190D01*
X-21267048Y4771428D01*
X-21219429Y4819047D01*
X-21124191Y4866666D01*
X-20886096Y4866666D01*
X-20790858Y4819047D01*
X-20743239Y4771428D01*
X-20695620Y4676190D01*
X-20695620Y4390476D01*
X-20743239Y4295238D01*
X-20790858Y4247619D01*
X-29495620Y1638095D02*
X-29495620Y2209523D01*
X-28495620Y1923809D02*
X-29495620Y1923809D01*
X-28495620Y2542857D02*
X-29495620Y2542857D01*
X-29495620Y2923809D01*
X-29448000Y3019047D01*
X-29400381Y3066666D01*
X-29305143Y3114285D01*
X-29162286Y3114285D01*
X-29067048Y3066666D01*
X-29019429Y3019047D01*
X-28971810Y2923809D01*
X-28971810Y2542857D01*
X-29162286Y3971428D02*
X-28495620Y3971428D01*
X-29543239Y3733333D02*
X-28828953Y3495238D01*
X-28828953Y4114285D01*
M02*
