M48
; DRILL file {KiCad 5.1.6-c6e7f7d~86~ubuntu18.04.1} date Thu Jul 16 01:51:32 2020
; FORMAT={-:-/ absolute / metric / decimal}
; #@! TF.CreationDate,2020-07-16T01:51:32+09:00
; #@! TF.GenerationSoftware,Kicad,Pcbnew,5.1.6-c6e7f7d~86~ubuntu18.04.1
; #@! TF.FileFunction,Plated,1,2,PTH
FMAT,2
METRIC
T1C0.300
T2C0.400
T3C0.500
T4C1.000
%
G90
G05
T1
X-22.1Y-5.8
X-22.1Y-6.8
X-21.6Y-6.3
X-21.1Y-5.8
X-21.1Y-6.8
T2
X-32.7Y12.0
X-32.6Y-17.5
X-32.526Y-20.013
X-32.5Y20.0
X-32.5Y3.5
X-32.5Y0.0
X-32.5Y-5.0
X-32.5Y-10.0
X-32.5Y-12.5
X-32.5Y-15.0
X-31.5Y6.0
X-30.5Y1.5
X-30.5Y0.0
X-30.5Y-3.0
X-30.5Y-5.0
X-30.5Y-10.0
X-30.5Y-12.5
X-29.0Y3.5
X-28.5Y0.0
X-28.5Y-3.0
X-28.5Y-10.0
X-28.5Y-12.5
X-27.8Y7.4
X-27.5Y25.0
X-27.5Y20.0
X-27.5Y-25.0
X-27.3Y9.5
X-26.5Y5.8
X-25.9Y3.4
X-25.9Y2.4
X-25.9Y1.0
X-25.9Y0.0
X-25.9Y-1.4
X-25.9Y-2.4
X-25.4Y-9.8
X-25.4Y-10.8
X-25.4Y-11.8
X-25.4Y-12.8
X-25.0Y5.9
X-24.7Y-5.3
X-24.7Y-6.3
X-24.7Y-7.3
X-23.9Y-5.7
X-23.9Y-6.9
X-23.6Y9.82
X-23.5Y4.5
X-22.8Y15.3
X-22.7Y7.5
X-22.5Y-25.0
X-20.4Y-22.6
X-19.5Y-4.9
X-19.5Y-5.9
X-19.5Y-6.9
X-19.5Y-7.9
X-19.1Y20.5
X-18.6Y-6.4
X-18.6Y-7.4
X-17.8Y20.1
X-17.8Y-13.5
X-17.8Y-14.5
X-17.8Y-18.9
X-17.8Y-22.4
X-17.5Y25.0
X-17.5Y10.0
X-17.5Y-17.3
X-17.5Y-25.0
X-17.2Y-1.5
X-16.2Y-20.7
X-15.8Y5.4
X-15.3Y13.4
X-15.3Y-13.9
X-15.0Y4.5
X-13.9Y10.0
X-13.6Y-19.5
X-13.5Y5.5
X-13.0Y2.5
X-13.0Y-0.5
X-12.7Y15.3
X-12.5Y-25.0
X-12.4Y-12.5
X-12.4Y-19.6
X-12.3Y-5.3
X-12.2Y-2.1
X-11.5Y6.8
X-11.5Y5.5
X-11.5Y2.5
X-11.5Y-0.5
X-11.5Y-11.2
X-11.5Y-15.4
X-11.4Y-8.8
X-11.3Y-6.4
X-11.3Y-16.4
X-11.1Y-4.0
X-11.0Y10.0
X-9.9Y21.4
X-9.9Y-19.0
X-9.6Y-20.3
X-9.5Y-8.8
X-9.5Y-11.5
X-9.5Y-14.1
X-9.0Y6.8
X-8.9Y15.2
X-8.5Y5.5
X-8.5Y3.0
X-8.5Y0.5
X-8.5Y-2.5
X-8.5Y-5.5
X-8.4Y-13.8
X-7.6Y19.7
X-7.5Y10.0
X-7.5Y-25.0
X-7.3Y-13.9
X-7.3Y-20.3
X-6.5Y5.5
X-6.3Y20.1
X-6.1Y21.4
X-4.9Y-13.9
X-4.9Y-16.9
X-4.9Y-20.3
X-4.8Y-18.8
X-4.5Y4.0
X-3.8Y10.1
X-2.5Y25.0
X-2.5Y4.0
X-2.5Y-25.0
X-1.5Y10.0
X-1.3Y21.2
X-0.5Y6.0
X1.0Y10.0
X1.0Y7.5
X2.2Y20.7
X2.5Y-25.0
X4.0Y10.0
X4.0Y7.5
X5.2Y23.2
X5.2Y20.7
X6.4Y15.2
X6.4Y10.0
X6.5Y7.5
X7.5Y25.0
X7.5Y-25.0
X7.8Y20.7
X9.9Y20.7
X10.0Y10.0
X10.0Y7.5
X11.4Y20.7
X12.5Y25.0
X12.5Y-25.0
X16.5Y20.7
X17.5Y25.0
X17.5Y-25.0
X22.5Y25.0
X22.5Y-25.0
X24.1Y15.4
X24.2Y10.1
X27.5Y25.0
X27.5Y20.0
X27.5Y-20.0
X27.5Y-25.0
X32.5Y20.0
X32.5Y15.0
X32.5Y10.0
X32.5Y5.0
X32.5Y0.0
X32.5Y-5.0
X32.5Y-10.0
X32.5Y-15.0
X32.5Y-20.0
T3
X-27.5Y2.9
X-24.4Y-14.8
X-21.9Y-14.8
X-19.7Y3.7
T4
X-30.4Y-17.9
X-27.86Y-17.9
T0
M30
