G04 #@! TF.GenerationSoftware,KiCad,Pcbnew,(5.0.0)*
G04 #@! TF.CreationDate,2020-06-08T02:19:36+09:00*
G04 #@! TF.ProjectId,WioTerminal_BatteryChassisAAA,57696F5465726D696E616C5F42617474,rev?*
G04 #@! TF.SameCoordinates,PX206cc80PYfe6f74f0*
G04 #@! TF.FileFunction,Copper,L2,Bot,Signal*
G04 #@! TF.FilePolarity,Positive*
%FSLAX46Y46*%
G04 Gerber Fmt 4.6, Leading zero omitted, Abs format (unit mm)*
G04 Created by KiCad (PCBNEW (5.0.0)) date 06/08/20 02:19:36*
%MOMM*%
%LPD*%
G01*
G04 APERTURE LIST*
G04 #@! TA.AperFunction,ComponentPad*
%ADD10C,1.700000*%
G04 #@! TD*
G04 #@! TA.AperFunction,ComponentPad*
%ADD11O,1.700000X1.700000*%
G04 #@! TD*
G04 #@! TA.AperFunction,ComponentPad*
%ADD12C,0.600000*%
G04 #@! TD*
G04 #@! TA.AperFunction,Conductor*
%ADD13R,2.300000X2.300000*%
G04 #@! TD*
G04 #@! TA.AperFunction,SMDPad,CuDef*
%ADD14R,1.600000X1.000000*%
G04 #@! TD*
G04 #@! TA.AperFunction,Conductor*
%ADD15C,0.100000*%
G04 #@! TD*
G04 #@! TA.AperFunction,SMDPad,CuDef*
%ADD16C,0.875000*%
G04 #@! TD*
G04 #@! TA.AperFunction,SMDPad,CuDef*
%ADD17R,1.000000X3.400000*%
G04 #@! TD*
G04 #@! TA.AperFunction,SMDPad,CuDef*
%ADD18R,1.500000X3.600000*%
G04 #@! TD*
G04 #@! TA.AperFunction,ViaPad*
%ADD19C,0.800000*%
G04 #@! TD*
G04 #@! TA.AperFunction,Conductor*
%ADD20C,0.300000*%
G04 #@! TD*
G04 #@! TA.AperFunction,Conductor*
%ADD21C,0.250000*%
G04 #@! TD*
G04 #@! TA.AperFunction,Conductor*
%ADD22C,0.200000*%
G04 #@! TD*
G04 #@! TA.AperFunction,Conductor*
%ADD23C,0.400000*%
G04 #@! TD*
G04 APERTURE END LIST*
D10*
G04 #@! TO.P,J2,1*
G04 #@! TO.N,Net-(F1-Pad2)*
X-30540000Y-14800000D03*
D11*
G04 #@! TO.P,J2,2*
G04 #@! TO.N,GND*
X-28000000Y-14800000D03*
G04 #@! TD*
D12*
G04 #@! TO.P,U2,11*
G04 #@! TO.N,GND*
X-21600000Y-6300000D03*
X-22100000Y-6800000D03*
X-22100000Y-5800000D03*
X-21100000Y-6800000D03*
X-21100000Y-5800000D03*
D13*
G04 #@! TD*
G04 #@! TO.N,GND*
G04 #@! TO.C,U2*
X-21600000Y-6301000D03*
D14*
G04 #@! TO.P,SW1,1*
G04 #@! TO.N,Net-(SW1-Pad1)*
X-28800000Y9500000D03*
G04 #@! TO.P,SW1,2*
G04 #@! TO.N,Net-(C1-Pad1)*
X-28800000Y12000000D03*
G04 #@! TO.P,SW1,3*
G04 #@! TO.N,Net-(R15-Pad2)*
X-28800000Y14500000D03*
X-31200000Y14500000D03*
G04 #@! TO.P,SW1,1*
G04 #@! TO.N,Net-(SW1-Pad1)*
X-31200000Y9500000D03*
G04 #@! TO.P,SW1,2*
G04 #@! TO.N,Net-(C1-Pad1)*
X-31200000Y12000000D03*
G04 #@! TD*
D15*
G04 #@! TO.N,GND*
G04 #@! TO.C,C12*
G36*
X-5547309Y13473947D02*
X-5526074Y13470797D01*
X-5505250Y13465581D01*
X-5485038Y13458349D01*
X-5465632Y13449170D01*
X-5447219Y13438134D01*
X-5429976Y13425346D01*
X-5414070Y13410930D01*
X-5399654Y13395024D01*
X-5386866Y13377781D01*
X-5375830Y13359368D01*
X-5366651Y13339962D01*
X-5359419Y13319750D01*
X-5354203Y13298926D01*
X-5351053Y13277691D01*
X-5350000Y13256250D01*
X-5350000Y12743750D01*
X-5351053Y12722309D01*
X-5354203Y12701074D01*
X-5359419Y12680250D01*
X-5366651Y12660038D01*
X-5375830Y12640632D01*
X-5386866Y12622219D01*
X-5399654Y12604976D01*
X-5414070Y12589070D01*
X-5429976Y12574654D01*
X-5447219Y12561866D01*
X-5465632Y12550830D01*
X-5485038Y12541651D01*
X-5505250Y12534419D01*
X-5526074Y12529203D01*
X-5547309Y12526053D01*
X-5568750Y12525000D01*
X-6006250Y12525000D01*
X-6027691Y12526053D01*
X-6048926Y12529203D01*
X-6069750Y12534419D01*
X-6089962Y12541651D01*
X-6109368Y12550830D01*
X-6127781Y12561866D01*
X-6145024Y12574654D01*
X-6160930Y12589070D01*
X-6175346Y12604976D01*
X-6188134Y12622219D01*
X-6199170Y12640632D01*
X-6208349Y12660038D01*
X-6215581Y12680250D01*
X-6220797Y12701074D01*
X-6223947Y12722309D01*
X-6225000Y12743750D01*
X-6225000Y13256250D01*
X-6223947Y13277691D01*
X-6220797Y13298926D01*
X-6215581Y13319750D01*
X-6208349Y13339962D01*
X-6199170Y13359368D01*
X-6188134Y13377781D01*
X-6175346Y13395024D01*
X-6160930Y13410930D01*
X-6145024Y13425346D01*
X-6127781Y13438134D01*
X-6109368Y13449170D01*
X-6089962Y13458349D01*
X-6069750Y13465581D01*
X-6048926Y13470797D01*
X-6027691Y13473947D01*
X-6006250Y13475000D01*
X-5568750Y13475000D01*
X-5547309Y13473947D01*
X-5547309Y13473947D01*
G37*
D16*
G04 #@! TD*
G04 #@! TO.P,C12,2*
G04 #@! TO.N,GND*
X-5787500Y13000000D03*
D15*
G04 #@! TO.N,+3V3*
G04 #@! TO.C,C12*
G36*
X-3972309Y13473947D02*
X-3951074Y13470797D01*
X-3930250Y13465581D01*
X-3910038Y13458349D01*
X-3890632Y13449170D01*
X-3872219Y13438134D01*
X-3854976Y13425346D01*
X-3839070Y13410930D01*
X-3824654Y13395024D01*
X-3811866Y13377781D01*
X-3800830Y13359368D01*
X-3791651Y13339962D01*
X-3784419Y13319750D01*
X-3779203Y13298926D01*
X-3776053Y13277691D01*
X-3775000Y13256250D01*
X-3775000Y12743750D01*
X-3776053Y12722309D01*
X-3779203Y12701074D01*
X-3784419Y12680250D01*
X-3791651Y12660038D01*
X-3800830Y12640632D01*
X-3811866Y12622219D01*
X-3824654Y12604976D01*
X-3839070Y12589070D01*
X-3854976Y12574654D01*
X-3872219Y12561866D01*
X-3890632Y12550830D01*
X-3910038Y12541651D01*
X-3930250Y12534419D01*
X-3951074Y12529203D01*
X-3972309Y12526053D01*
X-3993750Y12525000D01*
X-4431250Y12525000D01*
X-4452691Y12526053D01*
X-4473926Y12529203D01*
X-4494750Y12534419D01*
X-4514962Y12541651D01*
X-4534368Y12550830D01*
X-4552781Y12561866D01*
X-4570024Y12574654D01*
X-4585930Y12589070D01*
X-4600346Y12604976D01*
X-4613134Y12622219D01*
X-4624170Y12640632D01*
X-4633349Y12660038D01*
X-4640581Y12680250D01*
X-4645797Y12701074D01*
X-4648947Y12722309D01*
X-4650000Y12743750D01*
X-4650000Y13256250D01*
X-4648947Y13277691D01*
X-4645797Y13298926D01*
X-4640581Y13319750D01*
X-4633349Y13339962D01*
X-4624170Y13359368D01*
X-4613134Y13377781D01*
X-4600346Y13395024D01*
X-4585930Y13410930D01*
X-4570024Y13425346D01*
X-4552781Y13438134D01*
X-4534368Y13449170D01*
X-4514962Y13458349D01*
X-4494750Y13465581D01*
X-4473926Y13470797D01*
X-4452691Y13473947D01*
X-4431250Y13475000D01*
X-3993750Y13475000D01*
X-3972309Y13473947D01*
X-3972309Y13473947D01*
G37*
D16*
G04 #@! TD*
G04 #@! TO.P,C12,1*
G04 #@! TO.N,+3V3*
X-4212500Y13000000D03*
D15*
G04 #@! TO.N,+3V3*
G04 #@! TO.C,C13*
G36*
X-18059809Y13473947D02*
X-18038574Y13470797D01*
X-18017750Y13465581D01*
X-17997538Y13458349D01*
X-17978132Y13449170D01*
X-17959719Y13438134D01*
X-17942476Y13425346D01*
X-17926570Y13410930D01*
X-17912154Y13395024D01*
X-17899366Y13377781D01*
X-17888330Y13359368D01*
X-17879151Y13339962D01*
X-17871919Y13319750D01*
X-17866703Y13298926D01*
X-17863553Y13277691D01*
X-17862500Y13256250D01*
X-17862500Y12743750D01*
X-17863553Y12722309D01*
X-17866703Y12701074D01*
X-17871919Y12680250D01*
X-17879151Y12660038D01*
X-17888330Y12640632D01*
X-17899366Y12622219D01*
X-17912154Y12604976D01*
X-17926570Y12589070D01*
X-17942476Y12574654D01*
X-17959719Y12561866D01*
X-17978132Y12550830D01*
X-17997538Y12541651D01*
X-18017750Y12534419D01*
X-18038574Y12529203D01*
X-18059809Y12526053D01*
X-18081250Y12525000D01*
X-18518750Y12525000D01*
X-18540191Y12526053D01*
X-18561426Y12529203D01*
X-18582250Y12534419D01*
X-18602462Y12541651D01*
X-18621868Y12550830D01*
X-18640281Y12561866D01*
X-18657524Y12574654D01*
X-18673430Y12589070D01*
X-18687846Y12604976D01*
X-18700634Y12622219D01*
X-18711670Y12640632D01*
X-18720849Y12660038D01*
X-18728081Y12680250D01*
X-18733297Y12701074D01*
X-18736447Y12722309D01*
X-18737500Y12743750D01*
X-18737500Y13256250D01*
X-18736447Y13277691D01*
X-18733297Y13298926D01*
X-18728081Y13319750D01*
X-18720849Y13339962D01*
X-18711670Y13359368D01*
X-18700634Y13377781D01*
X-18687846Y13395024D01*
X-18673430Y13410930D01*
X-18657524Y13425346D01*
X-18640281Y13438134D01*
X-18621868Y13449170D01*
X-18602462Y13458349D01*
X-18582250Y13465581D01*
X-18561426Y13470797D01*
X-18540191Y13473947D01*
X-18518750Y13475000D01*
X-18081250Y13475000D01*
X-18059809Y13473947D01*
X-18059809Y13473947D01*
G37*
D16*
G04 #@! TD*
G04 #@! TO.P,C13,1*
G04 #@! TO.N,+3V3*
X-18300000Y13000000D03*
D15*
G04 #@! TO.N,GND*
G04 #@! TO.C,C13*
G36*
X-19634809Y13473947D02*
X-19613574Y13470797D01*
X-19592750Y13465581D01*
X-19572538Y13458349D01*
X-19553132Y13449170D01*
X-19534719Y13438134D01*
X-19517476Y13425346D01*
X-19501570Y13410930D01*
X-19487154Y13395024D01*
X-19474366Y13377781D01*
X-19463330Y13359368D01*
X-19454151Y13339962D01*
X-19446919Y13319750D01*
X-19441703Y13298926D01*
X-19438553Y13277691D01*
X-19437500Y13256250D01*
X-19437500Y12743750D01*
X-19438553Y12722309D01*
X-19441703Y12701074D01*
X-19446919Y12680250D01*
X-19454151Y12660038D01*
X-19463330Y12640632D01*
X-19474366Y12622219D01*
X-19487154Y12604976D01*
X-19501570Y12589070D01*
X-19517476Y12574654D01*
X-19534719Y12561866D01*
X-19553132Y12550830D01*
X-19572538Y12541651D01*
X-19592750Y12534419D01*
X-19613574Y12529203D01*
X-19634809Y12526053D01*
X-19656250Y12525000D01*
X-20093750Y12525000D01*
X-20115191Y12526053D01*
X-20136426Y12529203D01*
X-20157250Y12534419D01*
X-20177462Y12541651D01*
X-20196868Y12550830D01*
X-20215281Y12561866D01*
X-20232524Y12574654D01*
X-20248430Y12589070D01*
X-20262846Y12604976D01*
X-20275634Y12622219D01*
X-20286670Y12640632D01*
X-20295849Y12660038D01*
X-20303081Y12680250D01*
X-20308297Y12701074D01*
X-20311447Y12722309D01*
X-20312500Y12743750D01*
X-20312500Y13256250D01*
X-20311447Y13277691D01*
X-20308297Y13298926D01*
X-20303081Y13319750D01*
X-20295849Y13339962D01*
X-20286670Y13359368D01*
X-20275634Y13377781D01*
X-20262846Y13395024D01*
X-20248430Y13410930D01*
X-20232524Y13425346D01*
X-20215281Y13438134D01*
X-20196868Y13449170D01*
X-20177462Y13458349D01*
X-20157250Y13465581D01*
X-20136426Y13470797D01*
X-20115191Y13473947D01*
X-20093750Y13475000D01*
X-19656250Y13475000D01*
X-19634809Y13473947D01*
X-19634809Y13473947D01*
G37*
D16*
G04 #@! TD*
G04 #@! TO.P,C13,2*
G04 #@! TO.N,GND*
X-19875000Y13000000D03*
D17*
G04 #@! TO.P,J3,1*
G04 #@! TO.N,/TXD*
X0Y16300000D03*
G04 #@! TO.P,J3,2*
G04 #@! TO.N,/RXD*
X-2000000Y16300000D03*
G04 #@! TO.P,J3,3*
G04 #@! TO.N,+3V3*
X-4000000Y16300000D03*
G04 #@! TO.P,J3,4*
G04 #@! TO.N,GND*
X-6000000Y16300000D03*
D18*
G04 #@! TO.P,J3,*
G04 #@! TO.N,*
X-8300000Y23800000D03*
X2300000Y23800000D03*
G04 #@! TD*
G04 #@! TO.P,J4,*
G04 #@! TO.N,*
X-11700000Y23800000D03*
X-22300000Y23800000D03*
D17*
G04 #@! TO.P,J4,4*
G04 #@! TO.N,GND*
X-20000000Y16300000D03*
G04 #@! TO.P,J4,3*
G04 #@! TO.N,+3V3*
X-18000000Y16300000D03*
G04 #@! TO.P,J4,2*
G04 #@! TO.N,/I2C1_SCL*
X-16000000Y16300000D03*
G04 #@! TO.P,J4,1*
G04 #@! TO.N,/I2C1_SDA*
X-14000000Y16300000D03*
G04 #@! TD*
D19*
G04 #@! TO.N,Net-(C1-Pad1)*
X-32700000Y12000000D03*
G04 #@! TO.N,GND*
X-25900000Y-1400000D03*
X-17200000Y-1500000D03*
X-19500000Y-7900000D03*
X-23900000Y-6900000D03*
X-23900000Y-5700000D03*
X-24700000Y-6300000D03*
X-24700000Y-7300000D03*
X-24700000Y-5300000D03*
X-19500000Y-5900000D03*
X-19500000Y-6900000D03*
X-18600000Y-6400000D03*
X-18600000Y-7400000D03*
X-19500000Y-4900000D03*
X-25900000Y-2400000D03*
X-25900000Y0D03*
X-25900000Y1000000D03*
X-25900000Y2400000D03*
X-25900000Y3400000D03*
X-25400000Y-9800000D03*
X-25400000Y-10800000D03*
X-25400000Y-11800000D03*
X-25400000Y-12800000D03*
X-17800000Y-13500000D03*
X-17800000Y-14500000D03*
X-12300000Y-5300000D03*
X-11300000Y-6400000D03*
X-11100000Y-4000000D03*
X-12400000Y-12500000D03*
X-11500000Y-11200000D03*
X-12200000Y-2100000D03*
X27500000Y-25000000D03*
X22500000Y-25000000D03*
X17500000Y-25000000D03*
X12500000Y-25000000D03*
X7500000Y-25000000D03*
X2500000Y-25000000D03*
X-2500000Y-25000000D03*
X27500000Y-20000000D03*
X32500000Y-20000000D03*
X32500000Y-15000000D03*
X32500000Y-10000000D03*
X32500000Y-5000000D03*
X32500000Y0D03*
X32500000Y10000000D03*
X32500000Y15000000D03*
X32500000Y20000000D03*
X27500000Y20000000D03*
X27500000Y25000000D03*
X22500000Y25000000D03*
X17500000Y25000000D03*
X12500000Y25000000D03*
X7500000Y25000000D03*
X-2500000Y25000000D03*
X-17500000Y25000000D03*
X-27500000Y25000000D03*
X-27500000Y20000000D03*
X-32500000Y20000000D03*
X32500000Y5000000D03*
X-7500000Y-25000000D03*
X-12500000Y-25000000D03*
X-17500000Y-25000000D03*
X-22500000Y-25000000D03*
X-27500000Y-25000000D03*
X-32500000Y-20000000D03*
X-32500000Y-15000000D03*
X-32500000Y-10000000D03*
X-32500000Y-5000000D03*
X-32500000Y0D03*
X-8500000Y5500000D03*
X-6500000Y5500000D03*
X-8500000Y500000D03*
X-8500000Y3000000D03*
X-8500000Y-2500000D03*
X-8500000Y-5500000D03*
X-9500000Y-9000000D03*
X-9500000Y-11500000D03*
X-11000000Y-18000000D03*
X-15000000Y-17500000D03*
X-18000000Y-17500000D03*
X-19000000Y-20500000D03*
X-20500000Y-22000000D03*
X-25000000Y-22000000D03*
X-28000000Y-22000000D03*
X-32500000Y-17500000D03*
X-32500000Y-12500000D03*
X-30500000Y-12500000D03*
X-28500000Y-12500000D03*
X-28500000Y-10000000D03*
X-30500000Y-10000000D03*
X-30500000Y-5000000D03*
X-28500000Y-3000000D03*
X-30500000Y-3000000D03*
X-30500000Y0D03*
X-28500000Y0D03*
X-30500000Y1500000D03*
X-32500000Y3500000D03*
X-31500000Y6000000D03*
X-29000000Y3500000D03*
X-13000000Y-500000D03*
X-13000000Y2500000D03*
X-15000000Y4500000D03*
X-4500000Y4000000D03*
X-2500000Y4000000D03*
X-500000Y6000000D03*
X1000000Y7500000D03*
X4000000Y7500000D03*
X6500000Y7500000D03*
X10000000Y7500000D03*
X10000000Y10000000D03*
X6400000Y10000000D03*
X4000000Y10000000D03*
X1000000Y10000000D03*
X-1500000Y10000000D03*
X-7500000Y10000000D03*
X-13900000Y10000000D03*
X-11000000Y10000000D03*
X-17500000Y10000000D03*
X-11500000Y5500000D03*
X-13500000Y5500000D03*
X-23500000Y4500000D03*
X-15800000Y5400000D03*
X-26500000Y5800000D03*
X-27800000Y7400000D03*
X-17800000Y20100000D03*
X-9900000Y21400000D03*
X-6100000Y21400000D03*
X-1300000Y21200000D03*
X2200000Y20700000D03*
X5200000Y20700000D03*
X7800000Y20700000D03*
X9900000Y20700000D03*
X5200000Y23200000D03*
X-11500000Y2500000D03*
X-11500000Y-500000D03*
X-19100000Y20500000D03*
X-22800000Y15300000D03*
X-8900000Y15200000D03*
X6400000Y15200000D03*
X11400000Y20700000D03*
X16500000Y20700000D03*
X24200000Y10100000D03*
X24100000Y15400000D03*
G04 #@! TO.N,/SDA*
X-9600000Y-7800000D03*
X-11500000Y-7600000D03*
X-9000000Y6800000D03*
X-11500000Y6800000D03*
G04 #@! TO.N,+3V3*
X-12000000Y-17000000D03*
X-9400000Y-14300000D03*
X-23600000Y9820000D03*
X-3800000Y10100000D03*
G04 #@! TO.N,Net-(R15-Pad2)*
X-22700000Y7500000D03*
X-25000000Y5900000D03*
X-27300000Y14500000D03*
G04 #@! TO.N,/I2C1_SDA*
X-12700000Y15300000D03*
G04 #@! TO.N,/I2C1_SCL*
X-15300000Y13400000D03*
G04 #@! TO.N,/TXD*
X-6300000Y20100000D03*
G04 #@! TO.N,/RXD*
X-7600000Y19700000D03*
G04 #@! TD*
D20*
G04 #@! TO.N,Net-(C1-Pad1)*
X-32700000Y12000000D02*
X-31200000Y12000000D01*
X-31200000Y12000000D02*
X-28800000Y12000000D01*
D21*
G04 #@! TO.N,/SDA*
X-9600000Y-7800000D02*
X-11300000Y-7800000D01*
X-11300000Y-7800000D02*
X-11500000Y-7600000D01*
X-9000000Y6800000D02*
X-11500000Y6800000D01*
D22*
G04 #@! TO.N,+3V3*
X-12000000Y-17000000D02*
X-9400000Y-14400000D01*
X-9400000Y-14400000D02*
X-9400000Y-14300000D01*
D23*
X-18300000Y11600000D02*
X-18300000Y13000000D01*
X-23600000Y9820000D02*
X-20080000Y9820000D01*
X-20080000Y9820000D02*
X-18300000Y11600000D01*
X-18300000Y13800000D02*
X-18300000Y13000000D01*
X-18000000Y16300000D02*
X-18000000Y14100000D01*
X-18000000Y14100000D02*
X-18300000Y13800000D01*
X-4212500Y10512500D02*
X-4212500Y13000000D01*
X-3800000Y10100000D02*
X-4212500Y10512500D01*
X-4212500Y13575000D02*
X-4200000Y13587500D01*
X-4212500Y13000000D02*
X-4212500Y13575000D01*
X-4200000Y13587500D02*
X-4200000Y13900000D01*
X-4000000Y14100000D02*
X-4000000Y16300000D01*
X-4200000Y13900000D02*
X-4000000Y14100000D01*
D20*
G04 #@! TO.N,Net-(R15-Pad2)*
X-22700000Y7500000D02*
X-23400000Y7500000D01*
X-23400000Y7500000D02*
X-25000000Y5900000D01*
X-27300000Y14500000D02*
X-28800000Y14500000D01*
X-28800000Y14500000D02*
X-31200000Y14500000D01*
D22*
G04 #@! TO.N,/I2C1_SDA*
X-12700000Y14734315D02*
X-13034315Y14400000D01*
X-12700000Y15300000D02*
X-12700000Y14734315D01*
X-14000000Y15100000D02*
X-14000000Y16300000D01*
X-13300000Y14400000D02*
X-14000000Y15100000D01*
X-13034315Y14400000D02*
X-13300000Y14400000D01*
G04 #@! TO.N,/I2C1_SCL*
X-16000000Y16300000D02*
X-16000000Y15000000D01*
X-16000000Y15000000D02*
X-15300000Y14300000D01*
X-15300000Y14300000D02*
X-15300000Y13400000D01*
D21*
G04 #@! TO.N,/TXD*
X0Y16300000D02*
X0Y18600000D01*
X-1500000Y20100000D02*
X-6300000Y20100000D01*
X0Y18600000D02*
X-1500000Y20100000D01*
G04 #@! TO.N,/RXD*
X-2000000Y18700000D02*
X-2000000Y18250000D01*
X-2000000Y18250000D02*
X-2000000Y16300000D01*
X-2600001Y19300001D02*
X-2000000Y18700000D01*
X-7200001Y19300001D02*
X-2600001Y19300001D01*
X-7600000Y19700000D02*
X-7200001Y19300001D01*
G04 #@! TD*
D22*
G04 #@! TO.N,GND*
G36*
X-23266288Y25816288D02*
X-23332593Y25717054D01*
X-23355877Y25600000D01*
X-23355877Y22000000D01*
X-23332593Y21882946D01*
X-23266288Y21783712D01*
X-23167054Y21717407D01*
X-23050000Y21694123D01*
X-21550000Y21694123D01*
X-21432946Y21717407D01*
X-21333712Y21783712D01*
X-21267407Y21882946D01*
X-21244123Y22000000D01*
X-21244123Y25600000D01*
X-21267407Y25717054D01*
X-21333712Y25816288D01*
X-21421582Y25875000D01*
X-12578418Y25875000D01*
X-12666288Y25816288D01*
X-12732593Y25717054D01*
X-12755877Y25600000D01*
X-12755877Y22000000D01*
X-12732593Y21882946D01*
X-12666288Y21783712D01*
X-12567054Y21717407D01*
X-12450000Y21694123D01*
X-10950000Y21694123D01*
X-10832946Y21717407D01*
X-10733712Y21783712D01*
X-10667407Y21882946D01*
X-10644123Y22000000D01*
X-10644123Y25600000D01*
X-10667407Y25717054D01*
X-10733712Y25816288D01*
X-10821582Y25875000D01*
X-9178418Y25875000D01*
X-9266288Y25816288D01*
X-9332593Y25717054D01*
X-9355877Y25600000D01*
X-9355877Y22000000D01*
X-9332593Y21882946D01*
X-9266288Y21783712D01*
X-9167054Y21717407D01*
X-9050000Y21694123D01*
X-7550000Y21694123D01*
X-7432946Y21717407D01*
X-7333712Y21783712D01*
X-7267407Y21882946D01*
X-7244123Y22000000D01*
X-7244123Y25600000D01*
X-7267407Y25717054D01*
X-7333712Y25816288D01*
X-7421582Y25875000D01*
X1421582Y25875000D01*
X1333712Y25816288D01*
X1267407Y25717054D01*
X1244123Y25600000D01*
X1244123Y22000000D01*
X1267407Y21882946D01*
X1333712Y21783712D01*
X1432946Y21717407D01*
X1550000Y21694123D01*
X3050000Y21694123D01*
X3167054Y21717407D01*
X3266288Y21783712D01*
X3332593Y21882946D01*
X3355877Y22000000D01*
X3355877Y23028477D01*
X29100000Y23028477D01*
X29100000Y22471523D01*
X29313137Y21956963D01*
X29706963Y21563137D01*
X30221523Y21350000D01*
X30778477Y21350000D01*
X31293037Y21563137D01*
X31686863Y21956963D01*
X31900000Y22471523D01*
X31900000Y23028477D01*
X31686863Y23543037D01*
X31293037Y23936863D01*
X30778477Y24150000D01*
X30221523Y24150000D01*
X29706963Y23936863D01*
X29313137Y23543037D01*
X29100000Y23028477D01*
X3355877Y23028477D01*
X3355877Y25600000D01*
X3332593Y25717054D01*
X3266288Y25816288D01*
X3178418Y25875000D01*
X30479687Y25875000D01*
X31170577Y25799945D01*
X31809861Y25584802D01*
X32388040Y25237398D01*
X32878127Y24773945D01*
X33257263Y24216063D01*
X33507757Y23589783D01*
X33620403Y22909348D01*
X33625001Y22744721D01*
X33625000Y-22729687D01*
X33549945Y-23420577D01*
X33334802Y-24059861D01*
X32987400Y-24638037D01*
X32523947Y-25128126D01*
X31966063Y-25507263D01*
X31339780Y-25757759D01*
X30659348Y-25870403D01*
X30494757Y-25875000D01*
X-30479687Y-25875000D01*
X-31170577Y-25799945D01*
X-31809861Y-25584802D01*
X-32388037Y-25237400D01*
X-32878126Y-24773947D01*
X-33257263Y-24216063D01*
X-33507759Y-23589780D01*
X-33620403Y-22909348D01*
X-33625000Y-22744757D01*
X-33625000Y-22471523D01*
X-31900000Y-22471523D01*
X-31900000Y-23028477D01*
X-31686863Y-23543037D01*
X-31293037Y-23936863D01*
X-30778477Y-24150000D01*
X-30221523Y-24150000D01*
X-29706963Y-23936863D01*
X-29313137Y-23543037D01*
X-29100000Y-23028477D01*
X-29100000Y-22471523D01*
X29100000Y-22471523D01*
X29100000Y-23028477D01*
X29313137Y-23543037D01*
X29706963Y-23936863D01*
X30221523Y-24150000D01*
X30778477Y-24150000D01*
X31293037Y-23936863D01*
X31686863Y-23543037D01*
X31900000Y-23028477D01*
X31900000Y-22471523D01*
X31686863Y-21956963D01*
X31293037Y-21563137D01*
X30778477Y-21350000D01*
X30221523Y-21350000D01*
X29706963Y-21563137D01*
X29313137Y-21956963D01*
X29100000Y-22471523D01*
X-29100000Y-22471523D01*
X-29313137Y-21956963D01*
X-29706963Y-21563137D01*
X-30221523Y-21350000D01*
X-30778477Y-21350000D01*
X-31293037Y-21563137D01*
X-31686863Y-21956963D01*
X-31900000Y-22471523D01*
X-33625000Y-22471523D01*
X-33625000Y-16860761D01*
X-12700000Y-16860761D01*
X-12700000Y-17139239D01*
X-12593432Y-17396518D01*
X-12396518Y-17593432D01*
X-12139239Y-17700000D01*
X-11860761Y-17700000D01*
X-11603482Y-17593432D01*
X-11406568Y-17396518D01*
X-11300000Y-17139239D01*
X-11300000Y-16865684D01*
X-9434314Y-15000000D01*
X-9260761Y-15000000D01*
X-9003482Y-14893432D01*
X-8806568Y-14696518D01*
X-8700000Y-14439239D01*
X-8700000Y-14160761D01*
X-8806568Y-13903482D01*
X-9003482Y-13706568D01*
X-9260761Y-13600000D01*
X-9539239Y-13600000D01*
X-9796518Y-13706568D01*
X-9993432Y-13903482D01*
X-10100000Y-14160761D01*
X-10100000Y-14439239D01*
X-10072153Y-14506467D01*
X-11865684Y-16300000D01*
X-12139239Y-16300000D01*
X-12396518Y-16406568D01*
X-12593432Y-16603482D01*
X-12700000Y-16860761D01*
X-33625000Y-16860761D01*
X-33625000Y-14571251D01*
X-31690000Y-14571251D01*
X-31690000Y-15028749D01*
X-31514923Y-15451423D01*
X-31191423Y-15774923D01*
X-30768749Y-15950000D01*
X-30311251Y-15950000D01*
X-29888577Y-15774923D01*
X-29565077Y-15451423D01*
X-29390000Y-15028749D01*
X-29390000Y-14571251D01*
X-29565077Y-14148577D01*
X-29888577Y-13825077D01*
X-30311251Y-13650000D01*
X-30768749Y-13650000D01*
X-31191423Y-13825077D01*
X-31514923Y-14148577D01*
X-31690000Y-14571251D01*
X-33625000Y-14571251D01*
X-33625000Y-7460761D01*
X-12200000Y-7460761D01*
X-12200000Y-7739239D01*
X-12093432Y-7996518D01*
X-11896518Y-8193432D01*
X-11639239Y-8300000D01*
X-11360761Y-8300000D01*
X-11179694Y-8225000D01*
X-10164950Y-8225000D01*
X-9996518Y-8393432D01*
X-9739239Y-8500000D01*
X-9460761Y-8500000D01*
X-9203482Y-8393432D01*
X-9006568Y-8196518D01*
X-8900000Y-7939239D01*
X-8900000Y-7660761D01*
X-9006568Y-7403482D01*
X-9203482Y-7206568D01*
X-9460761Y-7100000D01*
X-9739239Y-7100000D01*
X-9996518Y-7206568D01*
X-10164950Y-7375000D01*
X-10835523Y-7375000D01*
X-10906568Y-7203482D01*
X-11103482Y-7006568D01*
X-11360761Y-6900000D01*
X-11639239Y-6900000D01*
X-11896518Y-7006568D01*
X-12093432Y-7203482D01*
X-12200000Y-7460761D01*
X-33625000Y-7460761D01*
X-33625000Y6039239D01*
X-25700000Y6039239D01*
X-25700000Y5760761D01*
X-25593432Y5503482D01*
X-25396518Y5306568D01*
X-25139239Y5200000D01*
X-24860761Y5200000D01*
X-24603482Y5306568D01*
X-24406568Y5503482D01*
X-24300000Y5760761D01*
X-24300000Y5963605D01*
X-23226777Y7036827D01*
X-23096518Y6906568D01*
X-22839239Y6800000D01*
X-22560761Y6800000D01*
X-22303482Y6906568D01*
X-22270811Y6939239D01*
X-12200000Y6939239D01*
X-12200000Y6660761D01*
X-12093432Y6403482D01*
X-11896518Y6206568D01*
X-11639239Y6100000D01*
X-11360761Y6100000D01*
X-11103482Y6206568D01*
X-10935050Y6375000D01*
X-9564950Y6375000D01*
X-9396518Y6206568D01*
X-9139239Y6100000D01*
X-8860761Y6100000D01*
X-8603482Y6206568D01*
X-8406568Y6403482D01*
X-8300000Y6660761D01*
X-8300000Y6939239D01*
X-8406568Y7196518D01*
X-8603482Y7393432D01*
X-8860761Y7500000D01*
X-9139239Y7500000D01*
X-9396518Y7393432D01*
X-9564950Y7225000D01*
X-10935050Y7225000D01*
X-11103482Y7393432D01*
X-11360761Y7500000D01*
X-11639239Y7500000D01*
X-11896518Y7393432D01*
X-12093432Y7196518D01*
X-12200000Y6939239D01*
X-22270811Y6939239D01*
X-22106568Y7103482D01*
X-22000000Y7360761D01*
X-22000000Y7639239D01*
X-22106568Y7896518D01*
X-22303482Y8093432D01*
X-22560761Y8200000D01*
X-22839239Y8200000D01*
X-23096518Y8093432D01*
X-23239950Y7950000D01*
X-23355680Y7950000D01*
X-23400000Y7958816D01*
X-23444320Y7950000D01*
X-23444321Y7950000D01*
X-23575581Y7923891D01*
X-23724432Y7824432D01*
X-23749538Y7786857D01*
X-24936395Y6600000D01*
X-25139239Y6600000D01*
X-25396518Y6493432D01*
X-25593432Y6296518D01*
X-25700000Y6039239D01*
X-33625000Y6039239D01*
X-33625000Y10000000D01*
X-32305877Y10000000D01*
X-32305877Y9000000D01*
X-32282593Y8882946D01*
X-32216288Y8783712D01*
X-32117054Y8717407D01*
X-32000000Y8694123D01*
X-30750000Y8694123D01*
X-30750000Y8450816D01*
X-30635819Y8175159D01*
X-30424841Y7964181D01*
X-30149184Y7850000D01*
X-29850816Y7850000D01*
X-29575159Y7964181D01*
X-29364181Y8175159D01*
X-29250000Y8450816D01*
X-29250000Y8694123D01*
X-28000000Y8694123D01*
X-27882946Y8717407D01*
X-27783712Y8783712D01*
X-27717407Y8882946D01*
X-27694123Y9000000D01*
X-27694123Y9959239D01*
X-24300000Y9959239D01*
X-24300000Y9680761D01*
X-24193432Y9423482D01*
X-23996518Y9226568D01*
X-23739239Y9120000D01*
X-23460761Y9120000D01*
X-23203482Y9226568D01*
X-23110050Y9320000D01*
X-20129241Y9320000D01*
X-20080000Y9310205D01*
X-20030759Y9320000D01*
X-20030757Y9320000D01*
X-19884910Y9349011D01*
X-19719520Y9459520D01*
X-19691624Y9501270D01*
X-17981267Y11211626D01*
X-17939520Y11239520D01*
X-17829011Y11404910D01*
X-17800000Y11550757D01*
X-17800000Y11550758D01*
X-17790205Y11599999D01*
X-17800000Y11649240D01*
X-17800000Y12312836D01*
X-17710283Y12372783D01*
X-17596558Y12542984D01*
X-17556623Y12743750D01*
X-17556623Y13256250D01*
X-17596558Y13457016D01*
X-17710283Y13627217D01*
X-17743489Y13649405D01*
X-17681271Y13711623D01*
X-17639520Y13739520D01*
X-17529011Y13904910D01*
X-17500000Y14050757D01*
X-17500000Y14050758D01*
X-17490205Y14099999D01*
X-17500000Y14149241D01*
X-17500000Y14294123D01*
X-17382946Y14317407D01*
X-17283712Y14383712D01*
X-17217407Y14482946D01*
X-17194123Y14600000D01*
X-17194123Y18000000D01*
X-16805877Y18000000D01*
X-16805877Y14600000D01*
X-16782593Y14482946D01*
X-16716288Y14383712D01*
X-16617054Y14317407D01*
X-16500000Y14294123D01*
X-15859808Y14294123D01*
X-15700000Y14134314D01*
X-15700000Y13989950D01*
X-15893432Y13796518D01*
X-16000000Y13539239D01*
X-16000000Y13260761D01*
X-15893432Y13003482D01*
X-15696518Y12806568D01*
X-15439239Y12700000D01*
X-15160761Y12700000D01*
X-14903482Y12806568D01*
X-14706568Y13003482D01*
X-14601869Y13256250D01*
X-4955877Y13256250D01*
X-4955877Y12743750D01*
X-4915942Y12542984D01*
X-4802217Y12372783D01*
X-4712499Y12312835D01*
X-4712500Y10561741D01*
X-4722295Y10512500D01*
X-4712500Y10463259D01*
X-4712500Y10463258D01*
X-4683489Y10317411D01*
X-4572980Y10152020D01*
X-4531230Y10124124D01*
X-4500000Y10092894D01*
X-4500000Y9960761D01*
X-4393432Y9703482D01*
X-4196518Y9506568D01*
X-3939239Y9400000D01*
X-3660761Y9400000D01*
X-3403482Y9506568D01*
X-3206568Y9703482D01*
X-3100000Y9960761D01*
X-3100000Y10239239D01*
X-3206568Y10496518D01*
X-3403482Y10693432D01*
X-3660761Y10800000D01*
X-3712500Y10800000D01*
X-3712500Y12312836D01*
X-3622783Y12372783D01*
X-3509058Y12542984D01*
X-3469123Y12743750D01*
X-3469123Y13256250D01*
X-3509058Y13457016D01*
X-3622783Y13627217D01*
X-3700000Y13678812D01*
X-3700000Y13692894D01*
X-3681270Y13711624D01*
X-3639520Y13739520D01*
X-3529011Y13904910D01*
X-3500000Y14050757D01*
X-3500000Y14050758D01*
X-3490205Y14100000D01*
X-3500000Y14149243D01*
X-3500000Y14294123D01*
X-3382946Y14317407D01*
X-3283712Y14383712D01*
X-3217407Y14482946D01*
X-3194123Y14600000D01*
X-3194123Y18000000D01*
X-3217407Y18117054D01*
X-3283712Y18216288D01*
X-3382946Y18282593D01*
X-3500000Y18305877D01*
X-4500000Y18305877D01*
X-4617054Y18282593D01*
X-4716288Y18216288D01*
X-4782593Y18117054D01*
X-4805877Y18000000D01*
X-4805877Y14600000D01*
X-4782593Y14482946D01*
X-4716288Y14383712D01*
X-4617054Y14317407D01*
X-4510829Y14296277D01*
X-4518731Y14288375D01*
X-4560479Y14260480D01*
X-4670988Y14095090D01*
X-4694702Y13975873D01*
X-4709795Y13900000D01*
X-4700000Y13850759D01*
X-4700000Y13695516D01*
X-4802217Y13627217D01*
X-4915942Y13457016D01*
X-4955877Y13256250D01*
X-14601869Y13256250D01*
X-14600000Y13260761D01*
X-14600000Y13539239D01*
X-14706568Y13796518D01*
X-14900000Y13989950D01*
X-14900000Y14260608D01*
X-14892164Y14300001D01*
X-14900000Y14339394D01*
X-14923209Y14456072D01*
X-15011616Y14588384D01*
X-15045013Y14610698D01*
X-15194123Y14759808D01*
X-15194123Y18000000D01*
X-14805877Y18000000D01*
X-14805877Y14600000D01*
X-14782593Y14482946D01*
X-14716288Y14383712D01*
X-14617054Y14317407D01*
X-14500000Y14294123D01*
X-13759808Y14294123D01*
X-13610699Y14145013D01*
X-13588384Y14111616D01*
X-13456072Y14023209D01*
X-13339394Y14000000D01*
X-13300001Y13992164D01*
X-13260608Y14000000D01*
X-13073709Y14000000D01*
X-13034315Y13992164D01*
X-12994921Y14000000D01*
X-12878243Y14023209D01*
X-12745931Y14111616D01*
X-12723613Y14145018D01*
X-12445016Y14423614D01*
X-12411616Y14445931D01*
X-12323209Y14578243D01*
X-12300000Y14694921D01*
X-12296243Y14713807D01*
X-12106568Y14903482D01*
X-12000000Y15160761D01*
X-12000000Y15439239D01*
X-12106568Y15696518D01*
X-12303482Y15893432D01*
X-12560761Y16000000D01*
X-12839239Y16000000D01*
X-13096518Y15893432D01*
X-13194123Y15795827D01*
X-13194123Y18000000D01*
X-13217407Y18117054D01*
X-13283712Y18216288D01*
X-13382946Y18282593D01*
X-13500000Y18305877D01*
X-14500000Y18305877D01*
X-14617054Y18282593D01*
X-14716288Y18216288D01*
X-14782593Y18117054D01*
X-14805877Y18000000D01*
X-15194123Y18000000D01*
X-15217407Y18117054D01*
X-15283712Y18216288D01*
X-15382946Y18282593D01*
X-15500000Y18305877D01*
X-16500000Y18305877D01*
X-16617054Y18282593D01*
X-16716288Y18216288D01*
X-16782593Y18117054D01*
X-16805877Y18000000D01*
X-17194123Y18000000D01*
X-17217407Y18117054D01*
X-17283712Y18216288D01*
X-17382946Y18282593D01*
X-17500000Y18305877D01*
X-18500000Y18305877D01*
X-18617054Y18282593D01*
X-18716288Y18216288D01*
X-18782593Y18117054D01*
X-18805877Y18000000D01*
X-18805877Y14600000D01*
X-18782593Y14482946D01*
X-18716288Y14383712D01*
X-18617054Y14317407D01*
X-18510829Y14296277D01*
X-18618729Y14188377D01*
X-18660480Y14160480D01*
X-18770989Y13995089D01*
X-18791150Y13893733D01*
X-18809795Y13800000D01*
X-18800000Y13750758D01*
X-18800000Y13687164D01*
X-18889717Y13627217D01*
X-19003442Y13457016D01*
X-19043377Y13256250D01*
X-19043377Y12743750D01*
X-19003442Y12542984D01*
X-18889717Y12372783D01*
X-18799999Y12312836D01*
X-18800000Y11807107D01*
X-20287106Y10320000D01*
X-23110050Y10320000D01*
X-23203482Y10413432D01*
X-23460761Y10520000D01*
X-23739239Y10520000D01*
X-23996518Y10413432D01*
X-24193432Y10216518D01*
X-24300000Y9959239D01*
X-27694123Y9959239D01*
X-27694123Y10000000D01*
X-27717407Y10117054D01*
X-27783712Y10216288D01*
X-27882946Y10282593D01*
X-28000000Y10305877D01*
X-29600000Y10305877D01*
X-29717054Y10282593D01*
X-29816288Y10216288D01*
X-29882593Y10117054D01*
X-29905877Y10000000D01*
X-29905877Y9350000D01*
X-30094123Y9350000D01*
X-30094123Y10000000D01*
X-30117407Y10117054D01*
X-30183712Y10216288D01*
X-30282946Y10282593D01*
X-30400000Y10305877D01*
X-32000000Y10305877D01*
X-32117054Y10282593D01*
X-32216288Y10216288D01*
X-32282593Y10117054D01*
X-32305877Y10000000D01*
X-33625000Y10000000D01*
X-33625000Y12139239D01*
X-33400000Y12139239D01*
X-33400000Y11860761D01*
X-33293432Y11603482D01*
X-33096518Y11406568D01*
X-32839239Y11300000D01*
X-32560761Y11300000D01*
X-32303482Y11406568D01*
X-32289978Y11420072D01*
X-32282593Y11382946D01*
X-32216288Y11283712D01*
X-32117054Y11217407D01*
X-32000000Y11194123D01*
X-30400000Y11194123D01*
X-30282946Y11217407D01*
X-30183712Y11283712D01*
X-30117407Y11382946D01*
X-30094123Y11500000D01*
X-30094123Y11550000D01*
X-29905877Y11550000D01*
X-29905877Y11500000D01*
X-29882593Y11382946D01*
X-29816288Y11283712D01*
X-29717054Y11217407D01*
X-29600000Y11194123D01*
X-28000000Y11194123D01*
X-27882946Y11217407D01*
X-27783712Y11283712D01*
X-27717407Y11382946D01*
X-27694123Y11500000D01*
X-27694123Y12500000D01*
X-27717407Y12617054D01*
X-27783712Y12716288D01*
X-27882946Y12782593D01*
X-28000000Y12805877D01*
X-29600000Y12805877D01*
X-29717054Y12782593D01*
X-29816288Y12716288D01*
X-29882593Y12617054D01*
X-29905877Y12500000D01*
X-29905877Y12450000D01*
X-30094123Y12450000D01*
X-30094123Y12500000D01*
X-30117407Y12617054D01*
X-30183712Y12716288D01*
X-30282946Y12782593D01*
X-30400000Y12805877D01*
X-32000000Y12805877D01*
X-32117054Y12782593D01*
X-32216288Y12716288D01*
X-32282593Y12617054D01*
X-32289978Y12579928D01*
X-32303482Y12593432D01*
X-32560761Y12700000D01*
X-32839239Y12700000D01*
X-33096518Y12593432D01*
X-33293432Y12396518D01*
X-33400000Y12139239D01*
X-33625000Y12139239D01*
X-33625000Y15000000D01*
X-32305877Y15000000D01*
X-32305877Y14000000D01*
X-32282593Y13882946D01*
X-32216288Y13783712D01*
X-32117054Y13717407D01*
X-32000000Y13694123D01*
X-30400000Y13694123D01*
X-30282946Y13717407D01*
X-30183712Y13783712D01*
X-30117407Y13882946D01*
X-30094123Y14000000D01*
X-30094123Y14050000D01*
X-29905877Y14050000D01*
X-29905877Y14000000D01*
X-29882593Y13882946D01*
X-29816288Y13783712D01*
X-29717054Y13717407D01*
X-29600000Y13694123D01*
X-28000000Y13694123D01*
X-27882946Y13717407D01*
X-27783712Y13783712D01*
X-27717407Y13882946D01*
X-27710022Y13920072D01*
X-27696518Y13906568D01*
X-27439239Y13800000D01*
X-27160761Y13800000D01*
X-26903482Y13906568D01*
X-26706568Y14103482D01*
X-26600000Y14360761D01*
X-26600000Y14639239D01*
X-26706568Y14896518D01*
X-26903482Y15093432D01*
X-27160761Y15200000D01*
X-27439239Y15200000D01*
X-27696518Y15093432D01*
X-27710022Y15079928D01*
X-27717407Y15117054D01*
X-27783712Y15216288D01*
X-27882946Y15282593D01*
X-28000000Y15305877D01*
X-29250000Y15305877D01*
X-29250000Y15549184D01*
X-29364181Y15824841D01*
X-29575159Y16035819D01*
X-29850816Y16150000D01*
X-30149184Y16150000D01*
X-30424841Y16035819D01*
X-30635819Y15824841D01*
X-30750000Y15549184D01*
X-30750000Y15305877D01*
X-32000000Y15305877D01*
X-32117054Y15282593D01*
X-32216288Y15216288D01*
X-32282593Y15117054D01*
X-32305877Y15000000D01*
X-33625000Y15000000D01*
X-33625000Y19839239D01*
X-8300000Y19839239D01*
X-8300000Y19560761D01*
X-8193432Y19303482D01*
X-7996518Y19106568D01*
X-7739239Y19000000D01*
X-7510690Y19000000D01*
X-7506409Y18993593D01*
X-7470924Y18969883D01*
X-7365828Y18899660D01*
X-7200002Y18866675D01*
X-7158144Y18875001D01*
X-2776041Y18875001D01*
X-2425000Y18523960D01*
X-2424999Y18305877D01*
X-2500000Y18305877D01*
X-2617054Y18282593D01*
X-2716288Y18216288D01*
X-2782593Y18117054D01*
X-2805877Y18000000D01*
X-2805877Y14600000D01*
X-2782593Y14482946D01*
X-2716288Y14383712D01*
X-2617054Y14317407D01*
X-2500000Y14294123D01*
X-1500000Y14294123D01*
X-1382946Y14317407D01*
X-1283712Y14383712D01*
X-1217407Y14482946D01*
X-1194123Y14600000D01*
X-1194123Y18000000D01*
X-1217407Y18117054D01*
X-1283712Y18216288D01*
X-1382946Y18282593D01*
X-1500000Y18305877D01*
X-1575000Y18305877D01*
X-1575000Y18658143D01*
X-1566674Y18700000D01*
X-1599659Y18865827D01*
X-1605789Y18875001D01*
X-1693592Y19006408D01*
X-1729080Y19030120D01*
X-2269880Y19570920D01*
X-2293593Y19606409D01*
X-2396247Y19675000D01*
X-1676040Y19675000D01*
X-424999Y18423958D01*
X-424999Y18305877D01*
X-500000Y18305877D01*
X-617054Y18282593D01*
X-716288Y18216288D01*
X-782593Y18117054D01*
X-805877Y18000000D01*
X-805877Y14600000D01*
X-782593Y14482946D01*
X-716288Y14383712D01*
X-617054Y14317407D01*
X-500000Y14294123D01*
X500000Y14294123D01*
X617054Y14317407D01*
X716288Y14383712D01*
X782593Y14482946D01*
X805877Y14600000D01*
X805877Y18000000D01*
X782593Y18117054D01*
X716288Y18216288D01*
X617054Y18282593D01*
X500000Y18305877D01*
X425000Y18305877D01*
X425000Y18558145D01*
X433326Y18600001D01*
X425000Y18641858D01*
X400341Y18765827D01*
X306408Y18906408D01*
X270922Y18930119D01*
X-1169879Y20370919D01*
X-1193592Y20406408D01*
X-1334173Y20500341D01*
X-1458142Y20525000D01*
X-1458143Y20525000D01*
X-1500000Y20533326D01*
X-1541857Y20525000D01*
X-5735050Y20525000D01*
X-5903482Y20693432D01*
X-6160761Y20800000D01*
X-6439239Y20800000D01*
X-6696518Y20693432D01*
X-6893432Y20496518D01*
X-7000000Y20239239D01*
X-7000000Y20080661D01*
X-7006568Y20096518D01*
X-7203482Y20293432D01*
X-7460761Y20400000D01*
X-7739239Y20400000D01*
X-7996518Y20293432D01*
X-8193432Y20096518D01*
X-8300000Y19839239D01*
X-33625000Y19839239D01*
X-33625000Y22729687D01*
X-33592541Y23028477D01*
X-31900000Y23028477D01*
X-31900000Y22471523D01*
X-31686863Y21956963D01*
X-31293037Y21563137D01*
X-30778477Y21350000D01*
X-30221523Y21350000D01*
X-29706963Y21563137D01*
X-29313137Y21956963D01*
X-29100000Y22471523D01*
X-29100000Y23028477D01*
X-29313137Y23543037D01*
X-29706963Y23936863D01*
X-30221523Y24150000D01*
X-30778477Y24150000D01*
X-31293037Y23936863D01*
X-31686863Y23543037D01*
X-31900000Y23028477D01*
X-33592541Y23028477D01*
X-33549945Y23420577D01*
X-33334802Y24059861D01*
X-32987398Y24638040D01*
X-32523945Y25128127D01*
X-31966063Y25507263D01*
X-31339783Y25757757D01*
X-30659348Y25870403D01*
X-30494757Y25875000D01*
X-23178418Y25875000D01*
X-23266288Y25816288D01*
X-23266288Y25816288D01*
G37*
X-23266288Y25816288D02*
X-23332593Y25717054D01*
X-23355877Y25600000D01*
X-23355877Y22000000D01*
X-23332593Y21882946D01*
X-23266288Y21783712D01*
X-23167054Y21717407D01*
X-23050000Y21694123D01*
X-21550000Y21694123D01*
X-21432946Y21717407D01*
X-21333712Y21783712D01*
X-21267407Y21882946D01*
X-21244123Y22000000D01*
X-21244123Y25600000D01*
X-21267407Y25717054D01*
X-21333712Y25816288D01*
X-21421582Y25875000D01*
X-12578418Y25875000D01*
X-12666288Y25816288D01*
X-12732593Y25717054D01*
X-12755877Y25600000D01*
X-12755877Y22000000D01*
X-12732593Y21882946D01*
X-12666288Y21783712D01*
X-12567054Y21717407D01*
X-12450000Y21694123D01*
X-10950000Y21694123D01*
X-10832946Y21717407D01*
X-10733712Y21783712D01*
X-10667407Y21882946D01*
X-10644123Y22000000D01*
X-10644123Y25600000D01*
X-10667407Y25717054D01*
X-10733712Y25816288D01*
X-10821582Y25875000D01*
X-9178418Y25875000D01*
X-9266288Y25816288D01*
X-9332593Y25717054D01*
X-9355877Y25600000D01*
X-9355877Y22000000D01*
X-9332593Y21882946D01*
X-9266288Y21783712D01*
X-9167054Y21717407D01*
X-9050000Y21694123D01*
X-7550000Y21694123D01*
X-7432946Y21717407D01*
X-7333712Y21783712D01*
X-7267407Y21882946D01*
X-7244123Y22000000D01*
X-7244123Y25600000D01*
X-7267407Y25717054D01*
X-7333712Y25816288D01*
X-7421582Y25875000D01*
X1421582Y25875000D01*
X1333712Y25816288D01*
X1267407Y25717054D01*
X1244123Y25600000D01*
X1244123Y22000000D01*
X1267407Y21882946D01*
X1333712Y21783712D01*
X1432946Y21717407D01*
X1550000Y21694123D01*
X3050000Y21694123D01*
X3167054Y21717407D01*
X3266288Y21783712D01*
X3332593Y21882946D01*
X3355877Y22000000D01*
X3355877Y23028477D01*
X29100000Y23028477D01*
X29100000Y22471523D01*
X29313137Y21956963D01*
X29706963Y21563137D01*
X30221523Y21350000D01*
X30778477Y21350000D01*
X31293037Y21563137D01*
X31686863Y21956963D01*
X31900000Y22471523D01*
X31900000Y23028477D01*
X31686863Y23543037D01*
X31293037Y23936863D01*
X30778477Y24150000D01*
X30221523Y24150000D01*
X29706963Y23936863D01*
X29313137Y23543037D01*
X29100000Y23028477D01*
X3355877Y23028477D01*
X3355877Y25600000D01*
X3332593Y25717054D01*
X3266288Y25816288D01*
X3178418Y25875000D01*
X30479687Y25875000D01*
X31170577Y25799945D01*
X31809861Y25584802D01*
X32388040Y25237398D01*
X32878127Y24773945D01*
X33257263Y24216063D01*
X33507757Y23589783D01*
X33620403Y22909348D01*
X33625001Y22744721D01*
X33625000Y-22729687D01*
X33549945Y-23420577D01*
X33334802Y-24059861D01*
X32987400Y-24638037D01*
X32523947Y-25128126D01*
X31966063Y-25507263D01*
X31339780Y-25757759D01*
X30659348Y-25870403D01*
X30494757Y-25875000D01*
X-30479687Y-25875000D01*
X-31170577Y-25799945D01*
X-31809861Y-25584802D01*
X-32388037Y-25237400D01*
X-32878126Y-24773947D01*
X-33257263Y-24216063D01*
X-33507759Y-23589780D01*
X-33620403Y-22909348D01*
X-33625000Y-22744757D01*
X-33625000Y-22471523D01*
X-31900000Y-22471523D01*
X-31900000Y-23028477D01*
X-31686863Y-23543037D01*
X-31293037Y-23936863D01*
X-30778477Y-24150000D01*
X-30221523Y-24150000D01*
X-29706963Y-23936863D01*
X-29313137Y-23543037D01*
X-29100000Y-23028477D01*
X-29100000Y-22471523D01*
X29100000Y-22471523D01*
X29100000Y-23028477D01*
X29313137Y-23543037D01*
X29706963Y-23936863D01*
X30221523Y-24150000D01*
X30778477Y-24150000D01*
X31293037Y-23936863D01*
X31686863Y-23543037D01*
X31900000Y-23028477D01*
X31900000Y-22471523D01*
X31686863Y-21956963D01*
X31293037Y-21563137D01*
X30778477Y-21350000D01*
X30221523Y-21350000D01*
X29706963Y-21563137D01*
X29313137Y-21956963D01*
X29100000Y-22471523D01*
X-29100000Y-22471523D01*
X-29313137Y-21956963D01*
X-29706963Y-21563137D01*
X-30221523Y-21350000D01*
X-30778477Y-21350000D01*
X-31293037Y-21563137D01*
X-31686863Y-21956963D01*
X-31900000Y-22471523D01*
X-33625000Y-22471523D01*
X-33625000Y-16860761D01*
X-12700000Y-16860761D01*
X-12700000Y-17139239D01*
X-12593432Y-17396518D01*
X-12396518Y-17593432D01*
X-12139239Y-17700000D01*
X-11860761Y-17700000D01*
X-11603482Y-17593432D01*
X-11406568Y-17396518D01*
X-11300000Y-17139239D01*
X-11300000Y-16865684D01*
X-9434314Y-15000000D01*
X-9260761Y-15000000D01*
X-9003482Y-14893432D01*
X-8806568Y-14696518D01*
X-8700000Y-14439239D01*
X-8700000Y-14160761D01*
X-8806568Y-13903482D01*
X-9003482Y-13706568D01*
X-9260761Y-13600000D01*
X-9539239Y-13600000D01*
X-9796518Y-13706568D01*
X-9993432Y-13903482D01*
X-10100000Y-14160761D01*
X-10100000Y-14439239D01*
X-10072153Y-14506467D01*
X-11865684Y-16300000D01*
X-12139239Y-16300000D01*
X-12396518Y-16406568D01*
X-12593432Y-16603482D01*
X-12700000Y-16860761D01*
X-33625000Y-16860761D01*
X-33625000Y-14571251D01*
X-31690000Y-14571251D01*
X-31690000Y-15028749D01*
X-31514923Y-15451423D01*
X-31191423Y-15774923D01*
X-30768749Y-15950000D01*
X-30311251Y-15950000D01*
X-29888577Y-15774923D01*
X-29565077Y-15451423D01*
X-29390000Y-15028749D01*
X-29390000Y-14571251D01*
X-29565077Y-14148577D01*
X-29888577Y-13825077D01*
X-30311251Y-13650000D01*
X-30768749Y-13650000D01*
X-31191423Y-13825077D01*
X-31514923Y-14148577D01*
X-31690000Y-14571251D01*
X-33625000Y-14571251D01*
X-33625000Y-7460761D01*
X-12200000Y-7460761D01*
X-12200000Y-7739239D01*
X-12093432Y-7996518D01*
X-11896518Y-8193432D01*
X-11639239Y-8300000D01*
X-11360761Y-8300000D01*
X-11179694Y-8225000D01*
X-10164950Y-8225000D01*
X-9996518Y-8393432D01*
X-9739239Y-8500000D01*
X-9460761Y-8500000D01*
X-9203482Y-8393432D01*
X-9006568Y-8196518D01*
X-8900000Y-7939239D01*
X-8900000Y-7660761D01*
X-9006568Y-7403482D01*
X-9203482Y-7206568D01*
X-9460761Y-7100000D01*
X-9739239Y-7100000D01*
X-9996518Y-7206568D01*
X-10164950Y-7375000D01*
X-10835523Y-7375000D01*
X-10906568Y-7203482D01*
X-11103482Y-7006568D01*
X-11360761Y-6900000D01*
X-11639239Y-6900000D01*
X-11896518Y-7006568D01*
X-12093432Y-7203482D01*
X-12200000Y-7460761D01*
X-33625000Y-7460761D01*
X-33625000Y6039239D01*
X-25700000Y6039239D01*
X-25700000Y5760761D01*
X-25593432Y5503482D01*
X-25396518Y5306568D01*
X-25139239Y5200000D01*
X-24860761Y5200000D01*
X-24603482Y5306568D01*
X-24406568Y5503482D01*
X-24300000Y5760761D01*
X-24300000Y5963605D01*
X-23226777Y7036827D01*
X-23096518Y6906568D01*
X-22839239Y6800000D01*
X-22560761Y6800000D01*
X-22303482Y6906568D01*
X-22270811Y6939239D01*
X-12200000Y6939239D01*
X-12200000Y6660761D01*
X-12093432Y6403482D01*
X-11896518Y6206568D01*
X-11639239Y6100000D01*
X-11360761Y6100000D01*
X-11103482Y6206568D01*
X-10935050Y6375000D01*
X-9564950Y6375000D01*
X-9396518Y6206568D01*
X-9139239Y6100000D01*
X-8860761Y6100000D01*
X-8603482Y6206568D01*
X-8406568Y6403482D01*
X-8300000Y6660761D01*
X-8300000Y6939239D01*
X-8406568Y7196518D01*
X-8603482Y7393432D01*
X-8860761Y7500000D01*
X-9139239Y7500000D01*
X-9396518Y7393432D01*
X-9564950Y7225000D01*
X-10935050Y7225000D01*
X-11103482Y7393432D01*
X-11360761Y7500000D01*
X-11639239Y7500000D01*
X-11896518Y7393432D01*
X-12093432Y7196518D01*
X-12200000Y6939239D01*
X-22270811Y6939239D01*
X-22106568Y7103482D01*
X-22000000Y7360761D01*
X-22000000Y7639239D01*
X-22106568Y7896518D01*
X-22303482Y8093432D01*
X-22560761Y8200000D01*
X-22839239Y8200000D01*
X-23096518Y8093432D01*
X-23239950Y7950000D01*
X-23355680Y7950000D01*
X-23400000Y7958816D01*
X-23444320Y7950000D01*
X-23444321Y7950000D01*
X-23575581Y7923891D01*
X-23724432Y7824432D01*
X-23749538Y7786857D01*
X-24936395Y6600000D01*
X-25139239Y6600000D01*
X-25396518Y6493432D01*
X-25593432Y6296518D01*
X-25700000Y6039239D01*
X-33625000Y6039239D01*
X-33625000Y10000000D01*
X-32305877Y10000000D01*
X-32305877Y9000000D01*
X-32282593Y8882946D01*
X-32216288Y8783712D01*
X-32117054Y8717407D01*
X-32000000Y8694123D01*
X-30750000Y8694123D01*
X-30750000Y8450816D01*
X-30635819Y8175159D01*
X-30424841Y7964181D01*
X-30149184Y7850000D01*
X-29850816Y7850000D01*
X-29575159Y7964181D01*
X-29364181Y8175159D01*
X-29250000Y8450816D01*
X-29250000Y8694123D01*
X-28000000Y8694123D01*
X-27882946Y8717407D01*
X-27783712Y8783712D01*
X-27717407Y8882946D01*
X-27694123Y9000000D01*
X-27694123Y9959239D01*
X-24300000Y9959239D01*
X-24300000Y9680761D01*
X-24193432Y9423482D01*
X-23996518Y9226568D01*
X-23739239Y9120000D01*
X-23460761Y9120000D01*
X-23203482Y9226568D01*
X-23110050Y9320000D01*
X-20129241Y9320000D01*
X-20080000Y9310205D01*
X-20030759Y9320000D01*
X-20030757Y9320000D01*
X-19884910Y9349011D01*
X-19719520Y9459520D01*
X-19691624Y9501270D01*
X-17981267Y11211626D01*
X-17939520Y11239520D01*
X-17829011Y11404910D01*
X-17800000Y11550757D01*
X-17800000Y11550758D01*
X-17790205Y11599999D01*
X-17800000Y11649240D01*
X-17800000Y12312836D01*
X-17710283Y12372783D01*
X-17596558Y12542984D01*
X-17556623Y12743750D01*
X-17556623Y13256250D01*
X-17596558Y13457016D01*
X-17710283Y13627217D01*
X-17743489Y13649405D01*
X-17681271Y13711623D01*
X-17639520Y13739520D01*
X-17529011Y13904910D01*
X-17500000Y14050757D01*
X-17500000Y14050758D01*
X-17490205Y14099999D01*
X-17500000Y14149241D01*
X-17500000Y14294123D01*
X-17382946Y14317407D01*
X-17283712Y14383712D01*
X-17217407Y14482946D01*
X-17194123Y14600000D01*
X-17194123Y18000000D01*
X-16805877Y18000000D01*
X-16805877Y14600000D01*
X-16782593Y14482946D01*
X-16716288Y14383712D01*
X-16617054Y14317407D01*
X-16500000Y14294123D01*
X-15859808Y14294123D01*
X-15700000Y14134314D01*
X-15700000Y13989950D01*
X-15893432Y13796518D01*
X-16000000Y13539239D01*
X-16000000Y13260761D01*
X-15893432Y13003482D01*
X-15696518Y12806568D01*
X-15439239Y12700000D01*
X-15160761Y12700000D01*
X-14903482Y12806568D01*
X-14706568Y13003482D01*
X-14601869Y13256250D01*
X-4955877Y13256250D01*
X-4955877Y12743750D01*
X-4915942Y12542984D01*
X-4802217Y12372783D01*
X-4712499Y12312835D01*
X-4712500Y10561741D01*
X-4722295Y10512500D01*
X-4712500Y10463259D01*
X-4712500Y10463258D01*
X-4683489Y10317411D01*
X-4572980Y10152020D01*
X-4531230Y10124124D01*
X-4500000Y10092894D01*
X-4500000Y9960761D01*
X-4393432Y9703482D01*
X-4196518Y9506568D01*
X-3939239Y9400000D01*
X-3660761Y9400000D01*
X-3403482Y9506568D01*
X-3206568Y9703482D01*
X-3100000Y9960761D01*
X-3100000Y10239239D01*
X-3206568Y10496518D01*
X-3403482Y10693432D01*
X-3660761Y10800000D01*
X-3712500Y10800000D01*
X-3712500Y12312836D01*
X-3622783Y12372783D01*
X-3509058Y12542984D01*
X-3469123Y12743750D01*
X-3469123Y13256250D01*
X-3509058Y13457016D01*
X-3622783Y13627217D01*
X-3700000Y13678812D01*
X-3700000Y13692894D01*
X-3681270Y13711624D01*
X-3639520Y13739520D01*
X-3529011Y13904910D01*
X-3500000Y14050757D01*
X-3500000Y14050758D01*
X-3490205Y14100000D01*
X-3500000Y14149243D01*
X-3500000Y14294123D01*
X-3382946Y14317407D01*
X-3283712Y14383712D01*
X-3217407Y14482946D01*
X-3194123Y14600000D01*
X-3194123Y18000000D01*
X-3217407Y18117054D01*
X-3283712Y18216288D01*
X-3382946Y18282593D01*
X-3500000Y18305877D01*
X-4500000Y18305877D01*
X-4617054Y18282593D01*
X-4716288Y18216288D01*
X-4782593Y18117054D01*
X-4805877Y18000000D01*
X-4805877Y14600000D01*
X-4782593Y14482946D01*
X-4716288Y14383712D01*
X-4617054Y14317407D01*
X-4510829Y14296277D01*
X-4518731Y14288375D01*
X-4560479Y14260480D01*
X-4670988Y14095090D01*
X-4694702Y13975873D01*
X-4709795Y13900000D01*
X-4700000Y13850759D01*
X-4700000Y13695516D01*
X-4802217Y13627217D01*
X-4915942Y13457016D01*
X-4955877Y13256250D01*
X-14601869Y13256250D01*
X-14600000Y13260761D01*
X-14600000Y13539239D01*
X-14706568Y13796518D01*
X-14900000Y13989950D01*
X-14900000Y14260608D01*
X-14892164Y14300001D01*
X-14900000Y14339394D01*
X-14923209Y14456072D01*
X-15011616Y14588384D01*
X-15045013Y14610698D01*
X-15194123Y14759808D01*
X-15194123Y18000000D01*
X-14805877Y18000000D01*
X-14805877Y14600000D01*
X-14782593Y14482946D01*
X-14716288Y14383712D01*
X-14617054Y14317407D01*
X-14500000Y14294123D01*
X-13759808Y14294123D01*
X-13610699Y14145013D01*
X-13588384Y14111616D01*
X-13456072Y14023209D01*
X-13339394Y14000000D01*
X-13300001Y13992164D01*
X-13260608Y14000000D01*
X-13073709Y14000000D01*
X-13034315Y13992164D01*
X-12994921Y14000000D01*
X-12878243Y14023209D01*
X-12745931Y14111616D01*
X-12723613Y14145018D01*
X-12445016Y14423614D01*
X-12411616Y14445931D01*
X-12323209Y14578243D01*
X-12300000Y14694921D01*
X-12296243Y14713807D01*
X-12106568Y14903482D01*
X-12000000Y15160761D01*
X-12000000Y15439239D01*
X-12106568Y15696518D01*
X-12303482Y15893432D01*
X-12560761Y16000000D01*
X-12839239Y16000000D01*
X-13096518Y15893432D01*
X-13194123Y15795827D01*
X-13194123Y18000000D01*
X-13217407Y18117054D01*
X-13283712Y18216288D01*
X-13382946Y18282593D01*
X-13500000Y18305877D01*
X-14500000Y18305877D01*
X-14617054Y18282593D01*
X-14716288Y18216288D01*
X-14782593Y18117054D01*
X-14805877Y18000000D01*
X-15194123Y18000000D01*
X-15217407Y18117054D01*
X-15283712Y18216288D01*
X-15382946Y18282593D01*
X-15500000Y18305877D01*
X-16500000Y18305877D01*
X-16617054Y18282593D01*
X-16716288Y18216288D01*
X-16782593Y18117054D01*
X-16805877Y18000000D01*
X-17194123Y18000000D01*
X-17217407Y18117054D01*
X-17283712Y18216288D01*
X-17382946Y18282593D01*
X-17500000Y18305877D01*
X-18500000Y18305877D01*
X-18617054Y18282593D01*
X-18716288Y18216288D01*
X-18782593Y18117054D01*
X-18805877Y18000000D01*
X-18805877Y14600000D01*
X-18782593Y14482946D01*
X-18716288Y14383712D01*
X-18617054Y14317407D01*
X-18510829Y14296277D01*
X-18618729Y14188377D01*
X-18660480Y14160480D01*
X-18770989Y13995089D01*
X-18791150Y13893733D01*
X-18809795Y13800000D01*
X-18800000Y13750758D01*
X-18800000Y13687164D01*
X-18889717Y13627217D01*
X-19003442Y13457016D01*
X-19043377Y13256250D01*
X-19043377Y12743750D01*
X-19003442Y12542984D01*
X-18889717Y12372783D01*
X-18799999Y12312836D01*
X-18800000Y11807107D01*
X-20287106Y10320000D01*
X-23110050Y10320000D01*
X-23203482Y10413432D01*
X-23460761Y10520000D01*
X-23739239Y10520000D01*
X-23996518Y10413432D01*
X-24193432Y10216518D01*
X-24300000Y9959239D01*
X-27694123Y9959239D01*
X-27694123Y10000000D01*
X-27717407Y10117054D01*
X-27783712Y10216288D01*
X-27882946Y10282593D01*
X-28000000Y10305877D01*
X-29600000Y10305877D01*
X-29717054Y10282593D01*
X-29816288Y10216288D01*
X-29882593Y10117054D01*
X-29905877Y10000000D01*
X-29905877Y9350000D01*
X-30094123Y9350000D01*
X-30094123Y10000000D01*
X-30117407Y10117054D01*
X-30183712Y10216288D01*
X-30282946Y10282593D01*
X-30400000Y10305877D01*
X-32000000Y10305877D01*
X-32117054Y10282593D01*
X-32216288Y10216288D01*
X-32282593Y10117054D01*
X-32305877Y10000000D01*
X-33625000Y10000000D01*
X-33625000Y12139239D01*
X-33400000Y12139239D01*
X-33400000Y11860761D01*
X-33293432Y11603482D01*
X-33096518Y11406568D01*
X-32839239Y11300000D01*
X-32560761Y11300000D01*
X-32303482Y11406568D01*
X-32289978Y11420072D01*
X-32282593Y11382946D01*
X-32216288Y11283712D01*
X-32117054Y11217407D01*
X-32000000Y11194123D01*
X-30400000Y11194123D01*
X-30282946Y11217407D01*
X-30183712Y11283712D01*
X-30117407Y11382946D01*
X-30094123Y11500000D01*
X-30094123Y11550000D01*
X-29905877Y11550000D01*
X-29905877Y11500000D01*
X-29882593Y11382946D01*
X-29816288Y11283712D01*
X-29717054Y11217407D01*
X-29600000Y11194123D01*
X-28000000Y11194123D01*
X-27882946Y11217407D01*
X-27783712Y11283712D01*
X-27717407Y11382946D01*
X-27694123Y11500000D01*
X-27694123Y12500000D01*
X-27717407Y12617054D01*
X-27783712Y12716288D01*
X-27882946Y12782593D01*
X-28000000Y12805877D01*
X-29600000Y12805877D01*
X-29717054Y12782593D01*
X-29816288Y12716288D01*
X-29882593Y12617054D01*
X-29905877Y12500000D01*
X-29905877Y12450000D01*
X-30094123Y12450000D01*
X-30094123Y12500000D01*
X-30117407Y12617054D01*
X-30183712Y12716288D01*
X-30282946Y12782593D01*
X-30400000Y12805877D01*
X-32000000Y12805877D01*
X-32117054Y12782593D01*
X-32216288Y12716288D01*
X-32282593Y12617054D01*
X-32289978Y12579928D01*
X-32303482Y12593432D01*
X-32560761Y12700000D01*
X-32839239Y12700000D01*
X-33096518Y12593432D01*
X-33293432Y12396518D01*
X-33400000Y12139239D01*
X-33625000Y12139239D01*
X-33625000Y15000000D01*
X-32305877Y15000000D01*
X-32305877Y14000000D01*
X-32282593Y13882946D01*
X-32216288Y13783712D01*
X-32117054Y13717407D01*
X-32000000Y13694123D01*
X-30400000Y13694123D01*
X-30282946Y13717407D01*
X-30183712Y13783712D01*
X-30117407Y13882946D01*
X-30094123Y14000000D01*
X-30094123Y14050000D01*
X-29905877Y14050000D01*
X-29905877Y14000000D01*
X-29882593Y13882946D01*
X-29816288Y13783712D01*
X-29717054Y13717407D01*
X-29600000Y13694123D01*
X-28000000Y13694123D01*
X-27882946Y13717407D01*
X-27783712Y13783712D01*
X-27717407Y13882946D01*
X-27710022Y13920072D01*
X-27696518Y13906568D01*
X-27439239Y13800000D01*
X-27160761Y13800000D01*
X-26903482Y13906568D01*
X-26706568Y14103482D01*
X-26600000Y14360761D01*
X-26600000Y14639239D01*
X-26706568Y14896518D01*
X-26903482Y15093432D01*
X-27160761Y15200000D01*
X-27439239Y15200000D01*
X-27696518Y15093432D01*
X-27710022Y15079928D01*
X-27717407Y15117054D01*
X-27783712Y15216288D01*
X-27882946Y15282593D01*
X-28000000Y15305877D01*
X-29250000Y15305877D01*
X-29250000Y15549184D01*
X-29364181Y15824841D01*
X-29575159Y16035819D01*
X-29850816Y16150000D01*
X-30149184Y16150000D01*
X-30424841Y16035819D01*
X-30635819Y15824841D01*
X-30750000Y15549184D01*
X-30750000Y15305877D01*
X-32000000Y15305877D01*
X-32117054Y15282593D01*
X-32216288Y15216288D01*
X-32282593Y15117054D01*
X-32305877Y15000000D01*
X-33625000Y15000000D01*
X-33625000Y19839239D01*
X-8300000Y19839239D01*
X-8300000Y19560761D01*
X-8193432Y19303482D01*
X-7996518Y19106568D01*
X-7739239Y19000000D01*
X-7510690Y19000000D01*
X-7506409Y18993593D01*
X-7470924Y18969883D01*
X-7365828Y18899660D01*
X-7200002Y18866675D01*
X-7158144Y18875001D01*
X-2776041Y18875001D01*
X-2425000Y18523960D01*
X-2424999Y18305877D01*
X-2500000Y18305877D01*
X-2617054Y18282593D01*
X-2716288Y18216288D01*
X-2782593Y18117054D01*
X-2805877Y18000000D01*
X-2805877Y14600000D01*
X-2782593Y14482946D01*
X-2716288Y14383712D01*
X-2617054Y14317407D01*
X-2500000Y14294123D01*
X-1500000Y14294123D01*
X-1382946Y14317407D01*
X-1283712Y14383712D01*
X-1217407Y14482946D01*
X-1194123Y14600000D01*
X-1194123Y18000000D01*
X-1217407Y18117054D01*
X-1283712Y18216288D01*
X-1382946Y18282593D01*
X-1500000Y18305877D01*
X-1575000Y18305877D01*
X-1575000Y18658143D01*
X-1566674Y18700000D01*
X-1599659Y18865827D01*
X-1605789Y18875001D01*
X-1693592Y19006408D01*
X-1729080Y19030120D01*
X-2269880Y19570920D01*
X-2293593Y19606409D01*
X-2396247Y19675000D01*
X-1676040Y19675000D01*
X-424999Y18423958D01*
X-424999Y18305877D01*
X-500000Y18305877D01*
X-617054Y18282593D01*
X-716288Y18216288D01*
X-782593Y18117054D01*
X-805877Y18000000D01*
X-805877Y14600000D01*
X-782593Y14482946D01*
X-716288Y14383712D01*
X-617054Y14317407D01*
X-500000Y14294123D01*
X500000Y14294123D01*
X617054Y14317407D01*
X716288Y14383712D01*
X782593Y14482946D01*
X805877Y14600000D01*
X805877Y18000000D01*
X782593Y18117054D01*
X716288Y18216288D01*
X617054Y18282593D01*
X500000Y18305877D01*
X425000Y18305877D01*
X425000Y18558145D01*
X433326Y18600001D01*
X425000Y18641858D01*
X400341Y18765827D01*
X306408Y18906408D01*
X270922Y18930119D01*
X-1169879Y20370919D01*
X-1193592Y20406408D01*
X-1334173Y20500341D01*
X-1458142Y20525000D01*
X-1458143Y20525000D01*
X-1500000Y20533326D01*
X-1541857Y20525000D01*
X-5735050Y20525000D01*
X-5903482Y20693432D01*
X-6160761Y20800000D01*
X-6439239Y20800000D01*
X-6696518Y20693432D01*
X-6893432Y20496518D01*
X-7000000Y20239239D01*
X-7000000Y20080661D01*
X-7006568Y20096518D01*
X-7203482Y20293432D01*
X-7460761Y20400000D01*
X-7739239Y20400000D01*
X-7996518Y20293432D01*
X-8193432Y20096518D01*
X-8300000Y19839239D01*
X-33625000Y19839239D01*
X-33625000Y22729687D01*
X-33592541Y23028477D01*
X-31900000Y23028477D01*
X-31900000Y22471523D01*
X-31686863Y21956963D01*
X-31293037Y21563137D01*
X-30778477Y21350000D01*
X-30221523Y21350000D01*
X-29706963Y21563137D01*
X-29313137Y21956963D01*
X-29100000Y22471523D01*
X-29100000Y23028477D01*
X-29313137Y23543037D01*
X-29706963Y23936863D01*
X-30221523Y24150000D01*
X-30778477Y24150000D01*
X-31293037Y23936863D01*
X-31686863Y23543037D01*
X-31900000Y23028477D01*
X-33592541Y23028477D01*
X-33549945Y23420577D01*
X-33334802Y24059861D01*
X-32987398Y24638040D01*
X-32523945Y25128127D01*
X-31966063Y25507263D01*
X-31339783Y25757757D01*
X-30659348Y25870403D01*
X-30494757Y25875000D01*
X-23178418Y25875000D01*
X-23266288Y25816288D01*
G04 #@! TD*
M02*
